M48
;DRILL file {Pcbnew (22-Jun-2014 BZR 4027)-stable} date Thu 21 Jun 2018 01:15:46 AM CDT
;FORMAT={-:-/ absolute / inch / decimal}
FMAT,2
INCH,TZ
T1C0.032
T2C0.040
T3C0.056
T4C0.108
T5C0.126
%
G90
G05
M72
T1
X6.825Y-6.2
X6.825Y-6.3
X6.825Y-6.4
X6.825Y-6.5
X6.825Y-6.6
X6.825Y-6.7
X7.125Y-6.3
X7.125Y-6.6
X7.175Y-5.975
X7.175Y-6.075
X7.175Y-6.825
X7.175Y-6.925
X7.225Y-6.2
X7.225Y-6.4
X7.225Y-6.5
X7.225Y-6.7
X7.275Y-5.5
X7.275Y-5.8
X7.325Y-6.375
X7.325Y-6.525
X7.375Y-6.175
X7.375Y-6.675
X7.375Y-6.775
X7.425Y-6.125
X7.425Y-6.225
X7.425Y-6.725
X7.45Y-6.375
X7.45Y-6.525
X7.625Y-5.625
X7.625Y-5.725
X7.625Y-5.825
X7.625Y-6.675
X7.625Y-6.775
X7.625Y-6.875
X7.625Y-6.975
X7.65Y-6.075
X7.65Y-6.575
X7.675Y-6.175
X7.675Y-6.475
X7.725Y-5.45
X7.775Y-6.075
X7.775Y-6.175
X7.775Y-6.475
X7.775Y-6.575
X7.825Y-5.45
X7.875Y-6.175
X7.875Y-6.475
X7.875Y-6.575
X7.925Y-5.45
X7.975Y-6.175
X7.975Y-6.475
X8.Y-6.575
X8.025Y-5.625
X8.025Y-5.725
X8.025Y-5.825
X8.025Y-6.675
X8.025Y-6.775
X8.025Y-6.875
X8.025Y-6.975
X8.25Y-5.625
X8.25Y-5.725
X8.25Y-5.825
X8.25Y-6.075
X8.25Y-6.675
X8.25Y-6.775
X8.25Y-6.875
X8.25Y-6.975
X8.275Y-6.575
X8.3Y-6.175
X8.3Y-6.475
X8.35Y-5.45
X8.375Y-6.075
X8.4Y-6.175
X8.4Y-6.475
X8.4Y-6.575
X8.45Y-5.45
X8.5Y-6.175
X8.5Y-6.475
X8.5Y-6.575
X8.55Y-5.45
X8.6Y-6.175
X8.6Y-6.475
X8.625Y-6.575
X8.65Y-5.625
X8.65Y-5.725
X8.65Y-5.825
X8.65Y-6.675
X8.65Y-6.775
X8.65Y-6.875
X8.65Y-6.975
X8.925Y-5.525
X8.925Y-5.65
X8.925Y-5.75
X8.925Y-5.875
X8.925Y-6.45
X8.925Y-6.575
X9.025Y-5.475
X9.025Y-5.875
X9.025Y-5.975
X9.025Y-6.275
X9.025Y-6.375
X9.025Y-6.775
X9.125Y-5.475
X9.125Y-5.875
X9.125Y-5.975
X9.125Y-6.275
X9.125Y-6.375
X9.125Y-6.775
X9.225Y-5.475
X9.225Y-5.875
X9.225Y-5.975
X9.225Y-6.275
X9.225Y-6.375
X9.225Y-6.775
X9.325Y-5.475
X9.325Y-5.875
X9.325Y-5.975
X9.325Y-6.275
X9.325Y-6.375
X9.325Y-6.775
X9.425Y-6.375
X9.425Y-6.5
X9.525Y-5.675
X9.525Y-5.8
X9.525Y-6.65
X9.525Y-6.775
X9.625Y-5.475
X9.625Y-5.875
X9.625Y-6.375
X9.625Y-6.775
X9.725Y-5.475
X9.725Y-5.875
X9.725Y-5.975
X9.725Y-6.275
X9.725Y-6.375
X9.725Y-6.775
X9.825Y-5.475
X9.825Y-5.875
X9.825Y-5.975
X9.825Y-6.275
X9.825Y-6.375
X9.825Y-6.775
X9.925Y-5.475
X9.925Y-5.875
X9.925Y-5.975
X9.925Y-6.275
X9.925Y-6.375
X9.925Y-6.775
X10.025Y-5.75
X10.025Y-5.875
X10.025Y-5.975
X10.025Y-6.275
X10.025Y-6.375
X10.025Y-6.5
X10.125Y-5.475
X10.125Y-5.875
X10.125Y-5.975
X10.125Y-6.275
X10.125Y-6.375
X10.125Y-6.775
X10.225Y-5.475
X10.225Y-5.875
X10.225Y-5.975
X10.225Y-6.275
X10.225Y-6.375
X10.225Y-6.775
X10.325Y-5.475
X10.325Y-5.875
X10.325Y-5.975
X10.325Y-6.275
X10.325Y-6.375
X10.325Y-6.775
X10.425Y-5.475
X10.425Y-5.875
X10.425Y-6.375
X10.425Y-6.775
X10.525Y-5.675
X10.525Y-5.8
X10.525Y-6.45
X10.525Y-6.575
T2
X6.8Y-5.95
X6.8Y-6.05
X7.65Y-5.95
X7.75Y-5.95
X7.9Y-5.95
X8.Y-5.95
X8.275Y-5.95
X8.375Y-5.95
X8.525Y-5.95
X8.625Y-5.95
T3
X7.35Y-7.025
X7.675Y-5.275
X7.825Y-5.275
X7.975Y-5.275
X8.1Y-6.325
X8.3Y-5.275
X8.45Y-5.275
X8.6Y-5.275
X8.725Y-6.325
X8.9Y-6.05
X8.9Y-6.2
X9.6Y-6.05
X9.6Y-6.2
X10.45Y-6.05
X10.45Y-6.2
T4
X6.89Y-5.65
X7.005Y-5.835
X7.125Y-5.65
T5
X6.875Y-5.275
X6.875Y-6.975
X10.55Y-5.275
X10.55Y-6.975
T0
M30
