G04 (created by PCBNEW (22-Jun-2014 BZR 4027)-stable) date Thu 21 Jun 2018 01:15:43 AM CDT*
%MOIN*%
G04 Gerber Fmt 3.4, Leading zero omitted, Abs format*
%FSLAX34Y34*%
G01*
G70*
G90*
G04 APERTURE LIST*
%ADD10C,0.00393701*%
%ADD11C,0.006*%
%ADD12C,0.01*%
%ADD13C,0.007*%
%ADD14C,0.008*%
%ADD15C,0.016*%
%ADD16C,0.00590551*%
%ADD17C,0.0001*%
%ADD18C,0.005*%
G04 APERTURE END LIST*
G54D10*
G54D11*
X75821Y-53114D02*
X75821Y-52942D01*
X76121Y-53028D02*
X75821Y-53028D01*
X76035Y-52857D02*
X76035Y-52714D01*
X76121Y-52885D02*
X75821Y-52785D01*
X76121Y-52685D01*
X76121Y-52585D02*
X75821Y-52585D01*
X75821Y-52471D01*
X75835Y-52442D01*
X75850Y-52428D01*
X75878Y-52414D01*
X75921Y-52414D01*
X75950Y-52428D01*
X75964Y-52442D01*
X75978Y-52471D01*
X75978Y-52585D01*
X83571Y-53114D02*
X83571Y-52942D01*
X83871Y-53028D02*
X83571Y-53028D01*
X83785Y-52857D02*
X83785Y-52714D01*
X83871Y-52885D02*
X83571Y-52785D01*
X83871Y-52685D01*
X83871Y-52585D02*
X83571Y-52585D01*
X83571Y-52471D01*
X83585Y-52442D01*
X83600Y-52428D01*
X83628Y-52414D01*
X83671Y-52414D01*
X83700Y-52428D01*
X83714Y-52442D01*
X83728Y-52471D01*
X83728Y-52585D01*
X82371Y-53199D02*
X82071Y-53199D01*
X82071Y-53085D01*
X82085Y-53057D01*
X82100Y-53042D01*
X82128Y-53028D01*
X82171Y-53028D01*
X82200Y-53042D01*
X82214Y-53057D01*
X82228Y-53085D01*
X82228Y-53199D01*
X82371Y-52899D02*
X82071Y-52899D01*
X82371Y-52757D02*
X82071Y-52757D01*
X82371Y-52585D01*
X82071Y-52585D01*
X82200Y-52399D02*
X82185Y-52428D01*
X82171Y-52442D01*
X82142Y-52457D01*
X82128Y-52457D01*
X82100Y-52442D01*
X82085Y-52428D01*
X82071Y-52399D01*
X82071Y-52342D01*
X82085Y-52314D01*
X82100Y-52299D01*
X82128Y-52285D01*
X82142Y-52285D01*
X82171Y-52299D01*
X82185Y-52314D01*
X82200Y-52342D01*
X82200Y-52399D01*
X82214Y-52428D01*
X82228Y-52442D01*
X82257Y-52457D01*
X82314Y-52457D01*
X82342Y-52442D01*
X82357Y-52428D01*
X82371Y-52399D01*
X82371Y-52342D01*
X82357Y-52314D01*
X82342Y-52299D01*
X82314Y-52285D01*
X82257Y-52285D01*
X82228Y-52299D01*
X82214Y-52314D01*
X82200Y-52342D01*
X85371Y-53199D02*
X85071Y-53199D01*
X85071Y-53085D01*
X85085Y-53057D01*
X85100Y-53042D01*
X85128Y-53028D01*
X85171Y-53028D01*
X85200Y-53042D01*
X85214Y-53057D01*
X85228Y-53085D01*
X85228Y-53199D01*
X85371Y-52899D02*
X85071Y-52899D01*
X85371Y-52757D02*
X85071Y-52757D01*
X85371Y-52585D01*
X85071Y-52585D01*
X85371Y-52285D02*
X85371Y-52457D01*
X85371Y-52371D02*
X85071Y-52371D01*
X85114Y-52399D01*
X85142Y-52428D01*
X85157Y-52457D01*
X79121Y-53199D02*
X78821Y-53199D01*
X78821Y-53085D01*
X78835Y-53057D01*
X78850Y-53042D01*
X78878Y-53028D01*
X78921Y-53028D01*
X78950Y-53042D01*
X78964Y-53057D01*
X78978Y-53085D01*
X78978Y-53199D01*
X79121Y-52899D02*
X78821Y-52899D01*
X79121Y-52757D02*
X78821Y-52757D01*
X79121Y-52585D01*
X78821Y-52585D01*
X78821Y-52299D02*
X78821Y-52442D01*
X78964Y-52457D01*
X78950Y-52442D01*
X78935Y-52414D01*
X78935Y-52342D01*
X78950Y-52314D01*
X78964Y-52299D01*
X78992Y-52285D01*
X79064Y-52285D01*
X79092Y-52299D01*
X79107Y-52314D01*
X79121Y-52342D01*
X79121Y-52414D01*
X79107Y-52442D01*
X79092Y-52457D01*
X77621Y-53199D02*
X77321Y-53199D01*
X77321Y-53085D01*
X77335Y-53057D01*
X77350Y-53042D01*
X77378Y-53028D01*
X77421Y-53028D01*
X77450Y-53042D01*
X77464Y-53057D01*
X77478Y-53085D01*
X77478Y-53199D01*
X77621Y-52899D02*
X77321Y-52899D01*
X77621Y-52757D02*
X77321Y-52757D01*
X77621Y-52585D01*
X77321Y-52585D01*
X77621Y-52285D02*
X77621Y-52457D01*
X77621Y-52371D02*
X77321Y-52371D01*
X77364Y-52399D01*
X77392Y-52428D01*
X77407Y-52457D01*
X105428Y-60000D02*
X105128Y-60100D01*
X105428Y-60200D01*
X105128Y-60342D02*
X105142Y-60314D01*
X105157Y-60300D01*
X105185Y-60285D01*
X105271Y-60285D01*
X105300Y-60300D01*
X105314Y-60314D01*
X105328Y-60342D01*
X105328Y-60385D01*
X105314Y-60414D01*
X105300Y-60428D01*
X105271Y-60442D01*
X105185Y-60442D01*
X105157Y-60428D01*
X105142Y-60414D01*
X105128Y-60385D01*
X105128Y-60342D01*
X105142Y-60557D02*
X105128Y-60585D01*
X105128Y-60642D01*
X105142Y-60671D01*
X105171Y-60685D01*
X105185Y-60685D01*
X105214Y-60671D01*
X105228Y-60642D01*
X105228Y-60600D01*
X105242Y-60571D01*
X105271Y-60557D01*
X105285Y-60557D01*
X105314Y-60571D01*
X105328Y-60600D01*
X105328Y-60642D01*
X105314Y-60671D01*
X105428Y-60785D02*
X105428Y-60971D01*
X105314Y-60871D01*
X105314Y-60914D01*
X105300Y-60942D01*
X105285Y-60957D01*
X105257Y-60971D01*
X105185Y-60971D01*
X105157Y-60957D01*
X105142Y-60942D01*
X105128Y-60914D01*
X105128Y-60828D01*
X105142Y-60800D01*
X105157Y-60785D01*
X105428Y-61500D02*
X105128Y-61600D01*
X105428Y-61700D01*
X105128Y-61842D02*
X105142Y-61814D01*
X105157Y-61800D01*
X105185Y-61785D01*
X105271Y-61785D01*
X105300Y-61800D01*
X105314Y-61814D01*
X105328Y-61842D01*
X105328Y-61885D01*
X105314Y-61914D01*
X105300Y-61928D01*
X105271Y-61942D01*
X105185Y-61942D01*
X105157Y-61928D01*
X105142Y-61914D01*
X105128Y-61885D01*
X105128Y-61842D01*
X105142Y-62057D02*
X105128Y-62085D01*
X105128Y-62142D01*
X105142Y-62171D01*
X105171Y-62185D01*
X105185Y-62185D01*
X105214Y-62171D01*
X105228Y-62142D01*
X105228Y-62100D01*
X105242Y-62071D01*
X105271Y-62057D01*
X105285Y-62057D01*
X105314Y-62071D01*
X105328Y-62100D01*
X105328Y-62142D01*
X105314Y-62171D01*
X105400Y-62300D02*
X105414Y-62314D01*
X105428Y-62342D01*
X105428Y-62414D01*
X105414Y-62442D01*
X105400Y-62457D01*
X105371Y-62471D01*
X105342Y-62471D01*
X105300Y-62457D01*
X105128Y-62285D01*
X105128Y-62471D01*
X95071Y-61000D02*
X95371Y-60900D01*
X95071Y-60800D01*
X95371Y-60657D02*
X95357Y-60685D01*
X95342Y-60699D01*
X95314Y-60714D01*
X95228Y-60714D01*
X95200Y-60699D01*
X95185Y-60685D01*
X95171Y-60657D01*
X95171Y-60614D01*
X95185Y-60585D01*
X95200Y-60571D01*
X95228Y-60557D01*
X95314Y-60557D01*
X95342Y-60571D01*
X95357Y-60585D01*
X95371Y-60614D01*
X95371Y-60657D01*
X95357Y-60442D02*
X95371Y-60414D01*
X95371Y-60357D01*
X95357Y-60328D01*
X95328Y-60314D01*
X95314Y-60314D01*
X95285Y-60328D01*
X95271Y-60357D01*
X95271Y-60399D01*
X95257Y-60428D01*
X95228Y-60442D01*
X95214Y-60442D01*
X95185Y-60428D01*
X95171Y-60399D01*
X95171Y-60357D01*
X95185Y-60328D01*
X95171Y-60057D02*
X95371Y-60057D01*
X95057Y-60128D02*
X95271Y-60199D01*
X95271Y-60014D01*
X95071Y-62500D02*
X95371Y-62400D01*
X95071Y-62300D01*
X95371Y-62157D02*
X95357Y-62185D01*
X95342Y-62199D01*
X95314Y-62214D01*
X95228Y-62214D01*
X95200Y-62199D01*
X95185Y-62185D01*
X95171Y-62157D01*
X95171Y-62114D01*
X95185Y-62085D01*
X95200Y-62071D01*
X95228Y-62057D01*
X95314Y-62057D01*
X95342Y-62071D01*
X95357Y-62085D01*
X95371Y-62114D01*
X95371Y-62157D01*
X95357Y-61942D02*
X95371Y-61914D01*
X95371Y-61857D01*
X95357Y-61828D01*
X95328Y-61814D01*
X95314Y-61814D01*
X95285Y-61828D01*
X95271Y-61857D01*
X95271Y-61899D01*
X95257Y-61928D01*
X95228Y-61942D01*
X95214Y-61942D01*
X95185Y-61928D01*
X95171Y-61899D01*
X95171Y-61857D01*
X95185Y-61828D01*
X95371Y-61528D02*
X95371Y-61699D01*
X95371Y-61614D02*
X95071Y-61614D01*
X95114Y-61642D01*
X95142Y-61671D01*
X95157Y-61699D01*
X81928Y-62892D02*
X81628Y-62992D01*
X81928Y-63092D01*
X81628Y-63235D02*
X81642Y-63207D01*
X81657Y-63192D01*
X81685Y-63178D01*
X81771Y-63178D01*
X81800Y-63192D01*
X81814Y-63207D01*
X81828Y-63235D01*
X81828Y-63278D01*
X81814Y-63307D01*
X81800Y-63321D01*
X81771Y-63335D01*
X81685Y-63335D01*
X81657Y-63321D01*
X81642Y-63307D01*
X81628Y-63278D01*
X81628Y-63235D01*
X81642Y-63450D02*
X81628Y-63478D01*
X81628Y-63535D01*
X81642Y-63564D01*
X81671Y-63578D01*
X81685Y-63578D01*
X81714Y-63564D01*
X81728Y-63535D01*
X81728Y-63492D01*
X81742Y-63464D01*
X81771Y-63450D01*
X81785Y-63450D01*
X81814Y-63464D01*
X81828Y-63492D01*
X81828Y-63535D01*
X81814Y-63564D01*
X88178Y-62892D02*
X87878Y-62992D01*
X88178Y-63092D01*
X87878Y-63235D02*
X87892Y-63207D01*
X87907Y-63192D01*
X87935Y-63178D01*
X88021Y-63178D01*
X88050Y-63192D01*
X88064Y-63207D01*
X88078Y-63235D01*
X88078Y-63278D01*
X88064Y-63307D01*
X88050Y-63321D01*
X88021Y-63335D01*
X87935Y-63335D01*
X87907Y-63321D01*
X87892Y-63307D01*
X87878Y-63278D01*
X87878Y-63235D01*
X87892Y-63450D02*
X87878Y-63478D01*
X87878Y-63535D01*
X87892Y-63564D01*
X87921Y-63578D01*
X87935Y-63578D01*
X87964Y-63564D01*
X87978Y-63535D01*
X87978Y-63492D01*
X87992Y-63464D01*
X88021Y-63450D01*
X88035Y-63450D01*
X88064Y-63464D01*
X88078Y-63492D01*
X88078Y-63535D01*
X88064Y-63564D01*
X88071Y-62500D02*
X88371Y-62400D01*
X88071Y-62300D01*
X88371Y-62157D02*
X88357Y-62185D01*
X88342Y-62199D01*
X88314Y-62214D01*
X88228Y-62214D01*
X88200Y-62199D01*
X88185Y-62185D01*
X88171Y-62157D01*
X88171Y-62114D01*
X88185Y-62085D01*
X88200Y-62071D01*
X88228Y-62057D01*
X88314Y-62057D01*
X88342Y-62071D01*
X88357Y-62085D01*
X88371Y-62114D01*
X88371Y-62157D01*
X88357Y-61942D02*
X88371Y-61914D01*
X88371Y-61857D01*
X88357Y-61828D01*
X88328Y-61814D01*
X88314Y-61814D01*
X88285Y-61828D01*
X88271Y-61857D01*
X88271Y-61899D01*
X88257Y-61928D01*
X88228Y-61942D01*
X88214Y-61942D01*
X88185Y-61928D01*
X88171Y-61899D01*
X88171Y-61857D01*
X88185Y-61828D01*
X88371Y-61528D02*
X88371Y-61699D01*
X88371Y-61614D02*
X88071Y-61614D01*
X88114Y-61642D01*
X88142Y-61671D01*
X88157Y-61699D01*
X88071Y-61000D02*
X88371Y-60900D01*
X88071Y-60800D01*
X88371Y-60657D02*
X88357Y-60685D01*
X88342Y-60699D01*
X88314Y-60714D01*
X88228Y-60714D01*
X88200Y-60699D01*
X88185Y-60685D01*
X88171Y-60657D01*
X88171Y-60614D01*
X88185Y-60585D01*
X88200Y-60571D01*
X88228Y-60557D01*
X88314Y-60557D01*
X88342Y-60571D01*
X88357Y-60585D01*
X88371Y-60614D01*
X88371Y-60657D01*
X88357Y-60442D02*
X88371Y-60414D01*
X88371Y-60357D01*
X88357Y-60328D01*
X88328Y-60314D01*
X88314Y-60314D01*
X88285Y-60328D01*
X88271Y-60357D01*
X88271Y-60399D01*
X88257Y-60428D01*
X88228Y-60442D01*
X88214Y-60442D01*
X88185Y-60428D01*
X88171Y-60399D01*
X88171Y-60357D01*
X88185Y-60328D01*
X88100Y-60199D02*
X88085Y-60185D01*
X88071Y-60157D01*
X88071Y-60085D01*
X88085Y-60057D01*
X88100Y-60042D01*
X88128Y-60028D01*
X88157Y-60028D01*
X88200Y-60042D01*
X88371Y-60214D01*
X88371Y-60028D01*
X99614Y-61321D02*
X99785Y-61321D01*
X99700Y-61621D02*
X99700Y-61321D01*
X100028Y-61621D02*
X99885Y-61621D01*
X99885Y-61321D01*
X100185Y-61321D02*
X100214Y-61321D01*
X100242Y-61335D01*
X100257Y-61350D01*
X100271Y-61378D01*
X100285Y-61435D01*
X100285Y-61507D01*
X100271Y-61564D01*
X100257Y-61592D01*
X100242Y-61607D01*
X100214Y-61621D01*
X100185Y-61621D01*
X100157Y-61607D01*
X100142Y-61592D01*
X100128Y-61564D01*
X100114Y-61507D01*
X100114Y-61435D01*
X100128Y-61378D01*
X100142Y-61350D01*
X100157Y-61335D01*
X100185Y-61321D01*
X100542Y-61321D02*
X100485Y-61321D01*
X100457Y-61335D01*
X100442Y-61350D01*
X100414Y-61392D01*
X100400Y-61450D01*
X100400Y-61564D01*
X100414Y-61592D01*
X100428Y-61607D01*
X100457Y-61621D01*
X100514Y-61621D01*
X100542Y-61607D01*
X100557Y-61592D01*
X100571Y-61564D01*
X100571Y-61492D01*
X100557Y-61464D01*
X100542Y-61450D01*
X100514Y-61435D01*
X100457Y-61435D01*
X100428Y-61450D01*
X100414Y-61464D01*
X100400Y-61492D01*
X100828Y-61421D02*
X100828Y-61621D01*
X100757Y-61307D02*
X100685Y-61521D01*
X100871Y-61521D01*
X91457Y-61871D02*
X91457Y-61571D01*
X91628Y-61871D01*
X91628Y-61571D01*
X91771Y-61714D02*
X91871Y-61714D01*
X91914Y-61871D02*
X91771Y-61871D01*
X91771Y-61571D01*
X91914Y-61571D01*
X92185Y-61571D02*
X92042Y-61571D01*
X92028Y-61714D01*
X92042Y-61700D01*
X92071Y-61685D01*
X92142Y-61685D01*
X92171Y-61700D01*
X92185Y-61714D01*
X92200Y-61742D01*
X92200Y-61814D01*
X92185Y-61842D01*
X92171Y-61857D01*
X92142Y-61871D01*
X92071Y-61871D01*
X92042Y-61857D01*
X92028Y-61842D01*
X92471Y-61571D02*
X92328Y-61571D01*
X92314Y-61714D01*
X92328Y-61700D01*
X92357Y-61685D01*
X92428Y-61685D01*
X92457Y-61700D01*
X92471Y-61714D01*
X92485Y-61742D01*
X92485Y-61814D01*
X92471Y-61842D01*
X92457Y-61857D01*
X92428Y-61871D01*
X92357Y-61871D01*
X92328Y-61857D01*
X92314Y-61842D01*
X92585Y-61571D02*
X92771Y-61571D01*
X92671Y-61685D01*
X92714Y-61685D01*
X92742Y-61700D01*
X92757Y-61714D01*
X92771Y-61742D01*
X92771Y-61814D01*
X92757Y-61842D01*
X92742Y-61857D01*
X92714Y-61871D01*
X92628Y-61871D01*
X92600Y-61857D01*
X92585Y-61842D01*
X92885Y-61600D02*
X92900Y-61585D01*
X92928Y-61571D01*
X93000Y-61571D01*
X93028Y-61585D01*
X93042Y-61600D01*
X93057Y-61628D01*
X93057Y-61657D01*
X93042Y-61700D01*
X92871Y-61871D01*
X93057Y-61871D01*
X91614Y-61071D02*
X91785Y-61071D01*
X91700Y-61371D02*
X91700Y-61071D01*
X92028Y-61371D02*
X91885Y-61371D01*
X91885Y-61071D01*
X92185Y-61071D02*
X92214Y-61071D01*
X92242Y-61085D01*
X92257Y-61100D01*
X92271Y-61128D01*
X92285Y-61185D01*
X92285Y-61257D01*
X92271Y-61314D01*
X92257Y-61342D01*
X92242Y-61357D01*
X92214Y-61371D01*
X92185Y-61371D01*
X92157Y-61357D01*
X92142Y-61342D01*
X92128Y-61314D01*
X92114Y-61257D01*
X92114Y-61185D01*
X92128Y-61128D01*
X92142Y-61100D01*
X92157Y-61085D01*
X92185Y-61071D01*
X92542Y-61071D02*
X92485Y-61071D01*
X92457Y-61085D01*
X92442Y-61100D01*
X92414Y-61142D01*
X92400Y-61200D01*
X92400Y-61314D01*
X92414Y-61342D01*
X92428Y-61357D01*
X92457Y-61371D01*
X92514Y-61371D01*
X92542Y-61357D01*
X92557Y-61342D01*
X92571Y-61314D01*
X92571Y-61242D01*
X92557Y-61214D01*
X92542Y-61200D01*
X92514Y-61185D01*
X92457Y-61185D01*
X92428Y-61200D01*
X92414Y-61214D01*
X92400Y-61242D01*
X92685Y-61100D02*
X92700Y-61085D01*
X92728Y-61071D01*
X92800Y-61071D01*
X92828Y-61085D01*
X92842Y-61100D01*
X92857Y-61128D01*
X92857Y-61157D01*
X92842Y-61200D01*
X92671Y-61371D01*
X92857Y-61371D01*
X84207Y-63871D02*
X84207Y-63571D01*
X84378Y-63871D01*
X84378Y-63571D01*
X84521Y-63714D02*
X84621Y-63714D01*
X84664Y-63871D02*
X84521Y-63871D01*
X84521Y-63571D01*
X84664Y-63571D01*
X84935Y-63571D02*
X84792Y-63571D01*
X84778Y-63714D01*
X84792Y-63700D01*
X84821Y-63685D01*
X84892Y-63685D01*
X84921Y-63700D01*
X84935Y-63714D01*
X84950Y-63742D01*
X84950Y-63814D01*
X84935Y-63842D01*
X84921Y-63857D01*
X84892Y-63871D01*
X84821Y-63871D01*
X84792Y-63857D01*
X84778Y-63842D01*
X85221Y-63571D02*
X85078Y-63571D01*
X85064Y-63714D01*
X85078Y-63700D01*
X85107Y-63685D01*
X85178Y-63685D01*
X85207Y-63700D01*
X85221Y-63714D01*
X85235Y-63742D01*
X85235Y-63814D01*
X85221Y-63842D01*
X85207Y-63857D01*
X85178Y-63871D01*
X85107Y-63871D01*
X85078Y-63857D01*
X85064Y-63842D01*
X85335Y-63571D02*
X85521Y-63571D01*
X85421Y-63685D01*
X85464Y-63685D01*
X85492Y-63700D01*
X85507Y-63714D01*
X85521Y-63742D01*
X85521Y-63814D01*
X85507Y-63842D01*
X85492Y-63857D01*
X85464Y-63871D01*
X85378Y-63871D01*
X85350Y-63857D01*
X85335Y-63842D01*
X85778Y-63671D02*
X85778Y-63871D01*
X85707Y-63557D02*
X85635Y-63771D01*
X85821Y-63771D01*
X84407Y-63371D02*
X84264Y-63371D01*
X84264Y-63071D01*
X84464Y-63071D02*
X84635Y-63071D01*
X84550Y-63371D02*
X84550Y-63071D01*
X84892Y-63371D02*
X84721Y-63371D01*
X84807Y-63371D02*
X84807Y-63071D01*
X84778Y-63114D01*
X84750Y-63142D01*
X84721Y-63157D01*
X85078Y-63071D02*
X85107Y-63071D01*
X85135Y-63085D01*
X85150Y-63100D01*
X85164Y-63128D01*
X85178Y-63185D01*
X85178Y-63257D01*
X85164Y-63314D01*
X85150Y-63342D01*
X85135Y-63357D01*
X85107Y-63371D01*
X85078Y-63371D01*
X85050Y-63357D01*
X85035Y-63342D01*
X85021Y-63314D01*
X85007Y-63257D01*
X85007Y-63185D01*
X85021Y-63128D01*
X85035Y-63100D01*
X85050Y-63085D01*
X85078Y-63071D01*
X85364Y-63071D02*
X85392Y-63071D01*
X85421Y-63085D01*
X85435Y-63100D01*
X85450Y-63128D01*
X85464Y-63185D01*
X85464Y-63257D01*
X85450Y-63314D01*
X85435Y-63342D01*
X85421Y-63357D01*
X85392Y-63371D01*
X85364Y-63371D01*
X85335Y-63357D01*
X85321Y-63342D01*
X85307Y-63314D01*
X85292Y-63257D01*
X85292Y-63185D01*
X85307Y-63128D01*
X85321Y-63100D01*
X85335Y-63085D01*
X85364Y-63071D01*
X85749Y-63371D02*
X85578Y-63371D01*
X85664Y-63371D02*
X85664Y-63071D01*
X85635Y-63114D01*
X85607Y-63142D01*
X85578Y-63157D01*
X78114Y-63321D02*
X78285Y-63321D01*
X78200Y-63621D02*
X78200Y-63321D01*
X78528Y-63621D02*
X78385Y-63621D01*
X78385Y-63321D01*
X78685Y-63321D02*
X78714Y-63321D01*
X78742Y-63335D01*
X78757Y-63350D01*
X78771Y-63378D01*
X78785Y-63435D01*
X78785Y-63507D01*
X78771Y-63564D01*
X78757Y-63592D01*
X78742Y-63607D01*
X78714Y-63621D01*
X78685Y-63621D01*
X78657Y-63607D01*
X78642Y-63592D01*
X78628Y-63564D01*
X78614Y-63507D01*
X78614Y-63435D01*
X78628Y-63378D01*
X78642Y-63350D01*
X78657Y-63335D01*
X78685Y-63321D01*
X79042Y-63321D02*
X78985Y-63321D01*
X78957Y-63335D01*
X78942Y-63350D01*
X78914Y-63392D01*
X78900Y-63450D01*
X78900Y-63564D01*
X78914Y-63592D01*
X78928Y-63607D01*
X78957Y-63621D01*
X79014Y-63621D01*
X79042Y-63607D01*
X79057Y-63592D01*
X79071Y-63564D01*
X79071Y-63492D01*
X79057Y-63464D01*
X79042Y-63450D01*
X79014Y-63435D01*
X78957Y-63435D01*
X78928Y-63450D01*
X78914Y-63464D01*
X78900Y-63492D01*
X79357Y-63621D02*
X79185Y-63621D01*
X79271Y-63621D02*
X79271Y-63321D01*
X79242Y-63364D01*
X79214Y-63392D01*
X79185Y-63407D01*
G54D12*
X68797Y-60202D02*
X68964Y-60702D01*
X69130Y-60202D01*
X69488Y-60678D02*
X69440Y-60702D01*
X69345Y-60702D01*
X69297Y-60678D01*
X69273Y-60630D01*
X69273Y-60440D01*
X69297Y-60392D01*
X69345Y-60369D01*
X69440Y-60369D01*
X69488Y-60392D01*
X69511Y-60440D01*
X69511Y-60488D01*
X69273Y-60535D01*
X69916Y-60678D02*
X69869Y-60702D01*
X69773Y-60702D01*
X69726Y-60678D01*
X69702Y-60630D01*
X69702Y-60440D01*
X69726Y-60392D01*
X69773Y-60369D01*
X69869Y-60369D01*
X69916Y-60392D01*
X69940Y-60440D01*
X69940Y-60488D01*
X69702Y-60535D01*
G54D13*
X88833Y-53891D02*
X88833Y-53541D01*
X88983Y-53891D02*
X88983Y-53708D01*
X88966Y-53675D01*
X88933Y-53658D01*
X88883Y-53658D01*
X88850Y-53675D01*
X88833Y-53691D01*
X89100Y-53658D02*
X89233Y-53658D01*
X89150Y-53541D02*
X89150Y-53841D01*
X89166Y-53875D01*
X89200Y-53891D01*
X89233Y-53891D01*
X89300Y-53658D02*
X89433Y-53658D01*
X89350Y-53541D02*
X89350Y-53841D01*
X89366Y-53875D01*
X89400Y-53891D01*
X89433Y-53891D01*
X89550Y-53658D02*
X89550Y-54008D01*
X89550Y-53675D02*
X89583Y-53658D01*
X89650Y-53658D01*
X89683Y-53675D01*
X89700Y-53691D01*
X89716Y-53725D01*
X89716Y-53825D01*
X89700Y-53858D01*
X89683Y-53875D01*
X89650Y-53891D01*
X89583Y-53891D01*
X89550Y-53875D01*
X89849Y-53875D02*
X89883Y-53891D01*
X89949Y-53891D01*
X89983Y-53875D01*
X89999Y-53841D01*
X89999Y-53825D01*
X89983Y-53791D01*
X89949Y-53775D01*
X89899Y-53775D01*
X89866Y-53758D01*
X89849Y-53725D01*
X89849Y-53708D01*
X89866Y-53675D01*
X89899Y-53658D01*
X89949Y-53658D01*
X89983Y-53675D01*
X90150Y-53858D02*
X90166Y-53875D01*
X90150Y-53891D01*
X90133Y-53875D01*
X90150Y-53858D01*
X90150Y-53891D01*
X90150Y-53675D02*
X90166Y-53691D01*
X90150Y-53708D01*
X90133Y-53691D01*
X90150Y-53675D01*
X90150Y-53708D01*
X90566Y-53525D02*
X90266Y-53975D01*
X90933Y-53525D02*
X90633Y-53975D01*
X91016Y-53658D02*
X91083Y-53891D01*
X91149Y-53725D01*
X91216Y-53891D01*
X91283Y-53658D01*
X91383Y-53658D02*
X91449Y-53891D01*
X91516Y-53725D01*
X91583Y-53891D01*
X91649Y-53658D01*
X91749Y-53658D02*
X91816Y-53891D01*
X91883Y-53725D01*
X91949Y-53891D01*
X92016Y-53658D01*
X92149Y-53858D02*
X92166Y-53875D01*
X92149Y-53891D01*
X92133Y-53875D01*
X92149Y-53858D01*
X92149Y-53891D01*
X92466Y-53658D02*
X92466Y-53941D01*
X92449Y-53975D01*
X92433Y-53991D01*
X92399Y-54008D01*
X92349Y-54008D01*
X92316Y-53991D01*
X92466Y-53875D02*
X92433Y-53891D01*
X92366Y-53891D01*
X92333Y-53875D01*
X92316Y-53858D01*
X92299Y-53825D01*
X92299Y-53725D01*
X92316Y-53691D01*
X92333Y-53675D01*
X92366Y-53658D01*
X92433Y-53658D01*
X92466Y-53675D01*
X92633Y-53891D02*
X92633Y-53658D01*
X92633Y-53541D02*
X92616Y-53558D01*
X92633Y-53575D01*
X92649Y-53558D01*
X92633Y-53541D01*
X92633Y-53575D01*
X92749Y-53658D02*
X92883Y-53658D01*
X92799Y-53541D02*
X92799Y-53841D01*
X92816Y-53875D01*
X92849Y-53891D01*
X92883Y-53891D01*
X92999Y-53891D02*
X92999Y-53541D01*
X93149Y-53891D02*
X93149Y-53708D01*
X93133Y-53675D01*
X93099Y-53658D01*
X93049Y-53658D01*
X93016Y-53675D01*
X92999Y-53691D01*
X93466Y-53658D02*
X93466Y-53891D01*
X93316Y-53658D02*
X93316Y-53841D01*
X93333Y-53875D01*
X93366Y-53891D01*
X93416Y-53891D01*
X93449Y-53875D01*
X93466Y-53858D01*
X93633Y-53891D02*
X93633Y-53541D01*
X93633Y-53675D02*
X93666Y-53658D01*
X93733Y-53658D01*
X93766Y-53675D01*
X93783Y-53691D01*
X93799Y-53725D01*
X93799Y-53825D01*
X93783Y-53858D01*
X93766Y-53875D01*
X93733Y-53891D01*
X93666Y-53891D01*
X93633Y-53875D01*
X93949Y-53858D02*
X93966Y-53875D01*
X93949Y-53891D01*
X93933Y-53875D01*
X93949Y-53858D01*
X93949Y-53891D01*
X94266Y-53875D02*
X94233Y-53891D01*
X94166Y-53891D01*
X94133Y-53875D01*
X94116Y-53858D01*
X94099Y-53825D01*
X94099Y-53725D01*
X94116Y-53691D01*
X94133Y-53675D01*
X94166Y-53658D01*
X94233Y-53658D01*
X94266Y-53675D01*
X94466Y-53891D02*
X94433Y-53875D01*
X94416Y-53858D01*
X94399Y-53825D01*
X94399Y-53725D01*
X94416Y-53691D01*
X94433Y-53675D01*
X94466Y-53658D01*
X94516Y-53658D01*
X94549Y-53675D01*
X94566Y-53691D01*
X94583Y-53725D01*
X94583Y-53825D01*
X94566Y-53858D01*
X94549Y-53875D01*
X94516Y-53891D01*
X94466Y-53891D01*
X94733Y-53891D02*
X94733Y-53658D01*
X94733Y-53691D02*
X94749Y-53675D01*
X94783Y-53658D01*
X94833Y-53658D01*
X94866Y-53675D01*
X94883Y-53708D01*
X94883Y-53891D01*
X94883Y-53708D02*
X94899Y-53675D01*
X94933Y-53658D01*
X94983Y-53658D01*
X95016Y-53675D01*
X95033Y-53708D01*
X95033Y-53891D01*
X95449Y-53525D02*
X95149Y-53975D01*
X95566Y-53658D02*
X95566Y-54008D01*
X95566Y-53675D02*
X95599Y-53658D01*
X95666Y-53658D01*
X95699Y-53675D01*
X95716Y-53691D01*
X95733Y-53725D01*
X95733Y-53825D01*
X95716Y-53858D01*
X95699Y-53875D01*
X95666Y-53891D01*
X95599Y-53891D01*
X95566Y-53875D01*
X96016Y-53875D02*
X95983Y-53891D01*
X95916Y-53891D01*
X95883Y-53875D01*
X95866Y-53841D01*
X95866Y-53708D01*
X95883Y-53675D01*
X95916Y-53658D01*
X95983Y-53658D01*
X96016Y-53675D01*
X96033Y-53708D01*
X96033Y-53741D01*
X95866Y-53775D01*
X96183Y-53658D02*
X96183Y-54008D01*
X96183Y-53675D02*
X96216Y-53658D01*
X96283Y-53658D01*
X96316Y-53675D01*
X96333Y-53691D01*
X96349Y-53725D01*
X96349Y-53825D01*
X96333Y-53858D01*
X96316Y-53875D01*
X96283Y-53891D01*
X96216Y-53891D01*
X96183Y-53875D01*
X96649Y-53891D02*
X96649Y-53708D01*
X96633Y-53675D01*
X96599Y-53658D01*
X96533Y-53658D01*
X96499Y-53675D01*
X96649Y-53875D02*
X96616Y-53891D01*
X96533Y-53891D01*
X96499Y-53875D01*
X96483Y-53841D01*
X96483Y-53808D01*
X96499Y-53775D01*
X96533Y-53758D01*
X96616Y-53758D01*
X96649Y-53741D01*
X96799Y-53875D02*
X96833Y-53891D01*
X96899Y-53891D01*
X96933Y-53875D01*
X96949Y-53841D01*
X96949Y-53825D01*
X96933Y-53791D01*
X96899Y-53775D01*
X96849Y-53775D01*
X96816Y-53758D01*
X96799Y-53725D01*
X96799Y-53708D01*
X96816Y-53675D01*
X96849Y-53658D01*
X96899Y-53658D01*
X96933Y-53675D01*
X97149Y-53891D02*
X97116Y-53875D01*
X97099Y-53841D01*
X97099Y-53541D01*
X97433Y-53891D02*
X97433Y-53708D01*
X97416Y-53675D01*
X97383Y-53658D01*
X97316Y-53658D01*
X97283Y-53675D01*
X97433Y-53875D02*
X97399Y-53891D01*
X97316Y-53891D01*
X97283Y-53875D01*
X97266Y-53841D01*
X97266Y-53808D01*
X97283Y-53775D01*
X97316Y-53758D01*
X97399Y-53758D01*
X97433Y-53741D01*
X97599Y-53891D02*
X97599Y-53541D01*
X97599Y-53675D02*
X97633Y-53658D01*
X97699Y-53658D01*
X97733Y-53675D01*
X97749Y-53691D01*
X97766Y-53725D01*
X97766Y-53825D01*
X97749Y-53858D01*
X97733Y-53875D01*
X97699Y-53891D01*
X97633Y-53891D01*
X97599Y-53875D01*
X97899Y-53875D02*
X97933Y-53891D01*
X97999Y-53891D01*
X98033Y-53875D01*
X98049Y-53841D01*
X98049Y-53825D01*
X98033Y-53791D01*
X97999Y-53775D01*
X97949Y-53775D01*
X97916Y-53758D01*
X97899Y-53725D01*
X97899Y-53708D01*
X97916Y-53675D01*
X97949Y-53658D01*
X97999Y-53658D01*
X98033Y-53675D01*
X98449Y-53525D02*
X98149Y-53975D01*
X98616Y-53891D02*
X98583Y-53875D01*
X98566Y-53858D01*
X98549Y-53825D01*
X98549Y-53725D01*
X98566Y-53691D01*
X98583Y-53675D01*
X98616Y-53658D01*
X98666Y-53658D01*
X98699Y-53675D01*
X98716Y-53691D01*
X98733Y-53725D01*
X98733Y-53825D01*
X98716Y-53858D01*
X98699Y-53875D01*
X98666Y-53891D01*
X98616Y-53891D01*
X98883Y-53658D02*
X98883Y-54008D01*
X98883Y-53675D02*
X98916Y-53658D01*
X98983Y-53658D01*
X99016Y-53675D01*
X99033Y-53691D01*
X99049Y-53725D01*
X99049Y-53825D01*
X99033Y-53858D01*
X99016Y-53875D01*
X98983Y-53891D01*
X98916Y-53891D01*
X98883Y-53875D01*
X99349Y-53891D02*
X99349Y-53708D01*
X99333Y-53675D01*
X99299Y-53658D01*
X99233Y-53658D01*
X99199Y-53675D01*
X99349Y-53875D02*
X99316Y-53891D01*
X99233Y-53891D01*
X99199Y-53875D01*
X99183Y-53841D01*
X99183Y-53808D01*
X99199Y-53775D01*
X99233Y-53758D01*
X99316Y-53758D01*
X99349Y-53741D01*
X99516Y-53891D02*
X99516Y-53658D01*
X99516Y-53691D02*
X99533Y-53675D01*
X99566Y-53658D01*
X99616Y-53658D01*
X99649Y-53675D01*
X99666Y-53708D01*
X99666Y-53891D01*
X99666Y-53708D02*
X99683Y-53675D01*
X99716Y-53658D01*
X99766Y-53658D01*
X99799Y-53675D01*
X99816Y-53708D01*
X99816Y-53891D01*
X99983Y-53658D02*
X99983Y-54008D01*
X99983Y-53675D02*
X100016Y-53658D01*
X100083Y-53658D01*
X100116Y-53675D01*
X100133Y-53691D01*
X100149Y-53725D01*
X100149Y-53825D01*
X100133Y-53858D01*
X100116Y-53875D01*
X100083Y-53891D01*
X100016Y-53891D01*
X99983Y-53875D01*
X100299Y-53758D02*
X100566Y-53758D01*
X100699Y-53658D02*
X100783Y-53891D01*
X100866Y-53658D01*
X101049Y-53891D02*
X101016Y-53875D01*
X100999Y-53858D01*
X100983Y-53825D01*
X100983Y-53725D01*
X100999Y-53691D01*
X101016Y-53675D01*
X101049Y-53658D01*
X101099Y-53658D01*
X101133Y-53675D01*
X101149Y-53691D01*
X101166Y-53725D01*
X101166Y-53825D01*
X101149Y-53858D01*
X101133Y-53875D01*
X101099Y-53891D01*
X101049Y-53891D01*
X101299Y-53875D02*
X101333Y-53891D01*
X101399Y-53891D01*
X101433Y-53875D01*
X101449Y-53841D01*
X101449Y-53825D01*
X101433Y-53791D01*
X101399Y-53775D01*
X101349Y-53775D01*
X101316Y-53758D01*
X101299Y-53725D01*
X101299Y-53708D01*
X101316Y-53675D01*
X101349Y-53658D01*
X101399Y-53658D01*
X101433Y-53675D01*
G54D14*
X100557Y-52645D02*
X100652Y-52911D01*
X100747Y-52645D01*
X100880Y-52550D02*
X100900Y-52530D01*
X100938Y-52511D01*
X101033Y-52511D01*
X101071Y-52530D01*
X101090Y-52550D01*
X101109Y-52588D01*
X101109Y-52626D01*
X101090Y-52683D01*
X100861Y-52911D01*
X101109Y-52911D01*
X101280Y-52873D02*
X101300Y-52892D01*
X101280Y-52911D01*
X101261Y-52892D01*
X101280Y-52873D01*
X101280Y-52911D01*
X101680Y-52911D02*
X101452Y-52911D01*
X101566Y-52911D02*
X101566Y-52511D01*
X101528Y-52569D01*
X101490Y-52607D01*
X101452Y-52626D01*
G54D15*
X88842Y-52023D02*
X88995Y-52023D01*
X89071Y-52061D01*
X89147Y-52138D01*
X89185Y-52290D01*
X89185Y-52557D01*
X89147Y-52709D01*
X89071Y-52785D01*
X88995Y-52823D01*
X88842Y-52823D01*
X88766Y-52785D01*
X88690Y-52709D01*
X88652Y-52557D01*
X88652Y-52290D01*
X88690Y-52138D01*
X88766Y-52061D01*
X88842Y-52023D01*
X89528Y-52290D02*
X89528Y-53090D01*
X89528Y-52328D02*
X89604Y-52290D01*
X89757Y-52290D01*
X89833Y-52328D01*
X89871Y-52366D01*
X89909Y-52442D01*
X89909Y-52671D01*
X89871Y-52747D01*
X89833Y-52785D01*
X89757Y-52823D01*
X89604Y-52823D01*
X89528Y-52785D01*
X90823Y-52595D02*
X91204Y-52595D01*
X90747Y-52823D02*
X91014Y-52023D01*
X91280Y-52823D01*
X91547Y-52823D02*
X91547Y-52290D01*
X91547Y-52366D02*
X91585Y-52328D01*
X91661Y-52290D01*
X91776Y-52290D01*
X91852Y-52328D01*
X91890Y-52404D01*
X91890Y-52823D01*
X91890Y-52404D02*
X91928Y-52328D01*
X92004Y-52290D01*
X92119Y-52290D01*
X92195Y-52328D01*
X92233Y-52404D01*
X92233Y-52823D01*
X92614Y-52290D02*
X92614Y-53090D01*
X92614Y-52328D02*
X92690Y-52290D01*
X92842Y-52290D01*
X92919Y-52328D01*
X92957Y-52366D01*
X92995Y-52442D01*
X92995Y-52671D01*
X92957Y-52747D01*
X92919Y-52785D01*
X92842Y-52823D01*
X92690Y-52823D01*
X92614Y-52785D01*
X93833Y-52023D02*
X94099Y-52823D01*
X94366Y-52023D01*
X94747Y-52823D02*
X94671Y-52785D01*
X94633Y-52747D01*
X94595Y-52671D01*
X94595Y-52442D01*
X94633Y-52366D01*
X94671Y-52328D01*
X94747Y-52290D01*
X94861Y-52290D01*
X94938Y-52328D01*
X94976Y-52366D01*
X95014Y-52442D01*
X95014Y-52671D01*
X94976Y-52747D01*
X94938Y-52785D01*
X94861Y-52823D01*
X94747Y-52823D01*
X95319Y-52785D02*
X95395Y-52823D01*
X95547Y-52823D01*
X95623Y-52785D01*
X95661Y-52709D01*
X95661Y-52671D01*
X95623Y-52595D01*
X95547Y-52557D01*
X95433Y-52557D01*
X95357Y-52519D01*
X95319Y-52442D01*
X95319Y-52404D01*
X95357Y-52328D01*
X95433Y-52290D01*
X95547Y-52290D01*
X95623Y-52328D01*
X96499Y-52023D02*
X96957Y-52023D01*
X96728Y-52823D02*
X96728Y-52023D01*
X97528Y-52785D02*
X97452Y-52823D01*
X97299Y-52823D01*
X97223Y-52785D01*
X97185Y-52709D01*
X97185Y-52404D01*
X97223Y-52328D01*
X97299Y-52290D01*
X97452Y-52290D01*
X97528Y-52328D01*
X97566Y-52404D01*
X97566Y-52480D01*
X97185Y-52557D01*
X97871Y-52785D02*
X97947Y-52823D01*
X98099Y-52823D01*
X98176Y-52785D01*
X98214Y-52709D01*
X98214Y-52671D01*
X98176Y-52595D01*
X98099Y-52557D01*
X97985Y-52557D01*
X97909Y-52519D01*
X97871Y-52442D01*
X97871Y-52404D01*
X97909Y-52328D01*
X97985Y-52290D01*
X98099Y-52290D01*
X98176Y-52328D01*
X98442Y-52290D02*
X98747Y-52290D01*
X98557Y-52023D02*
X98557Y-52709D01*
X98595Y-52785D01*
X98671Y-52823D01*
X98747Y-52823D01*
X99319Y-52785D02*
X99242Y-52823D01*
X99090Y-52823D01*
X99014Y-52785D01*
X98976Y-52709D01*
X98976Y-52404D01*
X99014Y-52328D01*
X99090Y-52290D01*
X99242Y-52290D01*
X99319Y-52328D01*
X99357Y-52404D01*
X99357Y-52480D01*
X98976Y-52557D01*
X99699Y-52823D02*
X99699Y-52290D01*
X99699Y-52442D02*
X99738Y-52366D01*
X99776Y-52328D01*
X99852Y-52290D01*
X99928Y-52290D01*
G54D11*
X74192Y-70321D02*
X74292Y-70621D01*
X74392Y-70321D01*
X74650Y-70335D02*
X74621Y-70321D01*
X74578Y-70321D01*
X74535Y-70335D01*
X74507Y-70364D01*
X74492Y-70392D01*
X74478Y-70450D01*
X74478Y-70492D01*
X74492Y-70550D01*
X74507Y-70578D01*
X74535Y-70607D01*
X74578Y-70621D01*
X74607Y-70621D01*
X74650Y-70607D01*
X74664Y-70592D01*
X74664Y-70492D01*
X74607Y-70492D01*
X74792Y-70621D02*
X74792Y-70321D01*
X74964Y-70621D01*
X74964Y-70321D01*
X75107Y-70621D02*
X75107Y-70321D01*
X75178Y-70321D01*
X75221Y-70335D01*
X75250Y-70364D01*
X75264Y-70392D01*
X75278Y-70450D01*
X75278Y-70492D01*
X75264Y-70550D01*
X75250Y-70578D01*
X75221Y-70607D01*
X75178Y-70621D01*
X75107Y-70621D01*
G54D12*
X68797Y-59202D02*
X68964Y-59702D01*
X69130Y-59202D01*
X69511Y-59678D02*
X69464Y-59702D01*
X69369Y-59702D01*
X69321Y-59678D01*
X69297Y-59654D01*
X69273Y-59607D01*
X69273Y-59464D01*
X69297Y-59416D01*
X69321Y-59392D01*
X69369Y-59369D01*
X69464Y-59369D01*
X69511Y-59392D01*
X69940Y-59678D02*
X69892Y-59702D01*
X69797Y-59702D01*
X69749Y-59678D01*
X69726Y-59654D01*
X69702Y-59607D01*
X69702Y-59464D01*
X69726Y-59416D01*
X69749Y-59392D01*
X69797Y-59369D01*
X69892Y-59369D01*
X69940Y-59392D01*
G54D16*
X74000Y-66350D02*
X73150Y-66350D01*
X73150Y-66350D02*
X73150Y-68150D01*
X73150Y-68150D02*
X74000Y-68150D01*
X74000Y-68150D02*
G75*
G03X74900Y-67250I0J900D01*
G74*
G01*
X74900Y-67250D02*
G75*
G03X74000Y-66350I-900J0D01*
G74*
G01*
X74000Y-62650D02*
X74850Y-62650D01*
X74850Y-62650D02*
X74850Y-60850D01*
X74850Y-60850D02*
X74000Y-60850D01*
X74000Y-60850D02*
G75*
G03X73100Y-61750I0J-900D01*
G74*
G01*
X73100Y-61750D02*
G75*
G03X74000Y-62650I900J0D01*
G74*
G01*
G54D12*
X68500Y-59000D02*
X68500Y-61000D01*
X68500Y-61000D02*
X67500Y-61000D01*
X67500Y-61000D02*
X67500Y-59000D01*
X67500Y-59000D02*
X68500Y-59000D01*
X76000Y-59000D02*
X78000Y-59000D01*
X78000Y-59000D02*
X78000Y-60000D01*
X78000Y-60000D02*
X76000Y-60000D01*
X76000Y-60000D02*
X76000Y-59000D01*
X78500Y-59000D02*
X80500Y-59000D01*
X80500Y-59000D02*
X80500Y-60000D01*
X80500Y-60000D02*
X78500Y-60000D01*
X78500Y-60000D02*
X78500Y-59000D01*
X86750Y-60000D02*
X84750Y-60000D01*
X84750Y-60000D02*
X84750Y-59000D01*
X84750Y-59000D02*
X86750Y-59000D01*
X86750Y-59000D02*
X86750Y-60000D01*
X84250Y-60000D02*
X82250Y-60000D01*
X82250Y-60000D02*
X82250Y-59000D01*
X82250Y-59000D02*
X84250Y-59000D01*
X84250Y-59000D02*
X84250Y-60000D01*
X76250Y-67750D02*
X76650Y-67750D01*
X76650Y-67750D02*
X76650Y-67350D01*
X76650Y-67350D02*
X79850Y-67350D01*
X79850Y-67350D02*
X79850Y-68150D01*
X79850Y-68150D02*
X76650Y-68150D01*
X76650Y-68150D02*
X76650Y-67750D01*
X80250Y-67750D02*
X79850Y-67750D01*
X82500Y-69750D02*
X82900Y-69750D01*
X82900Y-69750D02*
X82900Y-69350D01*
X82900Y-69350D02*
X86100Y-69350D01*
X86100Y-69350D02*
X86100Y-70150D01*
X86100Y-70150D02*
X82900Y-70150D01*
X82900Y-70150D02*
X82900Y-69750D01*
X86500Y-69750D02*
X86100Y-69750D01*
X82500Y-58250D02*
X82900Y-58250D01*
X82900Y-58250D02*
X82900Y-57850D01*
X82900Y-57850D02*
X86100Y-57850D01*
X86100Y-57850D02*
X86100Y-58650D01*
X86100Y-58650D02*
X82900Y-58650D01*
X82900Y-58650D02*
X82900Y-58250D01*
X86500Y-58250D02*
X86100Y-58250D01*
X82500Y-68750D02*
X82900Y-68750D01*
X82900Y-68750D02*
X82900Y-68350D01*
X82900Y-68350D02*
X86100Y-68350D01*
X86100Y-68350D02*
X86100Y-69150D01*
X86100Y-69150D02*
X82900Y-69150D01*
X82900Y-69150D02*
X82900Y-68750D01*
X86500Y-68750D02*
X86100Y-68750D01*
X96250Y-63750D02*
X96250Y-64150D01*
X96250Y-64150D02*
X96650Y-64150D01*
X96650Y-64150D02*
X96650Y-67350D01*
X96650Y-67350D02*
X95850Y-67350D01*
X95850Y-67350D02*
X95850Y-64150D01*
X95850Y-64150D02*
X96250Y-64150D01*
X96250Y-67750D02*
X96250Y-67350D01*
X97250Y-63750D02*
X97250Y-64150D01*
X97250Y-64150D02*
X97650Y-64150D01*
X97650Y-64150D02*
X97650Y-67350D01*
X97650Y-67350D02*
X96850Y-67350D01*
X96850Y-67350D02*
X96850Y-64150D01*
X96850Y-64150D02*
X97250Y-64150D01*
X97250Y-67750D02*
X97250Y-67350D01*
X99250Y-63750D02*
X99250Y-64150D01*
X99250Y-64150D02*
X99650Y-64150D01*
X99650Y-64150D02*
X99650Y-67350D01*
X99650Y-67350D02*
X98850Y-67350D01*
X98850Y-67350D02*
X98850Y-64150D01*
X98850Y-64150D02*
X99250Y-64150D01*
X99250Y-67750D02*
X99250Y-67350D01*
X98250Y-63750D02*
X98250Y-64150D01*
X98250Y-64150D02*
X98650Y-64150D01*
X98650Y-64150D02*
X98650Y-67350D01*
X98650Y-67350D02*
X97850Y-67350D01*
X97850Y-67350D02*
X97850Y-64150D01*
X97850Y-64150D02*
X98250Y-64150D01*
X98250Y-67750D02*
X98250Y-67350D01*
X104250Y-63750D02*
X104250Y-64150D01*
X104250Y-64150D02*
X104650Y-64150D01*
X104650Y-64150D02*
X104650Y-67350D01*
X104650Y-67350D02*
X103850Y-67350D01*
X103850Y-67350D02*
X103850Y-64150D01*
X103850Y-64150D02*
X104250Y-64150D01*
X104250Y-67750D02*
X104250Y-67350D01*
X103250Y-63750D02*
X103250Y-64150D01*
X103250Y-64150D02*
X103650Y-64150D01*
X103650Y-64150D02*
X103650Y-67350D01*
X103650Y-67350D02*
X102850Y-67350D01*
X102850Y-67350D02*
X102850Y-64150D01*
X102850Y-64150D02*
X103250Y-64150D01*
X103250Y-67750D02*
X103250Y-67350D01*
X101250Y-63750D02*
X101250Y-64150D01*
X101250Y-64150D02*
X101650Y-64150D01*
X101650Y-64150D02*
X101650Y-67350D01*
X101650Y-67350D02*
X100850Y-67350D01*
X100850Y-67350D02*
X100850Y-64150D01*
X100850Y-64150D02*
X101250Y-64150D01*
X101250Y-67750D02*
X101250Y-67350D01*
X102250Y-63750D02*
X102250Y-64150D01*
X102250Y-64150D02*
X102650Y-64150D01*
X102650Y-64150D02*
X102650Y-67350D01*
X102650Y-67350D02*
X101850Y-67350D01*
X101850Y-67350D02*
X101850Y-64150D01*
X101850Y-64150D02*
X102250Y-64150D01*
X102250Y-67750D02*
X102250Y-67350D01*
X104250Y-58750D02*
X104250Y-58350D01*
X104250Y-58350D02*
X103850Y-58350D01*
X103850Y-58350D02*
X103850Y-55150D01*
X103850Y-55150D02*
X104650Y-55150D01*
X104650Y-55150D02*
X104650Y-58350D01*
X104650Y-58350D02*
X104250Y-58350D01*
X104250Y-54750D02*
X104250Y-55150D01*
X103250Y-58750D02*
X103250Y-58350D01*
X103250Y-58350D02*
X102850Y-58350D01*
X102850Y-58350D02*
X102850Y-55150D01*
X102850Y-55150D02*
X103650Y-55150D01*
X103650Y-55150D02*
X103650Y-58350D01*
X103650Y-58350D02*
X103250Y-58350D01*
X103250Y-54750D02*
X103250Y-55150D01*
X101250Y-58750D02*
X101250Y-58350D01*
X101250Y-58350D02*
X100850Y-58350D01*
X100850Y-58350D02*
X100850Y-55150D01*
X100850Y-55150D02*
X101650Y-55150D01*
X101650Y-55150D02*
X101650Y-58350D01*
X101650Y-58350D02*
X101250Y-58350D01*
X101250Y-54750D02*
X101250Y-55150D01*
X102250Y-58750D02*
X102250Y-58350D01*
X102250Y-58350D02*
X101850Y-58350D01*
X101850Y-58350D02*
X101850Y-55150D01*
X101850Y-55150D02*
X102650Y-55150D01*
X102650Y-55150D02*
X102650Y-58350D01*
X102650Y-58350D02*
X102250Y-58350D01*
X102250Y-54750D02*
X102250Y-55150D01*
X96250Y-58750D02*
X96250Y-58350D01*
X96250Y-58350D02*
X95850Y-58350D01*
X95850Y-58350D02*
X95850Y-55150D01*
X95850Y-55150D02*
X96650Y-55150D01*
X96650Y-55150D02*
X96650Y-58350D01*
X96650Y-58350D02*
X96250Y-58350D01*
X96250Y-54750D02*
X96250Y-55150D01*
X97250Y-58750D02*
X97250Y-58350D01*
X97250Y-58350D02*
X96850Y-58350D01*
X96850Y-58350D02*
X96850Y-55150D01*
X96850Y-55150D02*
X97650Y-55150D01*
X97650Y-55150D02*
X97650Y-58350D01*
X97650Y-58350D02*
X97250Y-58350D01*
X97250Y-54750D02*
X97250Y-55150D01*
X99250Y-58750D02*
X99250Y-58350D01*
X99250Y-58350D02*
X98850Y-58350D01*
X98850Y-58350D02*
X98850Y-55150D01*
X98850Y-55150D02*
X99650Y-55150D01*
X99650Y-55150D02*
X99650Y-58350D01*
X99650Y-58350D02*
X99250Y-58350D01*
X99250Y-54750D02*
X99250Y-55150D01*
X98250Y-58750D02*
X98250Y-58350D01*
X98250Y-58350D02*
X97850Y-58350D01*
X97850Y-58350D02*
X97850Y-55150D01*
X97850Y-55150D02*
X98650Y-55150D01*
X98650Y-55150D02*
X98650Y-58350D01*
X98650Y-58350D02*
X98250Y-58350D01*
X98250Y-54750D02*
X98250Y-55150D01*
X91250Y-63750D02*
X91250Y-64150D01*
X91250Y-64150D02*
X91650Y-64150D01*
X91650Y-64150D02*
X91650Y-67350D01*
X91650Y-67350D02*
X90850Y-67350D01*
X90850Y-67350D02*
X90850Y-64150D01*
X90850Y-64150D02*
X91250Y-64150D01*
X91250Y-67750D02*
X91250Y-67350D01*
X80250Y-66750D02*
X79850Y-66750D01*
X79850Y-66750D02*
X79850Y-67150D01*
X79850Y-67150D02*
X76650Y-67150D01*
X76650Y-67150D02*
X76650Y-66350D01*
X76650Y-66350D02*
X79850Y-66350D01*
X79850Y-66350D02*
X79850Y-66750D01*
X76250Y-66750D02*
X76650Y-66750D01*
X76250Y-69750D02*
X76650Y-69750D01*
X76650Y-69750D02*
X76650Y-69350D01*
X76650Y-69350D02*
X79850Y-69350D01*
X79850Y-69350D02*
X79850Y-70150D01*
X79850Y-70150D02*
X76650Y-70150D01*
X76650Y-70150D02*
X76650Y-69750D01*
X80250Y-69750D02*
X79850Y-69750D01*
X76250Y-68750D02*
X76650Y-68750D01*
X76650Y-68750D02*
X76650Y-68350D01*
X76650Y-68350D02*
X79850Y-68350D01*
X79850Y-68350D02*
X79850Y-69150D01*
X79850Y-69150D02*
X76650Y-69150D01*
X76650Y-69150D02*
X76650Y-68750D01*
X80250Y-68750D02*
X79850Y-68750D01*
X68250Y-62000D02*
X68650Y-62000D01*
X68650Y-62000D02*
X68650Y-61600D01*
X68650Y-61600D02*
X71850Y-61600D01*
X71850Y-61600D02*
X71850Y-62400D01*
X71850Y-62400D02*
X68650Y-62400D01*
X68650Y-62400D02*
X68650Y-62000D01*
X72250Y-62000D02*
X71850Y-62000D01*
X72250Y-67000D02*
X71850Y-67000D01*
X71850Y-67000D02*
X71850Y-67400D01*
X71850Y-67400D02*
X68650Y-67400D01*
X68650Y-67400D02*
X68650Y-66600D01*
X68650Y-66600D02*
X71850Y-66600D01*
X71850Y-66600D02*
X71850Y-67000D01*
X68250Y-67000D02*
X68650Y-67000D01*
X72250Y-64000D02*
X71850Y-64000D01*
X71850Y-64000D02*
X71850Y-64400D01*
X71850Y-64400D02*
X68650Y-64400D01*
X68650Y-64400D02*
X68650Y-63600D01*
X68650Y-63600D02*
X71850Y-63600D01*
X71850Y-63600D02*
X71850Y-64000D01*
X68250Y-64000D02*
X68650Y-64000D01*
X68250Y-65000D02*
X68650Y-65000D01*
X68650Y-65000D02*
X68650Y-64600D01*
X68650Y-64600D02*
X71850Y-64600D01*
X71850Y-64600D02*
X71850Y-65400D01*
X71850Y-65400D02*
X68650Y-65400D01*
X68650Y-65400D02*
X68650Y-65000D01*
X72250Y-65000D02*
X71850Y-65000D01*
X90250Y-63750D02*
X90250Y-64150D01*
X90250Y-64150D02*
X90650Y-64150D01*
X90650Y-64150D02*
X90650Y-67350D01*
X90650Y-67350D02*
X89850Y-67350D01*
X89850Y-67350D02*
X89850Y-64150D01*
X89850Y-64150D02*
X90250Y-64150D01*
X90250Y-67750D02*
X90250Y-67350D01*
X82500Y-67750D02*
X82900Y-67750D01*
X82900Y-67750D02*
X82900Y-67350D01*
X82900Y-67350D02*
X86100Y-67350D01*
X86100Y-67350D02*
X86100Y-68150D01*
X86100Y-68150D02*
X82900Y-68150D01*
X82900Y-68150D02*
X82900Y-67750D01*
X86500Y-67750D02*
X86100Y-67750D01*
X93250Y-63750D02*
X93250Y-64150D01*
X93250Y-64150D02*
X93650Y-64150D01*
X93650Y-64150D02*
X93650Y-67350D01*
X93650Y-67350D02*
X92850Y-67350D01*
X92850Y-67350D02*
X92850Y-64150D01*
X92850Y-64150D02*
X93250Y-64150D01*
X93250Y-67750D02*
X93250Y-67350D01*
X92250Y-63750D02*
X92250Y-64150D01*
X92250Y-64150D02*
X92650Y-64150D01*
X92650Y-64150D02*
X92650Y-67350D01*
X92650Y-67350D02*
X91850Y-67350D01*
X91850Y-67350D02*
X91850Y-64150D01*
X91850Y-64150D02*
X92250Y-64150D01*
X92250Y-67750D02*
X92250Y-67350D01*
X90250Y-58750D02*
X90250Y-58350D01*
X90250Y-58350D02*
X89850Y-58350D01*
X89850Y-58350D02*
X89850Y-55150D01*
X89850Y-55150D02*
X90650Y-55150D01*
X90650Y-55150D02*
X90650Y-58350D01*
X90650Y-58350D02*
X90250Y-58350D01*
X90250Y-54750D02*
X90250Y-55150D01*
X91250Y-58750D02*
X91250Y-58350D01*
X91250Y-58350D02*
X90850Y-58350D01*
X90850Y-58350D02*
X90850Y-55150D01*
X90850Y-55150D02*
X91650Y-55150D01*
X91650Y-55150D02*
X91650Y-58350D01*
X91650Y-58350D02*
X91250Y-58350D01*
X91250Y-54750D02*
X91250Y-55150D01*
X92250Y-58750D02*
X92250Y-58350D01*
X92250Y-58350D02*
X91850Y-58350D01*
X91850Y-58350D02*
X91850Y-55150D01*
X91850Y-55150D02*
X92650Y-55150D01*
X92650Y-55150D02*
X92650Y-58350D01*
X92650Y-58350D02*
X92250Y-58350D01*
X92250Y-54750D02*
X92250Y-55150D01*
X86500Y-66750D02*
X86100Y-66750D01*
X86100Y-66750D02*
X86100Y-67150D01*
X86100Y-67150D02*
X82900Y-67150D01*
X82900Y-67150D02*
X82900Y-66350D01*
X82900Y-66350D02*
X86100Y-66350D01*
X86100Y-66350D02*
X86100Y-66750D01*
X82500Y-66750D02*
X82900Y-66750D01*
X93250Y-58750D02*
X93250Y-58350D01*
X93250Y-58350D02*
X92850Y-58350D01*
X92850Y-58350D02*
X92850Y-55150D01*
X92850Y-55150D02*
X93650Y-55150D01*
X93650Y-55150D02*
X93650Y-58350D01*
X93650Y-58350D02*
X93250Y-58350D01*
X93250Y-54750D02*
X93250Y-55150D01*
X80250Y-58250D02*
X79850Y-58250D01*
X79850Y-58250D02*
X79850Y-58650D01*
X79850Y-58650D02*
X76650Y-58650D01*
X76650Y-58650D02*
X76650Y-57850D01*
X76650Y-57850D02*
X79850Y-57850D01*
X79850Y-57850D02*
X79850Y-58250D01*
X76250Y-58250D02*
X76650Y-58250D01*
X72750Y-60250D02*
G75*
G03X72750Y-60250I-1000J0D01*
G74*
G01*
X72750Y-68750D02*
G75*
G03X72750Y-68750I-1000J0D01*
G74*
G01*
X82800Y-63250D02*
G75*
G03X82500Y-62950I-300J0D01*
G74*
G01*
X82500Y-63550D02*
G75*
G03X82800Y-63250I0J300D01*
G74*
G01*
X82500Y-62250D02*
X86500Y-62250D01*
X86500Y-62250D02*
X86500Y-64250D01*
X86500Y-64250D02*
X82500Y-64250D01*
X82500Y-64250D02*
X82500Y-62250D01*
X76550Y-63250D02*
G75*
G03X76250Y-62950I-300J0D01*
G74*
G01*
X76250Y-63550D02*
G75*
G03X76550Y-63250I0J300D01*
G74*
G01*
X76250Y-62250D02*
X80250Y-62250D01*
X80250Y-62250D02*
X80250Y-64250D01*
X80250Y-64250D02*
X76250Y-64250D01*
X76250Y-64250D02*
X76250Y-62250D01*
X70850Y-63000D02*
X71250Y-63000D01*
X68650Y-63000D02*
X68250Y-63000D01*
X70850Y-62600D02*
X68650Y-62600D01*
X68650Y-63400D02*
X70850Y-63400D01*
X68900Y-63400D02*
X68900Y-62600D01*
X68650Y-63000D02*
X68650Y-63400D01*
X70850Y-63400D02*
X70850Y-63000D01*
X70850Y-63000D02*
X70850Y-62600D01*
X68650Y-62600D02*
X68650Y-63000D01*
X68650Y-66000D02*
X68250Y-66000D01*
X70850Y-66000D02*
X71250Y-66000D01*
X68650Y-66400D02*
X70850Y-66400D01*
X70850Y-65600D02*
X68650Y-65600D01*
X70600Y-65600D02*
X70600Y-66400D01*
X70850Y-66000D02*
X70850Y-65600D01*
X68650Y-65600D02*
X68650Y-66000D01*
X68650Y-66000D02*
X68650Y-66400D01*
X70850Y-66400D02*
X70850Y-66000D01*
X72750Y-55400D02*
X72750Y-55000D01*
X72750Y-57600D02*
X72750Y-58000D01*
X72350Y-55400D02*
X72350Y-57600D01*
X73150Y-57600D02*
X73150Y-55400D01*
X73150Y-57350D02*
X72350Y-57350D01*
X72750Y-57600D02*
X73150Y-57600D01*
X73150Y-55400D02*
X72750Y-55400D01*
X72750Y-55400D02*
X72350Y-55400D01*
X72350Y-57600D02*
X72750Y-57600D01*
X105650Y-58400D02*
X105650Y-56350D01*
X104850Y-58400D02*
X104850Y-56350D01*
X104850Y-56350D02*
X105650Y-56350D01*
X105650Y-58400D02*
X104850Y-58400D01*
X89650Y-56900D02*
X89650Y-54850D01*
X88850Y-56900D02*
X88850Y-54850D01*
X88850Y-54850D02*
X89650Y-54850D01*
X89650Y-56900D02*
X88850Y-56900D01*
X78350Y-66150D02*
X80400Y-66150D01*
X78350Y-65350D02*
X80400Y-65350D01*
X80400Y-65350D02*
X80400Y-66150D01*
X78350Y-66150D02*
X78350Y-65350D01*
X84400Y-65350D02*
X82350Y-65350D01*
X84400Y-66150D02*
X82350Y-66150D01*
X82350Y-66150D02*
X82350Y-65350D01*
X84400Y-65350D02*
X84400Y-66150D01*
X76100Y-61150D02*
X78150Y-61150D01*
X76100Y-60350D02*
X78150Y-60350D01*
X78150Y-60350D02*
X78150Y-61150D01*
X76100Y-61150D02*
X76100Y-60350D01*
X95650Y-58400D02*
X95650Y-56350D01*
X94850Y-58400D02*
X94850Y-56350D01*
X94850Y-56350D02*
X95650Y-56350D01*
X95650Y-58400D02*
X94850Y-58400D01*
X89650Y-59150D02*
X89650Y-57100D01*
X88850Y-59150D02*
X88850Y-57100D01*
X88850Y-57100D02*
X89650Y-57100D01*
X89650Y-59150D02*
X88850Y-59150D01*
X93850Y-63350D02*
X93850Y-65400D01*
X94650Y-63350D02*
X94650Y-65400D01*
X94650Y-65400D02*
X93850Y-65400D01*
X93850Y-63350D02*
X94650Y-63350D01*
X82100Y-61150D02*
X84150Y-61150D01*
X82100Y-60350D02*
X84150Y-60350D01*
X84150Y-60350D02*
X84150Y-61150D01*
X82100Y-61150D02*
X82100Y-60350D01*
X74900Y-63350D02*
X72850Y-63350D01*
X74900Y-64150D02*
X72850Y-64150D01*
X72850Y-64150D02*
X72850Y-63350D01*
X74900Y-63350D02*
X74900Y-64150D01*
X84600Y-66150D02*
X86650Y-66150D01*
X84600Y-65350D02*
X86650Y-65350D01*
X86650Y-65350D02*
X86650Y-66150D01*
X84600Y-66150D02*
X84600Y-65350D01*
X88850Y-64100D02*
X88850Y-66150D01*
X89650Y-64100D02*
X89650Y-66150D01*
X89650Y-66150D02*
X88850Y-66150D01*
X88850Y-64100D02*
X89650Y-64100D01*
X100650Y-59150D02*
X100650Y-57100D01*
X99850Y-59150D02*
X99850Y-57100D01*
X99850Y-57100D02*
X100650Y-57100D01*
X100650Y-59150D02*
X99850Y-59150D01*
X99850Y-63350D02*
X99850Y-65400D01*
X100650Y-63350D02*
X100650Y-65400D01*
X100650Y-65400D02*
X99850Y-65400D01*
X99850Y-63350D02*
X100650Y-63350D01*
X104850Y-64100D02*
X104850Y-66150D01*
X105650Y-64100D02*
X105650Y-66150D01*
X105650Y-66150D02*
X104850Y-66150D01*
X104850Y-64100D02*
X105650Y-64100D01*
X78150Y-65350D02*
X76100Y-65350D01*
X78150Y-66150D02*
X76100Y-66150D01*
X76100Y-66150D02*
X76100Y-65350D01*
X78150Y-65350D02*
X78150Y-66150D01*
X95650Y-68150D02*
X95650Y-66100D01*
X94850Y-68150D02*
X94850Y-66100D01*
X94850Y-66100D02*
X95650Y-66100D01*
X95650Y-68150D02*
X94850Y-68150D01*
X72850Y-65650D02*
X74900Y-65650D01*
X72850Y-64850D02*
X74900Y-64850D01*
X74900Y-64850D02*
X74900Y-65650D01*
X72850Y-65650D02*
X72850Y-64850D01*
X67235Y-54728D02*
X67235Y-58272D01*
X65857Y-54728D02*
X65857Y-58272D01*
X65857Y-58272D02*
X71566Y-58272D01*
X71566Y-58272D02*
X71566Y-54728D01*
X71566Y-54728D02*
X65857Y-54728D01*
X76400Y-54500D02*
X77400Y-54500D01*
X77400Y-54500D02*
G75*
G03X77400Y-54500I-500J0D01*
G74*
G01*
X76400Y-55450D02*
X76400Y-53550D01*
X80100Y-53550D02*
X80100Y-55450D01*
X80100Y-55450D02*
X76400Y-55450D01*
X76400Y-53550D02*
X80100Y-53550D01*
X82650Y-54500D02*
X83650Y-54500D01*
X83650Y-54500D02*
G75*
G03X83650Y-54500I-500J0D01*
G74*
G01*
X82650Y-55450D02*
X82650Y-53550D01*
X86350Y-53550D02*
X86350Y-55450D01*
X86350Y-55450D02*
X82650Y-55450D01*
X82650Y-53550D02*
X86350Y-53550D01*
X107250Y-52750D02*
G75*
G03X107250Y-52750I-1750J0D01*
G74*
G01*
X107250Y-69750D02*
G75*
G03X107250Y-69750I-1750J0D01*
G74*
G01*
X70500Y-69750D02*
G75*
G03X70500Y-69750I-1750J0D01*
G74*
G01*
X70500Y-52750D02*
G75*
G03X70500Y-52750I-1750J0D01*
G74*
G01*
X90050Y-61250D02*
G75*
G03X89750Y-60950I-300J0D01*
G74*
G01*
X89750Y-61550D02*
G75*
G03X90050Y-61250I0J300D01*
G74*
G01*
X89750Y-60250D02*
X93750Y-60250D01*
X93750Y-60250D02*
X93750Y-62250D01*
X93750Y-62250D02*
X89750Y-62250D01*
X89750Y-62250D02*
X89750Y-60250D01*
X100750Y-62250D02*
X103750Y-62250D01*
X100750Y-60250D02*
X103750Y-60250D01*
X97050Y-61250D02*
G75*
G03X96750Y-60950I-300J0D01*
G74*
G01*
X96750Y-61550D02*
G75*
G03X97050Y-61250I0J300D01*
G74*
G01*
X96750Y-60250D02*
X100750Y-60250D01*
X103750Y-60250D02*
X103750Y-62250D01*
X100750Y-62250D02*
X96750Y-62250D01*
X96750Y-62250D02*
X96750Y-60250D01*
X76250Y-56250D02*
X76650Y-56250D01*
X76650Y-56250D02*
X76650Y-55850D01*
X76650Y-55850D02*
X79850Y-55850D01*
X79850Y-55850D02*
X79850Y-56650D01*
X79850Y-56650D02*
X76650Y-56650D01*
X76650Y-56650D02*
X76650Y-56250D01*
X80250Y-56250D02*
X79850Y-56250D01*
X76250Y-57250D02*
X76650Y-57250D01*
X76650Y-57250D02*
X76650Y-56850D01*
X76650Y-56850D02*
X79850Y-56850D01*
X79850Y-56850D02*
X79850Y-57650D01*
X79850Y-57650D02*
X76650Y-57650D01*
X76650Y-57650D02*
X76650Y-57250D01*
X80250Y-57250D02*
X79850Y-57250D01*
X86500Y-57250D02*
X86100Y-57250D01*
X86100Y-57250D02*
X86100Y-57650D01*
X86100Y-57650D02*
X82900Y-57650D01*
X82900Y-57650D02*
X82900Y-56850D01*
X82900Y-56850D02*
X86100Y-56850D01*
X86100Y-56850D02*
X86100Y-57250D01*
X82500Y-57250D02*
X82900Y-57250D01*
X86500Y-56250D02*
X86100Y-56250D01*
X86100Y-56250D02*
X86100Y-56650D01*
X86100Y-56650D02*
X82900Y-56650D01*
X82900Y-56650D02*
X82900Y-55850D01*
X82900Y-55850D02*
X86100Y-55850D01*
X86100Y-55850D02*
X86100Y-56250D01*
X82500Y-56250D02*
X82900Y-56250D01*
G54D17*
G36*
X72034Y-53811D02*
X72047Y-53804D01*
X72074Y-53787D01*
X72114Y-53761D01*
X72160Y-53730D01*
X72207Y-53698D01*
X72246Y-53672D01*
X72273Y-53655D01*
X72284Y-53649D01*
X72290Y-53651D01*
X72312Y-53662D01*
X72344Y-53679D01*
X72363Y-53688D01*
X72393Y-53701D01*
X72407Y-53704D01*
X72410Y-53700D01*
X72421Y-53677D01*
X72438Y-53638D01*
X72460Y-53587D01*
X72486Y-53527D01*
X72513Y-53462D01*
X72540Y-53396D01*
X72566Y-53334D01*
X72590Y-53277D01*
X72608Y-53231D01*
X72620Y-53199D01*
X72625Y-53185D01*
X72623Y-53182D01*
X72609Y-53168D01*
X72583Y-53149D01*
X72527Y-53103D01*
X72472Y-53034D01*
X72438Y-52956D01*
X72427Y-52869D01*
X72436Y-52789D01*
X72468Y-52712D01*
X72522Y-52642D01*
X72588Y-52590D01*
X72664Y-52558D01*
X72750Y-52547D01*
X72832Y-52556D01*
X72911Y-52587D01*
X72981Y-52640D01*
X73010Y-52674D01*
X73051Y-52745D01*
X73074Y-52820D01*
X73076Y-52839D01*
X73073Y-52922D01*
X73048Y-53002D01*
X73005Y-53073D01*
X72944Y-53131D01*
X72936Y-53137D01*
X72908Y-53158D01*
X72889Y-53172D01*
X72874Y-53184D01*
X72980Y-53439D01*
X72997Y-53479D01*
X73026Y-53548D01*
X73051Y-53608D01*
X73072Y-53656D01*
X73086Y-53688D01*
X73092Y-53701D01*
X73093Y-53701D01*
X73102Y-53703D01*
X73121Y-53696D01*
X73157Y-53679D01*
X73180Y-53667D01*
X73207Y-53654D01*
X73219Y-53649D01*
X73230Y-53654D01*
X73256Y-53671D01*
X73293Y-53697D01*
X73339Y-53727D01*
X73382Y-53757D01*
X73422Y-53783D01*
X73451Y-53802D01*
X73465Y-53809D01*
X73467Y-53809D01*
X73480Y-53802D01*
X73503Y-53783D01*
X73537Y-53750D01*
X73586Y-53702D01*
X73594Y-53695D01*
X73634Y-53654D01*
X73667Y-53619D01*
X73689Y-53595D01*
X73697Y-53584D01*
X73697Y-53584D01*
X73689Y-53570D01*
X73671Y-53541D01*
X73645Y-53501D01*
X73613Y-53453D01*
X73528Y-53331D01*
X73575Y-53216D01*
X73589Y-53180D01*
X73607Y-53137D01*
X73620Y-53107D01*
X73627Y-53093D01*
X73640Y-53089D01*
X73671Y-53081D01*
X73717Y-53072D01*
X73772Y-53062D01*
X73824Y-53052D01*
X73871Y-53043D01*
X73905Y-53037D01*
X73920Y-53034D01*
X73924Y-53031D01*
X73927Y-53024D01*
X73929Y-53008D01*
X73930Y-52979D01*
X73931Y-52934D01*
X73931Y-52869D01*
X73931Y-52862D01*
X73930Y-52800D01*
X73929Y-52751D01*
X73927Y-52719D01*
X73925Y-52706D01*
X73925Y-52706D01*
X73910Y-52702D01*
X73877Y-52695D01*
X73830Y-52686D01*
X73774Y-52675D01*
X73770Y-52675D01*
X73714Y-52664D01*
X73668Y-52654D01*
X73635Y-52647D01*
X73621Y-52642D01*
X73618Y-52638D01*
X73607Y-52616D01*
X73591Y-52582D01*
X73572Y-52540D01*
X73554Y-52496D01*
X73538Y-52456D01*
X73528Y-52427D01*
X73525Y-52413D01*
X73525Y-52413D01*
X73533Y-52400D01*
X73552Y-52371D01*
X73580Y-52331D01*
X73612Y-52283D01*
X73615Y-52279D01*
X73647Y-52232D01*
X73673Y-52192D01*
X73690Y-52164D01*
X73697Y-52151D01*
X73697Y-52150D01*
X73686Y-52136D01*
X73662Y-52109D01*
X73627Y-52073D01*
X73586Y-52032D01*
X73573Y-52019D01*
X73527Y-51974D01*
X73495Y-51945D01*
X73475Y-51929D01*
X73466Y-51925D01*
X73465Y-51926D01*
X73451Y-51934D01*
X73421Y-51954D01*
X73381Y-51981D01*
X73333Y-52014D01*
X73330Y-52016D01*
X73282Y-52048D01*
X73243Y-52075D01*
X73215Y-52093D01*
X73203Y-52100D01*
X73201Y-52100D01*
X73182Y-52095D01*
X73148Y-52083D01*
X73107Y-52067D01*
X73063Y-52050D01*
X73023Y-52033D01*
X72994Y-52019D01*
X72980Y-52011D01*
X72979Y-52011D01*
X72974Y-51994D01*
X72966Y-51958D01*
X72956Y-51910D01*
X72945Y-51852D01*
X72943Y-51843D01*
X72933Y-51786D01*
X72924Y-51740D01*
X72917Y-51708D01*
X72914Y-51694D01*
X72906Y-51693D01*
X72878Y-51691D01*
X72836Y-51689D01*
X72785Y-51689D01*
X72732Y-51689D01*
X72680Y-51690D01*
X72636Y-51692D01*
X72604Y-51694D01*
X72590Y-51697D01*
X72590Y-51698D01*
X72585Y-51715D01*
X72577Y-51750D01*
X72567Y-51799D01*
X72556Y-51857D01*
X72554Y-51868D01*
X72544Y-51924D01*
X72534Y-51970D01*
X72527Y-52001D01*
X72524Y-52014D01*
X72519Y-52016D01*
X72496Y-52027D01*
X72458Y-52042D01*
X72411Y-52061D01*
X72303Y-52105D01*
X72171Y-52014D01*
X72159Y-52006D01*
X72111Y-51973D01*
X72072Y-51947D01*
X72044Y-51930D01*
X72033Y-51923D01*
X72032Y-51924D01*
X72019Y-51935D01*
X71993Y-51960D01*
X71957Y-51995D01*
X71915Y-52036D01*
X71884Y-52067D01*
X71848Y-52104D01*
X71825Y-52129D01*
X71812Y-52145D01*
X71807Y-52155D01*
X71809Y-52162D01*
X71817Y-52175D01*
X71837Y-52204D01*
X71864Y-52245D01*
X71896Y-52291D01*
X71923Y-52331D01*
X71952Y-52375D01*
X71970Y-52407D01*
X71977Y-52422D01*
X71975Y-52429D01*
X71966Y-52455D01*
X71950Y-52494D01*
X71930Y-52541D01*
X71884Y-52646D01*
X71815Y-52659D01*
X71774Y-52667D01*
X71715Y-52678D01*
X71659Y-52689D01*
X71572Y-52706D01*
X71569Y-53025D01*
X71583Y-53031D01*
X71596Y-53035D01*
X71628Y-53042D01*
X71674Y-53051D01*
X71728Y-53061D01*
X71775Y-53070D01*
X71821Y-53079D01*
X71855Y-53085D01*
X71870Y-53088D01*
X71873Y-53093D01*
X71885Y-53116D01*
X71902Y-53152D01*
X71920Y-53195D01*
X71939Y-53240D01*
X71955Y-53281D01*
X71967Y-53313D01*
X71971Y-53329D01*
X71965Y-53341D01*
X71947Y-53369D01*
X71921Y-53408D01*
X71890Y-53454D01*
X71858Y-53501D01*
X71831Y-53540D01*
X71812Y-53569D01*
X71805Y-53582D01*
X71809Y-53591D01*
X71827Y-53613D01*
X71862Y-53649D01*
X71914Y-53701D01*
X71923Y-53709D01*
X71964Y-53749D01*
X71999Y-53781D01*
X72023Y-53803D01*
X72034Y-53811D01*
X72034Y-53811D01*
G37*
G54D11*
X73578Y-68550D02*
X73550Y-68535D01*
X73521Y-68507D01*
X73478Y-68464D01*
X73450Y-68450D01*
X73421Y-68450D01*
X73435Y-68521D02*
X73407Y-68507D01*
X73378Y-68478D01*
X73364Y-68421D01*
X73364Y-68321D01*
X73378Y-68264D01*
X73407Y-68235D01*
X73435Y-68221D01*
X73492Y-68221D01*
X73521Y-68235D01*
X73550Y-68264D01*
X73564Y-68321D01*
X73564Y-68421D01*
X73550Y-68478D01*
X73521Y-68507D01*
X73492Y-68521D01*
X73435Y-68521D01*
X73821Y-68221D02*
X73764Y-68221D01*
X73735Y-68235D01*
X73721Y-68250D01*
X73692Y-68292D01*
X73678Y-68350D01*
X73678Y-68464D01*
X73692Y-68492D01*
X73707Y-68507D01*
X73735Y-68521D01*
X73792Y-68521D01*
X73821Y-68507D01*
X73835Y-68492D01*
X73850Y-68464D01*
X73850Y-68392D01*
X73835Y-68364D01*
X73821Y-68350D01*
X73792Y-68335D01*
X73735Y-68335D01*
X73707Y-68350D01*
X73692Y-68364D01*
X73678Y-68392D01*
X74135Y-68521D02*
X73964Y-68521D01*
X74050Y-68521D02*
X74050Y-68221D01*
X74021Y-68264D01*
X73992Y-68292D01*
X73964Y-68307D01*
G54D18*
X73071Y-65975D02*
X73083Y-65963D01*
X73107Y-65951D01*
X73166Y-65951D01*
X73190Y-65963D01*
X73202Y-65975D01*
X73214Y-65998D01*
X73214Y-66022D01*
X73202Y-66058D01*
X73059Y-66201D01*
X73214Y-66201D01*
X73321Y-66201D02*
X73321Y-65951D01*
X73464Y-66201D01*
X73464Y-65951D01*
X73559Y-65951D02*
X73714Y-65951D01*
X73630Y-66046D01*
X73666Y-66046D01*
X73690Y-66058D01*
X73702Y-66070D01*
X73714Y-66094D01*
X73714Y-66153D01*
X73702Y-66177D01*
X73690Y-66189D01*
X73666Y-66201D01*
X73595Y-66201D01*
X73571Y-66189D01*
X73559Y-66177D01*
X73833Y-66201D02*
X73880Y-66201D01*
X73904Y-66189D01*
X73916Y-66177D01*
X73940Y-66141D01*
X73952Y-66094D01*
X73952Y-65998D01*
X73940Y-65975D01*
X73928Y-65963D01*
X73904Y-65951D01*
X73857Y-65951D01*
X73833Y-65963D01*
X73821Y-65975D01*
X73809Y-65998D01*
X73809Y-66058D01*
X73821Y-66082D01*
X73833Y-66094D01*
X73857Y-66105D01*
X73904Y-66105D01*
X73928Y-66094D01*
X73940Y-66082D01*
X73952Y-66058D01*
X74107Y-65951D02*
X74130Y-65951D01*
X74154Y-65963D01*
X74166Y-65975D01*
X74178Y-65998D01*
X74190Y-66046D01*
X74190Y-66105D01*
X74178Y-66153D01*
X74166Y-66177D01*
X74154Y-66189D01*
X74130Y-66201D01*
X74107Y-66201D01*
X74083Y-66189D01*
X74071Y-66177D01*
X74059Y-66153D01*
X74047Y-66105D01*
X74047Y-66046D01*
X74059Y-65998D01*
X74071Y-65975D01*
X74083Y-65963D01*
X74107Y-65951D01*
X74404Y-65951D02*
X74357Y-65951D01*
X74333Y-65963D01*
X74321Y-65975D01*
X74297Y-66010D01*
X74285Y-66058D01*
X74285Y-66153D01*
X74297Y-66177D01*
X74309Y-66189D01*
X74333Y-66201D01*
X74380Y-66201D01*
X74404Y-66189D01*
X74416Y-66177D01*
X74428Y-66153D01*
X74428Y-66094D01*
X74416Y-66070D01*
X74404Y-66058D01*
X74380Y-66046D01*
X74333Y-66046D01*
X74309Y-66058D01*
X74297Y-66070D01*
X74285Y-66094D01*
X74320Y-66803D02*
X74320Y-66720D01*
X74451Y-66684D02*
X74451Y-66803D01*
X74201Y-66803D01*
X74201Y-66684D01*
X73670Y-67232D02*
X73682Y-67196D01*
X73694Y-67184D01*
X73717Y-67172D01*
X73753Y-67172D01*
X73777Y-67184D01*
X73789Y-67196D01*
X73801Y-67220D01*
X73801Y-67315D01*
X73551Y-67315D01*
X73551Y-67232D01*
X73563Y-67208D01*
X73575Y-67196D01*
X73598Y-67184D01*
X73622Y-67184D01*
X73646Y-67196D01*
X73658Y-67208D01*
X73670Y-67232D01*
X73670Y-67315D01*
X74427Y-67672D02*
X74439Y-67684D01*
X74451Y-67720D01*
X74451Y-67744D01*
X74439Y-67779D01*
X74415Y-67803D01*
X74391Y-67815D01*
X74344Y-67827D01*
X74308Y-67827D01*
X74260Y-67815D01*
X74236Y-67803D01*
X74213Y-67779D01*
X74201Y-67744D01*
X74201Y-67720D01*
X74213Y-67684D01*
X74225Y-67672D01*
G54D11*
X74078Y-60750D02*
X74050Y-60735D01*
X74021Y-60707D01*
X73978Y-60664D01*
X73950Y-60650D01*
X73921Y-60650D01*
X73935Y-60721D02*
X73907Y-60707D01*
X73878Y-60678D01*
X73864Y-60621D01*
X73864Y-60521D01*
X73878Y-60464D01*
X73907Y-60435D01*
X73935Y-60421D01*
X73992Y-60421D01*
X74021Y-60435D01*
X74050Y-60464D01*
X74064Y-60521D01*
X74064Y-60621D01*
X74050Y-60678D01*
X74021Y-60707D01*
X73992Y-60721D01*
X73935Y-60721D01*
X74321Y-60421D02*
X74264Y-60421D01*
X74235Y-60435D01*
X74221Y-60450D01*
X74192Y-60492D01*
X74178Y-60550D01*
X74178Y-60664D01*
X74192Y-60692D01*
X74207Y-60707D01*
X74235Y-60721D01*
X74292Y-60721D01*
X74321Y-60707D01*
X74335Y-60692D01*
X74350Y-60664D01*
X74350Y-60592D01*
X74335Y-60564D01*
X74321Y-60550D01*
X74292Y-60535D01*
X74235Y-60535D01*
X74207Y-60550D01*
X74192Y-60564D01*
X74178Y-60592D01*
X74535Y-60421D02*
X74564Y-60421D01*
X74592Y-60435D01*
X74607Y-60450D01*
X74621Y-60478D01*
X74635Y-60535D01*
X74635Y-60607D01*
X74621Y-60664D01*
X74607Y-60692D01*
X74592Y-60707D01*
X74564Y-60721D01*
X74535Y-60721D01*
X74507Y-60707D01*
X74492Y-60692D01*
X74478Y-60664D01*
X74464Y-60607D01*
X74464Y-60535D01*
X74478Y-60478D01*
X74492Y-60450D01*
X74507Y-60435D01*
X74535Y-60421D01*
G54D18*
X73571Y-62775D02*
X73583Y-62763D01*
X73607Y-62751D01*
X73666Y-62751D01*
X73690Y-62763D01*
X73702Y-62775D01*
X73714Y-62798D01*
X73714Y-62822D01*
X73702Y-62858D01*
X73559Y-63001D01*
X73714Y-63001D01*
X73821Y-63001D02*
X73821Y-62751D01*
X73964Y-63001D01*
X73964Y-62751D01*
X74059Y-62751D02*
X74214Y-62751D01*
X74130Y-62846D01*
X74166Y-62846D01*
X74190Y-62858D01*
X74202Y-62870D01*
X74214Y-62894D01*
X74214Y-62953D01*
X74202Y-62977D01*
X74190Y-62989D01*
X74166Y-63001D01*
X74095Y-63001D01*
X74071Y-62989D01*
X74059Y-62977D01*
X74333Y-63001D02*
X74380Y-63001D01*
X74404Y-62989D01*
X74416Y-62977D01*
X74440Y-62941D01*
X74452Y-62894D01*
X74452Y-62798D01*
X74440Y-62775D01*
X74428Y-62763D01*
X74404Y-62751D01*
X74357Y-62751D01*
X74333Y-62763D01*
X74321Y-62775D01*
X74309Y-62798D01*
X74309Y-62858D01*
X74321Y-62882D01*
X74333Y-62894D01*
X74357Y-62905D01*
X74404Y-62905D01*
X74428Y-62894D01*
X74440Y-62882D01*
X74452Y-62858D01*
X74607Y-62751D02*
X74630Y-62751D01*
X74654Y-62763D01*
X74666Y-62775D01*
X74678Y-62798D01*
X74690Y-62846D01*
X74690Y-62905D01*
X74678Y-62953D01*
X74666Y-62977D01*
X74654Y-62989D01*
X74630Y-63001D01*
X74607Y-63001D01*
X74583Y-62989D01*
X74571Y-62977D01*
X74559Y-62953D01*
X74547Y-62905D01*
X74547Y-62846D01*
X74559Y-62798D01*
X74571Y-62775D01*
X74583Y-62763D01*
X74607Y-62751D01*
X74904Y-62834D02*
X74904Y-63001D01*
X74845Y-62739D02*
X74785Y-62917D01*
X74940Y-62917D01*
X73620Y-62303D02*
X73620Y-62220D01*
X73751Y-62184D02*
X73751Y-62303D01*
X73501Y-62303D01*
X73501Y-62184D01*
X74270Y-61732D02*
X74282Y-61696D01*
X74294Y-61684D01*
X74317Y-61672D01*
X74353Y-61672D01*
X74377Y-61684D01*
X74389Y-61696D01*
X74401Y-61720D01*
X74401Y-61815D01*
X74151Y-61815D01*
X74151Y-61732D01*
X74163Y-61708D01*
X74175Y-61696D01*
X74198Y-61684D01*
X74222Y-61684D01*
X74246Y-61696D01*
X74258Y-61708D01*
X74270Y-61732D01*
X74270Y-61815D01*
X73727Y-61172D02*
X73739Y-61184D01*
X73751Y-61220D01*
X73751Y-61244D01*
X73739Y-61279D01*
X73715Y-61303D01*
X73691Y-61315D01*
X73644Y-61327D01*
X73608Y-61327D01*
X73560Y-61315D01*
X73536Y-61303D01*
X73513Y-61279D01*
X73501Y-61244D01*
X73501Y-61220D01*
X73513Y-61184D01*
X73525Y-61172D01*
G54D11*
X103978Y-61071D02*
X104150Y-61071D01*
X104064Y-61371D02*
X104064Y-61071D01*
X104250Y-61371D02*
X104250Y-61071D01*
X104364Y-61071D01*
X104392Y-61085D01*
X104407Y-61100D01*
X104421Y-61128D01*
X104421Y-61171D01*
X104407Y-61200D01*
X104392Y-61214D01*
X104364Y-61228D01*
X104250Y-61228D01*
X104678Y-61171D02*
X104678Y-61371D01*
X104607Y-61057D02*
X104535Y-61271D01*
X104721Y-61271D01*
X104807Y-61071D02*
X104992Y-61071D01*
X104892Y-61185D01*
X104935Y-61185D01*
X104964Y-61200D01*
X104978Y-61214D01*
X104992Y-61242D01*
X104992Y-61314D01*
X104978Y-61342D01*
X104964Y-61357D01*
X104935Y-61371D01*
X104850Y-61371D01*
X104821Y-61357D01*
X104807Y-61342D01*
X86728Y-63821D02*
X86900Y-63821D01*
X86814Y-64121D02*
X86814Y-63821D01*
X87000Y-64121D02*
X87000Y-63821D01*
X87114Y-63821D01*
X87142Y-63835D01*
X87157Y-63850D01*
X87171Y-63878D01*
X87171Y-63921D01*
X87157Y-63950D01*
X87142Y-63964D01*
X87114Y-63978D01*
X87000Y-63978D01*
X87285Y-63850D02*
X87300Y-63835D01*
X87328Y-63821D01*
X87400Y-63821D01*
X87428Y-63835D01*
X87442Y-63850D01*
X87457Y-63878D01*
X87457Y-63907D01*
X87442Y-63950D01*
X87271Y-64121D01*
X87457Y-64121D01*
X87742Y-64121D02*
X87571Y-64121D01*
X87657Y-64121D02*
X87657Y-63821D01*
X87628Y-63864D01*
X87600Y-63892D01*
X87571Y-63907D01*
X82478Y-51821D02*
X82650Y-51821D01*
X82564Y-52121D02*
X82564Y-51821D01*
X82750Y-52121D02*
X82750Y-51821D01*
X82864Y-51821D01*
X82892Y-51835D01*
X82907Y-51850D01*
X82921Y-51878D01*
X82921Y-51921D01*
X82907Y-51950D01*
X82892Y-51964D01*
X82864Y-51978D01*
X82750Y-51978D01*
X83035Y-51850D02*
X83050Y-51835D01*
X83078Y-51821D01*
X83150Y-51821D01*
X83178Y-51835D01*
X83192Y-51850D01*
X83207Y-51878D01*
X83207Y-51907D01*
X83192Y-51950D01*
X83021Y-52121D01*
X83207Y-52121D01*
X83464Y-51921D02*
X83464Y-52121D01*
X83392Y-51807D02*
X83321Y-52021D01*
X83507Y-52021D01*
X85478Y-51821D02*
X85650Y-51821D01*
X85564Y-52121D02*
X85564Y-51821D01*
X85750Y-52121D02*
X85750Y-51821D01*
X85864Y-51821D01*
X85892Y-51835D01*
X85907Y-51850D01*
X85921Y-51878D01*
X85921Y-51921D01*
X85907Y-51950D01*
X85892Y-51964D01*
X85864Y-51978D01*
X85750Y-51978D01*
X86035Y-51850D02*
X86050Y-51835D01*
X86078Y-51821D01*
X86150Y-51821D01*
X86178Y-51835D01*
X86192Y-51850D01*
X86207Y-51878D01*
X86207Y-51907D01*
X86192Y-51950D01*
X86021Y-52121D01*
X86207Y-52121D01*
X86321Y-51850D02*
X86335Y-51835D01*
X86364Y-51821D01*
X86435Y-51821D01*
X86464Y-51835D01*
X86478Y-51850D01*
X86492Y-51878D01*
X86492Y-51907D01*
X86478Y-51950D01*
X86307Y-52121D01*
X86492Y-52121D01*
X83978Y-51821D02*
X84150Y-51821D01*
X84064Y-52121D02*
X84064Y-51821D01*
X84250Y-52121D02*
X84250Y-51821D01*
X84364Y-51821D01*
X84392Y-51835D01*
X84407Y-51850D01*
X84421Y-51878D01*
X84421Y-51921D01*
X84407Y-51950D01*
X84392Y-51964D01*
X84364Y-51978D01*
X84250Y-51978D01*
X84535Y-51850D02*
X84550Y-51835D01*
X84578Y-51821D01*
X84650Y-51821D01*
X84678Y-51835D01*
X84692Y-51850D01*
X84707Y-51878D01*
X84707Y-51907D01*
X84692Y-51950D01*
X84521Y-52121D01*
X84707Y-52121D01*
X84807Y-51821D02*
X84992Y-51821D01*
X84892Y-51935D01*
X84935Y-51935D01*
X84964Y-51950D01*
X84978Y-51964D01*
X84992Y-51992D01*
X84992Y-52064D01*
X84978Y-52092D01*
X84964Y-52107D01*
X84935Y-52121D01*
X84850Y-52121D01*
X84821Y-52107D01*
X84807Y-52092D01*
X77728Y-51821D02*
X77900Y-51821D01*
X77814Y-52121D02*
X77814Y-51821D01*
X78000Y-52121D02*
X78000Y-51821D01*
X78114Y-51821D01*
X78142Y-51835D01*
X78157Y-51850D01*
X78171Y-51878D01*
X78171Y-51921D01*
X78157Y-51950D01*
X78142Y-51964D01*
X78114Y-51978D01*
X78000Y-51978D01*
X78457Y-52121D02*
X78285Y-52121D01*
X78371Y-52121D02*
X78371Y-51821D01*
X78342Y-51864D01*
X78314Y-51892D01*
X78285Y-51907D01*
X78571Y-51850D02*
X78585Y-51835D01*
X78614Y-51821D01*
X78685Y-51821D01*
X78714Y-51835D01*
X78728Y-51850D01*
X78742Y-51878D01*
X78742Y-51907D01*
X78728Y-51950D01*
X78557Y-52121D01*
X78742Y-52121D01*
X76228Y-51821D02*
X76400Y-51821D01*
X76314Y-52121D02*
X76314Y-51821D01*
X76500Y-52121D02*
X76500Y-51821D01*
X76614Y-51821D01*
X76642Y-51835D01*
X76657Y-51850D01*
X76671Y-51878D01*
X76671Y-51921D01*
X76657Y-51950D01*
X76642Y-51964D01*
X76614Y-51978D01*
X76500Y-51978D01*
X76957Y-52121D02*
X76785Y-52121D01*
X76871Y-52121D02*
X76871Y-51821D01*
X76842Y-51864D01*
X76814Y-51892D01*
X76785Y-51907D01*
X77057Y-51821D02*
X77242Y-51821D01*
X77142Y-51935D01*
X77185Y-51935D01*
X77214Y-51950D01*
X77228Y-51964D01*
X77242Y-51992D01*
X77242Y-52064D01*
X77228Y-52092D01*
X77214Y-52107D01*
X77185Y-52121D01*
X77100Y-52121D01*
X77071Y-52107D01*
X77057Y-52092D01*
X79228Y-51821D02*
X79400Y-51821D01*
X79314Y-52121D02*
X79314Y-51821D01*
X79500Y-52121D02*
X79500Y-51821D01*
X79614Y-51821D01*
X79642Y-51835D01*
X79657Y-51850D01*
X79671Y-51878D01*
X79671Y-51921D01*
X79657Y-51950D01*
X79642Y-51964D01*
X79614Y-51978D01*
X79500Y-51978D01*
X79957Y-52121D02*
X79785Y-52121D01*
X79871Y-52121D02*
X79871Y-51821D01*
X79842Y-51864D01*
X79814Y-51892D01*
X79785Y-51907D01*
X80214Y-51921D02*
X80214Y-52121D01*
X80142Y-51807D02*
X80071Y-52021D01*
X80257Y-52021D01*
X80478Y-63821D02*
X80650Y-63821D01*
X80564Y-64121D02*
X80564Y-63821D01*
X80750Y-64121D02*
X80750Y-63821D01*
X80864Y-63821D01*
X80892Y-63835D01*
X80907Y-63850D01*
X80921Y-63878D01*
X80921Y-63921D01*
X80907Y-63950D01*
X80892Y-63964D01*
X80864Y-63978D01*
X80750Y-63978D01*
X81207Y-64121D02*
X81035Y-64121D01*
X81121Y-64121D02*
X81121Y-63821D01*
X81092Y-63864D01*
X81064Y-63892D01*
X81035Y-63907D01*
X81492Y-64121D02*
X81321Y-64121D01*
X81407Y-64121D02*
X81407Y-63821D01*
X81378Y-63864D01*
X81350Y-63892D01*
X81321Y-63907D01*
X74121Y-69821D02*
X74292Y-69821D01*
X74207Y-70121D02*
X74207Y-69821D01*
X74392Y-70121D02*
X74392Y-69821D01*
X74507Y-69821D01*
X74535Y-69835D01*
X74550Y-69850D01*
X74564Y-69878D01*
X74564Y-69921D01*
X74550Y-69950D01*
X74535Y-69964D01*
X74507Y-69978D01*
X74392Y-69978D01*
X74750Y-69821D02*
X74778Y-69821D01*
X74807Y-69835D01*
X74821Y-69850D01*
X74835Y-69878D01*
X74850Y-69935D01*
X74850Y-70007D01*
X74835Y-70064D01*
X74821Y-70092D01*
X74807Y-70107D01*
X74778Y-70121D01*
X74750Y-70121D01*
X74721Y-70107D01*
X74707Y-70092D01*
X74692Y-70064D01*
X74678Y-70007D01*
X74678Y-69935D01*
X74692Y-69878D01*
X74707Y-69850D01*
X74721Y-69835D01*
X74750Y-69821D01*
X88478Y-61071D02*
X88650Y-61071D01*
X88564Y-61371D02*
X88564Y-61071D01*
X88750Y-61371D02*
X88750Y-61071D01*
X88864Y-61071D01*
X88892Y-61085D01*
X88907Y-61100D01*
X88921Y-61128D01*
X88921Y-61171D01*
X88907Y-61200D01*
X88892Y-61214D01*
X88864Y-61228D01*
X88750Y-61228D01*
X89021Y-61071D02*
X89207Y-61071D01*
X89107Y-61185D01*
X89150Y-61185D01*
X89178Y-61200D01*
X89192Y-61214D01*
X89207Y-61242D01*
X89207Y-61314D01*
X89192Y-61342D01*
X89178Y-61357D01*
X89150Y-61371D01*
X89064Y-61371D01*
X89035Y-61357D01*
X89021Y-61342D01*
X89321Y-61100D02*
X89335Y-61085D01*
X89364Y-61071D01*
X89435Y-61071D01*
X89464Y-61085D01*
X89478Y-61100D01*
X89492Y-61128D01*
X89492Y-61157D01*
X89478Y-61200D01*
X89307Y-61371D01*
X89492Y-61371D01*
X88478Y-62571D02*
X88650Y-62571D01*
X88564Y-62871D02*
X88564Y-62571D01*
X88750Y-62871D02*
X88750Y-62571D01*
X88864Y-62571D01*
X88892Y-62585D01*
X88907Y-62600D01*
X88921Y-62628D01*
X88921Y-62671D01*
X88907Y-62700D01*
X88892Y-62714D01*
X88864Y-62728D01*
X88750Y-62728D01*
X89021Y-62571D02*
X89207Y-62571D01*
X89107Y-62685D01*
X89150Y-62685D01*
X89178Y-62700D01*
X89192Y-62714D01*
X89207Y-62742D01*
X89207Y-62814D01*
X89192Y-62842D01*
X89178Y-62857D01*
X89150Y-62871D01*
X89064Y-62871D01*
X89035Y-62857D01*
X89021Y-62842D01*
X89492Y-62871D02*
X89321Y-62871D01*
X89407Y-62871D02*
X89407Y-62571D01*
X89378Y-62614D01*
X89350Y-62642D01*
X89321Y-62657D01*
X95478Y-61071D02*
X95650Y-61071D01*
X95564Y-61371D02*
X95564Y-61071D01*
X95750Y-61371D02*
X95750Y-61071D01*
X95864Y-61071D01*
X95892Y-61085D01*
X95907Y-61100D01*
X95921Y-61128D01*
X95921Y-61171D01*
X95907Y-61200D01*
X95892Y-61214D01*
X95864Y-61228D01*
X95750Y-61228D01*
X96178Y-61171D02*
X96178Y-61371D01*
X96107Y-61057D02*
X96035Y-61271D01*
X96221Y-61271D01*
X96464Y-61171D02*
X96464Y-61371D01*
X96392Y-61057D02*
X96321Y-61271D01*
X96507Y-61271D01*
X95478Y-62571D02*
X95650Y-62571D01*
X95564Y-62871D02*
X95564Y-62571D01*
X95750Y-62871D02*
X95750Y-62571D01*
X95864Y-62571D01*
X95892Y-62585D01*
X95907Y-62600D01*
X95921Y-62628D01*
X95921Y-62671D01*
X95907Y-62700D01*
X95892Y-62714D01*
X95864Y-62728D01*
X95750Y-62728D01*
X96178Y-62671D02*
X96178Y-62871D01*
X96107Y-62557D02*
X96035Y-62771D01*
X96221Y-62771D01*
X96492Y-62871D02*
X96321Y-62871D01*
X96407Y-62871D02*
X96407Y-62571D01*
X96378Y-62614D01*
X96350Y-62642D01*
X96321Y-62657D01*
X103978Y-62571D02*
X104150Y-62571D01*
X104064Y-62871D02*
X104064Y-62571D01*
X104250Y-62871D02*
X104250Y-62571D01*
X104364Y-62571D01*
X104392Y-62585D01*
X104407Y-62600D01*
X104421Y-62628D01*
X104421Y-62671D01*
X104407Y-62700D01*
X104392Y-62714D01*
X104364Y-62728D01*
X104250Y-62728D01*
X104678Y-62671D02*
X104678Y-62871D01*
X104607Y-62557D02*
X104535Y-62771D01*
X104721Y-62771D01*
X104821Y-62600D02*
X104835Y-62585D01*
X104864Y-62571D01*
X104935Y-62571D01*
X104964Y-62585D01*
X104978Y-62600D01*
X104992Y-62628D01*
X104992Y-62657D01*
X104978Y-62700D01*
X104807Y-62871D01*
X104992Y-62871D01*
X77257Y-67871D02*
X77157Y-67728D01*
X77085Y-67871D02*
X77085Y-67571D01*
X77200Y-67571D01*
X77228Y-67585D01*
X77242Y-67600D01*
X77257Y-67628D01*
X77257Y-67671D01*
X77242Y-67700D01*
X77228Y-67714D01*
X77200Y-67728D01*
X77085Y-67728D01*
X77542Y-67871D02*
X77371Y-67871D01*
X77457Y-67871D02*
X77457Y-67571D01*
X77428Y-67614D01*
X77400Y-67642D01*
X77371Y-67657D01*
X77828Y-67871D02*
X77657Y-67871D01*
X77742Y-67871D02*
X77742Y-67571D01*
X77714Y-67614D01*
X77685Y-67642D01*
X77657Y-67657D01*
X78992Y-67871D02*
X78821Y-67871D01*
X78907Y-67871D02*
X78907Y-67571D01*
X78878Y-67614D01*
X78850Y-67642D01*
X78821Y-67657D01*
X79178Y-67571D02*
X79207Y-67571D01*
X79235Y-67585D01*
X79250Y-67600D01*
X79264Y-67628D01*
X79278Y-67685D01*
X79278Y-67757D01*
X79264Y-67814D01*
X79250Y-67842D01*
X79235Y-67857D01*
X79207Y-67871D01*
X79178Y-67871D01*
X79150Y-67857D01*
X79135Y-67842D01*
X79121Y-67814D01*
X79107Y-67757D01*
X79107Y-67685D01*
X79121Y-67628D01*
X79135Y-67600D01*
X79150Y-67585D01*
X79178Y-67571D01*
X83507Y-69871D02*
X83407Y-69728D01*
X83335Y-69871D02*
X83335Y-69571D01*
X83450Y-69571D01*
X83478Y-69585D01*
X83492Y-69600D01*
X83507Y-69628D01*
X83507Y-69671D01*
X83492Y-69700D01*
X83478Y-69714D01*
X83450Y-69728D01*
X83335Y-69728D01*
X83621Y-69600D02*
X83635Y-69585D01*
X83664Y-69571D01*
X83735Y-69571D01*
X83764Y-69585D01*
X83778Y-69600D01*
X83792Y-69628D01*
X83792Y-69657D01*
X83778Y-69700D01*
X83607Y-69871D01*
X83792Y-69871D01*
X83892Y-69571D02*
X84078Y-69571D01*
X83978Y-69685D01*
X84021Y-69685D01*
X84050Y-69700D01*
X84064Y-69714D01*
X84078Y-69742D01*
X84078Y-69814D01*
X84064Y-69842D01*
X84050Y-69857D01*
X84021Y-69871D01*
X83935Y-69871D01*
X83907Y-69857D01*
X83892Y-69842D01*
X85121Y-69871D02*
X84950Y-69871D01*
X85035Y-69871D02*
X85035Y-69571D01*
X85007Y-69614D01*
X84978Y-69642D01*
X84950Y-69657D01*
X85307Y-69571D02*
X85335Y-69571D01*
X85364Y-69585D01*
X85378Y-69600D01*
X85392Y-69628D01*
X85407Y-69685D01*
X85407Y-69757D01*
X85392Y-69814D01*
X85378Y-69842D01*
X85364Y-69857D01*
X85335Y-69871D01*
X85307Y-69871D01*
X85278Y-69857D01*
X85264Y-69842D01*
X85250Y-69814D01*
X85235Y-69757D01*
X85235Y-69685D01*
X85250Y-69628D01*
X85264Y-69600D01*
X85278Y-69585D01*
X85307Y-69571D01*
X85535Y-69871D02*
X85535Y-69571D01*
X85564Y-69757D02*
X85650Y-69871D01*
X85650Y-69671D02*
X85535Y-69785D01*
X83507Y-58371D02*
X83407Y-58228D01*
X83335Y-58371D02*
X83335Y-58071D01*
X83450Y-58071D01*
X83478Y-58085D01*
X83492Y-58100D01*
X83507Y-58128D01*
X83507Y-58171D01*
X83492Y-58200D01*
X83478Y-58214D01*
X83450Y-58228D01*
X83335Y-58228D01*
X83621Y-58100D02*
X83635Y-58085D01*
X83664Y-58071D01*
X83735Y-58071D01*
X83764Y-58085D01*
X83778Y-58100D01*
X83792Y-58128D01*
X83792Y-58157D01*
X83778Y-58200D01*
X83607Y-58371D01*
X83792Y-58371D01*
X84064Y-58071D02*
X83921Y-58071D01*
X83907Y-58214D01*
X83921Y-58200D01*
X83950Y-58185D01*
X84021Y-58185D01*
X84050Y-58200D01*
X84064Y-58214D01*
X84078Y-58242D01*
X84078Y-58314D01*
X84064Y-58342D01*
X84050Y-58357D01*
X84021Y-58371D01*
X83950Y-58371D01*
X83921Y-58357D01*
X83907Y-58342D01*
X85135Y-58071D02*
X85164Y-58071D01*
X85192Y-58085D01*
X85207Y-58100D01*
X85221Y-58128D01*
X85235Y-58185D01*
X85235Y-58257D01*
X85221Y-58314D01*
X85207Y-58342D01*
X85192Y-58357D01*
X85164Y-58371D01*
X85135Y-58371D01*
X85107Y-58357D01*
X85092Y-58342D01*
X85078Y-58314D01*
X85064Y-58257D01*
X85064Y-58185D01*
X85078Y-58128D01*
X85092Y-58100D01*
X85107Y-58085D01*
X85135Y-58071D01*
X85535Y-58371D02*
X85435Y-58228D01*
X85364Y-58371D02*
X85364Y-58071D01*
X85478Y-58071D01*
X85507Y-58085D01*
X85521Y-58100D01*
X85535Y-58128D01*
X85535Y-58171D01*
X85521Y-58200D01*
X85507Y-58214D01*
X85478Y-58228D01*
X85364Y-58228D01*
X83507Y-68871D02*
X83407Y-68728D01*
X83335Y-68871D02*
X83335Y-68571D01*
X83450Y-68571D01*
X83478Y-68585D01*
X83492Y-68600D01*
X83507Y-68628D01*
X83507Y-68671D01*
X83492Y-68700D01*
X83478Y-68714D01*
X83450Y-68728D01*
X83335Y-68728D01*
X83621Y-68600D02*
X83635Y-68585D01*
X83664Y-68571D01*
X83735Y-68571D01*
X83764Y-68585D01*
X83778Y-68600D01*
X83792Y-68628D01*
X83792Y-68657D01*
X83778Y-68700D01*
X83607Y-68871D01*
X83792Y-68871D01*
X83907Y-68600D02*
X83921Y-68585D01*
X83950Y-68571D01*
X84021Y-68571D01*
X84050Y-68585D01*
X84064Y-68600D01*
X84078Y-68628D01*
X84078Y-68657D01*
X84064Y-68700D01*
X83892Y-68871D01*
X84078Y-68871D01*
X85242Y-68871D02*
X85071Y-68871D01*
X85157Y-68871D02*
X85157Y-68571D01*
X85128Y-68614D01*
X85100Y-68642D01*
X85071Y-68657D01*
X85428Y-68571D02*
X85457Y-68571D01*
X85485Y-68585D01*
X85500Y-68600D01*
X85514Y-68628D01*
X85528Y-68685D01*
X85528Y-68757D01*
X85514Y-68814D01*
X85500Y-68842D01*
X85485Y-68857D01*
X85457Y-68871D01*
X85428Y-68871D01*
X85400Y-68857D01*
X85385Y-68842D01*
X85371Y-68814D01*
X85357Y-68757D01*
X85357Y-68685D01*
X85371Y-68628D01*
X85385Y-68600D01*
X85400Y-68585D01*
X85428Y-68571D01*
X96371Y-65142D02*
X96228Y-65242D01*
X96371Y-65314D02*
X96071Y-65314D01*
X96071Y-65200D01*
X96085Y-65171D01*
X96100Y-65157D01*
X96128Y-65142D01*
X96171Y-65142D01*
X96200Y-65157D01*
X96214Y-65171D01*
X96228Y-65200D01*
X96228Y-65314D01*
X96171Y-64885D02*
X96371Y-64885D01*
X96057Y-64957D02*
X96271Y-65028D01*
X96271Y-64842D01*
X96071Y-64671D02*
X96071Y-64642D01*
X96085Y-64614D01*
X96100Y-64600D01*
X96128Y-64585D01*
X96185Y-64571D01*
X96257Y-64571D01*
X96314Y-64585D01*
X96342Y-64600D01*
X96357Y-64614D01*
X96371Y-64642D01*
X96371Y-64671D01*
X96357Y-64700D01*
X96342Y-64714D01*
X96314Y-64728D01*
X96257Y-64742D01*
X96185Y-64742D01*
X96128Y-64728D01*
X96100Y-64714D01*
X96085Y-64700D01*
X96071Y-64671D01*
X96371Y-66728D02*
X96371Y-66899D01*
X96371Y-66814D02*
X96071Y-66814D01*
X96114Y-66842D01*
X96142Y-66871D01*
X96157Y-66899D01*
X96071Y-66542D02*
X96071Y-66514D01*
X96085Y-66485D01*
X96100Y-66471D01*
X96128Y-66457D01*
X96185Y-66442D01*
X96257Y-66442D01*
X96314Y-66457D01*
X96342Y-66471D01*
X96357Y-66485D01*
X96371Y-66514D01*
X96371Y-66542D01*
X96357Y-66571D01*
X96342Y-66585D01*
X96314Y-66599D01*
X96257Y-66614D01*
X96185Y-66614D01*
X96128Y-66599D01*
X96100Y-66585D01*
X96085Y-66571D01*
X96071Y-66542D01*
X96371Y-66314D02*
X96071Y-66314D01*
X96257Y-66285D02*
X96371Y-66200D01*
X96171Y-66200D02*
X96285Y-66314D01*
X97371Y-65142D02*
X97228Y-65242D01*
X97371Y-65314D02*
X97071Y-65314D01*
X97071Y-65200D01*
X97085Y-65171D01*
X97100Y-65157D01*
X97128Y-65142D01*
X97171Y-65142D01*
X97200Y-65157D01*
X97214Y-65171D01*
X97228Y-65200D01*
X97228Y-65314D01*
X97171Y-64885D02*
X97371Y-64885D01*
X97057Y-64957D02*
X97271Y-65028D01*
X97271Y-64842D01*
X97371Y-64571D02*
X97371Y-64742D01*
X97371Y-64657D02*
X97071Y-64657D01*
X97114Y-64685D01*
X97142Y-64714D01*
X97157Y-64742D01*
X97371Y-66607D02*
X97371Y-66778D01*
X97371Y-66692D02*
X97071Y-66692D01*
X97114Y-66721D01*
X97142Y-66750D01*
X97157Y-66778D01*
X97071Y-66421D02*
X97071Y-66392D01*
X97085Y-66364D01*
X97100Y-66350D01*
X97128Y-66335D01*
X97185Y-66321D01*
X97257Y-66321D01*
X97314Y-66335D01*
X97342Y-66350D01*
X97357Y-66364D01*
X97371Y-66392D01*
X97371Y-66421D01*
X97357Y-66450D01*
X97342Y-66464D01*
X97314Y-66478D01*
X97257Y-66492D01*
X97185Y-66492D01*
X97128Y-66478D01*
X97100Y-66464D01*
X97085Y-66450D01*
X97071Y-66421D01*
X99371Y-65142D02*
X99228Y-65242D01*
X99371Y-65314D02*
X99071Y-65314D01*
X99071Y-65200D01*
X99085Y-65171D01*
X99100Y-65157D01*
X99128Y-65142D01*
X99171Y-65142D01*
X99200Y-65157D01*
X99214Y-65171D01*
X99228Y-65200D01*
X99228Y-65314D01*
X99171Y-64885D02*
X99371Y-64885D01*
X99057Y-64957D02*
X99271Y-65028D01*
X99271Y-64842D01*
X99100Y-64742D02*
X99085Y-64728D01*
X99071Y-64700D01*
X99071Y-64628D01*
X99085Y-64600D01*
X99100Y-64585D01*
X99128Y-64571D01*
X99157Y-64571D01*
X99200Y-64585D01*
X99371Y-64757D01*
X99371Y-64571D01*
X99371Y-66607D02*
X99371Y-66778D01*
X99371Y-66692D02*
X99071Y-66692D01*
X99114Y-66721D01*
X99142Y-66750D01*
X99157Y-66778D01*
X99071Y-66421D02*
X99071Y-66392D01*
X99085Y-66364D01*
X99100Y-66350D01*
X99128Y-66335D01*
X99185Y-66321D01*
X99257Y-66321D01*
X99314Y-66335D01*
X99342Y-66350D01*
X99357Y-66364D01*
X99371Y-66392D01*
X99371Y-66421D01*
X99357Y-66450D01*
X99342Y-66464D01*
X99314Y-66478D01*
X99257Y-66492D01*
X99185Y-66492D01*
X99128Y-66478D01*
X99100Y-66464D01*
X99085Y-66450D01*
X99071Y-66421D01*
X98371Y-65142D02*
X98228Y-65242D01*
X98371Y-65314D02*
X98071Y-65314D01*
X98071Y-65200D01*
X98085Y-65171D01*
X98100Y-65157D01*
X98128Y-65142D01*
X98171Y-65142D01*
X98200Y-65157D01*
X98214Y-65171D01*
X98228Y-65200D01*
X98228Y-65314D01*
X98171Y-64885D02*
X98371Y-64885D01*
X98057Y-64957D02*
X98271Y-65028D01*
X98271Y-64842D01*
X98071Y-64757D02*
X98071Y-64571D01*
X98185Y-64671D01*
X98185Y-64628D01*
X98200Y-64600D01*
X98214Y-64585D01*
X98242Y-64571D01*
X98314Y-64571D01*
X98342Y-64585D01*
X98357Y-64600D01*
X98371Y-64628D01*
X98371Y-64714D01*
X98357Y-64742D01*
X98342Y-64757D01*
X98371Y-66728D02*
X98371Y-66899D01*
X98371Y-66814D02*
X98071Y-66814D01*
X98114Y-66842D01*
X98142Y-66871D01*
X98157Y-66899D01*
X98071Y-66542D02*
X98071Y-66514D01*
X98085Y-66485D01*
X98100Y-66471D01*
X98128Y-66457D01*
X98185Y-66442D01*
X98257Y-66442D01*
X98314Y-66457D01*
X98342Y-66471D01*
X98357Y-66485D01*
X98371Y-66514D01*
X98371Y-66542D01*
X98357Y-66571D01*
X98342Y-66585D01*
X98314Y-66599D01*
X98257Y-66614D01*
X98185Y-66614D01*
X98128Y-66599D01*
X98100Y-66585D01*
X98085Y-66571D01*
X98071Y-66542D01*
X98371Y-66314D02*
X98071Y-66314D01*
X98257Y-66285D02*
X98371Y-66200D01*
X98171Y-66200D02*
X98285Y-66314D01*
X104371Y-65142D02*
X104228Y-65242D01*
X104371Y-65314D02*
X104071Y-65314D01*
X104071Y-65200D01*
X104085Y-65171D01*
X104100Y-65157D01*
X104128Y-65142D01*
X104171Y-65142D01*
X104200Y-65157D01*
X104214Y-65171D01*
X104228Y-65200D01*
X104228Y-65314D01*
X104171Y-64885D02*
X104371Y-64885D01*
X104057Y-64957D02*
X104271Y-65028D01*
X104271Y-64842D01*
X104171Y-64600D02*
X104371Y-64600D01*
X104057Y-64671D02*
X104271Y-64742D01*
X104271Y-64557D01*
X104371Y-66728D02*
X104371Y-66899D01*
X104371Y-66814D02*
X104071Y-66814D01*
X104114Y-66842D01*
X104142Y-66871D01*
X104157Y-66899D01*
X104071Y-66542D02*
X104071Y-66514D01*
X104085Y-66485D01*
X104100Y-66471D01*
X104128Y-66457D01*
X104185Y-66442D01*
X104257Y-66442D01*
X104314Y-66457D01*
X104342Y-66471D01*
X104357Y-66485D01*
X104371Y-66514D01*
X104371Y-66542D01*
X104357Y-66571D01*
X104342Y-66585D01*
X104314Y-66599D01*
X104257Y-66614D01*
X104185Y-66614D01*
X104128Y-66599D01*
X104100Y-66585D01*
X104085Y-66571D01*
X104071Y-66542D01*
X104371Y-66314D02*
X104071Y-66314D01*
X104257Y-66285D02*
X104371Y-66200D01*
X104171Y-66200D02*
X104285Y-66314D01*
X103371Y-65142D02*
X103228Y-65242D01*
X103371Y-65314D02*
X103071Y-65314D01*
X103071Y-65200D01*
X103085Y-65171D01*
X103100Y-65157D01*
X103128Y-65142D01*
X103171Y-65142D01*
X103200Y-65157D01*
X103214Y-65171D01*
X103228Y-65200D01*
X103228Y-65314D01*
X103171Y-64885D02*
X103371Y-64885D01*
X103057Y-64957D02*
X103271Y-65028D01*
X103271Y-64842D01*
X103071Y-64585D02*
X103071Y-64728D01*
X103214Y-64742D01*
X103200Y-64728D01*
X103185Y-64700D01*
X103185Y-64628D01*
X103200Y-64600D01*
X103214Y-64585D01*
X103242Y-64571D01*
X103314Y-64571D01*
X103342Y-64585D01*
X103357Y-64600D01*
X103371Y-64628D01*
X103371Y-64700D01*
X103357Y-64728D01*
X103342Y-64742D01*
X103371Y-66607D02*
X103371Y-66778D01*
X103371Y-66692D02*
X103071Y-66692D01*
X103114Y-66721D01*
X103142Y-66750D01*
X103157Y-66778D01*
X103071Y-66421D02*
X103071Y-66392D01*
X103085Y-66364D01*
X103100Y-66350D01*
X103128Y-66335D01*
X103185Y-66321D01*
X103257Y-66321D01*
X103314Y-66335D01*
X103342Y-66350D01*
X103357Y-66364D01*
X103371Y-66392D01*
X103371Y-66421D01*
X103357Y-66450D01*
X103342Y-66464D01*
X103314Y-66478D01*
X103257Y-66492D01*
X103185Y-66492D01*
X103128Y-66478D01*
X103100Y-66464D01*
X103085Y-66450D01*
X103071Y-66421D01*
X101371Y-65142D02*
X101228Y-65242D01*
X101371Y-65314D02*
X101071Y-65314D01*
X101071Y-65200D01*
X101085Y-65171D01*
X101100Y-65157D01*
X101128Y-65142D01*
X101171Y-65142D01*
X101200Y-65157D01*
X101214Y-65171D01*
X101228Y-65200D01*
X101228Y-65314D01*
X101171Y-64885D02*
X101371Y-64885D01*
X101057Y-64957D02*
X101271Y-65028D01*
X101271Y-64842D01*
X101071Y-64600D02*
X101071Y-64657D01*
X101085Y-64685D01*
X101100Y-64700D01*
X101142Y-64728D01*
X101200Y-64742D01*
X101314Y-64742D01*
X101342Y-64728D01*
X101357Y-64714D01*
X101371Y-64685D01*
X101371Y-64628D01*
X101357Y-64600D01*
X101342Y-64585D01*
X101314Y-64571D01*
X101242Y-64571D01*
X101214Y-64585D01*
X101200Y-64600D01*
X101185Y-64628D01*
X101185Y-64685D01*
X101200Y-64714D01*
X101214Y-64728D01*
X101242Y-64742D01*
X101371Y-66607D02*
X101371Y-66778D01*
X101371Y-66692D02*
X101071Y-66692D01*
X101114Y-66721D01*
X101142Y-66750D01*
X101157Y-66778D01*
X101071Y-66421D02*
X101071Y-66392D01*
X101085Y-66364D01*
X101100Y-66350D01*
X101128Y-66335D01*
X101185Y-66321D01*
X101257Y-66321D01*
X101314Y-66335D01*
X101342Y-66350D01*
X101357Y-66364D01*
X101371Y-66392D01*
X101371Y-66421D01*
X101357Y-66450D01*
X101342Y-66464D01*
X101314Y-66478D01*
X101257Y-66492D01*
X101185Y-66492D01*
X101128Y-66478D01*
X101100Y-66464D01*
X101085Y-66450D01*
X101071Y-66421D01*
X102371Y-65142D02*
X102228Y-65242D01*
X102371Y-65314D02*
X102071Y-65314D01*
X102071Y-65200D01*
X102085Y-65171D01*
X102100Y-65157D01*
X102128Y-65142D01*
X102171Y-65142D01*
X102200Y-65157D01*
X102214Y-65171D01*
X102228Y-65200D01*
X102228Y-65314D01*
X102171Y-64885D02*
X102371Y-64885D01*
X102057Y-64957D02*
X102271Y-65028D01*
X102271Y-64842D01*
X102071Y-64757D02*
X102071Y-64557D01*
X102371Y-64685D01*
X102371Y-66728D02*
X102371Y-66899D01*
X102371Y-66814D02*
X102071Y-66814D01*
X102114Y-66842D01*
X102142Y-66871D01*
X102157Y-66899D01*
X102071Y-66542D02*
X102071Y-66514D01*
X102085Y-66485D01*
X102100Y-66471D01*
X102128Y-66457D01*
X102185Y-66442D01*
X102257Y-66442D01*
X102314Y-66457D01*
X102342Y-66471D01*
X102357Y-66485D01*
X102371Y-66514D01*
X102371Y-66542D01*
X102357Y-66571D01*
X102342Y-66585D01*
X102314Y-66599D01*
X102257Y-66614D01*
X102185Y-66614D01*
X102128Y-66599D01*
X102100Y-66585D01*
X102085Y-66571D01*
X102071Y-66542D01*
X102371Y-66314D02*
X102071Y-66314D01*
X102257Y-66285D02*
X102371Y-66200D01*
X102171Y-66200D02*
X102285Y-66314D01*
X104371Y-57742D02*
X104228Y-57842D01*
X104371Y-57914D02*
X104071Y-57914D01*
X104071Y-57800D01*
X104085Y-57771D01*
X104100Y-57757D01*
X104128Y-57742D01*
X104171Y-57742D01*
X104200Y-57757D01*
X104214Y-57771D01*
X104228Y-57800D01*
X104228Y-57914D01*
X104171Y-57485D02*
X104371Y-57485D01*
X104057Y-57557D02*
X104271Y-57628D01*
X104271Y-57442D01*
X104200Y-57285D02*
X104185Y-57314D01*
X104171Y-57328D01*
X104142Y-57342D01*
X104128Y-57342D01*
X104100Y-57328D01*
X104085Y-57314D01*
X104071Y-57285D01*
X104071Y-57228D01*
X104085Y-57200D01*
X104100Y-57185D01*
X104128Y-57171D01*
X104142Y-57171D01*
X104171Y-57185D01*
X104185Y-57200D01*
X104200Y-57228D01*
X104200Y-57285D01*
X104214Y-57314D01*
X104228Y-57328D01*
X104257Y-57342D01*
X104314Y-57342D01*
X104342Y-57328D01*
X104357Y-57314D01*
X104371Y-57285D01*
X104371Y-57228D01*
X104357Y-57200D01*
X104342Y-57185D01*
X104314Y-57171D01*
X104257Y-57171D01*
X104228Y-57185D01*
X104214Y-57200D01*
X104200Y-57228D01*
X104371Y-56128D02*
X104371Y-56299D01*
X104371Y-56214D02*
X104071Y-56214D01*
X104114Y-56242D01*
X104142Y-56271D01*
X104157Y-56299D01*
X104071Y-55942D02*
X104071Y-55914D01*
X104085Y-55885D01*
X104100Y-55871D01*
X104128Y-55857D01*
X104185Y-55842D01*
X104257Y-55842D01*
X104314Y-55857D01*
X104342Y-55871D01*
X104357Y-55885D01*
X104371Y-55914D01*
X104371Y-55942D01*
X104357Y-55971D01*
X104342Y-55985D01*
X104314Y-55999D01*
X104257Y-56014D01*
X104185Y-56014D01*
X104128Y-55999D01*
X104100Y-55985D01*
X104085Y-55971D01*
X104071Y-55942D01*
X104371Y-55714D02*
X104071Y-55714D01*
X104257Y-55685D02*
X104371Y-55600D01*
X104171Y-55600D02*
X104285Y-55714D01*
X103371Y-57742D02*
X103228Y-57842D01*
X103371Y-57914D02*
X103071Y-57914D01*
X103071Y-57800D01*
X103085Y-57771D01*
X103100Y-57757D01*
X103128Y-57742D01*
X103171Y-57742D01*
X103200Y-57757D01*
X103214Y-57771D01*
X103228Y-57800D01*
X103228Y-57914D01*
X103171Y-57485D02*
X103371Y-57485D01*
X103057Y-57557D02*
X103271Y-57628D01*
X103271Y-57442D01*
X103371Y-57314D02*
X103371Y-57257D01*
X103357Y-57228D01*
X103342Y-57214D01*
X103300Y-57185D01*
X103242Y-57171D01*
X103128Y-57171D01*
X103100Y-57185D01*
X103085Y-57200D01*
X103071Y-57228D01*
X103071Y-57285D01*
X103085Y-57314D01*
X103100Y-57328D01*
X103128Y-57342D01*
X103200Y-57342D01*
X103228Y-57328D01*
X103242Y-57314D01*
X103257Y-57285D01*
X103257Y-57228D01*
X103242Y-57200D01*
X103228Y-57185D01*
X103200Y-57171D01*
X103371Y-56007D02*
X103371Y-56178D01*
X103371Y-56092D02*
X103071Y-56092D01*
X103114Y-56121D01*
X103142Y-56150D01*
X103157Y-56178D01*
X103071Y-55821D02*
X103071Y-55792D01*
X103085Y-55764D01*
X103100Y-55750D01*
X103128Y-55735D01*
X103185Y-55721D01*
X103257Y-55721D01*
X103314Y-55735D01*
X103342Y-55750D01*
X103357Y-55764D01*
X103371Y-55792D01*
X103371Y-55821D01*
X103357Y-55850D01*
X103342Y-55864D01*
X103314Y-55878D01*
X103257Y-55892D01*
X103185Y-55892D01*
X103128Y-55878D01*
X103100Y-55864D01*
X103085Y-55850D01*
X103071Y-55821D01*
X101371Y-57742D02*
X101228Y-57842D01*
X101371Y-57914D02*
X101071Y-57914D01*
X101071Y-57800D01*
X101085Y-57771D01*
X101100Y-57757D01*
X101128Y-57742D01*
X101171Y-57742D01*
X101200Y-57757D01*
X101214Y-57771D01*
X101228Y-57800D01*
X101228Y-57914D01*
X101071Y-57471D02*
X101071Y-57614D01*
X101214Y-57628D01*
X101200Y-57614D01*
X101185Y-57585D01*
X101185Y-57514D01*
X101200Y-57485D01*
X101214Y-57471D01*
X101242Y-57457D01*
X101314Y-57457D01*
X101342Y-57471D01*
X101357Y-57485D01*
X101371Y-57514D01*
X101371Y-57585D01*
X101357Y-57614D01*
X101342Y-57628D01*
X101071Y-57271D02*
X101071Y-57242D01*
X101085Y-57214D01*
X101100Y-57200D01*
X101128Y-57185D01*
X101185Y-57171D01*
X101257Y-57171D01*
X101314Y-57185D01*
X101342Y-57200D01*
X101357Y-57214D01*
X101371Y-57242D01*
X101371Y-57271D01*
X101357Y-57300D01*
X101342Y-57314D01*
X101314Y-57328D01*
X101257Y-57342D01*
X101185Y-57342D01*
X101128Y-57328D01*
X101100Y-57314D01*
X101085Y-57300D01*
X101071Y-57271D01*
X101371Y-56007D02*
X101371Y-56178D01*
X101371Y-56092D02*
X101071Y-56092D01*
X101114Y-56121D01*
X101142Y-56150D01*
X101157Y-56178D01*
X101071Y-55821D02*
X101071Y-55792D01*
X101085Y-55764D01*
X101100Y-55750D01*
X101128Y-55735D01*
X101185Y-55721D01*
X101257Y-55721D01*
X101314Y-55735D01*
X101342Y-55750D01*
X101357Y-55764D01*
X101371Y-55792D01*
X101371Y-55821D01*
X101357Y-55850D01*
X101342Y-55864D01*
X101314Y-55878D01*
X101257Y-55892D01*
X101185Y-55892D01*
X101128Y-55878D01*
X101100Y-55864D01*
X101085Y-55850D01*
X101071Y-55821D01*
X102371Y-57742D02*
X102228Y-57842D01*
X102371Y-57914D02*
X102071Y-57914D01*
X102071Y-57800D01*
X102085Y-57771D01*
X102100Y-57757D01*
X102128Y-57742D01*
X102171Y-57742D01*
X102200Y-57757D01*
X102214Y-57771D01*
X102228Y-57800D01*
X102228Y-57914D01*
X102071Y-57471D02*
X102071Y-57614D01*
X102214Y-57628D01*
X102200Y-57614D01*
X102185Y-57585D01*
X102185Y-57514D01*
X102200Y-57485D01*
X102214Y-57471D01*
X102242Y-57457D01*
X102314Y-57457D01*
X102342Y-57471D01*
X102357Y-57485D01*
X102371Y-57514D01*
X102371Y-57585D01*
X102357Y-57614D01*
X102342Y-57628D01*
X102371Y-57171D02*
X102371Y-57342D01*
X102371Y-57257D02*
X102071Y-57257D01*
X102114Y-57285D01*
X102142Y-57314D01*
X102157Y-57342D01*
X102371Y-56128D02*
X102371Y-56299D01*
X102371Y-56214D02*
X102071Y-56214D01*
X102114Y-56242D01*
X102142Y-56271D01*
X102157Y-56299D01*
X102071Y-55942D02*
X102071Y-55914D01*
X102085Y-55885D01*
X102100Y-55871D01*
X102128Y-55857D01*
X102185Y-55842D01*
X102257Y-55842D01*
X102314Y-55857D01*
X102342Y-55871D01*
X102357Y-55885D01*
X102371Y-55914D01*
X102371Y-55942D01*
X102357Y-55971D01*
X102342Y-55985D01*
X102314Y-55999D01*
X102257Y-56014D01*
X102185Y-56014D01*
X102128Y-55999D01*
X102100Y-55985D01*
X102085Y-55971D01*
X102071Y-55942D01*
X102371Y-55714D02*
X102071Y-55714D01*
X102257Y-55685D02*
X102371Y-55600D01*
X102171Y-55600D02*
X102285Y-55714D01*
X96371Y-57742D02*
X96228Y-57842D01*
X96371Y-57914D02*
X96071Y-57914D01*
X96071Y-57800D01*
X96085Y-57771D01*
X96100Y-57757D01*
X96128Y-57742D01*
X96171Y-57742D01*
X96200Y-57757D01*
X96214Y-57771D01*
X96228Y-57800D01*
X96228Y-57914D01*
X96071Y-57471D02*
X96071Y-57614D01*
X96214Y-57628D01*
X96200Y-57614D01*
X96185Y-57585D01*
X96185Y-57514D01*
X96200Y-57485D01*
X96214Y-57471D01*
X96242Y-57457D01*
X96314Y-57457D01*
X96342Y-57471D01*
X96357Y-57485D01*
X96371Y-57514D01*
X96371Y-57585D01*
X96357Y-57614D01*
X96342Y-57628D01*
X96100Y-57342D02*
X96085Y-57328D01*
X96071Y-57300D01*
X96071Y-57228D01*
X96085Y-57200D01*
X96100Y-57185D01*
X96128Y-57171D01*
X96157Y-57171D01*
X96200Y-57185D01*
X96371Y-57357D01*
X96371Y-57171D01*
X96371Y-56128D02*
X96371Y-56299D01*
X96371Y-56214D02*
X96071Y-56214D01*
X96114Y-56242D01*
X96142Y-56271D01*
X96157Y-56299D01*
X96071Y-55942D02*
X96071Y-55914D01*
X96085Y-55885D01*
X96100Y-55871D01*
X96128Y-55857D01*
X96185Y-55842D01*
X96257Y-55842D01*
X96314Y-55857D01*
X96342Y-55871D01*
X96357Y-55885D01*
X96371Y-55914D01*
X96371Y-55942D01*
X96357Y-55971D01*
X96342Y-55985D01*
X96314Y-55999D01*
X96257Y-56014D01*
X96185Y-56014D01*
X96128Y-55999D01*
X96100Y-55985D01*
X96085Y-55971D01*
X96071Y-55942D01*
X96371Y-55714D02*
X96071Y-55714D01*
X96257Y-55685D02*
X96371Y-55600D01*
X96171Y-55600D02*
X96285Y-55714D01*
X97371Y-57742D02*
X97228Y-57842D01*
X97371Y-57914D02*
X97071Y-57914D01*
X97071Y-57800D01*
X97085Y-57771D01*
X97100Y-57757D01*
X97128Y-57742D01*
X97171Y-57742D01*
X97200Y-57757D01*
X97214Y-57771D01*
X97228Y-57800D01*
X97228Y-57914D01*
X97071Y-57471D02*
X97071Y-57614D01*
X97214Y-57628D01*
X97200Y-57614D01*
X97185Y-57585D01*
X97185Y-57514D01*
X97200Y-57485D01*
X97214Y-57471D01*
X97242Y-57457D01*
X97314Y-57457D01*
X97342Y-57471D01*
X97357Y-57485D01*
X97371Y-57514D01*
X97371Y-57585D01*
X97357Y-57614D01*
X97342Y-57628D01*
X97071Y-57357D02*
X97071Y-57171D01*
X97185Y-57271D01*
X97185Y-57228D01*
X97200Y-57200D01*
X97214Y-57185D01*
X97242Y-57171D01*
X97314Y-57171D01*
X97342Y-57185D01*
X97357Y-57200D01*
X97371Y-57228D01*
X97371Y-57314D01*
X97357Y-57342D01*
X97342Y-57357D01*
X97371Y-56007D02*
X97371Y-56178D01*
X97371Y-56092D02*
X97071Y-56092D01*
X97114Y-56121D01*
X97142Y-56150D01*
X97157Y-56178D01*
X97071Y-55821D02*
X97071Y-55792D01*
X97085Y-55764D01*
X97100Y-55750D01*
X97128Y-55735D01*
X97185Y-55721D01*
X97257Y-55721D01*
X97314Y-55735D01*
X97342Y-55750D01*
X97357Y-55764D01*
X97371Y-55792D01*
X97371Y-55821D01*
X97357Y-55850D01*
X97342Y-55864D01*
X97314Y-55878D01*
X97257Y-55892D01*
X97185Y-55892D01*
X97128Y-55878D01*
X97100Y-55864D01*
X97085Y-55850D01*
X97071Y-55821D01*
X99371Y-57742D02*
X99228Y-57842D01*
X99371Y-57914D02*
X99071Y-57914D01*
X99071Y-57800D01*
X99085Y-57771D01*
X99100Y-57757D01*
X99128Y-57742D01*
X99171Y-57742D01*
X99200Y-57757D01*
X99214Y-57771D01*
X99228Y-57800D01*
X99228Y-57914D01*
X99071Y-57471D02*
X99071Y-57614D01*
X99214Y-57628D01*
X99200Y-57614D01*
X99185Y-57585D01*
X99185Y-57514D01*
X99200Y-57485D01*
X99214Y-57471D01*
X99242Y-57457D01*
X99314Y-57457D01*
X99342Y-57471D01*
X99357Y-57485D01*
X99371Y-57514D01*
X99371Y-57585D01*
X99357Y-57614D01*
X99342Y-57628D01*
X99171Y-57200D02*
X99371Y-57200D01*
X99057Y-57271D02*
X99271Y-57342D01*
X99271Y-57157D01*
X99371Y-56007D02*
X99371Y-56178D01*
X99371Y-56092D02*
X99071Y-56092D01*
X99114Y-56121D01*
X99142Y-56150D01*
X99157Y-56178D01*
X99071Y-55821D02*
X99071Y-55792D01*
X99085Y-55764D01*
X99100Y-55750D01*
X99128Y-55735D01*
X99185Y-55721D01*
X99257Y-55721D01*
X99314Y-55735D01*
X99342Y-55750D01*
X99357Y-55764D01*
X99371Y-55792D01*
X99371Y-55821D01*
X99357Y-55850D01*
X99342Y-55864D01*
X99314Y-55878D01*
X99257Y-55892D01*
X99185Y-55892D01*
X99128Y-55878D01*
X99100Y-55864D01*
X99085Y-55850D01*
X99071Y-55821D01*
X98371Y-57742D02*
X98228Y-57842D01*
X98371Y-57914D02*
X98071Y-57914D01*
X98071Y-57800D01*
X98085Y-57771D01*
X98100Y-57757D01*
X98128Y-57742D01*
X98171Y-57742D01*
X98200Y-57757D01*
X98214Y-57771D01*
X98228Y-57800D01*
X98228Y-57914D01*
X98071Y-57471D02*
X98071Y-57614D01*
X98214Y-57628D01*
X98200Y-57614D01*
X98185Y-57585D01*
X98185Y-57514D01*
X98200Y-57485D01*
X98214Y-57471D01*
X98242Y-57457D01*
X98314Y-57457D01*
X98342Y-57471D01*
X98357Y-57485D01*
X98371Y-57514D01*
X98371Y-57585D01*
X98357Y-57614D01*
X98342Y-57628D01*
X98071Y-57185D02*
X98071Y-57328D01*
X98214Y-57342D01*
X98200Y-57328D01*
X98185Y-57300D01*
X98185Y-57228D01*
X98200Y-57200D01*
X98214Y-57185D01*
X98242Y-57171D01*
X98314Y-57171D01*
X98342Y-57185D01*
X98357Y-57200D01*
X98371Y-57228D01*
X98371Y-57300D01*
X98357Y-57328D01*
X98342Y-57342D01*
X98371Y-56128D02*
X98371Y-56299D01*
X98371Y-56214D02*
X98071Y-56214D01*
X98114Y-56242D01*
X98142Y-56271D01*
X98157Y-56299D01*
X98071Y-55942D02*
X98071Y-55914D01*
X98085Y-55885D01*
X98100Y-55871D01*
X98128Y-55857D01*
X98185Y-55842D01*
X98257Y-55842D01*
X98314Y-55857D01*
X98342Y-55871D01*
X98357Y-55885D01*
X98371Y-55914D01*
X98371Y-55942D01*
X98357Y-55971D01*
X98342Y-55985D01*
X98314Y-55999D01*
X98257Y-56014D01*
X98185Y-56014D01*
X98128Y-55999D01*
X98100Y-55985D01*
X98085Y-55971D01*
X98071Y-55942D01*
X98371Y-55714D02*
X98071Y-55714D01*
X98257Y-55685D02*
X98371Y-55600D01*
X98171Y-55600D02*
X98285Y-55714D01*
X91371Y-65142D02*
X91228Y-65242D01*
X91371Y-65314D02*
X91071Y-65314D01*
X91071Y-65200D01*
X91085Y-65171D01*
X91100Y-65157D01*
X91128Y-65142D01*
X91171Y-65142D01*
X91200Y-65157D01*
X91214Y-65171D01*
X91228Y-65200D01*
X91228Y-65314D01*
X91071Y-65042D02*
X91071Y-64857D01*
X91185Y-64957D01*
X91185Y-64914D01*
X91200Y-64885D01*
X91214Y-64871D01*
X91242Y-64857D01*
X91314Y-64857D01*
X91342Y-64871D01*
X91357Y-64885D01*
X91371Y-64914D01*
X91371Y-65000D01*
X91357Y-65028D01*
X91342Y-65042D01*
X91371Y-64571D02*
X91371Y-64742D01*
X91371Y-64657D02*
X91071Y-64657D01*
X91114Y-64685D01*
X91142Y-64714D01*
X91157Y-64742D01*
X91371Y-66607D02*
X91371Y-66778D01*
X91371Y-66692D02*
X91071Y-66692D01*
X91114Y-66721D01*
X91142Y-66750D01*
X91157Y-66778D01*
X91071Y-66421D02*
X91071Y-66392D01*
X91085Y-66364D01*
X91100Y-66350D01*
X91128Y-66335D01*
X91185Y-66321D01*
X91257Y-66321D01*
X91314Y-66335D01*
X91342Y-66350D01*
X91357Y-66364D01*
X91371Y-66392D01*
X91371Y-66421D01*
X91357Y-66450D01*
X91342Y-66464D01*
X91314Y-66478D01*
X91257Y-66492D01*
X91185Y-66492D01*
X91128Y-66478D01*
X91100Y-66464D01*
X91085Y-66450D01*
X91071Y-66421D01*
X78857Y-66871D02*
X78757Y-66728D01*
X78685Y-66871D02*
X78685Y-66571D01*
X78800Y-66571D01*
X78828Y-66585D01*
X78842Y-66600D01*
X78857Y-66628D01*
X78857Y-66671D01*
X78842Y-66700D01*
X78828Y-66714D01*
X78800Y-66728D01*
X78685Y-66728D01*
X79142Y-66871D02*
X78971Y-66871D01*
X79057Y-66871D02*
X79057Y-66571D01*
X79028Y-66614D01*
X79000Y-66642D01*
X78971Y-66657D01*
X79328Y-66571D02*
X79357Y-66571D01*
X79385Y-66585D01*
X79400Y-66600D01*
X79414Y-66628D01*
X79428Y-66685D01*
X79428Y-66757D01*
X79414Y-66814D01*
X79400Y-66842D01*
X79385Y-66857D01*
X79357Y-66871D01*
X79328Y-66871D01*
X79300Y-66857D01*
X79285Y-66842D01*
X79271Y-66814D01*
X79257Y-66757D01*
X79257Y-66685D01*
X79271Y-66628D01*
X79285Y-66600D01*
X79300Y-66585D01*
X79328Y-66571D01*
X77271Y-66871D02*
X77100Y-66871D01*
X77185Y-66871D02*
X77185Y-66571D01*
X77157Y-66614D01*
X77128Y-66642D01*
X77100Y-66657D01*
X77457Y-66571D02*
X77485Y-66571D01*
X77514Y-66585D01*
X77528Y-66600D01*
X77542Y-66628D01*
X77557Y-66685D01*
X77557Y-66757D01*
X77542Y-66814D01*
X77528Y-66842D01*
X77514Y-66857D01*
X77485Y-66871D01*
X77457Y-66871D01*
X77428Y-66857D01*
X77414Y-66842D01*
X77400Y-66814D01*
X77385Y-66757D01*
X77385Y-66685D01*
X77400Y-66628D01*
X77414Y-66600D01*
X77428Y-66585D01*
X77457Y-66571D01*
X77685Y-66871D02*
X77685Y-66571D01*
X77714Y-66757D02*
X77800Y-66871D01*
X77800Y-66671D02*
X77685Y-66785D01*
X77257Y-69871D02*
X77157Y-69728D01*
X77085Y-69871D02*
X77085Y-69571D01*
X77200Y-69571D01*
X77228Y-69585D01*
X77242Y-69600D01*
X77257Y-69628D01*
X77257Y-69671D01*
X77242Y-69700D01*
X77228Y-69714D01*
X77200Y-69728D01*
X77085Y-69728D01*
X77542Y-69871D02*
X77371Y-69871D01*
X77457Y-69871D02*
X77457Y-69571D01*
X77428Y-69614D01*
X77400Y-69642D01*
X77371Y-69657D01*
X77657Y-69600D02*
X77671Y-69585D01*
X77700Y-69571D01*
X77771Y-69571D01*
X77800Y-69585D01*
X77814Y-69600D01*
X77828Y-69628D01*
X77828Y-69657D01*
X77814Y-69700D01*
X77642Y-69871D01*
X77828Y-69871D01*
X78992Y-69871D02*
X78821Y-69871D01*
X78907Y-69871D02*
X78907Y-69571D01*
X78878Y-69614D01*
X78850Y-69642D01*
X78821Y-69657D01*
X79178Y-69571D02*
X79207Y-69571D01*
X79235Y-69585D01*
X79250Y-69600D01*
X79264Y-69628D01*
X79278Y-69685D01*
X79278Y-69757D01*
X79264Y-69814D01*
X79250Y-69842D01*
X79235Y-69857D01*
X79207Y-69871D01*
X79178Y-69871D01*
X79150Y-69857D01*
X79135Y-69842D01*
X79121Y-69814D01*
X79107Y-69757D01*
X79107Y-69685D01*
X79121Y-69628D01*
X79135Y-69600D01*
X79150Y-69585D01*
X79178Y-69571D01*
X77257Y-68871D02*
X77157Y-68728D01*
X77085Y-68871D02*
X77085Y-68571D01*
X77200Y-68571D01*
X77228Y-68585D01*
X77242Y-68600D01*
X77257Y-68628D01*
X77257Y-68671D01*
X77242Y-68700D01*
X77228Y-68714D01*
X77200Y-68728D01*
X77085Y-68728D01*
X77542Y-68871D02*
X77371Y-68871D01*
X77457Y-68871D02*
X77457Y-68571D01*
X77428Y-68614D01*
X77400Y-68642D01*
X77371Y-68657D01*
X77642Y-68571D02*
X77828Y-68571D01*
X77728Y-68685D01*
X77771Y-68685D01*
X77800Y-68700D01*
X77814Y-68714D01*
X77828Y-68742D01*
X77828Y-68814D01*
X77814Y-68842D01*
X77800Y-68857D01*
X77771Y-68871D01*
X77685Y-68871D01*
X77657Y-68857D01*
X77642Y-68842D01*
X78871Y-68871D02*
X78700Y-68871D01*
X78785Y-68871D02*
X78785Y-68571D01*
X78757Y-68614D01*
X78728Y-68642D01*
X78700Y-68657D01*
X79057Y-68571D02*
X79085Y-68571D01*
X79114Y-68585D01*
X79128Y-68600D01*
X79142Y-68628D01*
X79157Y-68685D01*
X79157Y-68757D01*
X79142Y-68814D01*
X79128Y-68842D01*
X79114Y-68857D01*
X79085Y-68871D01*
X79057Y-68871D01*
X79028Y-68857D01*
X79014Y-68842D01*
X79000Y-68814D01*
X78985Y-68757D01*
X78985Y-68685D01*
X79000Y-68628D01*
X79014Y-68600D01*
X79028Y-68585D01*
X79057Y-68571D01*
X79285Y-68871D02*
X79285Y-68571D01*
X79314Y-68757D02*
X79400Y-68871D01*
X79400Y-68671D02*
X79285Y-68785D01*
X69257Y-62121D02*
X69157Y-61978D01*
X69085Y-62121D02*
X69085Y-61821D01*
X69200Y-61821D01*
X69228Y-61835D01*
X69242Y-61850D01*
X69257Y-61878D01*
X69257Y-61921D01*
X69242Y-61950D01*
X69228Y-61964D01*
X69200Y-61978D01*
X69085Y-61978D01*
X69514Y-61821D02*
X69457Y-61821D01*
X69428Y-61835D01*
X69414Y-61850D01*
X69385Y-61892D01*
X69371Y-61950D01*
X69371Y-62064D01*
X69385Y-62092D01*
X69400Y-62107D01*
X69428Y-62121D01*
X69485Y-62121D01*
X69514Y-62107D01*
X69528Y-62092D01*
X69542Y-62064D01*
X69542Y-61992D01*
X69528Y-61964D01*
X69514Y-61950D01*
X69485Y-61935D01*
X69428Y-61935D01*
X69400Y-61950D01*
X69385Y-61964D01*
X69371Y-61992D01*
X69728Y-61821D02*
X69757Y-61821D01*
X69785Y-61835D01*
X69800Y-61850D01*
X69814Y-61878D01*
X69828Y-61935D01*
X69828Y-62007D01*
X69814Y-62064D01*
X69800Y-62092D01*
X69785Y-62107D01*
X69757Y-62121D01*
X69728Y-62121D01*
X69700Y-62107D01*
X69685Y-62092D01*
X69671Y-62064D01*
X69657Y-62007D01*
X69657Y-61935D01*
X69671Y-61878D01*
X69685Y-61850D01*
X69700Y-61835D01*
X69728Y-61821D01*
X70771Y-61921D02*
X70771Y-62121D01*
X70700Y-61807D02*
X70628Y-62021D01*
X70814Y-62021D01*
X70928Y-62092D02*
X70942Y-62107D01*
X70928Y-62121D01*
X70914Y-62107D01*
X70928Y-62092D01*
X70928Y-62121D01*
X71042Y-61821D02*
X71242Y-61821D01*
X71114Y-62121D01*
X71357Y-62121D02*
X71357Y-61821D01*
X71385Y-62007D02*
X71471Y-62121D01*
X71471Y-61921D02*
X71357Y-62035D01*
X70857Y-67121D02*
X70757Y-66978D01*
X70685Y-67121D02*
X70685Y-66821D01*
X70800Y-66821D01*
X70828Y-66835D01*
X70842Y-66850D01*
X70857Y-66878D01*
X70857Y-66921D01*
X70842Y-66950D01*
X70828Y-66964D01*
X70800Y-66978D01*
X70685Y-66978D01*
X71114Y-66821D02*
X71057Y-66821D01*
X71028Y-66835D01*
X71014Y-66850D01*
X70985Y-66892D01*
X70971Y-66950D01*
X70971Y-67064D01*
X70985Y-67092D01*
X71000Y-67107D01*
X71028Y-67121D01*
X71085Y-67121D01*
X71114Y-67107D01*
X71128Y-67092D01*
X71142Y-67064D01*
X71142Y-66992D01*
X71128Y-66964D01*
X71114Y-66950D01*
X71085Y-66935D01*
X71028Y-66935D01*
X71000Y-66950D01*
X70985Y-66964D01*
X70971Y-66992D01*
X71428Y-67121D02*
X71257Y-67121D01*
X71342Y-67121D02*
X71342Y-66821D01*
X71314Y-66864D01*
X71285Y-66892D01*
X71257Y-66907D01*
X69171Y-66921D02*
X69171Y-67121D01*
X69100Y-66807D02*
X69028Y-67021D01*
X69214Y-67021D01*
X69328Y-67092D02*
X69342Y-67107D01*
X69328Y-67121D01*
X69314Y-67107D01*
X69328Y-67092D01*
X69328Y-67121D01*
X69442Y-66821D02*
X69642Y-66821D01*
X69514Y-67121D01*
X69757Y-67121D02*
X69757Y-66821D01*
X69785Y-67007D02*
X69871Y-67121D01*
X69871Y-66921D02*
X69757Y-67035D01*
X70857Y-64121D02*
X70757Y-63978D01*
X70685Y-64121D02*
X70685Y-63821D01*
X70800Y-63821D01*
X70828Y-63835D01*
X70842Y-63850D01*
X70857Y-63878D01*
X70857Y-63921D01*
X70842Y-63950D01*
X70828Y-63964D01*
X70800Y-63978D01*
X70685Y-63978D01*
X71114Y-63821D02*
X71057Y-63821D01*
X71028Y-63835D01*
X71014Y-63850D01*
X70985Y-63892D01*
X70971Y-63950D01*
X70971Y-64064D01*
X70985Y-64092D01*
X71000Y-64107D01*
X71028Y-64121D01*
X71085Y-64121D01*
X71114Y-64107D01*
X71128Y-64092D01*
X71142Y-64064D01*
X71142Y-63992D01*
X71128Y-63964D01*
X71114Y-63950D01*
X71085Y-63935D01*
X71028Y-63935D01*
X71000Y-63950D01*
X70985Y-63964D01*
X70971Y-63992D01*
X71257Y-63850D02*
X71271Y-63835D01*
X71300Y-63821D01*
X71371Y-63821D01*
X71400Y-63835D01*
X71414Y-63850D01*
X71428Y-63878D01*
X71428Y-63907D01*
X71414Y-63950D01*
X71242Y-64121D01*
X71428Y-64121D01*
X69242Y-64121D02*
X69071Y-64121D01*
X69157Y-64121D02*
X69157Y-63821D01*
X69128Y-63864D01*
X69100Y-63892D01*
X69071Y-63907D01*
X69428Y-63821D02*
X69457Y-63821D01*
X69485Y-63835D01*
X69500Y-63850D01*
X69514Y-63878D01*
X69528Y-63935D01*
X69528Y-64007D01*
X69514Y-64064D01*
X69500Y-64092D01*
X69485Y-64107D01*
X69457Y-64121D01*
X69428Y-64121D01*
X69400Y-64107D01*
X69385Y-64092D01*
X69371Y-64064D01*
X69357Y-64007D01*
X69357Y-63935D01*
X69371Y-63878D01*
X69385Y-63850D01*
X69400Y-63835D01*
X69428Y-63821D01*
X69828Y-64121D02*
X69728Y-63978D01*
X69657Y-64121D02*
X69657Y-63821D01*
X69771Y-63821D01*
X69800Y-63835D01*
X69814Y-63850D01*
X69828Y-63878D01*
X69828Y-63921D01*
X69814Y-63950D01*
X69800Y-63964D01*
X69771Y-63978D01*
X69657Y-63978D01*
X69257Y-65121D02*
X69157Y-64978D01*
X69085Y-65121D02*
X69085Y-64821D01*
X69200Y-64821D01*
X69228Y-64835D01*
X69242Y-64850D01*
X69257Y-64878D01*
X69257Y-64921D01*
X69242Y-64950D01*
X69228Y-64964D01*
X69200Y-64978D01*
X69085Y-64978D01*
X69514Y-64821D02*
X69457Y-64821D01*
X69428Y-64835D01*
X69414Y-64850D01*
X69385Y-64892D01*
X69371Y-64950D01*
X69371Y-65064D01*
X69385Y-65092D01*
X69400Y-65107D01*
X69428Y-65121D01*
X69485Y-65121D01*
X69514Y-65107D01*
X69528Y-65092D01*
X69542Y-65064D01*
X69542Y-64992D01*
X69528Y-64964D01*
X69514Y-64950D01*
X69485Y-64935D01*
X69428Y-64935D01*
X69400Y-64950D01*
X69385Y-64964D01*
X69371Y-64992D01*
X69642Y-64821D02*
X69828Y-64821D01*
X69728Y-64935D01*
X69771Y-64935D01*
X69800Y-64950D01*
X69814Y-64964D01*
X69828Y-64992D01*
X69828Y-65064D01*
X69814Y-65092D01*
X69800Y-65107D01*
X69771Y-65121D01*
X69685Y-65121D01*
X69657Y-65107D01*
X69642Y-65092D01*
X70842Y-65121D02*
X70671Y-65121D01*
X70757Y-65121D02*
X70757Y-64821D01*
X70728Y-64864D01*
X70700Y-64892D01*
X70671Y-64907D01*
X71028Y-64821D02*
X71057Y-64821D01*
X71085Y-64835D01*
X71100Y-64850D01*
X71114Y-64878D01*
X71128Y-64935D01*
X71128Y-65007D01*
X71114Y-65064D01*
X71100Y-65092D01*
X71085Y-65107D01*
X71057Y-65121D01*
X71028Y-65121D01*
X71000Y-65107D01*
X70985Y-65092D01*
X70971Y-65064D01*
X70957Y-65007D01*
X70957Y-64935D01*
X70971Y-64878D01*
X70985Y-64850D01*
X71000Y-64835D01*
X71028Y-64821D01*
X71428Y-65121D02*
X71328Y-64978D01*
X71257Y-65121D02*
X71257Y-64821D01*
X71371Y-64821D01*
X71400Y-64835D01*
X71414Y-64850D01*
X71428Y-64878D01*
X71428Y-64921D01*
X71414Y-64950D01*
X71400Y-64964D01*
X71371Y-64978D01*
X71257Y-64978D01*
X90371Y-65142D02*
X90228Y-65242D01*
X90371Y-65314D02*
X90071Y-65314D01*
X90071Y-65200D01*
X90085Y-65171D01*
X90100Y-65157D01*
X90128Y-65142D01*
X90171Y-65142D01*
X90200Y-65157D01*
X90214Y-65171D01*
X90228Y-65200D01*
X90228Y-65314D01*
X90071Y-65042D02*
X90071Y-64857D01*
X90185Y-64957D01*
X90185Y-64914D01*
X90200Y-64885D01*
X90214Y-64871D01*
X90242Y-64857D01*
X90314Y-64857D01*
X90342Y-64871D01*
X90357Y-64885D01*
X90371Y-64914D01*
X90371Y-65000D01*
X90357Y-65028D01*
X90342Y-65042D01*
X90071Y-64671D02*
X90071Y-64642D01*
X90085Y-64614D01*
X90100Y-64600D01*
X90128Y-64585D01*
X90185Y-64571D01*
X90257Y-64571D01*
X90314Y-64585D01*
X90342Y-64600D01*
X90357Y-64614D01*
X90371Y-64642D01*
X90371Y-64671D01*
X90357Y-64700D01*
X90342Y-64714D01*
X90314Y-64728D01*
X90257Y-64742D01*
X90185Y-64742D01*
X90128Y-64728D01*
X90100Y-64714D01*
X90085Y-64700D01*
X90071Y-64671D01*
X90371Y-66728D02*
X90371Y-66899D01*
X90371Y-66814D02*
X90071Y-66814D01*
X90114Y-66842D01*
X90142Y-66871D01*
X90157Y-66899D01*
X90071Y-66542D02*
X90071Y-66514D01*
X90085Y-66485D01*
X90100Y-66471D01*
X90128Y-66457D01*
X90185Y-66442D01*
X90257Y-66442D01*
X90314Y-66457D01*
X90342Y-66471D01*
X90357Y-66485D01*
X90371Y-66514D01*
X90371Y-66542D01*
X90357Y-66571D01*
X90342Y-66585D01*
X90314Y-66599D01*
X90257Y-66614D01*
X90185Y-66614D01*
X90128Y-66599D01*
X90100Y-66585D01*
X90085Y-66571D01*
X90071Y-66542D01*
X90371Y-66314D02*
X90071Y-66314D01*
X90257Y-66285D02*
X90371Y-66200D01*
X90171Y-66200D02*
X90285Y-66314D01*
X83507Y-67871D02*
X83407Y-67728D01*
X83335Y-67871D02*
X83335Y-67571D01*
X83450Y-67571D01*
X83478Y-67585D01*
X83492Y-67600D01*
X83507Y-67628D01*
X83507Y-67671D01*
X83492Y-67700D01*
X83478Y-67714D01*
X83450Y-67728D01*
X83335Y-67728D01*
X83621Y-67600D02*
X83635Y-67585D01*
X83664Y-67571D01*
X83735Y-67571D01*
X83764Y-67585D01*
X83778Y-67600D01*
X83792Y-67628D01*
X83792Y-67657D01*
X83778Y-67700D01*
X83607Y-67871D01*
X83792Y-67871D01*
X84078Y-67871D02*
X83907Y-67871D01*
X83992Y-67871D02*
X83992Y-67571D01*
X83964Y-67614D01*
X83935Y-67642D01*
X83907Y-67657D01*
X85242Y-67871D02*
X85071Y-67871D01*
X85157Y-67871D02*
X85157Y-67571D01*
X85128Y-67614D01*
X85100Y-67642D01*
X85071Y-67657D01*
X85428Y-67571D02*
X85457Y-67571D01*
X85485Y-67585D01*
X85500Y-67600D01*
X85514Y-67628D01*
X85528Y-67685D01*
X85528Y-67757D01*
X85514Y-67814D01*
X85500Y-67842D01*
X85485Y-67857D01*
X85457Y-67871D01*
X85428Y-67871D01*
X85400Y-67857D01*
X85385Y-67842D01*
X85371Y-67814D01*
X85357Y-67757D01*
X85357Y-67685D01*
X85371Y-67628D01*
X85385Y-67600D01*
X85400Y-67585D01*
X85428Y-67571D01*
X93371Y-65142D02*
X93228Y-65242D01*
X93371Y-65314D02*
X93071Y-65314D01*
X93071Y-65200D01*
X93085Y-65171D01*
X93100Y-65157D01*
X93128Y-65142D01*
X93171Y-65142D01*
X93200Y-65157D01*
X93214Y-65171D01*
X93228Y-65200D01*
X93228Y-65314D01*
X93071Y-65042D02*
X93071Y-64857D01*
X93185Y-64957D01*
X93185Y-64914D01*
X93200Y-64885D01*
X93214Y-64871D01*
X93242Y-64857D01*
X93314Y-64857D01*
X93342Y-64871D01*
X93357Y-64885D01*
X93371Y-64914D01*
X93371Y-65000D01*
X93357Y-65028D01*
X93342Y-65042D01*
X93100Y-64742D02*
X93085Y-64728D01*
X93071Y-64700D01*
X93071Y-64628D01*
X93085Y-64600D01*
X93100Y-64585D01*
X93128Y-64571D01*
X93157Y-64571D01*
X93200Y-64585D01*
X93371Y-64757D01*
X93371Y-64571D01*
X93371Y-66607D02*
X93371Y-66778D01*
X93371Y-66692D02*
X93071Y-66692D01*
X93114Y-66721D01*
X93142Y-66750D01*
X93157Y-66778D01*
X93071Y-66421D02*
X93071Y-66392D01*
X93085Y-66364D01*
X93100Y-66350D01*
X93128Y-66335D01*
X93185Y-66321D01*
X93257Y-66321D01*
X93314Y-66335D01*
X93342Y-66350D01*
X93357Y-66364D01*
X93371Y-66392D01*
X93371Y-66421D01*
X93357Y-66450D01*
X93342Y-66464D01*
X93314Y-66478D01*
X93257Y-66492D01*
X93185Y-66492D01*
X93128Y-66478D01*
X93100Y-66464D01*
X93085Y-66450D01*
X93071Y-66421D01*
X92371Y-65142D02*
X92228Y-65242D01*
X92371Y-65314D02*
X92071Y-65314D01*
X92071Y-65200D01*
X92085Y-65171D01*
X92100Y-65157D01*
X92128Y-65142D01*
X92171Y-65142D01*
X92200Y-65157D01*
X92214Y-65171D01*
X92228Y-65200D01*
X92228Y-65314D01*
X92071Y-65042D02*
X92071Y-64857D01*
X92185Y-64957D01*
X92185Y-64914D01*
X92200Y-64885D01*
X92214Y-64871D01*
X92242Y-64857D01*
X92314Y-64857D01*
X92342Y-64871D01*
X92357Y-64885D01*
X92371Y-64914D01*
X92371Y-65000D01*
X92357Y-65028D01*
X92342Y-65042D01*
X92071Y-64757D02*
X92071Y-64571D01*
X92185Y-64671D01*
X92185Y-64628D01*
X92200Y-64600D01*
X92214Y-64585D01*
X92242Y-64571D01*
X92314Y-64571D01*
X92342Y-64585D01*
X92357Y-64600D01*
X92371Y-64628D01*
X92371Y-64714D01*
X92357Y-64742D01*
X92342Y-64757D01*
X92371Y-66728D02*
X92371Y-66899D01*
X92371Y-66814D02*
X92071Y-66814D01*
X92114Y-66842D01*
X92142Y-66871D01*
X92157Y-66899D01*
X92071Y-66542D02*
X92071Y-66514D01*
X92085Y-66485D01*
X92100Y-66471D01*
X92128Y-66457D01*
X92185Y-66442D01*
X92257Y-66442D01*
X92314Y-66457D01*
X92342Y-66471D01*
X92357Y-66485D01*
X92371Y-66514D01*
X92371Y-66542D01*
X92357Y-66571D01*
X92342Y-66585D01*
X92314Y-66599D01*
X92257Y-66614D01*
X92185Y-66614D01*
X92128Y-66599D01*
X92100Y-66585D01*
X92085Y-66571D01*
X92071Y-66542D01*
X92371Y-66314D02*
X92071Y-66314D01*
X92257Y-66285D02*
X92371Y-66200D01*
X92171Y-66200D02*
X92285Y-66314D01*
X90371Y-57742D02*
X90228Y-57842D01*
X90371Y-57914D02*
X90071Y-57914D01*
X90071Y-57800D01*
X90085Y-57771D01*
X90100Y-57757D01*
X90128Y-57742D01*
X90171Y-57742D01*
X90200Y-57757D01*
X90214Y-57771D01*
X90228Y-57800D01*
X90228Y-57914D01*
X90071Y-57642D02*
X90071Y-57457D01*
X90185Y-57557D01*
X90185Y-57514D01*
X90200Y-57485D01*
X90214Y-57471D01*
X90242Y-57457D01*
X90314Y-57457D01*
X90342Y-57471D01*
X90357Y-57485D01*
X90371Y-57514D01*
X90371Y-57600D01*
X90357Y-57628D01*
X90342Y-57642D01*
X90071Y-57185D02*
X90071Y-57328D01*
X90214Y-57342D01*
X90200Y-57328D01*
X90185Y-57300D01*
X90185Y-57228D01*
X90200Y-57200D01*
X90214Y-57185D01*
X90242Y-57171D01*
X90314Y-57171D01*
X90342Y-57185D01*
X90357Y-57200D01*
X90371Y-57228D01*
X90371Y-57300D01*
X90357Y-57328D01*
X90342Y-57342D01*
X90371Y-56128D02*
X90371Y-56299D01*
X90371Y-56214D02*
X90071Y-56214D01*
X90114Y-56242D01*
X90142Y-56271D01*
X90157Y-56299D01*
X90071Y-55942D02*
X90071Y-55914D01*
X90085Y-55885D01*
X90100Y-55871D01*
X90128Y-55857D01*
X90185Y-55842D01*
X90257Y-55842D01*
X90314Y-55857D01*
X90342Y-55871D01*
X90357Y-55885D01*
X90371Y-55914D01*
X90371Y-55942D01*
X90357Y-55971D01*
X90342Y-55985D01*
X90314Y-55999D01*
X90257Y-56014D01*
X90185Y-56014D01*
X90128Y-55999D01*
X90100Y-55985D01*
X90085Y-55971D01*
X90071Y-55942D01*
X90371Y-55714D02*
X90071Y-55714D01*
X90257Y-55685D02*
X90371Y-55600D01*
X90171Y-55600D02*
X90285Y-55714D01*
X91371Y-57742D02*
X91228Y-57842D01*
X91371Y-57914D02*
X91071Y-57914D01*
X91071Y-57800D01*
X91085Y-57771D01*
X91100Y-57757D01*
X91128Y-57742D01*
X91171Y-57742D01*
X91200Y-57757D01*
X91214Y-57771D01*
X91228Y-57800D01*
X91228Y-57914D01*
X91071Y-57642D02*
X91071Y-57457D01*
X91185Y-57557D01*
X91185Y-57514D01*
X91200Y-57485D01*
X91214Y-57471D01*
X91242Y-57457D01*
X91314Y-57457D01*
X91342Y-57471D01*
X91357Y-57485D01*
X91371Y-57514D01*
X91371Y-57600D01*
X91357Y-57628D01*
X91342Y-57642D01*
X91071Y-57200D02*
X91071Y-57257D01*
X91085Y-57285D01*
X91100Y-57300D01*
X91142Y-57328D01*
X91200Y-57342D01*
X91314Y-57342D01*
X91342Y-57328D01*
X91357Y-57314D01*
X91371Y-57285D01*
X91371Y-57228D01*
X91357Y-57200D01*
X91342Y-57185D01*
X91314Y-57171D01*
X91242Y-57171D01*
X91214Y-57185D01*
X91200Y-57200D01*
X91185Y-57228D01*
X91185Y-57285D01*
X91200Y-57314D01*
X91214Y-57328D01*
X91242Y-57342D01*
X91371Y-56007D02*
X91371Y-56178D01*
X91371Y-56092D02*
X91071Y-56092D01*
X91114Y-56121D01*
X91142Y-56150D01*
X91157Y-56178D01*
X91071Y-55821D02*
X91071Y-55792D01*
X91085Y-55764D01*
X91100Y-55750D01*
X91128Y-55735D01*
X91185Y-55721D01*
X91257Y-55721D01*
X91314Y-55735D01*
X91342Y-55750D01*
X91357Y-55764D01*
X91371Y-55792D01*
X91371Y-55821D01*
X91357Y-55850D01*
X91342Y-55864D01*
X91314Y-55878D01*
X91257Y-55892D01*
X91185Y-55892D01*
X91128Y-55878D01*
X91100Y-55864D01*
X91085Y-55850D01*
X91071Y-55821D01*
X92371Y-57742D02*
X92228Y-57842D01*
X92371Y-57914D02*
X92071Y-57914D01*
X92071Y-57800D01*
X92085Y-57771D01*
X92100Y-57757D01*
X92128Y-57742D01*
X92171Y-57742D01*
X92200Y-57757D01*
X92214Y-57771D01*
X92228Y-57800D01*
X92228Y-57914D01*
X92071Y-57642D02*
X92071Y-57457D01*
X92185Y-57557D01*
X92185Y-57514D01*
X92200Y-57485D01*
X92214Y-57471D01*
X92242Y-57457D01*
X92314Y-57457D01*
X92342Y-57471D01*
X92357Y-57485D01*
X92371Y-57514D01*
X92371Y-57600D01*
X92357Y-57628D01*
X92342Y-57642D01*
X92071Y-57357D02*
X92071Y-57157D01*
X92371Y-57285D01*
X92371Y-56007D02*
X92371Y-56178D01*
X92371Y-56092D02*
X92071Y-56092D01*
X92114Y-56121D01*
X92142Y-56150D01*
X92157Y-56178D01*
X92071Y-55821D02*
X92071Y-55792D01*
X92085Y-55764D01*
X92100Y-55750D01*
X92128Y-55735D01*
X92185Y-55721D01*
X92257Y-55721D01*
X92314Y-55735D01*
X92342Y-55750D01*
X92357Y-55764D01*
X92371Y-55792D01*
X92371Y-55821D01*
X92357Y-55850D01*
X92342Y-55864D01*
X92314Y-55878D01*
X92257Y-55892D01*
X92185Y-55892D01*
X92128Y-55878D01*
X92100Y-55864D01*
X92085Y-55850D01*
X92071Y-55821D01*
X85107Y-66871D02*
X85007Y-66728D01*
X84935Y-66871D02*
X84935Y-66571D01*
X85050Y-66571D01*
X85078Y-66585D01*
X85092Y-66600D01*
X85107Y-66628D01*
X85107Y-66671D01*
X85092Y-66700D01*
X85078Y-66714D01*
X85050Y-66728D01*
X84935Y-66728D01*
X85221Y-66600D02*
X85235Y-66585D01*
X85264Y-66571D01*
X85335Y-66571D01*
X85364Y-66585D01*
X85378Y-66600D01*
X85392Y-66628D01*
X85392Y-66657D01*
X85378Y-66700D01*
X85207Y-66871D01*
X85392Y-66871D01*
X85578Y-66571D02*
X85607Y-66571D01*
X85635Y-66585D01*
X85650Y-66600D01*
X85664Y-66628D01*
X85678Y-66685D01*
X85678Y-66757D01*
X85664Y-66814D01*
X85650Y-66842D01*
X85635Y-66857D01*
X85607Y-66871D01*
X85578Y-66871D01*
X85550Y-66857D01*
X85535Y-66842D01*
X85521Y-66814D01*
X85507Y-66757D01*
X85507Y-66685D01*
X85521Y-66628D01*
X85535Y-66600D01*
X85550Y-66585D01*
X85578Y-66571D01*
X83521Y-66871D02*
X83350Y-66871D01*
X83435Y-66871D02*
X83435Y-66571D01*
X83407Y-66614D01*
X83378Y-66642D01*
X83350Y-66657D01*
X83707Y-66571D02*
X83735Y-66571D01*
X83764Y-66585D01*
X83778Y-66600D01*
X83792Y-66628D01*
X83807Y-66685D01*
X83807Y-66757D01*
X83792Y-66814D01*
X83778Y-66842D01*
X83764Y-66857D01*
X83735Y-66871D01*
X83707Y-66871D01*
X83678Y-66857D01*
X83664Y-66842D01*
X83650Y-66814D01*
X83635Y-66757D01*
X83635Y-66685D01*
X83650Y-66628D01*
X83664Y-66600D01*
X83678Y-66585D01*
X83707Y-66571D01*
X83935Y-66871D02*
X83935Y-66571D01*
X83964Y-66757D02*
X84050Y-66871D01*
X84050Y-66671D02*
X83935Y-66785D01*
X93371Y-57742D02*
X93228Y-57842D01*
X93371Y-57914D02*
X93071Y-57914D01*
X93071Y-57800D01*
X93085Y-57771D01*
X93100Y-57757D01*
X93128Y-57742D01*
X93171Y-57742D01*
X93200Y-57757D01*
X93214Y-57771D01*
X93228Y-57800D01*
X93228Y-57914D01*
X93071Y-57642D02*
X93071Y-57457D01*
X93185Y-57557D01*
X93185Y-57514D01*
X93200Y-57485D01*
X93214Y-57471D01*
X93242Y-57457D01*
X93314Y-57457D01*
X93342Y-57471D01*
X93357Y-57485D01*
X93371Y-57514D01*
X93371Y-57600D01*
X93357Y-57628D01*
X93342Y-57642D01*
X93200Y-57285D02*
X93185Y-57314D01*
X93171Y-57328D01*
X93142Y-57342D01*
X93128Y-57342D01*
X93100Y-57328D01*
X93085Y-57314D01*
X93071Y-57285D01*
X93071Y-57228D01*
X93085Y-57200D01*
X93100Y-57185D01*
X93128Y-57171D01*
X93142Y-57171D01*
X93171Y-57185D01*
X93185Y-57200D01*
X93200Y-57228D01*
X93200Y-57285D01*
X93214Y-57314D01*
X93228Y-57328D01*
X93257Y-57342D01*
X93314Y-57342D01*
X93342Y-57328D01*
X93357Y-57314D01*
X93371Y-57285D01*
X93371Y-57228D01*
X93357Y-57200D01*
X93342Y-57185D01*
X93314Y-57171D01*
X93257Y-57171D01*
X93228Y-57185D01*
X93214Y-57200D01*
X93200Y-57228D01*
X93371Y-56128D02*
X93371Y-56299D01*
X93371Y-56214D02*
X93071Y-56214D01*
X93114Y-56242D01*
X93142Y-56271D01*
X93157Y-56299D01*
X93071Y-55942D02*
X93071Y-55914D01*
X93085Y-55885D01*
X93100Y-55871D01*
X93128Y-55857D01*
X93185Y-55842D01*
X93257Y-55842D01*
X93314Y-55857D01*
X93342Y-55871D01*
X93357Y-55885D01*
X93371Y-55914D01*
X93371Y-55942D01*
X93357Y-55971D01*
X93342Y-55985D01*
X93314Y-55999D01*
X93257Y-56014D01*
X93185Y-56014D01*
X93128Y-55999D01*
X93100Y-55985D01*
X93085Y-55971D01*
X93071Y-55942D01*
X93371Y-55714D02*
X93071Y-55714D01*
X93257Y-55685D02*
X93371Y-55600D01*
X93171Y-55600D02*
X93285Y-55714D01*
X78857Y-58371D02*
X78757Y-58228D01*
X78685Y-58371D02*
X78685Y-58071D01*
X78800Y-58071D01*
X78828Y-58085D01*
X78842Y-58100D01*
X78857Y-58128D01*
X78857Y-58171D01*
X78842Y-58200D01*
X78828Y-58214D01*
X78800Y-58228D01*
X78685Y-58228D01*
X79142Y-58371D02*
X78971Y-58371D01*
X79057Y-58371D02*
X79057Y-58071D01*
X79028Y-58114D01*
X79000Y-58142D01*
X78971Y-58157D01*
X79414Y-58071D02*
X79271Y-58071D01*
X79257Y-58214D01*
X79271Y-58200D01*
X79300Y-58185D01*
X79371Y-58185D01*
X79400Y-58200D01*
X79414Y-58214D01*
X79428Y-58242D01*
X79428Y-58314D01*
X79414Y-58342D01*
X79400Y-58357D01*
X79371Y-58371D01*
X79300Y-58371D01*
X79271Y-58357D01*
X79257Y-58342D01*
X77285Y-58071D02*
X77314Y-58071D01*
X77342Y-58085D01*
X77357Y-58100D01*
X77371Y-58128D01*
X77385Y-58185D01*
X77385Y-58257D01*
X77371Y-58314D01*
X77357Y-58342D01*
X77342Y-58357D01*
X77314Y-58371D01*
X77285Y-58371D01*
X77257Y-58357D01*
X77242Y-58342D01*
X77228Y-58314D01*
X77214Y-58257D01*
X77214Y-58185D01*
X77228Y-58128D01*
X77242Y-58100D01*
X77257Y-58085D01*
X77285Y-58071D01*
X77685Y-58371D02*
X77585Y-58228D01*
X77514Y-58371D02*
X77514Y-58071D01*
X77628Y-58071D01*
X77657Y-58085D01*
X77671Y-58100D01*
X77685Y-58128D01*
X77685Y-58171D01*
X77671Y-58200D01*
X77657Y-58214D01*
X77628Y-58228D01*
X77514Y-58228D01*
G54D18*
X72377Y-60410D02*
X72389Y-60422D01*
X72401Y-60458D01*
X72401Y-60482D01*
X72389Y-60517D01*
X72365Y-60541D01*
X72341Y-60553D01*
X72294Y-60565D01*
X72258Y-60565D01*
X72210Y-60553D01*
X72186Y-60541D01*
X72163Y-60517D01*
X72151Y-60482D01*
X72151Y-60458D01*
X72163Y-60422D01*
X72175Y-60410D01*
X72151Y-60196D02*
X72151Y-60244D01*
X72163Y-60267D01*
X72175Y-60279D01*
X72210Y-60303D01*
X72258Y-60315D01*
X72353Y-60315D01*
X72377Y-60303D01*
X72389Y-60291D01*
X72401Y-60267D01*
X72401Y-60220D01*
X72389Y-60196D01*
X72377Y-60184D01*
X72353Y-60172D01*
X72294Y-60172D01*
X72270Y-60184D01*
X72258Y-60196D01*
X72246Y-60220D01*
X72246Y-60267D01*
X72258Y-60291D01*
X72270Y-60303D01*
X72294Y-60315D01*
X72151Y-60017D02*
X72151Y-59994D01*
X72163Y-59970D01*
X72175Y-59958D01*
X72198Y-59946D01*
X72246Y-59934D01*
X72305Y-59934D01*
X72353Y-59946D01*
X72377Y-59958D01*
X72389Y-59970D01*
X72401Y-59994D01*
X72401Y-60017D01*
X72389Y-60041D01*
X72377Y-60053D01*
X72353Y-60065D01*
X72305Y-60077D01*
X72246Y-60077D01*
X72198Y-60065D01*
X72175Y-60053D01*
X72163Y-60041D01*
X72151Y-60017D01*
X71251Y-60398D02*
X71251Y-60541D01*
X71251Y-60470D02*
X71001Y-60470D01*
X71036Y-60494D01*
X71060Y-60517D01*
X71072Y-60541D01*
X71084Y-60184D02*
X71251Y-60184D01*
X71084Y-60291D02*
X71215Y-60291D01*
X71239Y-60279D01*
X71251Y-60255D01*
X71251Y-60220D01*
X71239Y-60196D01*
X71227Y-60184D01*
X71120Y-59982D02*
X71120Y-60065D01*
X71251Y-60065D02*
X71001Y-60065D01*
X71001Y-59946D01*
G54D11*
X72507Y-59364D02*
X72507Y-59135D01*
X72621Y-59250D02*
X72392Y-59250D01*
G54D18*
X72377Y-68910D02*
X72389Y-68922D01*
X72401Y-68958D01*
X72401Y-68982D01*
X72389Y-69017D01*
X72365Y-69041D01*
X72341Y-69053D01*
X72294Y-69065D01*
X72258Y-69065D01*
X72210Y-69053D01*
X72186Y-69041D01*
X72163Y-69017D01*
X72151Y-68982D01*
X72151Y-68958D01*
X72163Y-68922D01*
X72175Y-68910D01*
X72151Y-68696D02*
X72151Y-68744D01*
X72163Y-68767D01*
X72175Y-68779D01*
X72210Y-68803D01*
X72258Y-68815D01*
X72353Y-68815D01*
X72377Y-68803D01*
X72389Y-68791D01*
X72401Y-68767D01*
X72401Y-68720D01*
X72389Y-68696D01*
X72377Y-68684D01*
X72353Y-68672D01*
X72294Y-68672D01*
X72270Y-68684D01*
X72258Y-68696D01*
X72246Y-68720D01*
X72246Y-68767D01*
X72258Y-68791D01*
X72270Y-68803D01*
X72294Y-68815D01*
X72401Y-68434D02*
X72401Y-68577D01*
X72401Y-68505D02*
X72151Y-68505D01*
X72186Y-68529D01*
X72210Y-68553D01*
X72222Y-68577D01*
X71251Y-68898D02*
X71251Y-69041D01*
X71251Y-68970D02*
X71001Y-68970D01*
X71036Y-68994D01*
X71060Y-69017D01*
X71072Y-69041D01*
X71084Y-68684D02*
X71251Y-68684D01*
X71084Y-68791D02*
X71215Y-68791D01*
X71239Y-68779D01*
X71251Y-68755D01*
X71251Y-68720D01*
X71239Y-68696D01*
X71227Y-68684D01*
X71120Y-68482D02*
X71120Y-68565D01*
X71251Y-68565D02*
X71001Y-68565D01*
X71001Y-68446D01*
G54D11*
X72507Y-67864D02*
X72507Y-67635D01*
X72621Y-67750D02*
X72392Y-67750D01*
X83071Y-63621D02*
X83314Y-63621D01*
X83342Y-63607D01*
X83357Y-63592D01*
X83371Y-63564D01*
X83371Y-63507D01*
X83357Y-63478D01*
X83342Y-63464D01*
X83314Y-63450D01*
X83071Y-63450D01*
X83100Y-63321D02*
X83085Y-63307D01*
X83071Y-63278D01*
X83071Y-63207D01*
X83085Y-63178D01*
X83100Y-63164D01*
X83128Y-63150D01*
X83157Y-63150D01*
X83200Y-63164D01*
X83371Y-63335D01*
X83371Y-63150D01*
X83071Y-62964D02*
X83071Y-62935D01*
X83085Y-62907D01*
X83100Y-62892D01*
X83128Y-62878D01*
X83185Y-62864D01*
X83257Y-62864D01*
X83314Y-62878D01*
X83342Y-62892D01*
X83357Y-62907D01*
X83371Y-62935D01*
X83371Y-62964D01*
X83357Y-62992D01*
X83342Y-63007D01*
X83314Y-63021D01*
X83257Y-63035D01*
X83185Y-63035D01*
X83128Y-63021D01*
X83100Y-63007D01*
X83085Y-62992D01*
X83071Y-62964D01*
X84535Y-62571D02*
X84592Y-62571D01*
X84621Y-62585D01*
X84650Y-62614D01*
X84664Y-62671D01*
X84664Y-62771D01*
X84650Y-62828D01*
X84621Y-62857D01*
X84592Y-62871D01*
X84535Y-62871D01*
X84507Y-62857D01*
X84478Y-62828D01*
X84464Y-62771D01*
X84464Y-62671D01*
X84478Y-62614D01*
X84507Y-62585D01*
X84535Y-62571D01*
X84792Y-62871D02*
X84792Y-62571D01*
X84907Y-62571D01*
X84935Y-62585D01*
X84950Y-62600D01*
X84964Y-62628D01*
X84964Y-62671D01*
X84950Y-62700D01*
X84935Y-62714D01*
X84907Y-62728D01*
X84792Y-62728D01*
X85150Y-62571D02*
X85178Y-62571D01*
X85207Y-62585D01*
X85221Y-62600D01*
X85235Y-62628D01*
X85250Y-62685D01*
X85250Y-62757D01*
X85235Y-62814D01*
X85221Y-62842D01*
X85207Y-62857D01*
X85178Y-62871D01*
X85150Y-62871D01*
X85121Y-62857D01*
X85107Y-62842D01*
X85092Y-62814D01*
X85078Y-62757D01*
X85078Y-62685D01*
X85092Y-62628D01*
X85107Y-62600D01*
X85121Y-62585D01*
X85150Y-62571D01*
X85350Y-62571D02*
X85550Y-62571D01*
X85421Y-62871D01*
X76821Y-63621D02*
X77064Y-63621D01*
X77092Y-63607D01*
X77107Y-63592D01*
X77121Y-63564D01*
X77121Y-63507D01*
X77107Y-63478D01*
X77092Y-63464D01*
X77064Y-63450D01*
X76821Y-63450D01*
X77121Y-63150D02*
X77121Y-63321D01*
X77121Y-63235D02*
X76821Y-63235D01*
X76864Y-63264D01*
X76892Y-63292D01*
X76907Y-63321D01*
X76821Y-62964D02*
X76821Y-62935D01*
X76835Y-62907D01*
X76850Y-62892D01*
X76878Y-62878D01*
X76935Y-62864D01*
X77007Y-62864D01*
X77064Y-62878D01*
X77092Y-62892D01*
X77107Y-62907D01*
X77121Y-62935D01*
X77121Y-62964D01*
X77107Y-62992D01*
X77092Y-63007D01*
X77064Y-63021D01*
X77007Y-63035D01*
X76935Y-63035D01*
X76878Y-63021D01*
X76850Y-63007D01*
X76835Y-62992D01*
X76821Y-62964D01*
X78107Y-62821D02*
X78107Y-63064D01*
X78121Y-63092D01*
X78135Y-63107D01*
X78164Y-63121D01*
X78221Y-63121D01*
X78250Y-63107D01*
X78264Y-63092D01*
X78278Y-63064D01*
X78278Y-62821D01*
X78407Y-63035D02*
X78550Y-63035D01*
X78378Y-63121D02*
X78478Y-62821D01*
X78578Y-63121D01*
X78650Y-62821D02*
X78850Y-62821D01*
X78721Y-63121D01*
X79092Y-62921D02*
X79092Y-63121D01*
X79021Y-62807D02*
X78950Y-63021D01*
X79135Y-63021D01*
X79407Y-63121D02*
X79235Y-63121D01*
X79321Y-63121D02*
X79321Y-62821D01*
X79292Y-62864D01*
X79264Y-62892D01*
X79235Y-62907D01*
X71735Y-63121D02*
X71735Y-62821D01*
X71807Y-62821D01*
X71850Y-62835D01*
X71878Y-62864D01*
X71892Y-62892D01*
X71907Y-62950D01*
X71907Y-62992D01*
X71892Y-63050D01*
X71878Y-63078D01*
X71850Y-63107D01*
X71807Y-63121D01*
X71735Y-63121D01*
X72164Y-62821D02*
X72107Y-62821D01*
X72078Y-62835D01*
X72064Y-62850D01*
X72035Y-62892D01*
X72021Y-62950D01*
X72021Y-63064D01*
X72035Y-63092D01*
X72050Y-63107D01*
X72078Y-63121D01*
X72135Y-63121D01*
X72164Y-63107D01*
X72178Y-63092D01*
X72192Y-63064D01*
X72192Y-62992D01*
X72178Y-62964D01*
X72164Y-62950D01*
X72135Y-62935D01*
X72078Y-62935D01*
X72050Y-62950D01*
X72035Y-62964D01*
X72021Y-62992D01*
X72478Y-63121D02*
X72307Y-63121D01*
X72392Y-63121D02*
X72392Y-62821D01*
X72364Y-62864D01*
X72335Y-62892D01*
X72307Y-62907D01*
X69207Y-63121D02*
X69035Y-63121D01*
X69121Y-63121D02*
X69121Y-62821D01*
X69092Y-62864D01*
X69064Y-62892D01*
X69035Y-62907D01*
X69335Y-63121D02*
X69335Y-62821D01*
X69507Y-63121D01*
X69507Y-62821D01*
X69778Y-62921D02*
X69778Y-63121D01*
X69707Y-62807D02*
X69635Y-63021D01*
X69821Y-63021D01*
X70092Y-63121D02*
X69921Y-63121D01*
X70007Y-63121D02*
X70007Y-62821D01*
X69978Y-62864D01*
X69950Y-62892D01*
X69921Y-62907D01*
X70350Y-62921D02*
X70350Y-63121D01*
X70278Y-62807D02*
X70207Y-63021D01*
X70392Y-63021D01*
X70550Y-62950D02*
X70521Y-62935D01*
X70507Y-62921D01*
X70492Y-62892D01*
X70492Y-62878D01*
X70507Y-62850D01*
X70521Y-62835D01*
X70550Y-62821D01*
X70607Y-62821D01*
X70635Y-62835D01*
X70650Y-62850D01*
X70664Y-62878D01*
X70664Y-62892D01*
X70650Y-62921D01*
X70635Y-62935D01*
X70607Y-62950D01*
X70550Y-62950D01*
X70521Y-62964D01*
X70507Y-62978D01*
X70492Y-63007D01*
X70492Y-63064D01*
X70507Y-63092D01*
X70521Y-63107D01*
X70550Y-63121D01*
X70607Y-63121D01*
X70635Y-63107D01*
X70650Y-63092D01*
X70664Y-63064D01*
X70664Y-63007D01*
X70650Y-62978D01*
X70635Y-62964D01*
X70607Y-62950D01*
X71735Y-66121D02*
X71735Y-65821D01*
X71807Y-65821D01*
X71850Y-65835D01*
X71878Y-65864D01*
X71892Y-65892D01*
X71907Y-65950D01*
X71907Y-65992D01*
X71892Y-66050D01*
X71878Y-66078D01*
X71850Y-66107D01*
X71807Y-66121D01*
X71735Y-66121D01*
X72164Y-65821D02*
X72107Y-65821D01*
X72078Y-65835D01*
X72064Y-65850D01*
X72035Y-65892D01*
X72021Y-65950D01*
X72021Y-66064D01*
X72035Y-66092D01*
X72050Y-66107D01*
X72078Y-66121D01*
X72135Y-66121D01*
X72164Y-66107D01*
X72178Y-66092D01*
X72192Y-66064D01*
X72192Y-65992D01*
X72178Y-65964D01*
X72164Y-65950D01*
X72135Y-65935D01*
X72078Y-65935D01*
X72050Y-65950D01*
X72035Y-65964D01*
X72021Y-65992D01*
X72307Y-65850D02*
X72321Y-65835D01*
X72350Y-65821D01*
X72421Y-65821D01*
X72450Y-65835D01*
X72464Y-65850D01*
X72478Y-65878D01*
X72478Y-65907D01*
X72464Y-65950D01*
X72292Y-66121D01*
X72478Y-66121D01*
X69107Y-66121D02*
X68935Y-66121D01*
X69021Y-66121D02*
X69021Y-65821D01*
X68992Y-65864D01*
X68964Y-65892D01*
X68935Y-65907D01*
X69235Y-66121D02*
X69235Y-65821D01*
X69407Y-66121D01*
X69407Y-65821D01*
X69678Y-65921D02*
X69678Y-66121D01*
X69607Y-65807D02*
X69535Y-66021D01*
X69721Y-66021D01*
X69992Y-66121D02*
X69821Y-66121D01*
X69907Y-66121D02*
X69907Y-65821D01*
X69878Y-65864D01*
X69850Y-65892D01*
X69821Y-65907D01*
X70250Y-65921D02*
X70250Y-66121D01*
X70178Y-65807D02*
X70107Y-66021D01*
X70292Y-66021D01*
X70450Y-65950D02*
X70421Y-65935D01*
X70407Y-65921D01*
X70392Y-65892D01*
X70392Y-65878D01*
X70407Y-65850D01*
X70421Y-65835D01*
X70450Y-65821D01*
X70507Y-65821D01*
X70535Y-65835D01*
X70550Y-65850D01*
X70564Y-65878D01*
X70564Y-65892D01*
X70550Y-65921D01*
X70535Y-65935D01*
X70507Y-65950D01*
X70450Y-65950D01*
X70421Y-65964D01*
X70407Y-65978D01*
X70392Y-66007D01*
X70392Y-66064D01*
X70407Y-66092D01*
X70421Y-66107D01*
X70450Y-66121D01*
X70507Y-66121D01*
X70535Y-66107D01*
X70550Y-66092D01*
X70564Y-66064D01*
X70564Y-66007D01*
X70550Y-65978D01*
X70535Y-65964D01*
X70507Y-65950D01*
X73621Y-56864D02*
X73321Y-56864D01*
X73321Y-56792D01*
X73335Y-56750D01*
X73364Y-56721D01*
X73392Y-56707D01*
X73450Y-56692D01*
X73492Y-56692D01*
X73550Y-56707D01*
X73578Y-56721D01*
X73607Y-56750D01*
X73621Y-56792D01*
X73621Y-56864D01*
X73321Y-56435D02*
X73321Y-56492D01*
X73335Y-56521D01*
X73350Y-56535D01*
X73392Y-56564D01*
X73450Y-56578D01*
X73564Y-56578D01*
X73592Y-56564D01*
X73607Y-56550D01*
X73621Y-56521D01*
X73621Y-56464D01*
X73607Y-56435D01*
X73592Y-56421D01*
X73564Y-56407D01*
X73492Y-56407D01*
X73464Y-56421D01*
X73450Y-56435D01*
X73435Y-56464D01*
X73435Y-56521D01*
X73450Y-56550D01*
X73464Y-56564D01*
X73492Y-56578D01*
X73321Y-56221D02*
X73321Y-56192D01*
X73335Y-56164D01*
X73350Y-56150D01*
X73378Y-56135D01*
X73435Y-56121D01*
X73507Y-56121D01*
X73564Y-56135D01*
X73592Y-56150D01*
X73607Y-56164D01*
X73621Y-56192D01*
X73621Y-56221D01*
X73607Y-56250D01*
X73592Y-56264D01*
X73564Y-56278D01*
X73507Y-56292D01*
X73435Y-56292D01*
X73378Y-56278D01*
X73350Y-56264D01*
X73335Y-56250D01*
X73321Y-56221D01*
X72921Y-57042D02*
X72921Y-57214D01*
X72921Y-57128D02*
X72621Y-57128D01*
X72664Y-57157D01*
X72692Y-57185D01*
X72707Y-57214D01*
X72921Y-56914D02*
X72621Y-56914D01*
X72921Y-56742D01*
X72621Y-56742D01*
X72721Y-56471D02*
X72921Y-56471D01*
X72607Y-56542D02*
X72821Y-56614D01*
X72821Y-56428D01*
X72921Y-56157D02*
X72921Y-56328D01*
X72921Y-56242D02*
X72621Y-56242D01*
X72664Y-56271D01*
X72692Y-56300D01*
X72707Y-56328D01*
X72721Y-55900D02*
X72921Y-55900D01*
X72607Y-55971D02*
X72821Y-56042D01*
X72821Y-55857D01*
X72750Y-55700D02*
X72735Y-55728D01*
X72721Y-55742D01*
X72692Y-55757D01*
X72678Y-55757D01*
X72650Y-55742D01*
X72635Y-55728D01*
X72621Y-55700D01*
X72621Y-55642D01*
X72635Y-55614D01*
X72650Y-55600D01*
X72678Y-55585D01*
X72692Y-55585D01*
X72721Y-55600D01*
X72735Y-55614D01*
X72750Y-55642D01*
X72750Y-55700D01*
X72764Y-55728D01*
X72778Y-55742D01*
X72807Y-55757D01*
X72864Y-55757D01*
X72892Y-55742D01*
X72907Y-55728D01*
X72921Y-55700D01*
X72921Y-55642D01*
X72907Y-55614D01*
X72892Y-55600D01*
X72864Y-55585D01*
X72807Y-55585D01*
X72778Y-55600D01*
X72764Y-55614D01*
X72750Y-55642D01*
G54D18*
X106077Y-56910D02*
X106089Y-56922D01*
X106101Y-56958D01*
X106101Y-56982D01*
X106089Y-57017D01*
X106065Y-57041D01*
X106041Y-57053D01*
X105994Y-57065D01*
X105958Y-57065D01*
X105910Y-57053D01*
X105886Y-57041D01*
X105863Y-57017D01*
X105851Y-56982D01*
X105851Y-56958D01*
X105863Y-56922D01*
X105875Y-56910D01*
X105934Y-56696D02*
X106101Y-56696D01*
X105839Y-56755D02*
X106017Y-56815D01*
X106017Y-56660D01*
X105934Y-56458D02*
X106101Y-56458D01*
X105839Y-56517D02*
X106017Y-56577D01*
X106017Y-56422D01*
X105851Y-58310D02*
X105851Y-58286D01*
X105863Y-58263D01*
X105875Y-58251D01*
X105898Y-58239D01*
X105946Y-58227D01*
X106005Y-58227D01*
X106053Y-58239D01*
X106077Y-58251D01*
X106089Y-58263D01*
X106101Y-58286D01*
X106101Y-58310D01*
X106089Y-58334D01*
X106077Y-58346D01*
X106053Y-58358D01*
X106005Y-58370D01*
X105946Y-58370D01*
X105898Y-58358D01*
X105875Y-58346D01*
X105863Y-58334D01*
X105851Y-58310D01*
X106077Y-58120D02*
X106089Y-58108D01*
X106101Y-58120D01*
X106089Y-58132D01*
X106077Y-58120D01*
X106101Y-58120D01*
X106101Y-57870D02*
X106101Y-58013D01*
X106101Y-57941D02*
X105851Y-57941D01*
X105886Y-57965D01*
X105910Y-57989D01*
X105922Y-58013D01*
X105934Y-57655D02*
X106101Y-57655D01*
X105934Y-57763D02*
X106065Y-57763D01*
X106089Y-57751D01*
X106101Y-57727D01*
X106101Y-57691D01*
X106089Y-57667D01*
X106077Y-57655D01*
X105970Y-57453D02*
X105970Y-57536D01*
X106101Y-57536D02*
X105851Y-57536D01*
X105851Y-57417D01*
X88677Y-56710D02*
X88689Y-56722D01*
X88701Y-56758D01*
X88701Y-56782D01*
X88689Y-56817D01*
X88665Y-56841D01*
X88641Y-56853D01*
X88594Y-56865D01*
X88558Y-56865D01*
X88510Y-56853D01*
X88486Y-56841D01*
X88463Y-56817D01*
X88451Y-56782D01*
X88451Y-56758D01*
X88463Y-56722D01*
X88475Y-56710D01*
X88451Y-56627D02*
X88451Y-56472D01*
X88546Y-56555D01*
X88546Y-56520D01*
X88558Y-56496D01*
X88570Y-56484D01*
X88594Y-56472D01*
X88653Y-56472D01*
X88677Y-56484D01*
X88689Y-56496D01*
X88701Y-56520D01*
X88701Y-56591D01*
X88689Y-56615D01*
X88677Y-56627D01*
X88451Y-56389D02*
X88451Y-56234D01*
X88546Y-56317D01*
X88546Y-56282D01*
X88558Y-56258D01*
X88570Y-56246D01*
X88594Y-56234D01*
X88653Y-56234D01*
X88677Y-56246D01*
X88689Y-56258D01*
X88701Y-56282D01*
X88701Y-56353D01*
X88689Y-56377D01*
X88677Y-56389D01*
X88451Y-55760D02*
X88451Y-55736D01*
X88463Y-55713D01*
X88475Y-55701D01*
X88498Y-55689D01*
X88546Y-55677D01*
X88605Y-55677D01*
X88653Y-55689D01*
X88677Y-55701D01*
X88689Y-55713D01*
X88701Y-55736D01*
X88701Y-55760D01*
X88689Y-55784D01*
X88677Y-55796D01*
X88653Y-55808D01*
X88605Y-55820D01*
X88546Y-55820D01*
X88498Y-55808D01*
X88475Y-55796D01*
X88463Y-55784D01*
X88451Y-55760D01*
X88677Y-55570D02*
X88689Y-55558D01*
X88701Y-55570D01*
X88689Y-55582D01*
X88677Y-55570D01*
X88701Y-55570D01*
X88701Y-55320D02*
X88701Y-55463D01*
X88701Y-55391D02*
X88451Y-55391D01*
X88486Y-55415D01*
X88510Y-55439D01*
X88522Y-55463D01*
X88534Y-55105D02*
X88701Y-55105D01*
X88534Y-55213D02*
X88665Y-55213D01*
X88689Y-55201D01*
X88701Y-55177D01*
X88701Y-55141D01*
X88689Y-55117D01*
X88677Y-55105D01*
X88570Y-54903D02*
X88570Y-54986D01*
X88701Y-54986D02*
X88451Y-54986D01*
X88451Y-54867D01*
X80739Y-65577D02*
X80727Y-65589D01*
X80691Y-65601D01*
X80667Y-65601D01*
X80632Y-65589D01*
X80608Y-65565D01*
X80596Y-65541D01*
X80584Y-65494D01*
X80584Y-65458D01*
X80596Y-65410D01*
X80608Y-65386D01*
X80632Y-65363D01*
X80667Y-65351D01*
X80691Y-65351D01*
X80727Y-65363D01*
X80739Y-65375D01*
X80977Y-65601D02*
X80834Y-65601D01*
X80905Y-65601D02*
X80905Y-65351D01*
X80882Y-65386D01*
X80858Y-65410D01*
X80834Y-65422D01*
X81215Y-65601D02*
X81072Y-65601D01*
X81144Y-65601D02*
X81144Y-65351D01*
X81120Y-65386D01*
X81096Y-65410D01*
X81072Y-65422D01*
X80639Y-65751D02*
X80663Y-65751D01*
X80686Y-65763D01*
X80698Y-65775D01*
X80710Y-65798D01*
X80722Y-65846D01*
X80722Y-65905D01*
X80710Y-65953D01*
X80698Y-65977D01*
X80686Y-65989D01*
X80663Y-66001D01*
X80639Y-66001D01*
X80615Y-65989D01*
X80603Y-65977D01*
X80591Y-65953D01*
X80579Y-65905D01*
X80579Y-65846D01*
X80591Y-65798D01*
X80603Y-65775D01*
X80615Y-65763D01*
X80639Y-65751D01*
X80829Y-65977D02*
X80841Y-65989D01*
X80829Y-66001D01*
X80817Y-65989D01*
X80829Y-65977D01*
X80829Y-66001D01*
X81079Y-66001D02*
X80936Y-66001D01*
X81008Y-66001D02*
X81008Y-65751D01*
X80984Y-65786D01*
X80960Y-65810D01*
X80936Y-65822D01*
X81294Y-65834D02*
X81294Y-66001D01*
X81186Y-65834D02*
X81186Y-65965D01*
X81198Y-65989D01*
X81222Y-66001D01*
X81258Y-66001D01*
X81282Y-65989D01*
X81294Y-65977D01*
X81496Y-65870D02*
X81413Y-65870D01*
X81413Y-66001D02*
X81413Y-65751D01*
X81532Y-65751D01*
X82427Y-65010D02*
X82439Y-65022D01*
X82451Y-65058D01*
X82451Y-65082D01*
X82439Y-65117D01*
X82415Y-65141D01*
X82391Y-65153D01*
X82344Y-65165D01*
X82308Y-65165D01*
X82260Y-65153D01*
X82236Y-65141D01*
X82213Y-65117D01*
X82201Y-65082D01*
X82201Y-65058D01*
X82213Y-65022D01*
X82225Y-65010D01*
X82225Y-64915D02*
X82213Y-64903D01*
X82201Y-64879D01*
X82201Y-64820D01*
X82213Y-64796D01*
X82225Y-64784D01*
X82248Y-64772D01*
X82272Y-64772D01*
X82308Y-64784D01*
X82451Y-64927D01*
X82451Y-64772D01*
X82225Y-64677D02*
X82213Y-64665D01*
X82201Y-64641D01*
X82201Y-64582D01*
X82213Y-64558D01*
X82225Y-64546D01*
X82248Y-64534D01*
X82272Y-64534D01*
X82308Y-64546D01*
X82451Y-64689D01*
X82451Y-64534D01*
X82151Y-65967D02*
X82151Y-66110D01*
X82151Y-66039D02*
X81901Y-66039D01*
X81936Y-66063D01*
X81960Y-66086D01*
X81972Y-66110D01*
X81901Y-65813D02*
X81901Y-65789D01*
X81913Y-65765D01*
X81925Y-65753D01*
X81948Y-65741D01*
X81996Y-65729D01*
X82055Y-65729D01*
X82103Y-65741D01*
X82127Y-65753D01*
X82139Y-65765D01*
X82151Y-65789D01*
X82151Y-65813D01*
X82139Y-65836D01*
X82127Y-65848D01*
X82103Y-65860D01*
X82055Y-65872D01*
X81996Y-65872D01*
X81948Y-65860D01*
X81925Y-65848D01*
X81913Y-65836D01*
X81901Y-65813D01*
X81984Y-65622D02*
X82151Y-65622D01*
X82008Y-65622D02*
X81996Y-65610D01*
X81984Y-65586D01*
X81984Y-65551D01*
X81996Y-65527D01*
X82020Y-65515D01*
X82151Y-65515D01*
X82020Y-65313D02*
X82020Y-65396D01*
X82151Y-65396D02*
X81901Y-65396D01*
X81901Y-65277D01*
X78489Y-60627D02*
X78477Y-60639D01*
X78441Y-60651D01*
X78417Y-60651D01*
X78382Y-60639D01*
X78358Y-60615D01*
X78346Y-60591D01*
X78334Y-60544D01*
X78334Y-60508D01*
X78346Y-60460D01*
X78358Y-60436D01*
X78382Y-60413D01*
X78417Y-60401D01*
X78441Y-60401D01*
X78477Y-60413D01*
X78489Y-60425D01*
X78727Y-60651D02*
X78584Y-60651D01*
X78655Y-60651D02*
X78655Y-60401D01*
X78632Y-60436D01*
X78608Y-60460D01*
X78584Y-60472D01*
X78882Y-60401D02*
X78905Y-60401D01*
X78929Y-60413D01*
X78941Y-60425D01*
X78953Y-60448D01*
X78965Y-60496D01*
X78965Y-60555D01*
X78953Y-60603D01*
X78941Y-60627D01*
X78929Y-60639D01*
X78905Y-60651D01*
X78882Y-60651D01*
X78858Y-60639D01*
X78846Y-60627D01*
X78834Y-60603D01*
X78822Y-60555D01*
X78822Y-60496D01*
X78834Y-60448D01*
X78846Y-60425D01*
X78858Y-60413D01*
X78882Y-60401D01*
X78389Y-60851D02*
X78413Y-60851D01*
X78436Y-60863D01*
X78448Y-60875D01*
X78460Y-60898D01*
X78472Y-60946D01*
X78472Y-61005D01*
X78460Y-61053D01*
X78448Y-61077D01*
X78436Y-61089D01*
X78413Y-61101D01*
X78389Y-61101D01*
X78365Y-61089D01*
X78353Y-61077D01*
X78341Y-61053D01*
X78329Y-61005D01*
X78329Y-60946D01*
X78341Y-60898D01*
X78353Y-60875D01*
X78365Y-60863D01*
X78389Y-60851D01*
X78579Y-61077D02*
X78591Y-61089D01*
X78579Y-61101D01*
X78567Y-61089D01*
X78579Y-61077D01*
X78579Y-61101D01*
X78829Y-61101D02*
X78686Y-61101D01*
X78758Y-61101D02*
X78758Y-60851D01*
X78734Y-60886D01*
X78710Y-60910D01*
X78686Y-60922D01*
X79044Y-60934D02*
X79044Y-61101D01*
X78936Y-60934D02*
X78936Y-61065D01*
X78948Y-61089D01*
X78972Y-61101D01*
X79008Y-61101D01*
X79032Y-61089D01*
X79044Y-61077D01*
X79246Y-60970D02*
X79163Y-60970D01*
X79163Y-61101D02*
X79163Y-60851D01*
X79282Y-60851D01*
X94677Y-58210D02*
X94689Y-58222D01*
X94701Y-58258D01*
X94701Y-58282D01*
X94689Y-58317D01*
X94665Y-58341D01*
X94641Y-58353D01*
X94594Y-58365D01*
X94558Y-58365D01*
X94510Y-58353D01*
X94486Y-58341D01*
X94463Y-58317D01*
X94451Y-58282D01*
X94451Y-58258D01*
X94463Y-58222D01*
X94475Y-58210D01*
X94534Y-57996D02*
X94701Y-57996D01*
X94439Y-58055D02*
X94617Y-58115D01*
X94617Y-57960D01*
X94451Y-57746D02*
X94451Y-57865D01*
X94570Y-57877D01*
X94558Y-57865D01*
X94546Y-57841D01*
X94546Y-57782D01*
X94558Y-57758D01*
X94570Y-57746D01*
X94594Y-57734D01*
X94653Y-57734D01*
X94677Y-57746D01*
X94689Y-57758D01*
X94701Y-57782D01*
X94701Y-57841D01*
X94689Y-57865D01*
X94677Y-57877D01*
X94451Y-57260D02*
X94451Y-57236D01*
X94463Y-57213D01*
X94475Y-57201D01*
X94498Y-57189D01*
X94546Y-57177D01*
X94605Y-57177D01*
X94653Y-57189D01*
X94677Y-57201D01*
X94689Y-57213D01*
X94701Y-57236D01*
X94701Y-57260D01*
X94689Y-57284D01*
X94677Y-57296D01*
X94653Y-57308D01*
X94605Y-57320D01*
X94546Y-57320D01*
X94498Y-57308D01*
X94475Y-57296D01*
X94463Y-57284D01*
X94451Y-57260D01*
X94677Y-57070D02*
X94689Y-57058D01*
X94701Y-57070D01*
X94689Y-57082D01*
X94677Y-57070D01*
X94701Y-57070D01*
X94701Y-56820D02*
X94701Y-56963D01*
X94701Y-56891D02*
X94451Y-56891D01*
X94486Y-56915D01*
X94510Y-56939D01*
X94522Y-56963D01*
X94534Y-56605D02*
X94701Y-56605D01*
X94534Y-56713D02*
X94665Y-56713D01*
X94689Y-56701D01*
X94701Y-56677D01*
X94701Y-56641D01*
X94689Y-56617D01*
X94677Y-56605D01*
X94570Y-56403D02*
X94570Y-56486D01*
X94701Y-56486D02*
X94451Y-56486D01*
X94451Y-56367D01*
X88677Y-58960D02*
X88689Y-58972D01*
X88701Y-59008D01*
X88701Y-59032D01*
X88689Y-59067D01*
X88665Y-59091D01*
X88641Y-59103D01*
X88594Y-59115D01*
X88558Y-59115D01*
X88510Y-59103D01*
X88486Y-59091D01*
X88463Y-59067D01*
X88451Y-59032D01*
X88451Y-59008D01*
X88463Y-58972D01*
X88475Y-58960D01*
X88451Y-58877D02*
X88451Y-58722D01*
X88546Y-58805D01*
X88546Y-58770D01*
X88558Y-58746D01*
X88570Y-58734D01*
X88594Y-58722D01*
X88653Y-58722D01*
X88677Y-58734D01*
X88689Y-58746D01*
X88701Y-58770D01*
X88701Y-58841D01*
X88689Y-58865D01*
X88677Y-58877D01*
X88451Y-58567D02*
X88451Y-58544D01*
X88463Y-58520D01*
X88475Y-58508D01*
X88498Y-58496D01*
X88546Y-58484D01*
X88605Y-58484D01*
X88653Y-58496D01*
X88677Y-58508D01*
X88689Y-58520D01*
X88701Y-58544D01*
X88701Y-58567D01*
X88689Y-58591D01*
X88677Y-58603D01*
X88653Y-58615D01*
X88605Y-58627D01*
X88546Y-58627D01*
X88498Y-58615D01*
X88475Y-58603D01*
X88463Y-58591D01*
X88451Y-58567D01*
X88451Y-58010D02*
X88451Y-57986D01*
X88463Y-57963D01*
X88475Y-57951D01*
X88498Y-57939D01*
X88546Y-57927D01*
X88605Y-57927D01*
X88653Y-57939D01*
X88677Y-57951D01*
X88689Y-57963D01*
X88701Y-57986D01*
X88701Y-58010D01*
X88689Y-58034D01*
X88677Y-58046D01*
X88653Y-58058D01*
X88605Y-58070D01*
X88546Y-58070D01*
X88498Y-58058D01*
X88475Y-58046D01*
X88463Y-58034D01*
X88451Y-58010D01*
X88677Y-57820D02*
X88689Y-57808D01*
X88701Y-57820D01*
X88689Y-57832D01*
X88677Y-57820D01*
X88701Y-57820D01*
X88701Y-57570D02*
X88701Y-57713D01*
X88701Y-57641D02*
X88451Y-57641D01*
X88486Y-57665D01*
X88510Y-57689D01*
X88522Y-57713D01*
X88534Y-57355D02*
X88701Y-57355D01*
X88534Y-57463D02*
X88665Y-57463D01*
X88689Y-57451D01*
X88701Y-57427D01*
X88701Y-57391D01*
X88689Y-57367D01*
X88677Y-57355D01*
X88570Y-57153D02*
X88570Y-57236D01*
X88701Y-57236D02*
X88451Y-57236D01*
X88451Y-57117D01*
X95027Y-63860D02*
X95039Y-63872D01*
X95051Y-63908D01*
X95051Y-63932D01*
X95039Y-63967D01*
X95015Y-63991D01*
X94991Y-64003D01*
X94944Y-64015D01*
X94908Y-64015D01*
X94860Y-64003D01*
X94836Y-63991D01*
X94813Y-63967D01*
X94801Y-63932D01*
X94801Y-63908D01*
X94813Y-63872D01*
X94825Y-63860D01*
X94801Y-63777D02*
X94801Y-63622D01*
X94896Y-63705D01*
X94896Y-63670D01*
X94908Y-63646D01*
X94920Y-63634D01*
X94944Y-63622D01*
X95003Y-63622D01*
X95027Y-63634D01*
X95039Y-63646D01*
X95051Y-63670D01*
X95051Y-63741D01*
X95039Y-63765D01*
X95027Y-63777D01*
X95051Y-63384D02*
X95051Y-63527D01*
X95051Y-63455D02*
X94801Y-63455D01*
X94836Y-63479D01*
X94860Y-63503D01*
X94872Y-63527D01*
X94801Y-65360D02*
X94801Y-65336D01*
X94813Y-65313D01*
X94825Y-65301D01*
X94848Y-65289D01*
X94896Y-65277D01*
X94955Y-65277D01*
X95003Y-65289D01*
X95027Y-65301D01*
X95039Y-65313D01*
X95051Y-65336D01*
X95051Y-65360D01*
X95039Y-65384D01*
X95027Y-65396D01*
X95003Y-65408D01*
X94955Y-65420D01*
X94896Y-65420D01*
X94848Y-65408D01*
X94825Y-65396D01*
X94813Y-65384D01*
X94801Y-65360D01*
X95027Y-65170D02*
X95039Y-65158D01*
X95051Y-65170D01*
X95039Y-65182D01*
X95027Y-65170D01*
X95051Y-65170D01*
X95051Y-64920D02*
X95051Y-65063D01*
X95051Y-64991D02*
X94801Y-64991D01*
X94836Y-65015D01*
X94860Y-65039D01*
X94872Y-65063D01*
X94884Y-64705D02*
X95051Y-64705D01*
X94884Y-64813D02*
X95015Y-64813D01*
X95039Y-64801D01*
X95051Y-64777D01*
X95051Y-64741D01*
X95039Y-64717D01*
X95027Y-64705D01*
X94920Y-64503D02*
X94920Y-64586D01*
X95051Y-64586D02*
X94801Y-64586D01*
X94801Y-64467D01*
X81439Y-60627D02*
X81427Y-60639D01*
X81391Y-60651D01*
X81367Y-60651D01*
X81332Y-60639D01*
X81308Y-60615D01*
X81296Y-60591D01*
X81284Y-60544D01*
X81284Y-60508D01*
X81296Y-60460D01*
X81308Y-60436D01*
X81332Y-60413D01*
X81367Y-60401D01*
X81391Y-60401D01*
X81427Y-60413D01*
X81439Y-60425D01*
X81534Y-60425D02*
X81546Y-60413D01*
X81570Y-60401D01*
X81629Y-60401D01*
X81653Y-60413D01*
X81665Y-60425D01*
X81677Y-60448D01*
X81677Y-60472D01*
X81665Y-60508D01*
X81522Y-60651D01*
X81677Y-60651D01*
X81832Y-60401D02*
X81855Y-60401D01*
X81879Y-60413D01*
X81891Y-60425D01*
X81903Y-60448D01*
X81915Y-60496D01*
X81915Y-60555D01*
X81903Y-60603D01*
X81891Y-60627D01*
X81879Y-60639D01*
X81855Y-60651D01*
X81832Y-60651D01*
X81808Y-60639D01*
X81796Y-60627D01*
X81784Y-60603D01*
X81772Y-60555D01*
X81772Y-60496D01*
X81784Y-60448D01*
X81796Y-60425D01*
X81808Y-60413D01*
X81832Y-60401D01*
X81039Y-60801D02*
X81063Y-60801D01*
X81086Y-60813D01*
X81098Y-60825D01*
X81110Y-60848D01*
X81122Y-60896D01*
X81122Y-60955D01*
X81110Y-61003D01*
X81098Y-61027D01*
X81086Y-61039D01*
X81063Y-61051D01*
X81039Y-61051D01*
X81015Y-61039D01*
X81003Y-61027D01*
X80991Y-61003D01*
X80979Y-60955D01*
X80979Y-60896D01*
X80991Y-60848D01*
X81003Y-60825D01*
X81015Y-60813D01*
X81039Y-60801D01*
X81229Y-61027D02*
X81241Y-61039D01*
X81229Y-61051D01*
X81217Y-61039D01*
X81229Y-61027D01*
X81229Y-61051D01*
X81479Y-61051D02*
X81336Y-61051D01*
X81408Y-61051D02*
X81408Y-60801D01*
X81384Y-60836D01*
X81360Y-60860D01*
X81336Y-60872D01*
X81694Y-60884D02*
X81694Y-61051D01*
X81586Y-60884D02*
X81586Y-61015D01*
X81598Y-61039D01*
X81622Y-61051D01*
X81658Y-61051D01*
X81682Y-61039D01*
X81694Y-61027D01*
X81896Y-60920D02*
X81813Y-60920D01*
X81813Y-61051D02*
X81813Y-60801D01*
X81932Y-60801D01*
X75189Y-63627D02*
X75177Y-63639D01*
X75141Y-63651D01*
X75117Y-63651D01*
X75082Y-63639D01*
X75058Y-63615D01*
X75046Y-63591D01*
X75034Y-63544D01*
X75034Y-63508D01*
X75046Y-63460D01*
X75058Y-63436D01*
X75082Y-63413D01*
X75117Y-63401D01*
X75141Y-63401D01*
X75177Y-63413D01*
X75189Y-63425D01*
X75403Y-63401D02*
X75355Y-63401D01*
X75332Y-63413D01*
X75320Y-63425D01*
X75296Y-63460D01*
X75284Y-63508D01*
X75284Y-63603D01*
X75296Y-63627D01*
X75308Y-63639D01*
X75332Y-63651D01*
X75379Y-63651D01*
X75403Y-63639D01*
X75415Y-63627D01*
X75427Y-63603D01*
X75427Y-63544D01*
X75415Y-63520D01*
X75403Y-63508D01*
X75379Y-63496D01*
X75332Y-63496D01*
X75308Y-63508D01*
X75296Y-63520D01*
X75284Y-63544D01*
X75522Y-63425D02*
X75534Y-63413D01*
X75558Y-63401D01*
X75617Y-63401D01*
X75641Y-63413D01*
X75653Y-63425D01*
X75665Y-63448D01*
X75665Y-63472D01*
X75653Y-63508D01*
X75510Y-63651D01*
X75665Y-63651D01*
X75089Y-63851D02*
X75113Y-63851D01*
X75136Y-63863D01*
X75148Y-63875D01*
X75160Y-63898D01*
X75172Y-63946D01*
X75172Y-64005D01*
X75160Y-64053D01*
X75148Y-64077D01*
X75136Y-64089D01*
X75113Y-64101D01*
X75089Y-64101D01*
X75065Y-64089D01*
X75053Y-64077D01*
X75041Y-64053D01*
X75029Y-64005D01*
X75029Y-63946D01*
X75041Y-63898D01*
X75053Y-63875D01*
X75065Y-63863D01*
X75089Y-63851D01*
X75279Y-64077D02*
X75291Y-64089D01*
X75279Y-64101D01*
X75267Y-64089D01*
X75279Y-64077D01*
X75279Y-64101D01*
X75529Y-64101D02*
X75386Y-64101D01*
X75458Y-64101D02*
X75458Y-63851D01*
X75434Y-63886D01*
X75410Y-63910D01*
X75386Y-63922D01*
X75744Y-63934D02*
X75744Y-64101D01*
X75636Y-63934D02*
X75636Y-64065D01*
X75648Y-64089D01*
X75672Y-64101D01*
X75708Y-64101D01*
X75732Y-64089D01*
X75744Y-64077D01*
X75946Y-63970D02*
X75863Y-63970D01*
X75863Y-64101D02*
X75863Y-63851D01*
X75982Y-63851D01*
X86727Y-65010D02*
X86739Y-65022D01*
X86751Y-65058D01*
X86751Y-65082D01*
X86739Y-65117D01*
X86715Y-65141D01*
X86691Y-65153D01*
X86644Y-65165D01*
X86608Y-65165D01*
X86560Y-65153D01*
X86536Y-65141D01*
X86513Y-65117D01*
X86501Y-65082D01*
X86501Y-65058D01*
X86513Y-65022D01*
X86525Y-65010D01*
X86525Y-64915D02*
X86513Y-64903D01*
X86501Y-64879D01*
X86501Y-64820D01*
X86513Y-64796D01*
X86525Y-64784D01*
X86548Y-64772D01*
X86572Y-64772D01*
X86608Y-64784D01*
X86751Y-64927D01*
X86751Y-64772D01*
X86751Y-64534D02*
X86751Y-64677D01*
X86751Y-64605D02*
X86501Y-64605D01*
X86536Y-64629D01*
X86560Y-64653D01*
X86572Y-64677D01*
X86801Y-66160D02*
X86801Y-66136D01*
X86813Y-66113D01*
X86825Y-66101D01*
X86848Y-66089D01*
X86896Y-66077D01*
X86955Y-66077D01*
X87003Y-66089D01*
X87027Y-66101D01*
X87039Y-66113D01*
X87051Y-66136D01*
X87051Y-66160D01*
X87039Y-66184D01*
X87027Y-66196D01*
X87003Y-66208D01*
X86955Y-66220D01*
X86896Y-66220D01*
X86848Y-66208D01*
X86825Y-66196D01*
X86813Y-66184D01*
X86801Y-66160D01*
X87027Y-65970D02*
X87039Y-65958D01*
X87051Y-65970D01*
X87039Y-65982D01*
X87027Y-65970D01*
X87051Y-65970D01*
X87051Y-65720D02*
X87051Y-65863D01*
X87051Y-65791D02*
X86801Y-65791D01*
X86836Y-65815D01*
X86860Y-65839D01*
X86872Y-65863D01*
X86884Y-65505D02*
X87051Y-65505D01*
X86884Y-65613D02*
X87015Y-65613D01*
X87039Y-65601D01*
X87051Y-65577D01*
X87051Y-65541D01*
X87039Y-65517D01*
X87027Y-65505D01*
X86920Y-65303D02*
X86920Y-65386D01*
X87051Y-65386D02*
X86801Y-65386D01*
X86801Y-65267D01*
X88627Y-66010D02*
X88639Y-66022D01*
X88651Y-66058D01*
X88651Y-66082D01*
X88639Y-66117D01*
X88615Y-66141D01*
X88591Y-66153D01*
X88544Y-66165D01*
X88508Y-66165D01*
X88460Y-66153D01*
X88436Y-66141D01*
X88413Y-66117D01*
X88401Y-66082D01*
X88401Y-66058D01*
X88413Y-66022D01*
X88425Y-66010D01*
X88401Y-65927D02*
X88401Y-65772D01*
X88496Y-65855D01*
X88496Y-65820D01*
X88508Y-65796D01*
X88520Y-65784D01*
X88544Y-65772D01*
X88603Y-65772D01*
X88627Y-65784D01*
X88639Y-65796D01*
X88651Y-65820D01*
X88651Y-65891D01*
X88639Y-65915D01*
X88627Y-65927D01*
X88425Y-65677D02*
X88413Y-65665D01*
X88401Y-65641D01*
X88401Y-65582D01*
X88413Y-65558D01*
X88425Y-65546D01*
X88448Y-65534D01*
X88472Y-65534D01*
X88508Y-65546D01*
X88651Y-65689D01*
X88651Y-65534D01*
X88401Y-65010D02*
X88401Y-64986D01*
X88413Y-64963D01*
X88425Y-64951D01*
X88448Y-64939D01*
X88496Y-64927D01*
X88555Y-64927D01*
X88603Y-64939D01*
X88627Y-64951D01*
X88639Y-64963D01*
X88651Y-64986D01*
X88651Y-65010D01*
X88639Y-65034D01*
X88627Y-65046D01*
X88603Y-65058D01*
X88555Y-65070D01*
X88496Y-65070D01*
X88448Y-65058D01*
X88425Y-65046D01*
X88413Y-65034D01*
X88401Y-65010D01*
X88627Y-64820D02*
X88639Y-64808D01*
X88651Y-64820D01*
X88639Y-64832D01*
X88627Y-64820D01*
X88651Y-64820D01*
X88651Y-64570D02*
X88651Y-64713D01*
X88651Y-64641D02*
X88401Y-64641D01*
X88436Y-64665D01*
X88460Y-64689D01*
X88472Y-64713D01*
X88484Y-64355D02*
X88651Y-64355D01*
X88484Y-64463D02*
X88615Y-64463D01*
X88639Y-64451D01*
X88651Y-64427D01*
X88651Y-64391D01*
X88639Y-64367D01*
X88627Y-64355D01*
X88520Y-64153D02*
X88520Y-64236D01*
X88651Y-64236D02*
X88401Y-64236D01*
X88401Y-64117D01*
X100127Y-56760D02*
X100139Y-56772D01*
X100151Y-56808D01*
X100151Y-56832D01*
X100139Y-56867D01*
X100115Y-56891D01*
X100091Y-56903D01*
X100044Y-56915D01*
X100008Y-56915D01*
X99960Y-56903D01*
X99936Y-56891D01*
X99913Y-56867D01*
X99901Y-56832D01*
X99901Y-56808D01*
X99913Y-56772D01*
X99925Y-56760D01*
X99984Y-56546D02*
X100151Y-56546D01*
X99889Y-56605D02*
X100067Y-56665D01*
X100067Y-56510D01*
X100151Y-56284D02*
X100151Y-56427D01*
X100151Y-56355D02*
X99901Y-56355D01*
X99936Y-56379D01*
X99960Y-56403D01*
X99972Y-56427D01*
X100351Y-56860D02*
X100351Y-56836D01*
X100363Y-56813D01*
X100375Y-56801D01*
X100398Y-56789D01*
X100446Y-56777D01*
X100505Y-56777D01*
X100553Y-56789D01*
X100577Y-56801D01*
X100589Y-56813D01*
X100601Y-56836D01*
X100601Y-56860D01*
X100589Y-56884D01*
X100577Y-56896D01*
X100553Y-56908D01*
X100505Y-56920D01*
X100446Y-56920D01*
X100398Y-56908D01*
X100375Y-56896D01*
X100363Y-56884D01*
X100351Y-56860D01*
X100577Y-56670D02*
X100589Y-56658D01*
X100601Y-56670D01*
X100589Y-56682D01*
X100577Y-56670D01*
X100601Y-56670D01*
X100601Y-56420D02*
X100601Y-56563D01*
X100601Y-56491D02*
X100351Y-56491D01*
X100386Y-56515D01*
X100410Y-56539D01*
X100422Y-56563D01*
X100434Y-56205D02*
X100601Y-56205D01*
X100434Y-56313D02*
X100565Y-56313D01*
X100589Y-56301D01*
X100601Y-56277D01*
X100601Y-56241D01*
X100589Y-56217D01*
X100577Y-56205D01*
X100470Y-56003D02*
X100470Y-56086D01*
X100601Y-56086D02*
X100351Y-56086D01*
X100351Y-55967D01*
X100577Y-66060D02*
X100589Y-66072D01*
X100601Y-66108D01*
X100601Y-66132D01*
X100589Y-66167D01*
X100565Y-66191D01*
X100541Y-66203D01*
X100494Y-66215D01*
X100458Y-66215D01*
X100410Y-66203D01*
X100386Y-66191D01*
X100363Y-66167D01*
X100351Y-66132D01*
X100351Y-66108D01*
X100363Y-66072D01*
X100375Y-66060D01*
X100434Y-65846D02*
X100601Y-65846D01*
X100339Y-65905D02*
X100517Y-65965D01*
X100517Y-65810D01*
X100351Y-65667D02*
X100351Y-65644D01*
X100363Y-65620D01*
X100375Y-65608D01*
X100398Y-65596D01*
X100446Y-65584D01*
X100505Y-65584D01*
X100553Y-65596D01*
X100577Y-65608D01*
X100589Y-65620D01*
X100601Y-65644D01*
X100601Y-65667D01*
X100589Y-65691D01*
X100577Y-65703D01*
X100553Y-65715D01*
X100505Y-65727D01*
X100446Y-65727D01*
X100398Y-65715D01*
X100375Y-65703D01*
X100363Y-65691D01*
X100351Y-65667D01*
X99901Y-66460D02*
X99901Y-66436D01*
X99913Y-66413D01*
X99925Y-66401D01*
X99948Y-66389D01*
X99996Y-66377D01*
X100055Y-66377D01*
X100103Y-66389D01*
X100127Y-66401D01*
X100139Y-66413D01*
X100151Y-66436D01*
X100151Y-66460D01*
X100139Y-66484D01*
X100127Y-66496D01*
X100103Y-66508D01*
X100055Y-66520D01*
X99996Y-66520D01*
X99948Y-66508D01*
X99925Y-66496D01*
X99913Y-66484D01*
X99901Y-66460D01*
X100127Y-66270D02*
X100139Y-66258D01*
X100151Y-66270D01*
X100139Y-66282D01*
X100127Y-66270D01*
X100151Y-66270D01*
X100151Y-66020D02*
X100151Y-66163D01*
X100151Y-66091D02*
X99901Y-66091D01*
X99936Y-66115D01*
X99960Y-66139D01*
X99972Y-66163D01*
X99984Y-65805D02*
X100151Y-65805D01*
X99984Y-65913D02*
X100115Y-65913D01*
X100139Y-65901D01*
X100151Y-65877D01*
X100151Y-65841D01*
X100139Y-65817D01*
X100127Y-65805D01*
X100020Y-65603D02*
X100020Y-65686D01*
X100151Y-65686D02*
X99901Y-65686D01*
X99901Y-65567D01*
X106027Y-64610D02*
X106039Y-64622D01*
X106051Y-64658D01*
X106051Y-64682D01*
X106039Y-64717D01*
X106015Y-64741D01*
X105991Y-64753D01*
X105944Y-64765D01*
X105908Y-64765D01*
X105860Y-64753D01*
X105836Y-64741D01*
X105813Y-64717D01*
X105801Y-64682D01*
X105801Y-64658D01*
X105813Y-64622D01*
X105825Y-64610D01*
X105884Y-64396D02*
X106051Y-64396D01*
X105789Y-64455D02*
X105967Y-64515D01*
X105967Y-64360D01*
X105801Y-64289D02*
X105801Y-64134D01*
X105896Y-64217D01*
X105896Y-64182D01*
X105908Y-64158D01*
X105920Y-64146D01*
X105944Y-64134D01*
X106003Y-64134D01*
X106027Y-64146D01*
X106039Y-64158D01*
X106051Y-64182D01*
X106051Y-64253D01*
X106039Y-64277D01*
X106027Y-64289D01*
X105801Y-66110D02*
X105801Y-66086D01*
X105813Y-66063D01*
X105825Y-66051D01*
X105848Y-66039D01*
X105896Y-66027D01*
X105955Y-66027D01*
X106003Y-66039D01*
X106027Y-66051D01*
X106039Y-66063D01*
X106051Y-66086D01*
X106051Y-66110D01*
X106039Y-66134D01*
X106027Y-66146D01*
X106003Y-66158D01*
X105955Y-66170D01*
X105896Y-66170D01*
X105848Y-66158D01*
X105825Y-66146D01*
X105813Y-66134D01*
X105801Y-66110D01*
X106027Y-65920D02*
X106039Y-65908D01*
X106051Y-65920D01*
X106039Y-65932D01*
X106027Y-65920D01*
X106051Y-65920D01*
X106051Y-65670D02*
X106051Y-65813D01*
X106051Y-65741D02*
X105801Y-65741D01*
X105836Y-65765D01*
X105860Y-65789D01*
X105872Y-65813D01*
X105884Y-65455D02*
X106051Y-65455D01*
X105884Y-65563D02*
X106015Y-65563D01*
X106039Y-65551D01*
X106051Y-65527D01*
X106051Y-65491D01*
X106039Y-65467D01*
X106027Y-65455D01*
X105920Y-65253D02*
X105920Y-65336D01*
X106051Y-65336D02*
X105801Y-65336D01*
X105801Y-65217D01*
X75439Y-65577D02*
X75427Y-65589D01*
X75391Y-65601D01*
X75367Y-65601D01*
X75332Y-65589D01*
X75308Y-65565D01*
X75296Y-65541D01*
X75284Y-65494D01*
X75284Y-65458D01*
X75296Y-65410D01*
X75308Y-65386D01*
X75332Y-65363D01*
X75367Y-65351D01*
X75391Y-65351D01*
X75427Y-65363D01*
X75439Y-65375D01*
X75677Y-65601D02*
X75534Y-65601D01*
X75605Y-65601D02*
X75605Y-65351D01*
X75582Y-65386D01*
X75558Y-65410D01*
X75534Y-65422D01*
X75772Y-65375D02*
X75784Y-65363D01*
X75808Y-65351D01*
X75867Y-65351D01*
X75891Y-65363D01*
X75903Y-65375D01*
X75915Y-65398D01*
X75915Y-65422D01*
X75903Y-65458D01*
X75760Y-65601D01*
X75915Y-65601D01*
X75232Y-66101D02*
X75089Y-66101D01*
X75160Y-66101D02*
X75160Y-65851D01*
X75136Y-65886D01*
X75113Y-65910D01*
X75089Y-65922D01*
X75386Y-65851D02*
X75410Y-65851D01*
X75434Y-65863D01*
X75446Y-65875D01*
X75458Y-65898D01*
X75470Y-65946D01*
X75470Y-66005D01*
X75458Y-66053D01*
X75446Y-66077D01*
X75434Y-66089D01*
X75410Y-66101D01*
X75386Y-66101D01*
X75363Y-66089D01*
X75351Y-66077D01*
X75339Y-66053D01*
X75327Y-66005D01*
X75327Y-65946D01*
X75339Y-65898D01*
X75351Y-65875D01*
X75363Y-65863D01*
X75386Y-65851D01*
X75577Y-65934D02*
X75577Y-66101D01*
X75577Y-65958D02*
X75589Y-65946D01*
X75613Y-65934D01*
X75648Y-65934D01*
X75672Y-65946D01*
X75684Y-65970D01*
X75684Y-66101D01*
X75886Y-65970D02*
X75803Y-65970D01*
X75803Y-66101D02*
X75803Y-65851D01*
X75922Y-65851D01*
X94677Y-67960D02*
X94689Y-67972D01*
X94701Y-68008D01*
X94701Y-68032D01*
X94689Y-68067D01*
X94665Y-68091D01*
X94641Y-68103D01*
X94594Y-68115D01*
X94558Y-68115D01*
X94510Y-68103D01*
X94486Y-68091D01*
X94463Y-68067D01*
X94451Y-68032D01*
X94451Y-68008D01*
X94463Y-67972D01*
X94475Y-67960D01*
X94534Y-67746D02*
X94701Y-67746D01*
X94439Y-67805D02*
X94617Y-67865D01*
X94617Y-67710D01*
X94475Y-67627D02*
X94463Y-67615D01*
X94451Y-67591D01*
X94451Y-67532D01*
X94463Y-67508D01*
X94475Y-67496D01*
X94498Y-67484D01*
X94522Y-67484D01*
X94558Y-67496D01*
X94701Y-67639D01*
X94701Y-67484D01*
X94451Y-67010D02*
X94451Y-66986D01*
X94463Y-66963D01*
X94475Y-66951D01*
X94498Y-66939D01*
X94546Y-66927D01*
X94605Y-66927D01*
X94653Y-66939D01*
X94677Y-66951D01*
X94689Y-66963D01*
X94701Y-66986D01*
X94701Y-67010D01*
X94689Y-67034D01*
X94677Y-67046D01*
X94653Y-67058D01*
X94605Y-67070D01*
X94546Y-67070D01*
X94498Y-67058D01*
X94475Y-67046D01*
X94463Y-67034D01*
X94451Y-67010D01*
X94677Y-66820D02*
X94689Y-66808D01*
X94701Y-66820D01*
X94689Y-66832D01*
X94677Y-66820D01*
X94701Y-66820D01*
X94701Y-66570D02*
X94701Y-66713D01*
X94701Y-66641D02*
X94451Y-66641D01*
X94486Y-66665D01*
X94510Y-66689D01*
X94522Y-66713D01*
X94534Y-66355D02*
X94701Y-66355D01*
X94534Y-66463D02*
X94665Y-66463D01*
X94689Y-66451D01*
X94701Y-66427D01*
X94701Y-66391D01*
X94689Y-66367D01*
X94677Y-66355D01*
X94570Y-66153D02*
X94570Y-66236D01*
X94701Y-66236D02*
X94451Y-66236D01*
X94451Y-66117D01*
X73039Y-64677D02*
X73027Y-64689D01*
X72991Y-64701D01*
X72967Y-64701D01*
X72932Y-64689D01*
X72908Y-64665D01*
X72896Y-64641D01*
X72884Y-64594D01*
X72884Y-64558D01*
X72896Y-64510D01*
X72908Y-64486D01*
X72932Y-64463D01*
X72967Y-64451D01*
X72991Y-64451D01*
X73027Y-64463D01*
X73039Y-64475D01*
X73253Y-64451D02*
X73205Y-64451D01*
X73182Y-64463D01*
X73170Y-64475D01*
X73146Y-64510D01*
X73134Y-64558D01*
X73134Y-64653D01*
X73146Y-64677D01*
X73158Y-64689D01*
X73182Y-64701D01*
X73229Y-64701D01*
X73253Y-64689D01*
X73265Y-64677D01*
X73277Y-64653D01*
X73277Y-64594D01*
X73265Y-64570D01*
X73253Y-64558D01*
X73229Y-64546D01*
X73182Y-64546D01*
X73158Y-64558D01*
X73146Y-64570D01*
X73134Y-64594D01*
X73360Y-64451D02*
X73515Y-64451D01*
X73432Y-64546D01*
X73467Y-64546D01*
X73491Y-64558D01*
X73503Y-64570D01*
X73515Y-64594D01*
X73515Y-64653D01*
X73503Y-64677D01*
X73491Y-64689D01*
X73467Y-64701D01*
X73396Y-64701D01*
X73372Y-64689D01*
X73360Y-64677D01*
X73989Y-64451D02*
X74013Y-64451D01*
X74036Y-64463D01*
X74048Y-64475D01*
X74060Y-64498D01*
X74072Y-64546D01*
X74072Y-64605D01*
X74060Y-64653D01*
X74048Y-64677D01*
X74036Y-64689D01*
X74013Y-64701D01*
X73989Y-64701D01*
X73965Y-64689D01*
X73953Y-64677D01*
X73941Y-64653D01*
X73929Y-64605D01*
X73929Y-64546D01*
X73941Y-64498D01*
X73953Y-64475D01*
X73965Y-64463D01*
X73989Y-64451D01*
X74179Y-64677D02*
X74191Y-64689D01*
X74179Y-64701D01*
X74167Y-64689D01*
X74179Y-64677D01*
X74179Y-64701D01*
X74429Y-64701D02*
X74286Y-64701D01*
X74358Y-64701D02*
X74358Y-64451D01*
X74334Y-64486D01*
X74310Y-64510D01*
X74286Y-64522D01*
X74644Y-64534D02*
X74644Y-64701D01*
X74536Y-64534D02*
X74536Y-64665D01*
X74548Y-64689D01*
X74572Y-64701D01*
X74608Y-64701D01*
X74632Y-64689D01*
X74644Y-64677D01*
X74846Y-64570D02*
X74763Y-64570D01*
X74763Y-64701D02*
X74763Y-64451D01*
X74882Y-64451D01*
G54D11*
X66342Y-58007D02*
X66357Y-58021D01*
X66371Y-58064D01*
X66371Y-58092D01*
X66357Y-58135D01*
X66328Y-58164D01*
X66300Y-58178D01*
X66242Y-58192D01*
X66200Y-58192D01*
X66142Y-58178D01*
X66114Y-58164D01*
X66085Y-58135D01*
X66071Y-58092D01*
X66071Y-58064D01*
X66085Y-58021D01*
X66100Y-58007D01*
X66071Y-57821D02*
X66071Y-57764D01*
X66085Y-57735D01*
X66114Y-57707D01*
X66171Y-57692D01*
X66271Y-57692D01*
X66328Y-57707D01*
X66357Y-57735D01*
X66371Y-57764D01*
X66371Y-57821D01*
X66357Y-57850D01*
X66328Y-57878D01*
X66271Y-57892D01*
X66171Y-57892D01*
X66114Y-57878D01*
X66085Y-57850D01*
X66071Y-57821D01*
X66371Y-57564D02*
X66071Y-57564D01*
X66371Y-57392D01*
X66071Y-57392D01*
X66071Y-57121D02*
X66071Y-57178D01*
X66085Y-57207D01*
X66100Y-57221D01*
X66142Y-57249D01*
X66200Y-57264D01*
X66314Y-57264D01*
X66342Y-57249D01*
X66357Y-57235D01*
X66371Y-57207D01*
X66371Y-57149D01*
X66357Y-57121D01*
X66342Y-57107D01*
X66314Y-57092D01*
X66242Y-57092D01*
X66214Y-57107D01*
X66200Y-57121D01*
X66185Y-57149D01*
X66185Y-57207D01*
X66200Y-57235D01*
X66214Y-57249D01*
X66242Y-57264D01*
X66071Y-56907D02*
X66071Y-56878D01*
X66085Y-56850D01*
X66100Y-56835D01*
X66128Y-56821D01*
X66185Y-56807D01*
X66257Y-56807D01*
X66314Y-56821D01*
X66342Y-56835D01*
X66357Y-56850D01*
X66371Y-56878D01*
X66371Y-56907D01*
X66357Y-56935D01*
X66342Y-56950D01*
X66314Y-56964D01*
X66257Y-56978D01*
X66185Y-56978D01*
X66128Y-56964D01*
X66100Y-56950D01*
X66085Y-56935D01*
X66071Y-56907D01*
X69971Y-54300D02*
X69985Y-54285D01*
X70014Y-54271D01*
X70085Y-54271D01*
X70114Y-54285D01*
X70128Y-54300D01*
X70142Y-54328D01*
X70142Y-54357D01*
X70128Y-54400D01*
X69957Y-54571D01*
X70142Y-54571D01*
X70271Y-54542D02*
X70285Y-54557D01*
X70271Y-54571D01*
X70257Y-54557D01*
X70271Y-54542D01*
X70271Y-54571D01*
X70571Y-54571D02*
X70400Y-54571D01*
X70485Y-54571D02*
X70485Y-54271D01*
X70457Y-54314D01*
X70428Y-54342D01*
X70400Y-54357D01*
X70671Y-54571D02*
X70828Y-54371D01*
X70671Y-54371D02*
X70828Y-54571D01*
X71085Y-54271D02*
X70942Y-54271D01*
X70928Y-54414D01*
X70942Y-54400D01*
X70971Y-54385D01*
X71042Y-54385D01*
X71071Y-54400D01*
X71085Y-54414D01*
X71100Y-54442D01*
X71100Y-54514D01*
X71085Y-54542D01*
X71071Y-54557D01*
X71042Y-54571D01*
X70971Y-54571D01*
X70942Y-54557D01*
X70928Y-54542D01*
X71228Y-54542D02*
X71242Y-54557D01*
X71228Y-54571D01*
X71214Y-54557D01*
X71228Y-54542D01*
X71228Y-54571D01*
X71514Y-54271D02*
X71371Y-54271D01*
X71357Y-54414D01*
X71371Y-54400D01*
X71400Y-54385D01*
X71471Y-54385D01*
X71500Y-54400D01*
X71514Y-54414D01*
X71528Y-54442D01*
X71528Y-54514D01*
X71514Y-54542D01*
X71500Y-54557D01*
X71471Y-54571D01*
X71400Y-54571D01*
X71371Y-54557D01*
X71357Y-54542D01*
X71657Y-54571D02*
X71657Y-54371D01*
X71657Y-54400D02*
X71671Y-54385D01*
X71700Y-54371D01*
X71742Y-54371D01*
X71771Y-54385D01*
X71785Y-54414D01*
X71785Y-54571D01*
X71785Y-54414D02*
X71800Y-54385D01*
X71828Y-54371D01*
X71871Y-54371D01*
X71900Y-54385D01*
X71914Y-54414D01*
X71914Y-54571D01*
X72057Y-54571D02*
X72057Y-54371D01*
X72057Y-54400D02*
X72071Y-54385D01*
X72100Y-54371D01*
X72142Y-54371D01*
X72171Y-54385D01*
X72185Y-54414D01*
X72185Y-54571D01*
X72185Y-54414D02*
X72200Y-54385D01*
X72228Y-54371D01*
X72271Y-54371D01*
X72300Y-54385D01*
X72314Y-54414D01*
X72314Y-54571D01*
X75557Y-54371D02*
X75457Y-54228D01*
X75385Y-54371D02*
X75385Y-54071D01*
X75500Y-54071D01*
X75528Y-54085D01*
X75542Y-54100D01*
X75557Y-54128D01*
X75557Y-54171D01*
X75542Y-54200D01*
X75528Y-54214D01*
X75500Y-54228D01*
X75385Y-54228D01*
X75842Y-54371D02*
X75671Y-54371D01*
X75757Y-54371D02*
X75757Y-54071D01*
X75728Y-54114D01*
X75700Y-54142D01*
X75671Y-54157D01*
X76100Y-54171D02*
X76100Y-54371D01*
X76028Y-54057D02*
X75957Y-54271D01*
X76142Y-54271D01*
X75571Y-54871D02*
X75400Y-54871D01*
X75485Y-54871D02*
X75485Y-54571D01*
X75457Y-54614D01*
X75428Y-54642D01*
X75400Y-54657D01*
X75757Y-54571D02*
X75785Y-54571D01*
X75814Y-54585D01*
X75828Y-54600D01*
X75842Y-54628D01*
X75857Y-54685D01*
X75857Y-54757D01*
X75842Y-54814D01*
X75828Y-54842D01*
X75814Y-54857D01*
X75785Y-54871D01*
X75757Y-54871D01*
X75728Y-54857D01*
X75714Y-54842D01*
X75700Y-54814D01*
X75685Y-54757D01*
X75685Y-54685D01*
X75700Y-54628D01*
X75714Y-54600D01*
X75728Y-54585D01*
X75757Y-54571D01*
X75985Y-54871D02*
X75985Y-54571D01*
X76014Y-54757D02*
X76100Y-54871D01*
X76100Y-54671D02*
X75985Y-54785D01*
X81857Y-54821D02*
X81757Y-54678D01*
X81685Y-54821D02*
X81685Y-54521D01*
X81800Y-54521D01*
X81828Y-54535D01*
X81842Y-54550D01*
X81857Y-54578D01*
X81857Y-54621D01*
X81842Y-54650D01*
X81828Y-54664D01*
X81800Y-54678D01*
X81685Y-54678D01*
X81971Y-54550D02*
X81985Y-54535D01*
X82014Y-54521D01*
X82085Y-54521D01*
X82114Y-54535D01*
X82128Y-54550D01*
X82142Y-54578D01*
X82142Y-54607D01*
X82128Y-54650D01*
X81957Y-54821D01*
X82142Y-54821D01*
X82400Y-54621D02*
X82400Y-54821D01*
X82328Y-54507D02*
X82257Y-54721D01*
X82442Y-54721D01*
X81700Y-54050D02*
X81714Y-54035D01*
X81742Y-54021D01*
X81814Y-54021D01*
X81842Y-54035D01*
X81857Y-54050D01*
X81871Y-54078D01*
X81871Y-54107D01*
X81857Y-54150D01*
X81685Y-54321D01*
X81871Y-54321D01*
X82057Y-54021D02*
X82085Y-54021D01*
X82114Y-54035D01*
X82128Y-54050D01*
X82142Y-54078D01*
X82157Y-54135D01*
X82157Y-54207D01*
X82142Y-54264D01*
X82128Y-54292D01*
X82114Y-54307D01*
X82085Y-54321D01*
X82057Y-54321D01*
X82028Y-54307D01*
X82014Y-54292D01*
X82000Y-54264D01*
X81985Y-54207D01*
X81985Y-54135D01*
X82000Y-54078D01*
X82014Y-54050D01*
X82028Y-54035D01*
X82057Y-54021D01*
X82285Y-54321D02*
X82285Y-54021D01*
X82314Y-54207D02*
X82400Y-54321D01*
X82400Y-54121D02*
X82285Y-54235D01*
X90321Y-61621D02*
X90564Y-61621D01*
X90592Y-61607D01*
X90607Y-61592D01*
X90621Y-61564D01*
X90621Y-61507D01*
X90607Y-61478D01*
X90592Y-61464D01*
X90564Y-61450D01*
X90321Y-61450D01*
X90321Y-61335D02*
X90321Y-61150D01*
X90435Y-61250D01*
X90435Y-61207D01*
X90450Y-61178D01*
X90464Y-61164D01*
X90492Y-61150D01*
X90564Y-61150D01*
X90592Y-61164D01*
X90607Y-61178D01*
X90621Y-61207D01*
X90621Y-61292D01*
X90607Y-61321D01*
X90592Y-61335D01*
X90321Y-60964D02*
X90321Y-60935D01*
X90335Y-60907D01*
X90350Y-60892D01*
X90378Y-60878D01*
X90435Y-60864D01*
X90507Y-60864D01*
X90564Y-60878D01*
X90592Y-60892D01*
X90607Y-60907D01*
X90621Y-60935D01*
X90621Y-60964D01*
X90607Y-60992D01*
X90592Y-61007D01*
X90564Y-61021D01*
X90507Y-61035D01*
X90435Y-61035D01*
X90378Y-61021D01*
X90350Y-61007D01*
X90335Y-60992D01*
X90321Y-60964D01*
X91742Y-60871D02*
X91600Y-60871D01*
X91600Y-60571D01*
X91842Y-60871D02*
X91842Y-60571D01*
X91942Y-60785D01*
X92042Y-60571D01*
X92042Y-60871D01*
X92157Y-60571D02*
X92342Y-60571D01*
X92242Y-60685D01*
X92285Y-60685D01*
X92314Y-60700D01*
X92328Y-60714D01*
X92342Y-60742D01*
X92342Y-60814D01*
X92328Y-60842D01*
X92314Y-60857D01*
X92285Y-60871D01*
X92200Y-60871D01*
X92171Y-60857D01*
X92157Y-60842D01*
X92614Y-60571D02*
X92471Y-60571D01*
X92457Y-60714D01*
X92471Y-60700D01*
X92500Y-60685D01*
X92571Y-60685D01*
X92600Y-60700D01*
X92614Y-60714D01*
X92628Y-60742D01*
X92628Y-60814D01*
X92614Y-60842D01*
X92600Y-60857D01*
X92571Y-60871D01*
X92500Y-60871D01*
X92471Y-60857D01*
X92457Y-60842D01*
X92800Y-60700D02*
X92771Y-60685D01*
X92757Y-60671D01*
X92742Y-60642D01*
X92742Y-60628D01*
X92757Y-60600D01*
X92771Y-60585D01*
X92800Y-60571D01*
X92857Y-60571D01*
X92885Y-60585D01*
X92900Y-60600D01*
X92914Y-60628D01*
X92914Y-60642D01*
X92900Y-60671D01*
X92885Y-60685D01*
X92857Y-60700D01*
X92800Y-60700D01*
X92771Y-60714D01*
X92757Y-60728D01*
X92742Y-60757D01*
X92742Y-60814D01*
X92757Y-60842D01*
X92771Y-60857D01*
X92800Y-60871D01*
X92857Y-60871D01*
X92885Y-60857D01*
X92900Y-60842D01*
X92914Y-60814D01*
X92914Y-60757D01*
X92900Y-60728D01*
X92885Y-60714D01*
X92857Y-60700D01*
X97271Y-61621D02*
X97514Y-61621D01*
X97542Y-61607D01*
X97557Y-61592D01*
X97571Y-61564D01*
X97571Y-61507D01*
X97557Y-61478D01*
X97542Y-61464D01*
X97514Y-61450D01*
X97271Y-61450D01*
X97371Y-61178D02*
X97571Y-61178D01*
X97257Y-61250D02*
X97471Y-61321D01*
X97471Y-61135D01*
X97271Y-60964D02*
X97271Y-60935D01*
X97285Y-60907D01*
X97300Y-60892D01*
X97328Y-60878D01*
X97385Y-60864D01*
X97457Y-60864D01*
X97514Y-60878D01*
X97542Y-60892D01*
X97557Y-60907D01*
X97571Y-60935D01*
X97571Y-60964D01*
X97557Y-60992D01*
X97542Y-61007D01*
X97514Y-61021D01*
X97457Y-61035D01*
X97385Y-61035D01*
X97328Y-61021D01*
X97300Y-61007D01*
X97285Y-60992D01*
X97271Y-60964D01*
X99742Y-61121D02*
X99600Y-61121D01*
X99600Y-60821D01*
X99842Y-61121D02*
X99842Y-60821D01*
X99942Y-61035D01*
X100042Y-60821D01*
X100042Y-61121D01*
X100157Y-60821D02*
X100342Y-60821D01*
X100242Y-60935D01*
X100285Y-60935D01*
X100314Y-60950D01*
X100328Y-60964D01*
X100342Y-60992D01*
X100342Y-61064D01*
X100328Y-61092D01*
X100314Y-61107D01*
X100285Y-61121D01*
X100200Y-61121D01*
X100171Y-61107D01*
X100157Y-61092D01*
X100457Y-60850D02*
X100471Y-60835D01*
X100500Y-60821D01*
X100571Y-60821D01*
X100600Y-60835D01*
X100614Y-60850D01*
X100628Y-60878D01*
X100628Y-60907D01*
X100614Y-60950D01*
X100442Y-61121D01*
X100628Y-61121D01*
X100885Y-60921D02*
X100885Y-61121D01*
X100814Y-60807D02*
X100742Y-61021D01*
X100928Y-61021D01*
X77257Y-56371D02*
X77157Y-56228D01*
X77085Y-56371D02*
X77085Y-56071D01*
X77200Y-56071D01*
X77228Y-56085D01*
X77242Y-56100D01*
X77257Y-56128D01*
X77257Y-56171D01*
X77242Y-56200D01*
X77228Y-56214D01*
X77200Y-56228D01*
X77085Y-56228D01*
X77542Y-56371D02*
X77371Y-56371D01*
X77457Y-56371D02*
X77457Y-56071D01*
X77428Y-56114D01*
X77400Y-56142D01*
X77371Y-56157D01*
X77800Y-56071D02*
X77742Y-56071D01*
X77714Y-56085D01*
X77700Y-56100D01*
X77671Y-56142D01*
X77657Y-56200D01*
X77657Y-56314D01*
X77671Y-56342D01*
X77685Y-56357D01*
X77714Y-56371D01*
X77771Y-56371D01*
X77800Y-56357D01*
X77814Y-56342D01*
X77828Y-56314D01*
X77828Y-56242D01*
X77814Y-56214D01*
X77800Y-56200D01*
X77771Y-56185D01*
X77714Y-56185D01*
X77685Y-56200D01*
X77671Y-56214D01*
X77657Y-56242D01*
X78885Y-56071D02*
X78914Y-56071D01*
X78942Y-56085D01*
X78957Y-56100D01*
X78971Y-56128D01*
X78985Y-56185D01*
X78985Y-56257D01*
X78971Y-56314D01*
X78957Y-56342D01*
X78942Y-56357D01*
X78914Y-56371D01*
X78885Y-56371D01*
X78857Y-56357D01*
X78842Y-56342D01*
X78828Y-56314D01*
X78814Y-56257D01*
X78814Y-56185D01*
X78828Y-56128D01*
X78842Y-56100D01*
X78857Y-56085D01*
X78885Y-56071D01*
X79285Y-56371D02*
X79185Y-56228D01*
X79114Y-56371D02*
X79114Y-56071D01*
X79228Y-56071D01*
X79257Y-56085D01*
X79271Y-56100D01*
X79285Y-56128D01*
X79285Y-56171D01*
X79271Y-56200D01*
X79257Y-56214D01*
X79228Y-56228D01*
X79114Y-56228D01*
X77257Y-57371D02*
X77157Y-57228D01*
X77085Y-57371D02*
X77085Y-57071D01*
X77200Y-57071D01*
X77228Y-57085D01*
X77242Y-57100D01*
X77257Y-57128D01*
X77257Y-57171D01*
X77242Y-57200D01*
X77228Y-57214D01*
X77200Y-57228D01*
X77085Y-57228D01*
X77542Y-57371D02*
X77371Y-57371D01*
X77457Y-57371D02*
X77457Y-57071D01*
X77428Y-57114D01*
X77400Y-57142D01*
X77371Y-57157D01*
X77642Y-57071D02*
X77842Y-57071D01*
X77714Y-57371D01*
X78885Y-57071D02*
X78914Y-57071D01*
X78942Y-57085D01*
X78957Y-57100D01*
X78971Y-57128D01*
X78985Y-57185D01*
X78985Y-57257D01*
X78971Y-57314D01*
X78957Y-57342D01*
X78942Y-57357D01*
X78914Y-57371D01*
X78885Y-57371D01*
X78857Y-57357D01*
X78842Y-57342D01*
X78828Y-57314D01*
X78814Y-57257D01*
X78814Y-57185D01*
X78828Y-57128D01*
X78842Y-57100D01*
X78857Y-57085D01*
X78885Y-57071D01*
X79285Y-57371D02*
X79185Y-57228D01*
X79114Y-57371D02*
X79114Y-57071D01*
X79228Y-57071D01*
X79257Y-57085D01*
X79271Y-57100D01*
X79285Y-57128D01*
X79285Y-57171D01*
X79271Y-57200D01*
X79257Y-57214D01*
X79228Y-57228D01*
X79114Y-57228D01*
X85107Y-57371D02*
X85007Y-57228D01*
X84935Y-57371D02*
X84935Y-57071D01*
X85050Y-57071D01*
X85078Y-57085D01*
X85092Y-57100D01*
X85107Y-57128D01*
X85107Y-57171D01*
X85092Y-57200D01*
X85078Y-57214D01*
X85050Y-57228D01*
X84935Y-57228D01*
X85221Y-57100D02*
X85235Y-57085D01*
X85264Y-57071D01*
X85335Y-57071D01*
X85364Y-57085D01*
X85378Y-57100D01*
X85392Y-57128D01*
X85392Y-57157D01*
X85378Y-57200D01*
X85207Y-57371D01*
X85392Y-57371D01*
X85492Y-57071D02*
X85692Y-57071D01*
X85564Y-57371D01*
X83535Y-57071D02*
X83564Y-57071D01*
X83592Y-57085D01*
X83607Y-57100D01*
X83621Y-57128D01*
X83635Y-57185D01*
X83635Y-57257D01*
X83621Y-57314D01*
X83607Y-57342D01*
X83592Y-57357D01*
X83564Y-57371D01*
X83535Y-57371D01*
X83507Y-57357D01*
X83492Y-57342D01*
X83478Y-57314D01*
X83464Y-57257D01*
X83464Y-57185D01*
X83478Y-57128D01*
X83492Y-57100D01*
X83507Y-57085D01*
X83535Y-57071D01*
X83935Y-57371D02*
X83835Y-57228D01*
X83764Y-57371D02*
X83764Y-57071D01*
X83878Y-57071D01*
X83907Y-57085D01*
X83921Y-57100D01*
X83935Y-57128D01*
X83935Y-57171D01*
X83921Y-57200D01*
X83907Y-57214D01*
X83878Y-57228D01*
X83764Y-57228D01*
X85107Y-56371D02*
X85007Y-56228D01*
X84935Y-56371D02*
X84935Y-56071D01*
X85050Y-56071D01*
X85078Y-56085D01*
X85092Y-56100D01*
X85107Y-56128D01*
X85107Y-56171D01*
X85092Y-56200D01*
X85078Y-56214D01*
X85050Y-56228D01*
X84935Y-56228D01*
X85221Y-56100D02*
X85235Y-56085D01*
X85264Y-56071D01*
X85335Y-56071D01*
X85364Y-56085D01*
X85378Y-56100D01*
X85392Y-56128D01*
X85392Y-56157D01*
X85378Y-56200D01*
X85207Y-56371D01*
X85392Y-56371D01*
X85650Y-56071D02*
X85592Y-56071D01*
X85564Y-56085D01*
X85550Y-56100D01*
X85521Y-56142D01*
X85507Y-56200D01*
X85507Y-56314D01*
X85521Y-56342D01*
X85535Y-56357D01*
X85564Y-56371D01*
X85621Y-56371D01*
X85650Y-56357D01*
X85664Y-56342D01*
X85678Y-56314D01*
X85678Y-56242D01*
X85664Y-56214D01*
X85650Y-56200D01*
X85621Y-56185D01*
X85564Y-56185D01*
X85535Y-56200D01*
X85521Y-56214D01*
X85507Y-56242D01*
X83535Y-56071D02*
X83564Y-56071D01*
X83592Y-56085D01*
X83607Y-56100D01*
X83621Y-56128D01*
X83635Y-56185D01*
X83635Y-56257D01*
X83621Y-56314D01*
X83607Y-56342D01*
X83592Y-56357D01*
X83564Y-56371D01*
X83535Y-56371D01*
X83507Y-56357D01*
X83492Y-56342D01*
X83478Y-56314D01*
X83464Y-56257D01*
X83464Y-56185D01*
X83478Y-56128D01*
X83492Y-56100D01*
X83507Y-56085D01*
X83535Y-56071D01*
X83935Y-56371D02*
X83835Y-56228D01*
X83764Y-56371D02*
X83764Y-56071D01*
X83878Y-56071D01*
X83907Y-56085D01*
X83921Y-56100D01*
X83935Y-56128D01*
X83935Y-56171D01*
X83921Y-56200D01*
X83907Y-56214D01*
X83878Y-56228D01*
X83764Y-56228D01*
G54D10*
G36*
X103450Y-70700D02*
X87550Y-70700D01*
X87550Y-68550D01*
X103450Y-68550D01*
X103450Y-70700D01*
X103450Y-70700D01*
G37*
G54D12*
X103450Y-70700D02*
X87550Y-70700D01*
X87550Y-68550D01*
X103450Y-68550D01*
X103450Y-70700D01*
M02*
