G04 (created by PCBNEW (22-Jun-2014 BZR 4027)-stable) date Sun 10 Jun 2018 01:14:33 AM CDT*
%MOIN*%
G04 Gerber Fmt 3.4, Leading zero omitted, Abs format*
%FSLAX34Y34*%
G01*
G70*
G90*
G04 APERTURE LIST*
%ADD10C,0.00393701*%
%ADD11O,0.0885X0.059*%
%ADD12C,0.079*%
%ADD13R,0.069X0.069*%
%ADD14C,0.069*%
%ADD15O,0.059X0.059*%
%ADD16R,0.059X0.059*%
%ADD17R,0.059X0.064*%
%ADD18R,0.064X0.059*%
%ADD19R,0.16X0.16*%
%ADD20C,0.16*%
%ADD21O,0.059X0.0885*%
%ADD22R,0.059X0.0885*%
%ADD23C,0.23622*%
%ADD24C,0.01*%
G04 APERTURE END LIST*
G54D10*
G54D11*
X73602Y-66750D03*
X74397Y-67250D03*
X73602Y-67750D03*
X74397Y-62250D03*
X73602Y-61750D03*
X74397Y-61250D03*
G54D12*
X104500Y-60500D03*
X87250Y-63250D03*
X83000Y-52750D03*
X86000Y-52750D03*
X84500Y-52750D03*
X78250Y-52750D03*
X76750Y-52750D03*
X79750Y-52750D03*
X81000Y-63250D03*
X73500Y-70250D03*
X89000Y-60500D03*
X89000Y-62000D03*
X96000Y-60500D03*
X96000Y-62000D03*
X104500Y-62000D03*
G54D13*
X68000Y-59500D03*
G54D14*
X68000Y-60500D03*
G54D13*
X76500Y-59500D03*
G54D14*
X77500Y-59500D03*
G54D13*
X79000Y-59500D03*
G54D14*
X80000Y-59500D03*
G54D13*
X86250Y-59500D03*
G54D14*
X85250Y-59500D03*
G54D13*
X83750Y-59500D03*
G54D14*
X82750Y-59500D03*
G54D15*
X76250Y-67750D03*
X80250Y-67750D03*
X82500Y-69750D03*
X86500Y-69750D03*
X82500Y-58250D03*
X86500Y-58250D03*
X82500Y-68750D03*
X86500Y-68750D03*
X96250Y-63750D03*
X96250Y-67750D03*
X97250Y-63750D03*
X97250Y-67750D03*
X99250Y-63750D03*
X99250Y-67750D03*
X98250Y-63750D03*
X98250Y-67750D03*
X104250Y-63750D03*
X104250Y-67750D03*
X103250Y-63750D03*
X103250Y-67750D03*
X101250Y-63750D03*
X101250Y-67750D03*
X102250Y-63750D03*
X102250Y-67750D03*
X104250Y-58750D03*
X104250Y-54750D03*
X103250Y-58750D03*
X103250Y-54750D03*
X101250Y-58750D03*
X101250Y-54750D03*
X102250Y-58750D03*
X102250Y-54750D03*
X96250Y-58750D03*
X96250Y-54750D03*
X97250Y-58750D03*
X97250Y-54750D03*
X99250Y-58750D03*
X99250Y-54750D03*
X98250Y-58750D03*
X98250Y-54750D03*
X91250Y-63750D03*
X91250Y-67750D03*
X80250Y-66750D03*
X76250Y-66750D03*
X76250Y-69750D03*
X80250Y-69750D03*
X76250Y-68750D03*
X80250Y-68750D03*
X68250Y-62000D03*
X72250Y-62000D03*
X72250Y-67000D03*
X68250Y-67000D03*
X72250Y-64000D03*
X68250Y-64000D03*
X68250Y-65000D03*
X72250Y-65000D03*
X90250Y-63750D03*
X90250Y-67750D03*
X82500Y-67750D03*
X86500Y-67750D03*
X93250Y-63750D03*
X93250Y-67750D03*
X92250Y-63750D03*
X92250Y-67750D03*
X90250Y-58750D03*
X90250Y-54750D03*
X91250Y-58750D03*
X91250Y-54750D03*
X92250Y-58750D03*
X92250Y-54750D03*
X86500Y-66750D03*
X82500Y-66750D03*
X93250Y-58750D03*
X93250Y-54750D03*
X80250Y-58250D03*
X76250Y-58250D03*
G54D16*
X71750Y-59750D03*
G54D15*
X71750Y-60750D03*
G54D16*
X71750Y-68250D03*
G54D15*
X71750Y-69250D03*
G54D16*
X83000Y-64750D03*
G54D15*
X84000Y-64750D03*
X85000Y-64750D03*
X86000Y-64750D03*
X86000Y-61750D03*
X85000Y-61750D03*
X83000Y-61750D03*
X84000Y-61750D03*
G54D16*
X76750Y-64750D03*
G54D15*
X77750Y-64750D03*
X78750Y-64750D03*
X79750Y-64750D03*
X79750Y-61750D03*
X78750Y-61750D03*
X76750Y-61750D03*
X77750Y-61750D03*
G54D16*
X68250Y-63000D03*
G54D15*
X71250Y-63000D03*
G54D16*
X71250Y-66000D03*
G54D15*
X68250Y-66000D03*
G54D16*
X72750Y-58000D03*
G54D15*
X72750Y-55000D03*
G54D17*
X105250Y-57950D03*
X105250Y-56800D03*
X89250Y-56450D03*
X89250Y-55300D03*
G54D18*
X78800Y-65750D03*
X79950Y-65750D03*
X83950Y-65750D03*
X82800Y-65750D03*
X76550Y-60750D03*
X77700Y-60750D03*
G54D17*
X95250Y-57950D03*
X95250Y-56800D03*
X89250Y-58700D03*
X89250Y-57550D03*
X94250Y-63800D03*
X94250Y-64950D03*
G54D18*
X82550Y-60750D03*
X83700Y-60750D03*
X74450Y-63750D03*
X73300Y-63750D03*
X85050Y-65750D03*
X86200Y-65750D03*
G54D17*
X89250Y-64550D03*
X89250Y-65700D03*
X100250Y-58700D03*
X100250Y-57550D03*
X100250Y-63800D03*
X100250Y-64950D03*
X105250Y-64550D03*
X105250Y-65700D03*
G54D18*
X77700Y-65750D03*
X76550Y-65750D03*
G54D17*
X95250Y-67700D03*
X95250Y-66550D03*
G54D18*
X73300Y-65250D03*
X74450Y-65250D03*
G54D19*
X71250Y-56500D03*
G54D20*
X68900Y-56500D03*
X70050Y-58350D03*
G54D21*
X78250Y-54647D03*
X79250Y-54647D03*
G54D22*
X77250Y-54647D03*
G54D21*
X84500Y-54647D03*
X85500Y-54647D03*
G54D22*
X83500Y-54647D03*
G54D23*
X105500Y-52750D03*
X105500Y-69750D03*
X68750Y-69750D03*
X68750Y-52750D03*
G54D16*
X90250Y-62750D03*
G54D15*
X91250Y-62750D03*
X92250Y-62750D03*
X93250Y-62750D03*
X93250Y-59750D03*
X92250Y-59750D03*
X90250Y-59750D03*
X91250Y-59750D03*
G54D22*
X97250Y-62602D03*
G54D21*
X98250Y-62602D03*
X99250Y-62602D03*
X100250Y-62602D03*
X100250Y-59897D03*
X99250Y-59897D03*
X98250Y-59897D03*
X97250Y-59897D03*
X101250Y-62602D03*
X102250Y-62602D03*
X103250Y-62602D03*
X101250Y-59897D03*
X102250Y-59897D03*
X103250Y-59897D03*
G54D15*
X76250Y-56250D03*
X80250Y-56250D03*
X76250Y-57250D03*
X80250Y-57250D03*
X86500Y-57250D03*
X82500Y-57250D03*
X86500Y-56250D03*
X82500Y-56250D03*
G54D10*
G36*
X106450Y-68676D02*
X106311Y-68537D01*
X105795Y-68322D01*
X105795Y-66069D01*
X105795Y-65330D01*
X105795Y-64820D01*
X105795Y-64180D01*
X105795Y-58220D01*
X105795Y-57580D01*
X105795Y-57169D01*
X105795Y-56430D01*
X105757Y-56338D01*
X105686Y-56268D01*
X105594Y-56230D01*
X105495Y-56229D01*
X105362Y-56230D01*
X105300Y-56292D01*
X105300Y-56750D01*
X105732Y-56750D01*
X105795Y-56687D01*
X105795Y-56430D01*
X105795Y-57169D01*
X105795Y-56912D01*
X105732Y-56850D01*
X105300Y-56850D01*
X105300Y-57307D01*
X105362Y-57370D01*
X105495Y-57370D01*
X105594Y-57369D01*
X105686Y-57331D01*
X105757Y-57261D01*
X105795Y-57169D01*
X105795Y-57580D01*
X105757Y-57488D01*
X105686Y-57418D01*
X105594Y-57380D01*
X105495Y-57379D01*
X105200Y-57379D01*
X105200Y-57307D01*
X105200Y-56850D01*
X105200Y-56750D01*
X105200Y-56292D01*
X105137Y-56230D01*
X105004Y-56229D01*
X104905Y-56230D01*
X104813Y-56268D01*
X104795Y-56286D01*
X104795Y-54760D01*
X104795Y-54739D01*
X104753Y-54530D01*
X104635Y-54353D01*
X104458Y-54235D01*
X104250Y-54194D01*
X104041Y-54235D01*
X103864Y-54353D01*
X103746Y-54530D01*
X103743Y-54543D01*
X103686Y-54423D01*
X103528Y-54281D01*
X103384Y-54221D01*
X103300Y-54270D01*
X103300Y-54700D01*
X103307Y-54700D01*
X103307Y-54800D01*
X103300Y-54800D01*
X103300Y-55229D01*
X103384Y-55278D01*
X103528Y-55218D01*
X103686Y-55076D01*
X103743Y-54956D01*
X103746Y-54969D01*
X103864Y-55146D01*
X104041Y-55264D01*
X104250Y-55305D01*
X104458Y-55264D01*
X104635Y-55146D01*
X104753Y-54969D01*
X104795Y-54760D01*
X104795Y-56286D01*
X104742Y-56338D01*
X104704Y-56430D01*
X104705Y-56687D01*
X104767Y-56750D01*
X105200Y-56750D01*
X105200Y-56850D01*
X104767Y-56850D01*
X104705Y-56912D01*
X104704Y-57169D01*
X104742Y-57261D01*
X104813Y-57331D01*
X104905Y-57369D01*
X105004Y-57370D01*
X105137Y-57370D01*
X105200Y-57307D01*
X105200Y-57379D01*
X104905Y-57379D01*
X104813Y-57417D01*
X104743Y-57488D01*
X104705Y-57580D01*
X104704Y-57679D01*
X104704Y-58319D01*
X104742Y-58411D01*
X104813Y-58481D01*
X104905Y-58519D01*
X105004Y-58520D01*
X105594Y-58520D01*
X105686Y-58482D01*
X105756Y-58411D01*
X105794Y-58319D01*
X105795Y-58220D01*
X105795Y-64180D01*
X105757Y-64088D01*
X105686Y-64018D01*
X105594Y-63980D01*
X105495Y-63979D01*
X105145Y-63979D01*
X105145Y-61872D01*
X105145Y-60372D01*
X105047Y-60135D01*
X104865Y-59953D01*
X104795Y-59924D01*
X104795Y-58760D01*
X104795Y-58739D01*
X104753Y-58530D01*
X104635Y-58353D01*
X104458Y-58235D01*
X104250Y-58194D01*
X104041Y-58235D01*
X103864Y-58353D01*
X103750Y-58525D01*
X103635Y-58353D01*
X103458Y-58235D01*
X103250Y-58194D01*
X103200Y-58204D01*
X103200Y-55229D01*
X103200Y-54800D01*
X103200Y-54700D01*
X103200Y-54270D01*
X103115Y-54221D01*
X102971Y-54281D01*
X102813Y-54423D01*
X102750Y-54556D01*
X102686Y-54423D01*
X102528Y-54281D01*
X102384Y-54221D01*
X102300Y-54270D01*
X102300Y-54700D01*
X102730Y-54700D01*
X102750Y-54665D01*
X102769Y-54700D01*
X103200Y-54700D01*
X103200Y-54800D01*
X102769Y-54800D01*
X102750Y-54834D01*
X102730Y-54800D01*
X102300Y-54800D01*
X102300Y-55229D01*
X102384Y-55278D01*
X102528Y-55218D01*
X102686Y-55076D01*
X102750Y-54943D01*
X102813Y-55076D01*
X102971Y-55218D01*
X103115Y-55278D01*
X103200Y-55229D01*
X103200Y-58204D01*
X103041Y-58235D01*
X102864Y-58353D01*
X102750Y-58525D01*
X102635Y-58353D01*
X102458Y-58235D01*
X102250Y-58194D01*
X102200Y-58204D01*
X102200Y-55229D01*
X102200Y-54800D01*
X102200Y-54700D01*
X102200Y-54270D01*
X102115Y-54221D01*
X101971Y-54281D01*
X101813Y-54423D01*
X101750Y-54556D01*
X101686Y-54423D01*
X101528Y-54281D01*
X101384Y-54221D01*
X101300Y-54270D01*
X101300Y-54700D01*
X101730Y-54700D01*
X101750Y-54665D01*
X101769Y-54700D01*
X102200Y-54700D01*
X102200Y-54800D01*
X101769Y-54800D01*
X101750Y-54834D01*
X101730Y-54800D01*
X101300Y-54800D01*
X101300Y-55229D01*
X101384Y-55278D01*
X101528Y-55218D01*
X101686Y-55076D01*
X101750Y-54943D01*
X101813Y-55076D01*
X101971Y-55218D01*
X102115Y-55278D01*
X102200Y-55229D01*
X102200Y-58204D01*
X102041Y-58235D01*
X101864Y-58353D01*
X101750Y-58525D01*
X101635Y-58353D01*
X101458Y-58235D01*
X101250Y-58194D01*
X101200Y-58204D01*
X101200Y-55229D01*
X101200Y-54800D01*
X101200Y-54700D01*
X101200Y-54270D01*
X101115Y-54221D01*
X100971Y-54281D01*
X100813Y-54423D01*
X100721Y-54615D01*
X100769Y-54700D01*
X101200Y-54700D01*
X101200Y-54800D01*
X100769Y-54800D01*
X100721Y-54884D01*
X100813Y-55076D01*
X100971Y-55218D01*
X101115Y-55278D01*
X101200Y-55229D01*
X101200Y-58204D01*
X101041Y-58235D01*
X100864Y-58353D01*
X100795Y-58458D01*
X100795Y-58330D01*
X100795Y-57919D01*
X100795Y-57180D01*
X100757Y-57088D01*
X100686Y-57018D01*
X100594Y-56980D01*
X100495Y-56979D01*
X100362Y-56980D01*
X100300Y-57042D01*
X100300Y-57500D01*
X100732Y-57500D01*
X100795Y-57437D01*
X100795Y-57180D01*
X100795Y-57919D01*
X100795Y-57662D01*
X100732Y-57600D01*
X100300Y-57600D01*
X100300Y-58057D01*
X100362Y-58120D01*
X100495Y-58120D01*
X100594Y-58119D01*
X100686Y-58081D01*
X100757Y-58011D01*
X100795Y-57919D01*
X100795Y-58330D01*
X100757Y-58238D01*
X100686Y-58168D01*
X100594Y-58130D01*
X100495Y-58129D01*
X100200Y-58129D01*
X100200Y-58057D01*
X100200Y-57600D01*
X100200Y-57500D01*
X100200Y-57042D01*
X100137Y-56980D01*
X100004Y-56979D01*
X99905Y-56980D01*
X99813Y-57018D01*
X99778Y-57053D01*
X99778Y-54884D01*
X99778Y-54615D01*
X99686Y-54423D01*
X99528Y-54281D01*
X99384Y-54221D01*
X99300Y-54270D01*
X99300Y-54700D01*
X99730Y-54700D01*
X99778Y-54615D01*
X99778Y-54884D01*
X99730Y-54800D01*
X99300Y-54800D01*
X99300Y-55229D01*
X99384Y-55278D01*
X99528Y-55218D01*
X99686Y-55076D01*
X99778Y-54884D01*
X99778Y-57053D01*
X99742Y-57088D01*
X99704Y-57180D01*
X99705Y-57437D01*
X99767Y-57500D01*
X100200Y-57500D01*
X100200Y-57600D01*
X99767Y-57600D01*
X99705Y-57662D01*
X99704Y-57919D01*
X99742Y-58011D01*
X99813Y-58081D01*
X99905Y-58119D01*
X100004Y-58120D01*
X100137Y-58120D01*
X100200Y-58057D01*
X100200Y-58129D01*
X99905Y-58129D01*
X99813Y-58167D01*
X99743Y-58238D01*
X99705Y-58330D01*
X99704Y-58429D01*
X99704Y-58458D01*
X99635Y-58353D01*
X99458Y-58235D01*
X99250Y-58194D01*
X99200Y-58204D01*
X99200Y-55229D01*
X99200Y-54800D01*
X99200Y-54700D01*
X99200Y-54270D01*
X99115Y-54221D01*
X98971Y-54281D01*
X98813Y-54423D01*
X98750Y-54556D01*
X98686Y-54423D01*
X98528Y-54281D01*
X98384Y-54221D01*
X98300Y-54270D01*
X98300Y-54700D01*
X98730Y-54700D01*
X98750Y-54665D01*
X98769Y-54700D01*
X99200Y-54700D01*
X99200Y-54800D01*
X98769Y-54800D01*
X98750Y-54834D01*
X98730Y-54800D01*
X98300Y-54800D01*
X98300Y-55229D01*
X98384Y-55278D01*
X98528Y-55218D01*
X98686Y-55076D01*
X98750Y-54943D01*
X98813Y-55076D01*
X98971Y-55218D01*
X99115Y-55278D01*
X99200Y-55229D01*
X99200Y-58204D01*
X99041Y-58235D01*
X98864Y-58353D01*
X98750Y-58525D01*
X98635Y-58353D01*
X98458Y-58235D01*
X98250Y-58194D01*
X98200Y-58204D01*
X98200Y-55229D01*
X98200Y-54800D01*
X98200Y-54700D01*
X98200Y-54270D01*
X98115Y-54221D01*
X97971Y-54281D01*
X97813Y-54423D01*
X97750Y-54556D01*
X97686Y-54423D01*
X97528Y-54281D01*
X97384Y-54221D01*
X97300Y-54270D01*
X97300Y-54700D01*
X97730Y-54700D01*
X97750Y-54665D01*
X97769Y-54700D01*
X98200Y-54700D01*
X98200Y-54800D01*
X97769Y-54800D01*
X97750Y-54834D01*
X97730Y-54800D01*
X97300Y-54800D01*
X97300Y-55229D01*
X97384Y-55278D01*
X97528Y-55218D01*
X97686Y-55076D01*
X97750Y-54943D01*
X97813Y-55076D01*
X97971Y-55218D01*
X98115Y-55278D01*
X98200Y-55229D01*
X98200Y-58204D01*
X98041Y-58235D01*
X97864Y-58353D01*
X97750Y-58525D01*
X97635Y-58353D01*
X97458Y-58235D01*
X97250Y-58194D01*
X97200Y-58204D01*
X97200Y-55229D01*
X97200Y-54800D01*
X97192Y-54800D01*
X97192Y-54700D01*
X97200Y-54700D01*
X97200Y-54270D01*
X97115Y-54221D01*
X96971Y-54281D01*
X96813Y-54423D01*
X96756Y-54543D01*
X96753Y-54530D01*
X96635Y-54353D01*
X96458Y-54235D01*
X96250Y-54194D01*
X96041Y-54235D01*
X95864Y-54353D01*
X95746Y-54530D01*
X95705Y-54739D01*
X95705Y-54760D01*
X95746Y-54969D01*
X95864Y-55146D01*
X96041Y-55264D01*
X96250Y-55305D01*
X96458Y-55264D01*
X96635Y-55146D01*
X96753Y-54969D01*
X96756Y-54956D01*
X96813Y-55076D01*
X96971Y-55218D01*
X97115Y-55278D01*
X97200Y-55229D01*
X97200Y-58204D01*
X97041Y-58235D01*
X96864Y-58353D01*
X96750Y-58525D01*
X96635Y-58353D01*
X96458Y-58235D01*
X96250Y-58194D01*
X96041Y-58235D01*
X95864Y-58353D01*
X95795Y-58458D01*
X95795Y-58220D01*
X95795Y-57580D01*
X95795Y-57169D01*
X95795Y-56430D01*
X95757Y-56338D01*
X95686Y-56268D01*
X95594Y-56230D01*
X95495Y-56229D01*
X95362Y-56230D01*
X95300Y-56292D01*
X95300Y-56750D01*
X95732Y-56750D01*
X95795Y-56687D01*
X95795Y-56430D01*
X95795Y-57169D01*
X95795Y-56912D01*
X95732Y-56850D01*
X95300Y-56850D01*
X95300Y-57307D01*
X95362Y-57370D01*
X95495Y-57370D01*
X95594Y-57369D01*
X95686Y-57331D01*
X95757Y-57261D01*
X95795Y-57169D01*
X95795Y-57580D01*
X95757Y-57488D01*
X95686Y-57418D01*
X95594Y-57380D01*
X95495Y-57379D01*
X95200Y-57379D01*
X95200Y-57307D01*
X95200Y-56850D01*
X95200Y-56750D01*
X95200Y-56292D01*
X95137Y-56230D01*
X95004Y-56229D01*
X94905Y-56230D01*
X94813Y-56268D01*
X94742Y-56338D01*
X94704Y-56430D01*
X94705Y-56687D01*
X94767Y-56750D01*
X95200Y-56750D01*
X95200Y-56850D01*
X94767Y-56850D01*
X94705Y-56912D01*
X94704Y-57169D01*
X94742Y-57261D01*
X94813Y-57331D01*
X94905Y-57369D01*
X95004Y-57370D01*
X95137Y-57370D01*
X95200Y-57307D01*
X95200Y-57379D01*
X94905Y-57379D01*
X94813Y-57417D01*
X94743Y-57488D01*
X94705Y-57580D01*
X94704Y-57679D01*
X94704Y-58319D01*
X94742Y-58411D01*
X94813Y-58481D01*
X94905Y-58519D01*
X95004Y-58520D01*
X95594Y-58520D01*
X95686Y-58482D01*
X95756Y-58411D01*
X95794Y-58319D01*
X95795Y-58220D01*
X95795Y-58458D01*
X95746Y-58530D01*
X95705Y-58739D01*
X95705Y-58760D01*
X95746Y-58969D01*
X95864Y-59146D01*
X96041Y-59264D01*
X96250Y-59305D01*
X96458Y-59264D01*
X96635Y-59146D01*
X96750Y-58974D01*
X96864Y-59146D01*
X97018Y-59248D01*
X96864Y-59351D01*
X96746Y-59527D01*
X96705Y-59736D01*
X96705Y-60058D01*
X96746Y-60267D01*
X96864Y-60443D01*
X97041Y-60562D01*
X97250Y-60603D01*
X97458Y-60562D01*
X97635Y-60443D01*
X97750Y-60272D01*
X97864Y-60443D01*
X98041Y-60562D01*
X98250Y-60603D01*
X98458Y-60562D01*
X98635Y-60443D01*
X98750Y-60272D01*
X98864Y-60443D01*
X99041Y-60562D01*
X99250Y-60603D01*
X99458Y-60562D01*
X99635Y-60443D01*
X99750Y-60272D01*
X99864Y-60443D01*
X100041Y-60562D01*
X100250Y-60603D01*
X100458Y-60562D01*
X100635Y-60443D01*
X100750Y-60272D01*
X100864Y-60443D01*
X101041Y-60562D01*
X101250Y-60603D01*
X101458Y-60562D01*
X101635Y-60443D01*
X101750Y-60272D01*
X101864Y-60443D01*
X102041Y-60562D01*
X102250Y-60603D01*
X102458Y-60562D01*
X102635Y-60443D01*
X102750Y-60272D01*
X102864Y-60443D01*
X103041Y-60562D01*
X103250Y-60603D01*
X103458Y-60562D01*
X103635Y-60443D01*
X103753Y-60267D01*
X103795Y-60058D01*
X103795Y-59736D01*
X103753Y-59527D01*
X103635Y-59351D01*
X103481Y-59248D01*
X103635Y-59146D01*
X103750Y-58974D01*
X103864Y-59146D01*
X104041Y-59264D01*
X104250Y-59305D01*
X104458Y-59264D01*
X104635Y-59146D01*
X104753Y-58969D01*
X104795Y-58760D01*
X104795Y-59924D01*
X104628Y-59855D01*
X104372Y-59854D01*
X104135Y-59952D01*
X103953Y-60134D01*
X103855Y-60371D01*
X103854Y-60627D01*
X103952Y-60864D01*
X104134Y-61046D01*
X104371Y-61144D01*
X104627Y-61145D01*
X104864Y-61047D01*
X105046Y-60865D01*
X105144Y-60628D01*
X105145Y-60372D01*
X105145Y-61872D01*
X105047Y-61635D01*
X104865Y-61453D01*
X104628Y-61355D01*
X104372Y-61354D01*
X104135Y-61452D01*
X103953Y-61634D01*
X103855Y-61871D01*
X103854Y-62127D01*
X103952Y-62364D01*
X104134Y-62546D01*
X104371Y-62644D01*
X104627Y-62645D01*
X104864Y-62547D01*
X105046Y-62365D01*
X105144Y-62128D01*
X105145Y-61872D01*
X105145Y-63979D01*
X104905Y-63979D01*
X104813Y-64017D01*
X104795Y-64036D01*
X104795Y-63760D01*
X104795Y-63739D01*
X104753Y-63530D01*
X104635Y-63353D01*
X104458Y-63235D01*
X104250Y-63194D01*
X104041Y-63235D01*
X103864Y-63353D01*
X103750Y-63525D01*
X103635Y-63353D01*
X103481Y-63251D01*
X103635Y-63148D01*
X103753Y-62972D01*
X103795Y-62763D01*
X103795Y-62441D01*
X103753Y-62232D01*
X103635Y-62056D01*
X103458Y-61937D01*
X103250Y-61896D01*
X103041Y-61937D01*
X102864Y-62056D01*
X102749Y-62227D01*
X102635Y-62056D01*
X102458Y-61937D01*
X102250Y-61896D01*
X102041Y-61937D01*
X101864Y-62056D01*
X101749Y-62227D01*
X101635Y-62056D01*
X101458Y-61937D01*
X101250Y-61896D01*
X101041Y-61937D01*
X100864Y-62056D01*
X100749Y-62227D01*
X100635Y-62056D01*
X100458Y-61937D01*
X100250Y-61896D01*
X100041Y-61937D01*
X99864Y-62056D01*
X99749Y-62227D01*
X99635Y-62056D01*
X99458Y-61937D01*
X99250Y-61896D01*
X99041Y-61937D01*
X98864Y-62056D01*
X98749Y-62227D01*
X98635Y-62056D01*
X98458Y-61937D01*
X98250Y-61896D01*
X98041Y-61937D01*
X97864Y-62056D01*
X97795Y-62160D01*
X97795Y-62110D01*
X97757Y-62018D01*
X97686Y-61948D01*
X97594Y-61910D01*
X97495Y-61909D01*
X96905Y-61909D01*
X96813Y-61947D01*
X96743Y-62018D01*
X96705Y-62110D01*
X96704Y-62209D01*
X96704Y-63094D01*
X96742Y-63186D01*
X96813Y-63256D01*
X96905Y-63294D01*
X96952Y-63294D01*
X96864Y-63353D01*
X96750Y-63525D01*
X96645Y-63368D01*
X96645Y-61872D01*
X96645Y-60372D01*
X96547Y-60135D01*
X96365Y-59953D01*
X96128Y-59855D01*
X95872Y-59854D01*
X95635Y-59952D01*
X95453Y-60134D01*
X95355Y-60371D01*
X95354Y-60627D01*
X95452Y-60864D01*
X95634Y-61046D01*
X95871Y-61144D01*
X96127Y-61145D01*
X96364Y-61047D01*
X96546Y-60865D01*
X96644Y-60628D01*
X96645Y-60372D01*
X96645Y-61872D01*
X96547Y-61635D01*
X96365Y-61453D01*
X96128Y-61355D01*
X95872Y-61354D01*
X95635Y-61452D01*
X95453Y-61634D01*
X95355Y-61871D01*
X95354Y-62127D01*
X95452Y-62364D01*
X95634Y-62546D01*
X95871Y-62644D01*
X96127Y-62645D01*
X96364Y-62547D01*
X96546Y-62365D01*
X96644Y-62128D01*
X96645Y-61872D01*
X96645Y-63368D01*
X96635Y-63353D01*
X96458Y-63235D01*
X96250Y-63194D01*
X96041Y-63235D01*
X95864Y-63353D01*
X95746Y-63530D01*
X95705Y-63739D01*
X95705Y-63760D01*
X95746Y-63969D01*
X95864Y-64146D01*
X96041Y-64264D01*
X96250Y-64305D01*
X96458Y-64264D01*
X96635Y-64146D01*
X96750Y-63974D01*
X96864Y-64146D01*
X97041Y-64264D01*
X97250Y-64305D01*
X97458Y-64264D01*
X97635Y-64146D01*
X97750Y-63974D01*
X97864Y-64146D01*
X98041Y-64264D01*
X98250Y-64305D01*
X98458Y-64264D01*
X98635Y-64146D01*
X98750Y-63974D01*
X98864Y-64146D01*
X99041Y-64264D01*
X99250Y-64305D01*
X99458Y-64264D01*
X99635Y-64146D01*
X99704Y-64041D01*
X99704Y-64169D01*
X99742Y-64261D01*
X99813Y-64331D01*
X99905Y-64369D01*
X100004Y-64370D01*
X100594Y-64370D01*
X100686Y-64332D01*
X100756Y-64261D01*
X100794Y-64169D01*
X100795Y-64070D01*
X100795Y-64041D01*
X100864Y-64146D01*
X101041Y-64264D01*
X101250Y-64305D01*
X101458Y-64264D01*
X101635Y-64146D01*
X101750Y-63974D01*
X101864Y-64146D01*
X102041Y-64264D01*
X102250Y-64305D01*
X102458Y-64264D01*
X102635Y-64146D01*
X102750Y-63974D01*
X102864Y-64146D01*
X103041Y-64264D01*
X103250Y-64305D01*
X103458Y-64264D01*
X103635Y-64146D01*
X103750Y-63974D01*
X103864Y-64146D01*
X104041Y-64264D01*
X104250Y-64305D01*
X104458Y-64264D01*
X104635Y-64146D01*
X104753Y-63969D01*
X104795Y-63760D01*
X104795Y-64036D01*
X104743Y-64088D01*
X104705Y-64180D01*
X104704Y-64279D01*
X104704Y-64919D01*
X104742Y-65011D01*
X104813Y-65081D01*
X104905Y-65119D01*
X105004Y-65120D01*
X105594Y-65120D01*
X105686Y-65082D01*
X105756Y-65011D01*
X105794Y-64919D01*
X105795Y-64820D01*
X105795Y-65330D01*
X105757Y-65238D01*
X105686Y-65168D01*
X105594Y-65130D01*
X105495Y-65129D01*
X105362Y-65130D01*
X105300Y-65192D01*
X105300Y-65650D01*
X105732Y-65650D01*
X105795Y-65587D01*
X105795Y-65330D01*
X105795Y-66069D01*
X105795Y-65812D01*
X105732Y-65750D01*
X105300Y-65750D01*
X105300Y-66207D01*
X105362Y-66270D01*
X105495Y-66270D01*
X105594Y-66269D01*
X105686Y-66231D01*
X105757Y-66161D01*
X105795Y-66069D01*
X105795Y-68322D01*
X105785Y-68319D01*
X105216Y-68318D01*
X105200Y-68325D01*
X105200Y-66207D01*
X105200Y-65750D01*
X105200Y-65650D01*
X105200Y-65192D01*
X105137Y-65130D01*
X105004Y-65129D01*
X104905Y-65130D01*
X104813Y-65168D01*
X104742Y-65238D01*
X104704Y-65330D01*
X104705Y-65587D01*
X104767Y-65650D01*
X105200Y-65650D01*
X105200Y-65750D01*
X104767Y-65750D01*
X104705Y-65812D01*
X104704Y-66069D01*
X104742Y-66161D01*
X104813Y-66231D01*
X104905Y-66269D01*
X105004Y-66270D01*
X105137Y-66270D01*
X105200Y-66207D01*
X105200Y-68325D01*
X104795Y-68492D01*
X104795Y-67760D01*
X104795Y-67739D01*
X104753Y-67530D01*
X104635Y-67353D01*
X104458Y-67235D01*
X104250Y-67194D01*
X104041Y-67235D01*
X103864Y-67353D01*
X103746Y-67530D01*
X103743Y-67543D01*
X103686Y-67423D01*
X103528Y-67281D01*
X103384Y-67221D01*
X103300Y-67270D01*
X103300Y-67700D01*
X103307Y-67700D01*
X103307Y-67800D01*
X103300Y-67800D01*
X103300Y-68229D01*
X103384Y-68278D01*
X103528Y-68218D01*
X103686Y-68076D01*
X103743Y-67956D01*
X103746Y-67969D01*
X103864Y-68146D01*
X104041Y-68264D01*
X104250Y-68305D01*
X104458Y-68264D01*
X104635Y-68146D01*
X104753Y-67969D01*
X104795Y-67760D01*
X104795Y-68492D01*
X104690Y-68536D01*
X104287Y-68938D01*
X104069Y-69464D01*
X104068Y-70033D01*
X104286Y-70559D01*
X104426Y-70700D01*
X103200Y-70700D01*
X103200Y-68229D01*
X103200Y-67800D01*
X103200Y-67700D01*
X103200Y-67270D01*
X103115Y-67221D01*
X102971Y-67281D01*
X102813Y-67423D01*
X102750Y-67556D01*
X102686Y-67423D01*
X102528Y-67281D01*
X102384Y-67221D01*
X102300Y-67270D01*
X102300Y-67700D01*
X102730Y-67700D01*
X102750Y-67665D01*
X102769Y-67700D01*
X103200Y-67700D01*
X103200Y-67800D01*
X102769Y-67800D01*
X102750Y-67834D01*
X102730Y-67800D01*
X102300Y-67800D01*
X102300Y-68229D01*
X102384Y-68278D01*
X102528Y-68218D01*
X102686Y-68076D01*
X102750Y-67943D01*
X102813Y-68076D01*
X102971Y-68218D01*
X103115Y-68278D01*
X103200Y-68229D01*
X103200Y-70700D01*
X102200Y-70700D01*
X102200Y-68229D01*
X102200Y-67800D01*
X102200Y-67700D01*
X102200Y-67270D01*
X102115Y-67221D01*
X101971Y-67281D01*
X101813Y-67423D01*
X101750Y-67556D01*
X101686Y-67423D01*
X101528Y-67281D01*
X101384Y-67221D01*
X101300Y-67270D01*
X101300Y-67700D01*
X101730Y-67700D01*
X101750Y-67665D01*
X101769Y-67700D01*
X102200Y-67700D01*
X102200Y-67800D01*
X101769Y-67800D01*
X101750Y-67834D01*
X101730Y-67800D01*
X101300Y-67800D01*
X101300Y-68229D01*
X101384Y-68278D01*
X101528Y-68218D01*
X101686Y-68076D01*
X101750Y-67943D01*
X101813Y-68076D01*
X101971Y-68218D01*
X102115Y-68278D01*
X102200Y-68229D01*
X102200Y-70700D01*
X101200Y-70700D01*
X101200Y-68229D01*
X101200Y-67800D01*
X101200Y-67700D01*
X101200Y-67270D01*
X101115Y-67221D01*
X100971Y-67281D01*
X100813Y-67423D01*
X100795Y-67462D01*
X100795Y-65319D01*
X100795Y-64580D01*
X100757Y-64488D01*
X100686Y-64418D01*
X100594Y-64380D01*
X100495Y-64379D01*
X100362Y-64380D01*
X100300Y-64442D01*
X100300Y-64900D01*
X100732Y-64900D01*
X100795Y-64837D01*
X100795Y-64580D01*
X100795Y-65319D01*
X100795Y-65062D01*
X100732Y-65000D01*
X100300Y-65000D01*
X100300Y-65457D01*
X100362Y-65520D01*
X100495Y-65520D01*
X100594Y-65519D01*
X100686Y-65481D01*
X100757Y-65411D01*
X100795Y-65319D01*
X100795Y-67462D01*
X100721Y-67615D01*
X100769Y-67700D01*
X101200Y-67700D01*
X101200Y-67800D01*
X100769Y-67800D01*
X100721Y-67884D01*
X100813Y-68076D01*
X100971Y-68218D01*
X101115Y-68278D01*
X101200Y-68229D01*
X101200Y-70700D01*
X100200Y-70700D01*
X100200Y-65457D01*
X100200Y-65000D01*
X100200Y-64900D01*
X100200Y-64442D01*
X100137Y-64380D01*
X100004Y-64379D01*
X99905Y-64380D01*
X99813Y-64418D01*
X99742Y-64488D01*
X99704Y-64580D01*
X99705Y-64837D01*
X99767Y-64900D01*
X100200Y-64900D01*
X100200Y-65000D01*
X99767Y-65000D01*
X99705Y-65062D01*
X99704Y-65319D01*
X99742Y-65411D01*
X99813Y-65481D01*
X99905Y-65519D01*
X100004Y-65520D01*
X100137Y-65520D01*
X100200Y-65457D01*
X100200Y-70700D01*
X99778Y-70700D01*
X99778Y-67884D01*
X99778Y-67615D01*
X99686Y-67423D01*
X99528Y-67281D01*
X99384Y-67221D01*
X99300Y-67270D01*
X99300Y-67700D01*
X99730Y-67700D01*
X99778Y-67615D01*
X99778Y-67884D01*
X99730Y-67800D01*
X99300Y-67800D01*
X99300Y-68229D01*
X99384Y-68278D01*
X99528Y-68218D01*
X99686Y-68076D01*
X99778Y-67884D01*
X99778Y-70700D01*
X99200Y-70700D01*
X99200Y-68229D01*
X99200Y-67800D01*
X99200Y-67700D01*
X99200Y-67270D01*
X99115Y-67221D01*
X98971Y-67281D01*
X98813Y-67423D01*
X98750Y-67556D01*
X98686Y-67423D01*
X98528Y-67281D01*
X98384Y-67221D01*
X98300Y-67270D01*
X98300Y-67700D01*
X98730Y-67700D01*
X98750Y-67665D01*
X98769Y-67700D01*
X99200Y-67700D01*
X99200Y-67800D01*
X98769Y-67800D01*
X98750Y-67834D01*
X98730Y-67800D01*
X98300Y-67800D01*
X98300Y-68229D01*
X98384Y-68278D01*
X98528Y-68218D01*
X98686Y-68076D01*
X98750Y-67943D01*
X98813Y-68076D01*
X98971Y-68218D01*
X99115Y-68278D01*
X99200Y-68229D01*
X99200Y-70700D01*
X98200Y-70700D01*
X98200Y-68229D01*
X98200Y-67800D01*
X98200Y-67700D01*
X98200Y-67270D01*
X98115Y-67221D01*
X97971Y-67281D01*
X97813Y-67423D01*
X97750Y-67556D01*
X97686Y-67423D01*
X97528Y-67281D01*
X97384Y-67221D01*
X97300Y-67270D01*
X97300Y-67700D01*
X97730Y-67700D01*
X97750Y-67665D01*
X97769Y-67700D01*
X98200Y-67700D01*
X98200Y-67800D01*
X97769Y-67800D01*
X97750Y-67834D01*
X97730Y-67800D01*
X97300Y-67800D01*
X97300Y-68229D01*
X97384Y-68278D01*
X97528Y-68218D01*
X97686Y-68076D01*
X97750Y-67943D01*
X97813Y-68076D01*
X97971Y-68218D01*
X98115Y-68278D01*
X98200Y-68229D01*
X98200Y-70700D01*
X97200Y-70700D01*
X97200Y-68229D01*
X97200Y-67800D01*
X97192Y-67800D01*
X97192Y-67700D01*
X97200Y-67700D01*
X97200Y-67270D01*
X97115Y-67221D01*
X96971Y-67281D01*
X96813Y-67423D01*
X96756Y-67543D01*
X96753Y-67530D01*
X96635Y-67353D01*
X96458Y-67235D01*
X96250Y-67194D01*
X96041Y-67235D01*
X95864Y-67353D01*
X95795Y-67458D01*
X95795Y-67330D01*
X95795Y-66919D01*
X95795Y-66180D01*
X95757Y-66088D01*
X95686Y-66018D01*
X95594Y-65980D01*
X95495Y-65979D01*
X95362Y-65980D01*
X95300Y-66042D01*
X95300Y-66500D01*
X95732Y-66500D01*
X95795Y-66437D01*
X95795Y-66180D01*
X95795Y-66919D01*
X95795Y-66662D01*
X95732Y-66600D01*
X95300Y-66600D01*
X95300Y-67057D01*
X95362Y-67120D01*
X95495Y-67120D01*
X95594Y-67119D01*
X95686Y-67081D01*
X95757Y-67011D01*
X95795Y-66919D01*
X95795Y-67330D01*
X95757Y-67238D01*
X95686Y-67168D01*
X95594Y-67130D01*
X95495Y-67129D01*
X95200Y-67129D01*
X95200Y-67057D01*
X95200Y-66600D01*
X95200Y-66500D01*
X95200Y-66042D01*
X95137Y-65980D01*
X95004Y-65979D01*
X94905Y-65980D01*
X94813Y-66018D01*
X94795Y-66036D01*
X94795Y-65319D01*
X94795Y-64580D01*
X94795Y-64070D01*
X94795Y-63430D01*
X94757Y-63338D01*
X94686Y-63268D01*
X94594Y-63230D01*
X94495Y-63229D01*
X93905Y-63229D01*
X93813Y-63267D01*
X93743Y-63338D01*
X93705Y-63430D01*
X93705Y-63458D01*
X93635Y-63353D01*
X93477Y-63248D01*
X93646Y-63135D01*
X93764Y-62958D01*
X93805Y-62750D01*
X93805Y-59750D01*
X93764Y-59541D01*
X93646Y-59364D01*
X93477Y-59251D01*
X93635Y-59146D01*
X93753Y-58969D01*
X93795Y-58760D01*
X93795Y-58739D01*
X93778Y-58654D01*
X93778Y-54884D01*
X93778Y-54615D01*
X93686Y-54423D01*
X93528Y-54281D01*
X93384Y-54221D01*
X93300Y-54270D01*
X93300Y-54700D01*
X93730Y-54700D01*
X93778Y-54615D01*
X93778Y-54884D01*
X93730Y-54800D01*
X93300Y-54800D01*
X93300Y-55229D01*
X93384Y-55278D01*
X93528Y-55218D01*
X93686Y-55076D01*
X93778Y-54884D01*
X93778Y-58654D01*
X93753Y-58530D01*
X93635Y-58353D01*
X93458Y-58235D01*
X93250Y-58194D01*
X93200Y-58204D01*
X93200Y-55229D01*
X93200Y-54800D01*
X93200Y-54700D01*
X93200Y-54270D01*
X93115Y-54221D01*
X92971Y-54281D01*
X92813Y-54423D01*
X92750Y-54556D01*
X92686Y-54423D01*
X92528Y-54281D01*
X92384Y-54221D01*
X92300Y-54270D01*
X92300Y-54700D01*
X92730Y-54700D01*
X92750Y-54665D01*
X92769Y-54700D01*
X93200Y-54700D01*
X93200Y-54800D01*
X92769Y-54800D01*
X92750Y-54834D01*
X92730Y-54800D01*
X92300Y-54800D01*
X92300Y-55229D01*
X92384Y-55278D01*
X92528Y-55218D01*
X92686Y-55076D01*
X92750Y-54943D01*
X92813Y-55076D01*
X92971Y-55218D01*
X93115Y-55278D01*
X93200Y-55229D01*
X93200Y-58204D01*
X93041Y-58235D01*
X92864Y-58353D01*
X92750Y-58525D01*
X92635Y-58353D01*
X92458Y-58235D01*
X92250Y-58194D01*
X92200Y-58204D01*
X92200Y-55229D01*
X92200Y-54800D01*
X92200Y-54700D01*
X92200Y-54270D01*
X92115Y-54221D01*
X91971Y-54281D01*
X91813Y-54423D01*
X91750Y-54556D01*
X91686Y-54423D01*
X91528Y-54281D01*
X91384Y-54221D01*
X91300Y-54270D01*
X91300Y-54700D01*
X91730Y-54700D01*
X91750Y-54665D01*
X91769Y-54700D01*
X92200Y-54700D01*
X92200Y-54800D01*
X91769Y-54800D01*
X91750Y-54834D01*
X91730Y-54800D01*
X91300Y-54800D01*
X91300Y-55229D01*
X91384Y-55278D01*
X91528Y-55218D01*
X91686Y-55076D01*
X91750Y-54943D01*
X91813Y-55076D01*
X91971Y-55218D01*
X92115Y-55278D01*
X92200Y-55229D01*
X92200Y-58204D01*
X92041Y-58235D01*
X91864Y-58353D01*
X91750Y-58525D01*
X91635Y-58353D01*
X91458Y-58235D01*
X91250Y-58194D01*
X91200Y-58204D01*
X91200Y-55229D01*
X91200Y-54800D01*
X91192Y-54800D01*
X91192Y-54700D01*
X91200Y-54700D01*
X91200Y-54270D01*
X91115Y-54221D01*
X90971Y-54281D01*
X90813Y-54423D01*
X90756Y-54543D01*
X90753Y-54530D01*
X90635Y-54353D01*
X90458Y-54235D01*
X90250Y-54194D01*
X90041Y-54235D01*
X89864Y-54353D01*
X89746Y-54530D01*
X89705Y-54739D01*
X89705Y-54760D01*
X89711Y-54792D01*
X89686Y-54768D01*
X89594Y-54730D01*
X89495Y-54729D01*
X89362Y-54730D01*
X89300Y-54792D01*
X89300Y-55250D01*
X89732Y-55250D01*
X89795Y-55187D01*
X89795Y-55041D01*
X89864Y-55146D01*
X90041Y-55264D01*
X90250Y-55305D01*
X90458Y-55264D01*
X90635Y-55146D01*
X90753Y-54969D01*
X90756Y-54956D01*
X90813Y-55076D01*
X90971Y-55218D01*
X91115Y-55278D01*
X91200Y-55229D01*
X91200Y-58204D01*
X91041Y-58235D01*
X90864Y-58353D01*
X90750Y-58525D01*
X90635Y-58353D01*
X90458Y-58235D01*
X90250Y-58194D01*
X90041Y-58235D01*
X89864Y-58353D01*
X89795Y-58458D01*
X89795Y-58330D01*
X89795Y-57919D01*
X89795Y-57180D01*
X89757Y-57088D01*
X89686Y-57018D01*
X89643Y-57000D01*
X89686Y-56982D01*
X89756Y-56911D01*
X89794Y-56819D01*
X89795Y-56720D01*
X89795Y-56080D01*
X89795Y-55669D01*
X89795Y-55412D01*
X89732Y-55350D01*
X89300Y-55350D01*
X89300Y-55807D01*
X89362Y-55870D01*
X89495Y-55870D01*
X89594Y-55869D01*
X89686Y-55831D01*
X89757Y-55761D01*
X89795Y-55669D01*
X89795Y-56080D01*
X89757Y-55988D01*
X89686Y-55918D01*
X89594Y-55880D01*
X89495Y-55879D01*
X89200Y-55879D01*
X89200Y-55807D01*
X89200Y-55350D01*
X89200Y-55250D01*
X89200Y-54792D01*
X89137Y-54730D01*
X89004Y-54729D01*
X88905Y-54730D01*
X88813Y-54768D01*
X88742Y-54838D01*
X88704Y-54930D01*
X88705Y-55187D01*
X88767Y-55250D01*
X89200Y-55250D01*
X89200Y-55350D01*
X88767Y-55350D01*
X88705Y-55412D01*
X88704Y-55669D01*
X88742Y-55761D01*
X88813Y-55831D01*
X88905Y-55869D01*
X89004Y-55870D01*
X89137Y-55870D01*
X89200Y-55807D01*
X89200Y-55879D01*
X88905Y-55879D01*
X88813Y-55917D01*
X88743Y-55988D01*
X88705Y-56080D01*
X88704Y-56179D01*
X88704Y-56819D01*
X88742Y-56911D01*
X88813Y-56981D01*
X88856Y-57000D01*
X88813Y-57018D01*
X88742Y-57088D01*
X88704Y-57180D01*
X88705Y-57437D01*
X88767Y-57500D01*
X89200Y-57500D01*
X89200Y-57492D01*
X89300Y-57492D01*
X89300Y-57500D01*
X89732Y-57500D01*
X89795Y-57437D01*
X89795Y-57180D01*
X89795Y-57919D01*
X89795Y-57662D01*
X89732Y-57600D01*
X89300Y-57600D01*
X89300Y-58057D01*
X89362Y-58120D01*
X89495Y-58120D01*
X89594Y-58119D01*
X89686Y-58081D01*
X89757Y-58011D01*
X89795Y-57919D01*
X89795Y-58330D01*
X89757Y-58238D01*
X89686Y-58168D01*
X89594Y-58130D01*
X89495Y-58129D01*
X89200Y-58129D01*
X89200Y-58057D01*
X89200Y-57600D01*
X88767Y-57600D01*
X88705Y-57662D01*
X88704Y-57919D01*
X88742Y-58011D01*
X88813Y-58081D01*
X88905Y-58119D01*
X89004Y-58120D01*
X89137Y-58120D01*
X89200Y-58057D01*
X89200Y-58129D01*
X88905Y-58129D01*
X88813Y-58167D01*
X88743Y-58238D01*
X88705Y-58330D01*
X88704Y-58429D01*
X88704Y-59069D01*
X88742Y-59161D01*
X88813Y-59231D01*
X88905Y-59269D01*
X89004Y-59270D01*
X89594Y-59270D01*
X89686Y-59232D01*
X89756Y-59161D01*
X89794Y-59069D01*
X89794Y-59041D01*
X89864Y-59146D01*
X90022Y-59251D01*
X89853Y-59364D01*
X89735Y-59541D01*
X89694Y-59750D01*
X89735Y-59958D01*
X89853Y-60135D01*
X90030Y-60253D01*
X90239Y-60295D01*
X90260Y-60295D01*
X90469Y-60253D01*
X90646Y-60135D01*
X90750Y-59979D01*
X90853Y-60135D01*
X91030Y-60253D01*
X91239Y-60295D01*
X91260Y-60295D01*
X91469Y-60253D01*
X91646Y-60135D01*
X91750Y-59979D01*
X91853Y-60135D01*
X92030Y-60253D01*
X92239Y-60295D01*
X92260Y-60295D01*
X92469Y-60253D01*
X92646Y-60135D01*
X92750Y-59979D01*
X92853Y-60135D01*
X93030Y-60253D01*
X93239Y-60295D01*
X93260Y-60295D01*
X93469Y-60253D01*
X93646Y-60135D01*
X93764Y-59958D01*
X93805Y-59750D01*
X93805Y-62750D01*
X93764Y-62541D01*
X93646Y-62364D01*
X93469Y-62246D01*
X93260Y-62205D01*
X93239Y-62205D01*
X93030Y-62246D01*
X92853Y-62364D01*
X92750Y-62520D01*
X92646Y-62364D01*
X92469Y-62246D01*
X92260Y-62205D01*
X92239Y-62205D01*
X92030Y-62246D01*
X91853Y-62364D01*
X91750Y-62520D01*
X91646Y-62364D01*
X91469Y-62246D01*
X91260Y-62205D01*
X91239Y-62205D01*
X91030Y-62246D01*
X90853Y-62364D01*
X90795Y-62452D01*
X90795Y-62405D01*
X90757Y-62313D01*
X90686Y-62243D01*
X90594Y-62205D01*
X90495Y-62204D01*
X89905Y-62204D01*
X89813Y-62242D01*
X89743Y-62313D01*
X89705Y-62405D01*
X89704Y-62504D01*
X89704Y-63094D01*
X89742Y-63186D01*
X89813Y-63256D01*
X89905Y-63294D01*
X89952Y-63294D01*
X89864Y-63353D01*
X89746Y-63530D01*
X89705Y-63739D01*
X89705Y-63760D01*
X89746Y-63969D01*
X89864Y-64146D01*
X90041Y-64264D01*
X90250Y-64305D01*
X90458Y-64264D01*
X90635Y-64146D01*
X90750Y-63974D01*
X90864Y-64146D01*
X91041Y-64264D01*
X91250Y-64305D01*
X91458Y-64264D01*
X91635Y-64146D01*
X91750Y-63974D01*
X91864Y-64146D01*
X92041Y-64264D01*
X92250Y-64305D01*
X92458Y-64264D01*
X92635Y-64146D01*
X92750Y-63974D01*
X92864Y-64146D01*
X93041Y-64264D01*
X93250Y-64305D01*
X93458Y-64264D01*
X93635Y-64146D01*
X93704Y-64041D01*
X93704Y-64169D01*
X93742Y-64261D01*
X93813Y-64331D01*
X93905Y-64369D01*
X94004Y-64370D01*
X94594Y-64370D01*
X94686Y-64332D01*
X94756Y-64261D01*
X94794Y-64169D01*
X94795Y-64070D01*
X94795Y-64580D01*
X94757Y-64488D01*
X94686Y-64418D01*
X94594Y-64380D01*
X94495Y-64379D01*
X94362Y-64380D01*
X94300Y-64442D01*
X94300Y-64900D01*
X94732Y-64900D01*
X94795Y-64837D01*
X94795Y-64580D01*
X94795Y-65319D01*
X94795Y-65062D01*
X94732Y-65000D01*
X94300Y-65000D01*
X94300Y-65457D01*
X94362Y-65520D01*
X94495Y-65520D01*
X94594Y-65519D01*
X94686Y-65481D01*
X94757Y-65411D01*
X94795Y-65319D01*
X94795Y-66036D01*
X94742Y-66088D01*
X94704Y-66180D01*
X94705Y-66437D01*
X94767Y-66500D01*
X95200Y-66500D01*
X95200Y-66600D01*
X94767Y-66600D01*
X94705Y-66662D01*
X94704Y-66919D01*
X94742Y-67011D01*
X94813Y-67081D01*
X94905Y-67119D01*
X95004Y-67120D01*
X95137Y-67120D01*
X95200Y-67057D01*
X95200Y-67129D01*
X94905Y-67129D01*
X94813Y-67167D01*
X94743Y-67238D01*
X94705Y-67330D01*
X94704Y-67429D01*
X94704Y-68069D01*
X94742Y-68161D01*
X94813Y-68231D01*
X94905Y-68269D01*
X95004Y-68270D01*
X95594Y-68270D01*
X95686Y-68232D01*
X95756Y-68161D01*
X95794Y-68069D01*
X95794Y-68041D01*
X95864Y-68146D01*
X96041Y-68264D01*
X96250Y-68305D01*
X96458Y-68264D01*
X96635Y-68146D01*
X96753Y-67969D01*
X96756Y-67956D01*
X96813Y-68076D01*
X96971Y-68218D01*
X97115Y-68278D01*
X97200Y-68229D01*
X97200Y-70700D01*
X94200Y-70700D01*
X94200Y-65457D01*
X94200Y-65000D01*
X94200Y-64900D01*
X94200Y-64442D01*
X94137Y-64380D01*
X94004Y-64379D01*
X93905Y-64380D01*
X93813Y-64418D01*
X93742Y-64488D01*
X93704Y-64580D01*
X93705Y-64837D01*
X93767Y-64900D01*
X94200Y-64900D01*
X94200Y-65000D01*
X93767Y-65000D01*
X93705Y-65062D01*
X93704Y-65319D01*
X93742Y-65411D01*
X93813Y-65481D01*
X93905Y-65519D01*
X94004Y-65520D01*
X94137Y-65520D01*
X94200Y-65457D01*
X94200Y-70700D01*
X93778Y-70700D01*
X93778Y-67884D01*
X93778Y-67615D01*
X93686Y-67423D01*
X93528Y-67281D01*
X93384Y-67221D01*
X93300Y-67270D01*
X93300Y-67700D01*
X93730Y-67700D01*
X93778Y-67615D01*
X93778Y-67884D01*
X93730Y-67800D01*
X93300Y-67800D01*
X93300Y-68229D01*
X93384Y-68278D01*
X93528Y-68218D01*
X93686Y-68076D01*
X93778Y-67884D01*
X93778Y-70700D01*
X93200Y-70700D01*
X93200Y-68229D01*
X93200Y-67800D01*
X93200Y-67700D01*
X93200Y-67270D01*
X93115Y-67221D01*
X92971Y-67281D01*
X92813Y-67423D01*
X92750Y-67556D01*
X92686Y-67423D01*
X92528Y-67281D01*
X92384Y-67221D01*
X92300Y-67270D01*
X92300Y-67700D01*
X92730Y-67700D01*
X92750Y-67665D01*
X92769Y-67700D01*
X93200Y-67700D01*
X93200Y-67800D01*
X92769Y-67800D01*
X92750Y-67834D01*
X92730Y-67800D01*
X92300Y-67800D01*
X92300Y-68229D01*
X92384Y-68278D01*
X92528Y-68218D01*
X92686Y-68076D01*
X92750Y-67943D01*
X92813Y-68076D01*
X92971Y-68218D01*
X93115Y-68278D01*
X93200Y-68229D01*
X93200Y-70700D01*
X92200Y-70700D01*
X92200Y-68229D01*
X92200Y-67800D01*
X92200Y-67700D01*
X92200Y-67270D01*
X92115Y-67221D01*
X91971Y-67281D01*
X91813Y-67423D01*
X91750Y-67556D01*
X91686Y-67423D01*
X91528Y-67281D01*
X91384Y-67221D01*
X91300Y-67270D01*
X91300Y-67700D01*
X91730Y-67700D01*
X91750Y-67665D01*
X91769Y-67700D01*
X92200Y-67700D01*
X92200Y-67800D01*
X91769Y-67800D01*
X91750Y-67834D01*
X91730Y-67800D01*
X91300Y-67800D01*
X91300Y-68229D01*
X91384Y-68278D01*
X91528Y-68218D01*
X91686Y-68076D01*
X91750Y-67943D01*
X91813Y-68076D01*
X91971Y-68218D01*
X92115Y-68278D01*
X92200Y-68229D01*
X92200Y-70700D01*
X91200Y-70700D01*
X91200Y-68229D01*
X91200Y-67800D01*
X91192Y-67800D01*
X91192Y-67700D01*
X91200Y-67700D01*
X91200Y-67270D01*
X91115Y-67221D01*
X90971Y-67281D01*
X90813Y-67423D01*
X90756Y-67543D01*
X90753Y-67530D01*
X90635Y-67353D01*
X90458Y-67235D01*
X90250Y-67194D01*
X90041Y-67235D01*
X89864Y-67353D01*
X89795Y-67458D01*
X89795Y-66069D01*
X89795Y-65330D01*
X89795Y-64820D01*
X89795Y-64180D01*
X89757Y-64088D01*
X89686Y-64018D01*
X89645Y-64000D01*
X89645Y-61872D01*
X89645Y-60372D01*
X89547Y-60135D01*
X89365Y-59953D01*
X89128Y-59855D01*
X88872Y-59854D01*
X88635Y-59952D01*
X88453Y-60134D01*
X88355Y-60371D01*
X88354Y-60627D01*
X88452Y-60864D01*
X88634Y-61046D01*
X88871Y-61144D01*
X89127Y-61145D01*
X89364Y-61047D01*
X89546Y-60865D01*
X89644Y-60628D01*
X89645Y-60372D01*
X89645Y-61872D01*
X89547Y-61635D01*
X89365Y-61453D01*
X89128Y-61355D01*
X88872Y-61354D01*
X88635Y-61452D01*
X88453Y-61634D01*
X88355Y-61871D01*
X88354Y-62127D01*
X88452Y-62364D01*
X88634Y-62546D01*
X88871Y-62644D01*
X89127Y-62645D01*
X89364Y-62547D01*
X89546Y-62365D01*
X89644Y-62128D01*
X89645Y-61872D01*
X89645Y-64000D01*
X89594Y-63980D01*
X89495Y-63979D01*
X88905Y-63979D01*
X88813Y-64017D01*
X88743Y-64088D01*
X88705Y-64180D01*
X88704Y-64279D01*
X88704Y-64919D01*
X88742Y-65011D01*
X88813Y-65081D01*
X88905Y-65119D01*
X89004Y-65120D01*
X89594Y-65120D01*
X89686Y-65082D01*
X89756Y-65011D01*
X89794Y-64919D01*
X89795Y-64820D01*
X89795Y-65330D01*
X89757Y-65238D01*
X89686Y-65168D01*
X89594Y-65130D01*
X89495Y-65129D01*
X89362Y-65130D01*
X89300Y-65192D01*
X89300Y-65650D01*
X89732Y-65650D01*
X89795Y-65587D01*
X89795Y-65330D01*
X89795Y-66069D01*
X89795Y-65812D01*
X89732Y-65750D01*
X89300Y-65750D01*
X89300Y-66207D01*
X89362Y-66270D01*
X89495Y-66270D01*
X89594Y-66269D01*
X89686Y-66231D01*
X89757Y-66161D01*
X89795Y-66069D01*
X89795Y-67458D01*
X89746Y-67530D01*
X89705Y-67739D01*
X89705Y-67760D01*
X89746Y-67969D01*
X89864Y-68146D01*
X90041Y-68264D01*
X90250Y-68305D01*
X90458Y-68264D01*
X90635Y-68146D01*
X90753Y-67969D01*
X90756Y-67956D01*
X90813Y-68076D01*
X90971Y-68218D01*
X91115Y-68278D01*
X91200Y-68229D01*
X91200Y-70700D01*
X89200Y-70700D01*
X89200Y-66207D01*
X89200Y-65750D01*
X89200Y-65650D01*
X89200Y-65192D01*
X89137Y-65130D01*
X89004Y-65129D01*
X88905Y-65130D01*
X88813Y-65168D01*
X88742Y-65238D01*
X88704Y-65330D01*
X88705Y-65587D01*
X88767Y-65650D01*
X89200Y-65650D01*
X89200Y-65750D01*
X88767Y-65750D01*
X88705Y-65812D01*
X88704Y-66069D01*
X88742Y-66161D01*
X88813Y-66231D01*
X88905Y-66269D01*
X89004Y-66270D01*
X89137Y-66270D01*
X89200Y-66207D01*
X89200Y-70700D01*
X87895Y-70700D01*
X87895Y-63122D01*
X87797Y-62885D01*
X87615Y-62703D01*
X87378Y-62605D01*
X87122Y-62604D01*
X87055Y-62632D01*
X87055Y-58250D01*
X87014Y-58041D01*
X86896Y-57864D01*
X86724Y-57750D01*
X86896Y-57635D01*
X87014Y-57458D01*
X87055Y-57250D01*
X87014Y-57041D01*
X86896Y-56864D01*
X86724Y-56750D01*
X86896Y-56635D01*
X87014Y-56458D01*
X87055Y-56250D01*
X87014Y-56041D01*
X86896Y-55864D01*
X86719Y-55746D01*
X86645Y-55731D01*
X86645Y-52622D01*
X86547Y-52385D01*
X86365Y-52203D01*
X86128Y-52105D01*
X85872Y-52104D01*
X85635Y-52202D01*
X85453Y-52384D01*
X85355Y-52621D01*
X85354Y-52877D01*
X85452Y-53114D01*
X85634Y-53296D01*
X85871Y-53394D01*
X86127Y-53395D01*
X86364Y-53297D01*
X86546Y-53115D01*
X86644Y-52878D01*
X86645Y-52622D01*
X86645Y-55731D01*
X86510Y-55705D01*
X86489Y-55705D01*
X86280Y-55746D01*
X86103Y-55864D01*
X86045Y-55952D01*
X86045Y-54808D01*
X86045Y-54486D01*
X86003Y-54277D01*
X85885Y-54101D01*
X85708Y-53982D01*
X85500Y-53941D01*
X85291Y-53982D01*
X85145Y-54080D01*
X85145Y-52622D01*
X85047Y-52385D01*
X84865Y-52203D01*
X84628Y-52105D01*
X84372Y-52104D01*
X84135Y-52202D01*
X83953Y-52384D01*
X83855Y-52621D01*
X83854Y-52877D01*
X83952Y-53114D01*
X84134Y-53296D01*
X84371Y-53394D01*
X84627Y-53395D01*
X84864Y-53297D01*
X85046Y-53115D01*
X85144Y-52878D01*
X85145Y-52622D01*
X85145Y-54080D01*
X85114Y-54101D01*
X85000Y-54272D01*
X84885Y-54101D01*
X84708Y-53982D01*
X84500Y-53941D01*
X84291Y-53982D01*
X84114Y-54101D01*
X84045Y-54205D01*
X84045Y-54155D01*
X84007Y-54063D01*
X83936Y-53993D01*
X83844Y-53955D01*
X83745Y-53954D01*
X83645Y-53954D01*
X83645Y-52622D01*
X83547Y-52385D01*
X83365Y-52203D01*
X83128Y-52105D01*
X82872Y-52104D01*
X82635Y-52202D01*
X82453Y-52384D01*
X82355Y-52621D01*
X82354Y-52877D01*
X82452Y-53114D01*
X82634Y-53296D01*
X82871Y-53394D01*
X83127Y-53395D01*
X83364Y-53297D01*
X83546Y-53115D01*
X83644Y-52878D01*
X83645Y-52622D01*
X83645Y-53954D01*
X83155Y-53954D01*
X83063Y-53992D01*
X82993Y-54063D01*
X82955Y-54155D01*
X82954Y-54254D01*
X82954Y-55139D01*
X82992Y-55231D01*
X83063Y-55301D01*
X83155Y-55339D01*
X83254Y-55340D01*
X83844Y-55340D01*
X83936Y-55302D01*
X84006Y-55231D01*
X84044Y-55139D01*
X84045Y-55089D01*
X84114Y-55193D01*
X84291Y-55312D01*
X84500Y-55353D01*
X84708Y-55312D01*
X84885Y-55193D01*
X85000Y-55022D01*
X85114Y-55193D01*
X85291Y-55312D01*
X85500Y-55353D01*
X85708Y-55312D01*
X85885Y-55193D01*
X86003Y-55017D01*
X86045Y-54808D01*
X86045Y-55952D01*
X85985Y-56041D01*
X85944Y-56250D01*
X85985Y-56458D01*
X86103Y-56635D01*
X86275Y-56750D01*
X86103Y-56864D01*
X85985Y-57041D01*
X85944Y-57250D01*
X85985Y-57458D01*
X86103Y-57635D01*
X86275Y-57750D01*
X86103Y-57864D01*
X85985Y-58041D01*
X85944Y-58250D01*
X85985Y-58458D01*
X86103Y-58635D01*
X86280Y-58753D01*
X86489Y-58795D01*
X86510Y-58795D01*
X86719Y-58753D01*
X86896Y-58635D01*
X87014Y-58458D01*
X87055Y-58250D01*
X87055Y-62632D01*
X86885Y-62702D01*
X86845Y-62742D01*
X86845Y-59795D01*
X86845Y-59105D01*
X86807Y-59013D01*
X86736Y-58943D01*
X86644Y-58905D01*
X86545Y-58904D01*
X85855Y-58904D01*
X85763Y-58942D01*
X85693Y-59013D01*
X85667Y-59075D01*
X85587Y-58995D01*
X85368Y-58905D01*
X85132Y-58904D01*
X84913Y-58995D01*
X84745Y-59162D01*
X84655Y-59381D01*
X84654Y-59617D01*
X84745Y-59836D01*
X84912Y-60004D01*
X85131Y-60094D01*
X85367Y-60095D01*
X85586Y-60004D01*
X85667Y-59924D01*
X85692Y-59986D01*
X85763Y-60056D01*
X85855Y-60094D01*
X85954Y-60095D01*
X86644Y-60095D01*
X86736Y-60057D01*
X86806Y-59986D01*
X86844Y-59894D01*
X86845Y-59795D01*
X86845Y-62742D01*
X86703Y-62884D01*
X86605Y-63121D01*
X86604Y-63377D01*
X86702Y-63614D01*
X86884Y-63796D01*
X87121Y-63894D01*
X87377Y-63895D01*
X87614Y-63797D01*
X87796Y-63615D01*
X87894Y-63378D01*
X87895Y-63122D01*
X87895Y-70700D01*
X87055Y-70700D01*
X87055Y-66750D01*
X87014Y-66541D01*
X86896Y-66364D01*
X86719Y-66246D01*
X86679Y-66238D01*
X86731Y-66186D01*
X86769Y-66094D01*
X86770Y-65995D01*
X86770Y-65405D01*
X86732Y-65313D01*
X86661Y-65243D01*
X86569Y-65205D01*
X86470Y-65204D01*
X86291Y-65204D01*
X86396Y-65135D01*
X86514Y-64958D01*
X86555Y-64750D01*
X86555Y-61750D01*
X86514Y-61541D01*
X86396Y-61364D01*
X86219Y-61246D01*
X86010Y-61205D01*
X85989Y-61205D01*
X85780Y-61246D01*
X85603Y-61364D01*
X85500Y-61520D01*
X85396Y-61364D01*
X85219Y-61246D01*
X85010Y-61205D01*
X84989Y-61205D01*
X84780Y-61246D01*
X84603Y-61364D01*
X84500Y-61520D01*
X84396Y-61364D01*
X84345Y-61330D01*
X84345Y-59795D01*
X84345Y-59105D01*
X84307Y-59013D01*
X84236Y-58943D01*
X84144Y-58905D01*
X84045Y-58904D01*
X83355Y-58904D01*
X83263Y-58942D01*
X83193Y-59013D01*
X83167Y-59075D01*
X83087Y-58995D01*
X83055Y-58982D01*
X83055Y-58250D01*
X83014Y-58041D01*
X82896Y-57864D01*
X82724Y-57750D01*
X82896Y-57635D01*
X83014Y-57458D01*
X83055Y-57250D01*
X83014Y-57041D01*
X82896Y-56864D01*
X82724Y-56750D01*
X82896Y-56635D01*
X83014Y-56458D01*
X83055Y-56250D01*
X83014Y-56041D01*
X82896Y-55864D01*
X82719Y-55746D01*
X82510Y-55705D01*
X82489Y-55705D01*
X82280Y-55746D01*
X82103Y-55864D01*
X81985Y-56041D01*
X81944Y-56250D01*
X81985Y-56458D01*
X82103Y-56635D01*
X82275Y-56750D01*
X82103Y-56864D01*
X81985Y-57041D01*
X81944Y-57250D01*
X81985Y-57458D01*
X82103Y-57635D01*
X82275Y-57750D01*
X82103Y-57864D01*
X81985Y-58041D01*
X81944Y-58250D01*
X81985Y-58458D01*
X82103Y-58635D01*
X82280Y-58753D01*
X82489Y-58795D01*
X82510Y-58795D01*
X82719Y-58753D01*
X82896Y-58635D01*
X83014Y-58458D01*
X83055Y-58250D01*
X83055Y-58982D01*
X82868Y-58905D01*
X82632Y-58904D01*
X82413Y-58995D01*
X82245Y-59162D01*
X82155Y-59381D01*
X82154Y-59617D01*
X82245Y-59836D01*
X82412Y-60004D01*
X82631Y-60094D01*
X82867Y-60095D01*
X83086Y-60004D01*
X83167Y-59924D01*
X83192Y-59986D01*
X83263Y-60056D01*
X83355Y-60094D01*
X83454Y-60095D01*
X84144Y-60095D01*
X84236Y-60057D01*
X84306Y-59986D01*
X84344Y-59894D01*
X84345Y-59795D01*
X84345Y-61330D01*
X84219Y-61246D01*
X84179Y-61238D01*
X84231Y-61186D01*
X84269Y-61094D01*
X84270Y-60995D01*
X84270Y-60504D01*
X84269Y-60405D01*
X84231Y-60313D01*
X84161Y-60242D01*
X84069Y-60204D01*
X83812Y-60205D01*
X83750Y-60267D01*
X83750Y-60700D01*
X84207Y-60700D01*
X84270Y-60637D01*
X84270Y-60504D01*
X84270Y-60995D01*
X84270Y-60862D01*
X84207Y-60800D01*
X83750Y-60800D01*
X83750Y-61232D01*
X83770Y-61253D01*
X83650Y-61333D01*
X83650Y-61232D01*
X83650Y-60800D01*
X83650Y-60700D01*
X83650Y-60267D01*
X83587Y-60205D01*
X83330Y-60204D01*
X83238Y-60242D01*
X83168Y-60313D01*
X83130Y-60405D01*
X83129Y-60504D01*
X83130Y-60637D01*
X83192Y-60700D01*
X83650Y-60700D01*
X83650Y-60800D01*
X83192Y-60800D01*
X83130Y-60862D01*
X83129Y-60995D01*
X83130Y-61094D01*
X83168Y-61186D01*
X83238Y-61257D01*
X83330Y-61295D01*
X83587Y-61295D01*
X83650Y-61232D01*
X83650Y-61333D01*
X83603Y-61364D01*
X83500Y-61520D01*
X83396Y-61364D01*
X83219Y-61246D01*
X83054Y-61213D01*
X83081Y-61186D01*
X83119Y-61094D01*
X83120Y-60995D01*
X83120Y-60405D01*
X83082Y-60313D01*
X83011Y-60243D01*
X82919Y-60205D01*
X82820Y-60204D01*
X82180Y-60204D01*
X82088Y-60242D01*
X82018Y-60313D01*
X81980Y-60405D01*
X81979Y-60504D01*
X81979Y-61094D01*
X82017Y-61186D01*
X82088Y-61256D01*
X82180Y-61294D01*
X82279Y-61295D01*
X82708Y-61295D01*
X82603Y-61364D01*
X82485Y-61541D01*
X82444Y-61750D01*
X82485Y-61958D01*
X82603Y-62135D01*
X82780Y-62253D01*
X82989Y-62295D01*
X83010Y-62295D01*
X83219Y-62253D01*
X83396Y-62135D01*
X83500Y-61979D01*
X83603Y-62135D01*
X83780Y-62253D01*
X83989Y-62295D01*
X84010Y-62295D01*
X84219Y-62253D01*
X84396Y-62135D01*
X84500Y-61979D01*
X84603Y-62135D01*
X84780Y-62253D01*
X84989Y-62295D01*
X85010Y-62295D01*
X85219Y-62253D01*
X85396Y-62135D01*
X85500Y-61979D01*
X85603Y-62135D01*
X85780Y-62253D01*
X85989Y-62295D01*
X86010Y-62295D01*
X86219Y-62253D01*
X86396Y-62135D01*
X86514Y-61958D01*
X86555Y-61750D01*
X86555Y-64750D01*
X86514Y-64541D01*
X86396Y-64364D01*
X86219Y-64246D01*
X86010Y-64205D01*
X85989Y-64205D01*
X85780Y-64246D01*
X85603Y-64364D01*
X85500Y-64520D01*
X85396Y-64364D01*
X85219Y-64246D01*
X85010Y-64205D01*
X84989Y-64205D01*
X84780Y-64246D01*
X84603Y-64364D01*
X84500Y-64520D01*
X84396Y-64364D01*
X84219Y-64246D01*
X84010Y-64205D01*
X83989Y-64205D01*
X83780Y-64246D01*
X83603Y-64364D01*
X83545Y-64452D01*
X83545Y-64405D01*
X83507Y-64313D01*
X83436Y-64243D01*
X83344Y-64205D01*
X83245Y-64204D01*
X82655Y-64204D01*
X82563Y-64242D01*
X82493Y-64313D01*
X82455Y-64405D01*
X82454Y-64504D01*
X82454Y-65094D01*
X82492Y-65186D01*
X82511Y-65204D01*
X82430Y-65204D01*
X82338Y-65242D01*
X82268Y-65313D01*
X82230Y-65405D01*
X82229Y-65504D01*
X82230Y-65637D01*
X82292Y-65700D01*
X82750Y-65700D01*
X82750Y-65692D01*
X82850Y-65692D01*
X82850Y-65700D01*
X83307Y-65700D01*
X83370Y-65637D01*
X83370Y-65504D01*
X83369Y-65405D01*
X83331Y-65313D01*
X83313Y-65295D01*
X83344Y-65295D01*
X83436Y-65257D01*
X83506Y-65186D01*
X83544Y-65094D01*
X83544Y-65047D01*
X83603Y-65135D01*
X83708Y-65204D01*
X83580Y-65204D01*
X83488Y-65242D01*
X83418Y-65313D01*
X83380Y-65405D01*
X83379Y-65504D01*
X83379Y-66094D01*
X83417Y-66186D01*
X83488Y-66256D01*
X83580Y-66294D01*
X83679Y-66295D01*
X84319Y-66295D01*
X84411Y-66257D01*
X84481Y-66186D01*
X84500Y-66143D01*
X84518Y-66186D01*
X84588Y-66257D01*
X84680Y-66295D01*
X84937Y-66295D01*
X85000Y-66232D01*
X85000Y-65800D01*
X84992Y-65800D01*
X84992Y-65700D01*
X85000Y-65700D01*
X85000Y-65692D01*
X85100Y-65692D01*
X85100Y-65700D01*
X85557Y-65700D01*
X85620Y-65637D01*
X85620Y-65504D01*
X85619Y-65405D01*
X85581Y-65313D01*
X85511Y-65242D01*
X85419Y-65204D01*
X85291Y-65204D01*
X85396Y-65135D01*
X85500Y-64979D01*
X85603Y-65135D01*
X85754Y-65236D01*
X85738Y-65242D01*
X85668Y-65313D01*
X85630Y-65405D01*
X85629Y-65504D01*
X85629Y-66094D01*
X85667Y-66186D01*
X85738Y-66256D01*
X85830Y-66294D01*
X85929Y-66295D01*
X86208Y-66295D01*
X86103Y-66364D01*
X85985Y-66541D01*
X85944Y-66750D01*
X85985Y-66958D01*
X86103Y-67135D01*
X86280Y-67253D01*
X86293Y-67256D01*
X86173Y-67313D01*
X86031Y-67471D01*
X85971Y-67615D01*
X86020Y-67700D01*
X86450Y-67700D01*
X86450Y-67692D01*
X86550Y-67692D01*
X86550Y-67700D01*
X86979Y-67700D01*
X87028Y-67615D01*
X86968Y-67471D01*
X86826Y-67313D01*
X86706Y-67256D01*
X86719Y-67253D01*
X86896Y-67135D01*
X87014Y-66958D01*
X87055Y-66750D01*
X87055Y-70700D01*
X87028Y-70700D01*
X87028Y-69884D01*
X87028Y-69615D01*
X86968Y-69471D01*
X86826Y-69313D01*
X86693Y-69250D01*
X86826Y-69186D01*
X86968Y-69028D01*
X87028Y-68884D01*
X87028Y-68615D01*
X86968Y-68471D01*
X86826Y-68313D01*
X86693Y-68250D01*
X86826Y-68186D01*
X86968Y-68028D01*
X87028Y-67884D01*
X86979Y-67800D01*
X86550Y-67800D01*
X86550Y-68230D01*
X86584Y-68250D01*
X86550Y-68269D01*
X86550Y-68700D01*
X86979Y-68700D01*
X87028Y-68615D01*
X87028Y-68884D01*
X86979Y-68800D01*
X86550Y-68800D01*
X86550Y-69230D01*
X86584Y-69250D01*
X86550Y-69269D01*
X86550Y-69700D01*
X86979Y-69700D01*
X87028Y-69615D01*
X87028Y-69884D01*
X86979Y-69800D01*
X86550Y-69800D01*
X86550Y-70230D01*
X86634Y-70278D01*
X86826Y-70186D01*
X86968Y-70028D01*
X87028Y-69884D01*
X87028Y-70700D01*
X86450Y-70700D01*
X86450Y-70230D01*
X86450Y-69800D01*
X86450Y-69700D01*
X86450Y-69269D01*
X86415Y-69250D01*
X86450Y-69230D01*
X86450Y-68800D01*
X86450Y-68700D01*
X86450Y-68269D01*
X86415Y-68250D01*
X86450Y-68230D01*
X86450Y-67800D01*
X86020Y-67800D01*
X85971Y-67884D01*
X86031Y-68028D01*
X86173Y-68186D01*
X86306Y-68250D01*
X86173Y-68313D01*
X86031Y-68471D01*
X85971Y-68615D01*
X86020Y-68700D01*
X86450Y-68700D01*
X86450Y-68800D01*
X86020Y-68800D01*
X85971Y-68884D01*
X86031Y-69028D01*
X86173Y-69186D01*
X86306Y-69250D01*
X86173Y-69313D01*
X86031Y-69471D01*
X85971Y-69615D01*
X86020Y-69700D01*
X86450Y-69700D01*
X86450Y-69800D01*
X86020Y-69800D01*
X85971Y-69884D01*
X86031Y-70028D01*
X86173Y-70186D01*
X86365Y-70278D01*
X86450Y-70230D01*
X86450Y-70700D01*
X85620Y-70700D01*
X85620Y-65995D01*
X85620Y-65862D01*
X85557Y-65800D01*
X85100Y-65800D01*
X85100Y-66232D01*
X85162Y-66295D01*
X85419Y-66295D01*
X85511Y-66257D01*
X85581Y-66186D01*
X85619Y-66094D01*
X85620Y-65995D01*
X85620Y-70700D01*
X83370Y-70700D01*
X83370Y-65995D01*
X83370Y-65862D01*
X83307Y-65800D01*
X82850Y-65800D01*
X82850Y-66232D01*
X82912Y-66295D01*
X83169Y-66295D01*
X83261Y-66257D01*
X83331Y-66186D01*
X83369Y-66094D01*
X83370Y-65995D01*
X83370Y-70700D01*
X83055Y-70700D01*
X83055Y-69750D01*
X83014Y-69541D01*
X82896Y-69364D01*
X82724Y-69250D01*
X82896Y-69135D01*
X83014Y-68958D01*
X83055Y-68750D01*
X83014Y-68541D01*
X82896Y-68364D01*
X82724Y-68250D01*
X82896Y-68135D01*
X83014Y-67958D01*
X83055Y-67750D01*
X83014Y-67541D01*
X82896Y-67364D01*
X82724Y-67250D01*
X82896Y-67135D01*
X83014Y-66958D01*
X83055Y-66750D01*
X83014Y-66541D01*
X82896Y-66364D01*
X82729Y-66253D01*
X82750Y-66232D01*
X82750Y-65800D01*
X82292Y-65800D01*
X82230Y-65862D01*
X82229Y-65995D01*
X82230Y-66094D01*
X82268Y-66186D01*
X82320Y-66238D01*
X82280Y-66246D01*
X82103Y-66364D01*
X81985Y-66541D01*
X81944Y-66750D01*
X81985Y-66958D01*
X82103Y-67135D01*
X82275Y-67250D01*
X82103Y-67364D01*
X81985Y-67541D01*
X81944Y-67750D01*
X81985Y-67958D01*
X82103Y-68135D01*
X82275Y-68250D01*
X82103Y-68364D01*
X81985Y-68541D01*
X81944Y-68750D01*
X81985Y-68958D01*
X82103Y-69135D01*
X82275Y-69250D01*
X82103Y-69364D01*
X81985Y-69541D01*
X81944Y-69750D01*
X81985Y-69958D01*
X82103Y-70135D01*
X82280Y-70253D01*
X82489Y-70295D01*
X82510Y-70295D01*
X82719Y-70253D01*
X82896Y-70135D01*
X83014Y-69958D01*
X83055Y-69750D01*
X83055Y-70700D01*
X81645Y-70700D01*
X81645Y-63122D01*
X81547Y-62885D01*
X81365Y-62703D01*
X81128Y-62605D01*
X80872Y-62604D01*
X80805Y-62632D01*
X80805Y-58250D01*
X80764Y-58041D01*
X80646Y-57864D01*
X80474Y-57750D01*
X80646Y-57635D01*
X80764Y-57458D01*
X80805Y-57250D01*
X80764Y-57041D01*
X80646Y-56864D01*
X80474Y-56750D01*
X80646Y-56635D01*
X80764Y-56458D01*
X80805Y-56250D01*
X80764Y-56041D01*
X80646Y-55864D01*
X80469Y-55746D01*
X80395Y-55731D01*
X80395Y-52622D01*
X80297Y-52385D01*
X80115Y-52203D01*
X79878Y-52105D01*
X79622Y-52104D01*
X79385Y-52202D01*
X79203Y-52384D01*
X79105Y-52621D01*
X79104Y-52877D01*
X79202Y-53114D01*
X79384Y-53296D01*
X79621Y-53394D01*
X79877Y-53395D01*
X80114Y-53297D01*
X80296Y-53115D01*
X80394Y-52878D01*
X80395Y-52622D01*
X80395Y-55731D01*
X80260Y-55705D01*
X80239Y-55705D01*
X80030Y-55746D01*
X79853Y-55864D01*
X79795Y-55952D01*
X79795Y-54808D01*
X79795Y-54486D01*
X79753Y-54277D01*
X79635Y-54101D01*
X79458Y-53982D01*
X79250Y-53941D01*
X79041Y-53982D01*
X78895Y-54080D01*
X78895Y-52622D01*
X78797Y-52385D01*
X78615Y-52203D01*
X78378Y-52105D01*
X78122Y-52104D01*
X77885Y-52202D01*
X77703Y-52384D01*
X77605Y-52621D01*
X77604Y-52877D01*
X77702Y-53114D01*
X77884Y-53296D01*
X78121Y-53394D01*
X78377Y-53395D01*
X78614Y-53297D01*
X78796Y-53115D01*
X78894Y-52878D01*
X78895Y-52622D01*
X78895Y-54080D01*
X78864Y-54101D01*
X78750Y-54272D01*
X78635Y-54101D01*
X78458Y-53982D01*
X78250Y-53941D01*
X78041Y-53982D01*
X77864Y-54101D01*
X77795Y-54205D01*
X77795Y-54155D01*
X77757Y-54063D01*
X77686Y-53993D01*
X77594Y-53955D01*
X77495Y-53954D01*
X77395Y-53954D01*
X77395Y-52622D01*
X77297Y-52385D01*
X77115Y-52203D01*
X76878Y-52105D01*
X76622Y-52104D01*
X76385Y-52202D01*
X76203Y-52384D01*
X76105Y-52621D01*
X76104Y-52877D01*
X76202Y-53114D01*
X76384Y-53296D01*
X76621Y-53394D01*
X76877Y-53395D01*
X77114Y-53297D01*
X77296Y-53115D01*
X77394Y-52878D01*
X77395Y-52622D01*
X77395Y-53954D01*
X76905Y-53954D01*
X76813Y-53992D01*
X76743Y-54063D01*
X76705Y-54155D01*
X76704Y-54254D01*
X76704Y-55139D01*
X76742Y-55231D01*
X76813Y-55301D01*
X76905Y-55339D01*
X77004Y-55340D01*
X77594Y-55340D01*
X77686Y-55302D01*
X77756Y-55231D01*
X77794Y-55139D01*
X77795Y-55089D01*
X77864Y-55193D01*
X78041Y-55312D01*
X78250Y-55353D01*
X78458Y-55312D01*
X78635Y-55193D01*
X78750Y-55022D01*
X78864Y-55193D01*
X79041Y-55312D01*
X79250Y-55353D01*
X79458Y-55312D01*
X79635Y-55193D01*
X79753Y-55017D01*
X79795Y-54808D01*
X79795Y-55952D01*
X79735Y-56041D01*
X79694Y-56250D01*
X79735Y-56458D01*
X79853Y-56635D01*
X80025Y-56750D01*
X79853Y-56864D01*
X79735Y-57041D01*
X79694Y-57250D01*
X79735Y-57458D01*
X79853Y-57635D01*
X80025Y-57750D01*
X79853Y-57864D01*
X79735Y-58041D01*
X79694Y-58250D01*
X79735Y-58458D01*
X79853Y-58635D01*
X80030Y-58753D01*
X80239Y-58795D01*
X80260Y-58795D01*
X80469Y-58753D01*
X80646Y-58635D01*
X80764Y-58458D01*
X80805Y-58250D01*
X80805Y-62632D01*
X80635Y-62702D01*
X80595Y-62742D01*
X80595Y-59382D01*
X80504Y-59163D01*
X80337Y-58995D01*
X80118Y-58905D01*
X79882Y-58904D01*
X79663Y-58995D01*
X79582Y-59075D01*
X79557Y-59013D01*
X79486Y-58943D01*
X79394Y-58905D01*
X79295Y-58904D01*
X78605Y-58904D01*
X78513Y-58942D01*
X78443Y-59013D01*
X78405Y-59105D01*
X78404Y-59204D01*
X78404Y-59894D01*
X78442Y-59986D01*
X78513Y-60056D01*
X78605Y-60094D01*
X78704Y-60095D01*
X79394Y-60095D01*
X79486Y-60057D01*
X79556Y-59986D01*
X79582Y-59924D01*
X79662Y-60004D01*
X79881Y-60094D01*
X80117Y-60095D01*
X80336Y-60004D01*
X80504Y-59837D01*
X80594Y-59618D01*
X80595Y-59382D01*
X80595Y-62742D01*
X80453Y-62884D01*
X80355Y-63121D01*
X80354Y-63377D01*
X80452Y-63614D01*
X80634Y-63796D01*
X80871Y-63894D01*
X81127Y-63895D01*
X81364Y-63797D01*
X81546Y-63615D01*
X81644Y-63378D01*
X81645Y-63122D01*
X81645Y-70700D01*
X80805Y-70700D01*
X80805Y-66750D01*
X80764Y-66541D01*
X80646Y-66364D01*
X80469Y-66246D01*
X80429Y-66238D01*
X80481Y-66186D01*
X80519Y-66094D01*
X80520Y-65995D01*
X80520Y-65405D01*
X80482Y-65313D01*
X80411Y-65243D01*
X80319Y-65205D01*
X80220Y-65204D01*
X80041Y-65204D01*
X80146Y-65135D01*
X80264Y-64958D01*
X80305Y-64750D01*
X80305Y-61750D01*
X80264Y-61541D01*
X80146Y-61364D01*
X79969Y-61246D01*
X79760Y-61205D01*
X79739Y-61205D01*
X79530Y-61246D01*
X79353Y-61364D01*
X79250Y-61520D01*
X79146Y-61364D01*
X78969Y-61246D01*
X78760Y-61205D01*
X78739Y-61205D01*
X78530Y-61246D01*
X78353Y-61364D01*
X78250Y-61520D01*
X78146Y-61364D01*
X78041Y-61295D01*
X78069Y-61295D01*
X78161Y-61257D01*
X78231Y-61186D01*
X78269Y-61094D01*
X78270Y-60995D01*
X78270Y-60504D01*
X78269Y-60405D01*
X78231Y-60313D01*
X78161Y-60242D01*
X78095Y-60215D01*
X78095Y-59382D01*
X78004Y-59163D01*
X77837Y-58995D01*
X77618Y-58905D01*
X77382Y-58904D01*
X77163Y-58995D01*
X77082Y-59075D01*
X77057Y-59013D01*
X76986Y-58943D01*
X76894Y-58905D01*
X76805Y-58904D01*
X76805Y-58250D01*
X76764Y-58041D01*
X76646Y-57864D01*
X76474Y-57750D01*
X76646Y-57635D01*
X76764Y-57458D01*
X76805Y-57250D01*
X76764Y-57041D01*
X76646Y-56864D01*
X76474Y-56750D01*
X76646Y-56635D01*
X76764Y-56458D01*
X76805Y-56250D01*
X76764Y-56041D01*
X76646Y-55864D01*
X76469Y-55746D01*
X76260Y-55705D01*
X76239Y-55705D01*
X76030Y-55746D01*
X75853Y-55864D01*
X75735Y-56041D01*
X75694Y-56250D01*
X75735Y-56458D01*
X75853Y-56635D01*
X76025Y-56750D01*
X75853Y-56864D01*
X75735Y-57041D01*
X75694Y-57250D01*
X75735Y-57458D01*
X75853Y-57635D01*
X76025Y-57750D01*
X75853Y-57864D01*
X75735Y-58041D01*
X75694Y-58250D01*
X75735Y-58458D01*
X75853Y-58635D01*
X76030Y-58753D01*
X76239Y-58795D01*
X76260Y-58795D01*
X76469Y-58753D01*
X76646Y-58635D01*
X76764Y-58458D01*
X76805Y-58250D01*
X76805Y-58904D01*
X76795Y-58904D01*
X76105Y-58904D01*
X76013Y-58942D01*
X75943Y-59013D01*
X75905Y-59105D01*
X75904Y-59204D01*
X75904Y-59894D01*
X75942Y-59986D01*
X76013Y-60056D01*
X76105Y-60094D01*
X76204Y-60095D01*
X76894Y-60095D01*
X76986Y-60057D01*
X77056Y-59986D01*
X77082Y-59924D01*
X77162Y-60004D01*
X77381Y-60094D01*
X77617Y-60095D01*
X77836Y-60004D01*
X78004Y-59837D01*
X78094Y-59618D01*
X78095Y-59382D01*
X78095Y-60215D01*
X78069Y-60204D01*
X77812Y-60205D01*
X77750Y-60267D01*
X77750Y-60700D01*
X78207Y-60700D01*
X78270Y-60637D01*
X78270Y-60504D01*
X78270Y-60995D01*
X78270Y-60862D01*
X78207Y-60800D01*
X77750Y-60800D01*
X77750Y-60807D01*
X77650Y-60807D01*
X77650Y-60800D01*
X77650Y-60700D01*
X77650Y-60267D01*
X77587Y-60205D01*
X77330Y-60204D01*
X77238Y-60242D01*
X77168Y-60313D01*
X77130Y-60405D01*
X77129Y-60504D01*
X77130Y-60637D01*
X77192Y-60700D01*
X77650Y-60700D01*
X77650Y-60800D01*
X77192Y-60800D01*
X77130Y-60862D01*
X77129Y-60995D01*
X77130Y-61094D01*
X77168Y-61186D01*
X77238Y-61257D01*
X77330Y-61295D01*
X77458Y-61295D01*
X77353Y-61364D01*
X77250Y-61520D01*
X77146Y-61364D01*
X76995Y-61263D01*
X77011Y-61257D01*
X77081Y-61186D01*
X77119Y-61094D01*
X77120Y-60995D01*
X77120Y-60405D01*
X77082Y-60313D01*
X77011Y-60243D01*
X76919Y-60205D01*
X76820Y-60204D01*
X76180Y-60204D01*
X76088Y-60242D01*
X76018Y-60313D01*
X75980Y-60405D01*
X75979Y-60504D01*
X75979Y-61094D01*
X76017Y-61186D01*
X76088Y-61256D01*
X76180Y-61294D01*
X76279Y-61295D01*
X76458Y-61295D01*
X76353Y-61364D01*
X76235Y-61541D01*
X76194Y-61750D01*
X76235Y-61958D01*
X76353Y-62135D01*
X76530Y-62253D01*
X76739Y-62295D01*
X76760Y-62295D01*
X76969Y-62253D01*
X77146Y-62135D01*
X77250Y-61979D01*
X77353Y-62135D01*
X77530Y-62253D01*
X77739Y-62295D01*
X77760Y-62295D01*
X77969Y-62253D01*
X78146Y-62135D01*
X78250Y-61979D01*
X78353Y-62135D01*
X78530Y-62253D01*
X78739Y-62295D01*
X78760Y-62295D01*
X78969Y-62253D01*
X79146Y-62135D01*
X79250Y-61979D01*
X79353Y-62135D01*
X79530Y-62253D01*
X79739Y-62295D01*
X79760Y-62295D01*
X79969Y-62253D01*
X80146Y-62135D01*
X80264Y-61958D01*
X80305Y-61750D01*
X80305Y-64750D01*
X80264Y-64541D01*
X80146Y-64364D01*
X79969Y-64246D01*
X79760Y-64205D01*
X79739Y-64205D01*
X79530Y-64246D01*
X79353Y-64364D01*
X79250Y-64520D01*
X79146Y-64364D01*
X78969Y-64246D01*
X78760Y-64205D01*
X78739Y-64205D01*
X78530Y-64246D01*
X78353Y-64364D01*
X78250Y-64520D01*
X78146Y-64364D01*
X77969Y-64246D01*
X77760Y-64205D01*
X77739Y-64205D01*
X77530Y-64246D01*
X77353Y-64364D01*
X77295Y-64452D01*
X77295Y-64405D01*
X77257Y-64313D01*
X77186Y-64243D01*
X77094Y-64205D01*
X76995Y-64204D01*
X76405Y-64204D01*
X76313Y-64242D01*
X76243Y-64313D01*
X76205Y-64405D01*
X76204Y-64504D01*
X76204Y-65094D01*
X76242Y-65186D01*
X76261Y-65204D01*
X76180Y-65204D01*
X76088Y-65242D01*
X76018Y-65313D01*
X75980Y-65405D01*
X75979Y-65504D01*
X75980Y-65637D01*
X76042Y-65700D01*
X76500Y-65700D01*
X76500Y-65692D01*
X76600Y-65692D01*
X76600Y-65700D01*
X77057Y-65700D01*
X77120Y-65637D01*
X77120Y-65504D01*
X77119Y-65405D01*
X77081Y-65313D01*
X77063Y-65295D01*
X77094Y-65295D01*
X77186Y-65257D01*
X77256Y-65186D01*
X77294Y-65094D01*
X77294Y-65047D01*
X77353Y-65135D01*
X77458Y-65204D01*
X77330Y-65204D01*
X77238Y-65242D01*
X77168Y-65313D01*
X77130Y-65405D01*
X77129Y-65504D01*
X77129Y-66094D01*
X77167Y-66186D01*
X77238Y-66256D01*
X77330Y-66294D01*
X77429Y-66295D01*
X78069Y-66295D01*
X78161Y-66257D01*
X78231Y-66186D01*
X78250Y-66143D01*
X78268Y-66186D01*
X78338Y-66257D01*
X78430Y-66295D01*
X78687Y-66295D01*
X78750Y-66232D01*
X78750Y-65800D01*
X78742Y-65800D01*
X78742Y-65700D01*
X78750Y-65700D01*
X78750Y-65692D01*
X78850Y-65692D01*
X78850Y-65700D01*
X79307Y-65700D01*
X79370Y-65637D01*
X79370Y-65504D01*
X79369Y-65405D01*
X79331Y-65313D01*
X79261Y-65242D01*
X79169Y-65204D01*
X79041Y-65204D01*
X79146Y-65135D01*
X79250Y-64979D01*
X79353Y-65135D01*
X79504Y-65236D01*
X79488Y-65242D01*
X79418Y-65313D01*
X79380Y-65405D01*
X79379Y-65504D01*
X79379Y-66094D01*
X79417Y-66186D01*
X79488Y-66256D01*
X79580Y-66294D01*
X79679Y-66295D01*
X79958Y-66295D01*
X79853Y-66364D01*
X79735Y-66541D01*
X79694Y-66750D01*
X79735Y-66958D01*
X79853Y-67135D01*
X80030Y-67253D01*
X80043Y-67256D01*
X79923Y-67313D01*
X79781Y-67471D01*
X79721Y-67615D01*
X79770Y-67700D01*
X80200Y-67700D01*
X80200Y-67692D01*
X80300Y-67692D01*
X80300Y-67700D01*
X80729Y-67700D01*
X80778Y-67615D01*
X80718Y-67471D01*
X80576Y-67313D01*
X80456Y-67256D01*
X80469Y-67253D01*
X80646Y-67135D01*
X80764Y-66958D01*
X80805Y-66750D01*
X80805Y-70700D01*
X80778Y-70700D01*
X80778Y-69884D01*
X80778Y-69615D01*
X80718Y-69471D01*
X80576Y-69313D01*
X80443Y-69250D01*
X80576Y-69186D01*
X80718Y-69028D01*
X80778Y-68884D01*
X80778Y-68615D01*
X80718Y-68471D01*
X80576Y-68313D01*
X80443Y-68250D01*
X80576Y-68186D01*
X80718Y-68028D01*
X80778Y-67884D01*
X80729Y-67800D01*
X80300Y-67800D01*
X80300Y-68230D01*
X80334Y-68250D01*
X80300Y-68269D01*
X80300Y-68700D01*
X80729Y-68700D01*
X80778Y-68615D01*
X80778Y-68884D01*
X80729Y-68800D01*
X80300Y-68800D01*
X80300Y-69230D01*
X80334Y-69250D01*
X80300Y-69269D01*
X80300Y-69700D01*
X80729Y-69700D01*
X80778Y-69615D01*
X80778Y-69884D01*
X80729Y-69800D01*
X80300Y-69800D01*
X80300Y-70230D01*
X80384Y-70278D01*
X80576Y-70186D01*
X80718Y-70028D01*
X80778Y-69884D01*
X80778Y-70700D01*
X80200Y-70700D01*
X80200Y-70230D01*
X80200Y-69800D01*
X80200Y-69700D01*
X80200Y-69269D01*
X80165Y-69250D01*
X80200Y-69230D01*
X80200Y-68800D01*
X80200Y-68700D01*
X80200Y-68269D01*
X80165Y-68250D01*
X80200Y-68230D01*
X80200Y-67800D01*
X79770Y-67800D01*
X79721Y-67884D01*
X79781Y-68028D01*
X79923Y-68186D01*
X80056Y-68250D01*
X79923Y-68313D01*
X79781Y-68471D01*
X79721Y-68615D01*
X79770Y-68700D01*
X80200Y-68700D01*
X80200Y-68800D01*
X79770Y-68800D01*
X79721Y-68884D01*
X79781Y-69028D01*
X79923Y-69186D01*
X80056Y-69250D01*
X79923Y-69313D01*
X79781Y-69471D01*
X79721Y-69615D01*
X79770Y-69700D01*
X80200Y-69700D01*
X80200Y-69800D01*
X79770Y-69800D01*
X79721Y-69884D01*
X79781Y-70028D01*
X79923Y-70186D01*
X80115Y-70278D01*
X80200Y-70230D01*
X80200Y-70700D01*
X79370Y-70700D01*
X79370Y-65995D01*
X79370Y-65862D01*
X79307Y-65800D01*
X78850Y-65800D01*
X78850Y-66232D01*
X78912Y-66295D01*
X79169Y-66295D01*
X79261Y-66257D01*
X79331Y-66186D01*
X79369Y-66094D01*
X79370Y-65995D01*
X79370Y-70700D01*
X77120Y-70700D01*
X77120Y-65995D01*
X77120Y-65862D01*
X77057Y-65800D01*
X76600Y-65800D01*
X76600Y-66232D01*
X76662Y-66295D01*
X76919Y-66295D01*
X77011Y-66257D01*
X77081Y-66186D01*
X77119Y-66094D01*
X77120Y-65995D01*
X77120Y-70700D01*
X76805Y-70700D01*
X76805Y-69750D01*
X76764Y-69541D01*
X76646Y-69364D01*
X76474Y-69250D01*
X76646Y-69135D01*
X76764Y-68958D01*
X76805Y-68750D01*
X76764Y-68541D01*
X76646Y-68364D01*
X76474Y-68250D01*
X76646Y-68135D01*
X76764Y-67958D01*
X76805Y-67750D01*
X76764Y-67541D01*
X76646Y-67364D01*
X76474Y-67250D01*
X76646Y-67135D01*
X76764Y-66958D01*
X76805Y-66750D01*
X76764Y-66541D01*
X76646Y-66364D01*
X76479Y-66253D01*
X76500Y-66232D01*
X76500Y-65800D01*
X76042Y-65800D01*
X75980Y-65862D01*
X75979Y-65995D01*
X75980Y-66094D01*
X76018Y-66186D01*
X76070Y-66238D01*
X76030Y-66246D01*
X75853Y-66364D01*
X75735Y-66541D01*
X75694Y-66750D01*
X75735Y-66958D01*
X75853Y-67135D01*
X76025Y-67250D01*
X75853Y-67364D01*
X75735Y-67541D01*
X75694Y-67750D01*
X75735Y-67958D01*
X75853Y-68135D01*
X76025Y-68250D01*
X75853Y-68364D01*
X75735Y-68541D01*
X75694Y-68750D01*
X75735Y-68958D01*
X75853Y-69135D01*
X76025Y-69250D01*
X75853Y-69364D01*
X75735Y-69541D01*
X75694Y-69750D01*
X75735Y-69958D01*
X75853Y-70135D01*
X76030Y-70253D01*
X76239Y-70295D01*
X76260Y-70295D01*
X76469Y-70253D01*
X76646Y-70135D01*
X76764Y-69958D01*
X76805Y-69750D01*
X76805Y-70700D01*
X75103Y-70700D01*
X75103Y-67250D01*
X75103Y-62250D01*
X75062Y-62041D01*
X74943Y-61864D01*
X74772Y-61750D01*
X74943Y-61635D01*
X75062Y-61458D01*
X75103Y-61250D01*
X75062Y-61041D01*
X74943Y-60864D01*
X74767Y-60746D01*
X74558Y-60705D01*
X74236Y-60705D01*
X74027Y-60746D01*
X73851Y-60864D01*
X73732Y-61041D01*
X73700Y-61205D01*
X73441Y-61205D01*
X73295Y-61234D01*
X73295Y-58245D01*
X73295Y-57655D01*
X73295Y-57655D01*
X73295Y-55010D01*
X73295Y-54989D01*
X73253Y-54780D01*
X73135Y-54603D01*
X72958Y-54485D01*
X72750Y-54444D01*
X72541Y-54485D01*
X72364Y-54603D01*
X72246Y-54780D01*
X72205Y-54989D01*
X72205Y-55010D01*
X72246Y-55219D01*
X72364Y-55396D01*
X72541Y-55514D01*
X72750Y-55555D01*
X72958Y-55514D01*
X73135Y-55396D01*
X73253Y-55219D01*
X73295Y-55010D01*
X73295Y-57655D01*
X73257Y-57563D01*
X73186Y-57493D01*
X73094Y-57455D01*
X72995Y-57454D01*
X72405Y-57454D01*
X72313Y-57492D01*
X72300Y-57506D01*
X72300Y-57250D01*
X72300Y-55650D01*
X72262Y-55558D01*
X72191Y-55488D01*
X72099Y-55450D01*
X72000Y-55449D01*
X70400Y-55449D01*
X70308Y-55487D01*
X70238Y-55558D01*
X70200Y-55650D01*
X70199Y-55749D01*
X70199Y-57300D01*
X69950Y-57299D01*
X69950Y-56292D01*
X69790Y-55906D01*
X69495Y-55610D01*
X69109Y-55450D01*
X68692Y-55449D01*
X68306Y-55609D01*
X68010Y-55904D01*
X67850Y-56290D01*
X67849Y-56707D01*
X68009Y-57094D01*
X68304Y-57389D01*
X68690Y-57549D01*
X69107Y-57550D01*
X69494Y-57390D01*
X69789Y-57095D01*
X69949Y-56709D01*
X69950Y-56292D01*
X69950Y-57299D01*
X69842Y-57299D01*
X69456Y-57459D01*
X69160Y-57754D01*
X69000Y-58140D01*
X68999Y-58557D01*
X69159Y-58944D01*
X69454Y-59239D01*
X69840Y-59399D01*
X70257Y-59400D01*
X70644Y-59240D01*
X70939Y-58945D01*
X71099Y-58559D01*
X71100Y-58142D01*
X70940Y-57756D01*
X70735Y-57550D01*
X72099Y-57550D01*
X72191Y-57512D01*
X72261Y-57441D01*
X72299Y-57349D01*
X72300Y-57250D01*
X72300Y-57506D01*
X72243Y-57563D01*
X72205Y-57655D01*
X72204Y-57754D01*
X72204Y-58344D01*
X72242Y-58436D01*
X72313Y-58506D01*
X72405Y-58544D01*
X72504Y-58545D01*
X73094Y-58545D01*
X73186Y-58507D01*
X73256Y-58436D01*
X73294Y-58344D01*
X73295Y-58245D01*
X73295Y-61234D01*
X73232Y-61246D01*
X73056Y-61364D01*
X72937Y-61541D01*
X72896Y-61750D01*
X72937Y-61958D01*
X73056Y-62135D01*
X73232Y-62253D01*
X73441Y-62295D01*
X73700Y-62295D01*
X73732Y-62458D01*
X73851Y-62635D01*
X74027Y-62753D01*
X74236Y-62795D01*
X74558Y-62795D01*
X74767Y-62753D01*
X74943Y-62635D01*
X75062Y-62458D01*
X75103Y-62250D01*
X75103Y-67250D01*
X75062Y-67041D01*
X75020Y-66978D01*
X75020Y-65495D01*
X75020Y-64905D01*
X75020Y-63995D01*
X75020Y-63405D01*
X74982Y-63313D01*
X74911Y-63243D01*
X74819Y-63205D01*
X74720Y-63204D01*
X74080Y-63204D01*
X73988Y-63242D01*
X73918Y-63313D01*
X73880Y-63405D01*
X73879Y-63504D01*
X73879Y-64094D01*
X73917Y-64186D01*
X73988Y-64256D01*
X74080Y-64294D01*
X74179Y-64295D01*
X74819Y-64295D01*
X74911Y-64257D01*
X74981Y-64186D01*
X75019Y-64094D01*
X75020Y-63995D01*
X75020Y-64905D01*
X74982Y-64813D01*
X74911Y-64743D01*
X74819Y-64705D01*
X74720Y-64704D01*
X74080Y-64704D01*
X73988Y-64742D01*
X73918Y-64813D01*
X73880Y-64905D01*
X73879Y-65004D01*
X73879Y-65594D01*
X73917Y-65686D01*
X73988Y-65756D01*
X74080Y-65794D01*
X74179Y-65795D01*
X74819Y-65795D01*
X74911Y-65757D01*
X74981Y-65686D01*
X75019Y-65594D01*
X75020Y-65495D01*
X75020Y-66978D01*
X74943Y-66864D01*
X74767Y-66746D01*
X74558Y-66705D01*
X74299Y-66705D01*
X74267Y-66541D01*
X74148Y-66364D01*
X73972Y-66246D01*
X73870Y-66226D01*
X73870Y-65495D01*
X73870Y-65004D01*
X73870Y-63995D01*
X73870Y-63504D01*
X73869Y-63405D01*
X73831Y-63313D01*
X73761Y-63242D01*
X73669Y-63204D01*
X73412Y-63205D01*
X73350Y-63267D01*
X73350Y-63700D01*
X73807Y-63700D01*
X73870Y-63637D01*
X73870Y-63504D01*
X73870Y-63995D01*
X73870Y-63862D01*
X73807Y-63800D01*
X73350Y-63800D01*
X73350Y-64232D01*
X73412Y-64295D01*
X73669Y-64295D01*
X73761Y-64257D01*
X73831Y-64186D01*
X73869Y-64094D01*
X73870Y-63995D01*
X73870Y-65004D01*
X73869Y-64905D01*
X73831Y-64813D01*
X73761Y-64742D01*
X73669Y-64704D01*
X73412Y-64705D01*
X73350Y-64767D01*
X73350Y-65200D01*
X73807Y-65200D01*
X73870Y-65137D01*
X73870Y-65004D01*
X73870Y-65495D01*
X73870Y-65362D01*
X73807Y-65300D01*
X73350Y-65300D01*
X73350Y-65732D01*
X73412Y-65795D01*
X73669Y-65795D01*
X73761Y-65757D01*
X73831Y-65686D01*
X73869Y-65594D01*
X73870Y-65495D01*
X73870Y-66226D01*
X73763Y-66205D01*
X73441Y-66205D01*
X73250Y-66243D01*
X73250Y-65732D01*
X73250Y-65300D01*
X73242Y-65300D01*
X73242Y-65200D01*
X73250Y-65200D01*
X73250Y-64767D01*
X73187Y-64705D01*
X72930Y-64704D01*
X72838Y-64742D01*
X72768Y-64812D01*
X72764Y-64791D01*
X72646Y-64614D01*
X72474Y-64500D01*
X72646Y-64385D01*
X72764Y-64208D01*
X72768Y-64187D01*
X72838Y-64257D01*
X72930Y-64295D01*
X73187Y-64295D01*
X73250Y-64232D01*
X73250Y-63800D01*
X73242Y-63800D01*
X73242Y-63700D01*
X73250Y-63700D01*
X73250Y-63267D01*
X73187Y-63205D01*
X72930Y-63204D01*
X72838Y-63242D01*
X72805Y-63275D01*
X72805Y-62000D01*
X72764Y-61791D01*
X72646Y-61614D01*
X72469Y-61496D01*
X72295Y-61461D01*
X72295Y-59995D01*
X72295Y-59405D01*
X72257Y-59313D01*
X72186Y-59243D01*
X72094Y-59205D01*
X71995Y-59204D01*
X71405Y-59204D01*
X71313Y-59242D01*
X71243Y-59313D01*
X71205Y-59405D01*
X71204Y-59504D01*
X71204Y-60094D01*
X71242Y-60186D01*
X71313Y-60256D01*
X71405Y-60294D01*
X71456Y-60295D01*
X71313Y-60423D01*
X71221Y-60615D01*
X71269Y-60700D01*
X71700Y-60700D01*
X71700Y-60692D01*
X71800Y-60692D01*
X71800Y-60700D01*
X72230Y-60700D01*
X72278Y-60615D01*
X72186Y-60423D01*
X72043Y-60295D01*
X72094Y-60295D01*
X72186Y-60257D01*
X72256Y-60186D01*
X72294Y-60094D01*
X72295Y-59995D01*
X72295Y-61461D01*
X72278Y-61458D01*
X72278Y-60884D01*
X72230Y-60800D01*
X71800Y-60800D01*
X71800Y-61229D01*
X71884Y-61278D01*
X72028Y-61218D01*
X72186Y-61076D01*
X72278Y-60884D01*
X72278Y-61458D01*
X72260Y-61455D01*
X72239Y-61455D01*
X72030Y-61496D01*
X71853Y-61614D01*
X71735Y-61791D01*
X71700Y-61971D01*
X71700Y-61229D01*
X71700Y-60800D01*
X71269Y-60800D01*
X71221Y-60884D01*
X71313Y-61076D01*
X71471Y-61218D01*
X71615Y-61278D01*
X71700Y-61229D01*
X71700Y-61971D01*
X71694Y-62000D01*
X71735Y-62208D01*
X71853Y-62385D01*
X72030Y-62503D01*
X72239Y-62545D01*
X72260Y-62545D01*
X72469Y-62503D01*
X72646Y-62385D01*
X72764Y-62208D01*
X72805Y-62000D01*
X72805Y-63275D01*
X72768Y-63313D01*
X72730Y-63405D01*
X72729Y-63504D01*
X72730Y-63637D01*
X72792Y-63699D01*
X72730Y-63699D01*
X72730Y-63740D01*
X72646Y-63614D01*
X72469Y-63496D01*
X72260Y-63455D01*
X72239Y-63455D01*
X72030Y-63496D01*
X71853Y-63614D01*
X71805Y-63686D01*
X71805Y-63000D01*
X71764Y-62791D01*
X71646Y-62614D01*
X71469Y-62496D01*
X71260Y-62455D01*
X71239Y-62455D01*
X71030Y-62496D01*
X70853Y-62614D01*
X70735Y-62791D01*
X70694Y-63000D01*
X70735Y-63208D01*
X70853Y-63385D01*
X71030Y-63503D01*
X71239Y-63545D01*
X71260Y-63545D01*
X71469Y-63503D01*
X71646Y-63385D01*
X71764Y-63208D01*
X71805Y-63000D01*
X71805Y-63686D01*
X71735Y-63791D01*
X71694Y-64000D01*
X71735Y-64208D01*
X71853Y-64385D01*
X72025Y-64500D01*
X71853Y-64614D01*
X71735Y-64791D01*
X71694Y-65000D01*
X71735Y-65208D01*
X71853Y-65385D01*
X72030Y-65503D01*
X72239Y-65545D01*
X72260Y-65545D01*
X72469Y-65503D01*
X72646Y-65385D01*
X72730Y-65259D01*
X72730Y-65300D01*
X72792Y-65300D01*
X72730Y-65362D01*
X72729Y-65495D01*
X72730Y-65594D01*
X72768Y-65686D01*
X72838Y-65757D01*
X72930Y-65795D01*
X73187Y-65795D01*
X73250Y-65732D01*
X73250Y-66243D01*
X73232Y-66246D01*
X73056Y-66364D01*
X72937Y-66541D01*
X72896Y-66750D01*
X72937Y-66958D01*
X73056Y-67135D01*
X73227Y-67250D01*
X73056Y-67364D01*
X72937Y-67541D01*
X72896Y-67750D01*
X72937Y-67958D01*
X73056Y-68135D01*
X73232Y-68253D01*
X73441Y-68295D01*
X73763Y-68295D01*
X73972Y-68253D01*
X74148Y-68135D01*
X74267Y-67958D01*
X74299Y-67795D01*
X74558Y-67795D01*
X74767Y-67753D01*
X74943Y-67635D01*
X75062Y-67458D01*
X75103Y-67250D01*
X75103Y-70700D01*
X74149Y-70700D01*
X73978Y-70700D01*
X73999Y-70678D01*
X73954Y-70633D01*
X74059Y-70594D01*
X74149Y-70354D01*
X74139Y-70098D01*
X74059Y-69905D01*
X73954Y-69866D01*
X73883Y-69936D01*
X73883Y-69795D01*
X73844Y-69690D01*
X73604Y-69600D01*
X73348Y-69610D01*
X73155Y-69690D01*
X73116Y-69795D01*
X73500Y-70179D01*
X73883Y-69795D01*
X73883Y-69936D01*
X73570Y-70250D01*
X73576Y-70255D01*
X73505Y-70326D01*
X73500Y-70320D01*
X73494Y-70326D01*
X73429Y-70261D01*
X73423Y-70255D01*
X73429Y-70250D01*
X73045Y-69866D01*
X72940Y-69905D01*
X72850Y-70145D01*
X72860Y-70401D01*
X72940Y-70594D01*
X73045Y-70633D01*
X73000Y-70678D01*
X73021Y-70700D01*
X72805Y-70700D01*
X72805Y-67000D01*
X72764Y-66791D01*
X72646Y-66614D01*
X72469Y-66496D01*
X72260Y-66455D01*
X72239Y-66455D01*
X72030Y-66496D01*
X71853Y-66614D01*
X71795Y-66702D01*
X71795Y-66245D01*
X71795Y-65655D01*
X71757Y-65563D01*
X71686Y-65493D01*
X71594Y-65455D01*
X71495Y-65454D01*
X70905Y-65454D01*
X70813Y-65492D01*
X70743Y-65563D01*
X70705Y-65655D01*
X70704Y-65754D01*
X70704Y-66344D01*
X70742Y-66436D01*
X70813Y-66506D01*
X70905Y-66544D01*
X71004Y-66545D01*
X71594Y-66545D01*
X71686Y-66507D01*
X71756Y-66436D01*
X71794Y-66344D01*
X71795Y-66245D01*
X71795Y-66702D01*
X71735Y-66791D01*
X71694Y-67000D01*
X71735Y-67208D01*
X71853Y-67385D01*
X72030Y-67503D01*
X72239Y-67545D01*
X72260Y-67545D01*
X72469Y-67503D01*
X72646Y-67385D01*
X72764Y-67208D01*
X72805Y-67000D01*
X72805Y-70700D01*
X72295Y-70700D01*
X72295Y-68594D01*
X72295Y-67905D01*
X72257Y-67813D01*
X72186Y-67743D01*
X72094Y-67705D01*
X71995Y-67704D01*
X71862Y-67705D01*
X71800Y-67767D01*
X71800Y-68200D01*
X72232Y-68200D01*
X72295Y-68137D01*
X72295Y-67905D01*
X72295Y-68594D01*
X72295Y-68362D01*
X72232Y-68300D01*
X71800Y-68300D01*
X71800Y-68307D01*
X71700Y-68307D01*
X71700Y-68300D01*
X71700Y-68200D01*
X71700Y-67767D01*
X71637Y-67705D01*
X71504Y-67704D01*
X71405Y-67705D01*
X71313Y-67743D01*
X71242Y-67813D01*
X71204Y-67905D01*
X71205Y-68137D01*
X71267Y-68200D01*
X71700Y-68200D01*
X71700Y-68300D01*
X71267Y-68300D01*
X71205Y-68362D01*
X71204Y-68594D01*
X71242Y-68686D01*
X71313Y-68756D01*
X71405Y-68794D01*
X71452Y-68794D01*
X71364Y-68853D01*
X71246Y-69030D01*
X71205Y-69239D01*
X71205Y-69260D01*
X71246Y-69469D01*
X71364Y-69646D01*
X71541Y-69764D01*
X71750Y-69805D01*
X71958Y-69764D01*
X72135Y-69646D01*
X72253Y-69469D01*
X72295Y-69260D01*
X72295Y-69239D01*
X72253Y-69030D01*
X72135Y-68853D01*
X72047Y-68794D01*
X72094Y-68794D01*
X72186Y-68756D01*
X72257Y-68686D01*
X72295Y-68594D01*
X72295Y-70700D01*
X69823Y-70700D01*
X69962Y-70561D01*
X70180Y-70035D01*
X70181Y-69466D01*
X69963Y-68940D01*
X69561Y-68537D01*
X69035Y-68319D01*
X68466Y-68318D01*
X67940Y-68536D01*
X67800Y-68676D01*
X67800Y-67304D01*
X67853Y-67385D01*
X68030Y-67503D01*
X68239Y-67545D01*
X68260Y-67545D01*
X68469Y-67503D01*
X68646Y-67385D01*
X68764Y-67208D01*
X68805Y-67000D01*
X68795Y-66946D01*
X68795Y-63245D01*
X68795Y-63112D01*
X68732Y-63050D01*
X68300Y-63050D01*
X68300Y-63482D01*
X68323Y-63506D01*
X68300Y-63519D01*
X68300Y-63950D01*
X68729Y-63950D01*
X68778Y-63865D01*
X68718Y-63721D01*
X68576Y-63563D01*
X68537Y-63545D01*
X68594Y-63545D01*
X68686Y-63507D01*
X68756Y-63436D01*
X68794Y-63344D01*
X68795Y-63245D01*
X68795Y-66946D01*
X68764Y-66791D01*
X68646Y-66614D01*
X68469Y-66496D01*
X68456Y-66493D01*
X68576Y-66436D01*
X68718Y-66278D01*
X68778Y-66134D01*
X68778Y-65865D01*
X68718Y-65721D01*
X68576Y-65563D01*
X68443Y-65500D01*
X68576Y-65436D01*
X68718Y-65278D01*
X68778Y-65134D01*
X68778Y-64865D01*
X68718Y-64721D01*
X68576Y-64563D01*
X68443Y-64500D01*
X68576Y-64436D01*
X68718Y-64278D01*
X68778Y-64134D01*
X68729Y-64050D01*
X68300Y-64050D01*
X68300Y-64480D01*
X68334Y-64500D01*
X68300Y-64519D01*
X68300Y-64950D01*
X68729Y-64950D01*
X68778Y-64865D01*
X68778Y-65134D01*
X68729Y-65050D01*
X68300Y-65050D01*
X68300Y-65480D01*
X68334Y-65500D01*
X68300Y-65519D01*
X68300Y-65950D01*
X68729Y-65950D01*
X68778Y-65865D01*
X68778Y-66134D01*
X68729Y-66050D01*
X68300Y-66050D01*
X68300Y-66057D01*
X68200Y-66057D01*
X68200Y-66050D01*
X68192Y-66050D01*
X68192Y-65950D01*
X68200Y-65950D01*
X68200Y-65519D01*
X68165Y-65500D01*
X68200Y-65480D01*
X68200Y-65050D01*
X68192Y-65050D01*
X68192Y-64950D01*
X68200Y-64950D01*
X68200Y-64519D01*
X68165Y-64500D01*
X68200Y-64480D01*
X68200Y-64050D01*
X68192Y-64050D01*
X68192Y-63950D01*
X68200Y-63950D01*
X68200Y-63519D01*
X68176Y-63506D01*
X68200Y-63482D01*
X68200Y-63050D01*
X68192Y-63050D01*
X68192Y-62950D01*
X68200Y-62950D01*
X68200Y-62942D01*
X68300Y-62942D01*
X68300Y-62950D01*
X68732Y-62950D01*
X68795Y-62887D01*
X68795Y-62754D01*
X68794Y-62655D01*
X68756Y-62563D01*
X68686Y-62492D01*
X68594Y-62454D01*
X68541Y-62454D01*
X68646Y-62385D01*
X68764Y-62208D01*
X68805Y-62000D01*
X68764Y-61791D01*
X68646Y-61614D01*
X68469Y-61496D01*
X68260Y-61455D01*
X68239Y-61455D01*
X68030Y-61496D01*
X67853Y-61614D01*
X67800Y-61695D01*
X67800Y-61061D01*
X67881Y-61094D01*
X68117Y-61095D01*
X68336Y-61004D01*
X68504Y-60837D01*
X68594Y-60618D01*
X68595Y-60382D01*
X68504Y-60163D01*
X68424Y-60082D01*
X68486Y-60057D01*
X68556Y-59986D01*
X68594Y-59894D01*
X68595Y-59795D01*
X68595Y-59105D01*
X68557Y-59013D01*
X68486Y-58943D01*
X68394Y-58905D01*
X68295Y-58904D01*
X67800Y-58904D01*
X67800Y-53823D01*
X67938Y-53962D01*
X68464Y-54180D01*
X69033Y-54181D01*
X69559Y-53963D01*
X69962Y-53561D01*
X70180Y-53035D01*
X70181Y-52466D01*
X69963Y-51940D01*
X69823Y-51800D01*
X104426Y-51800D01*
X104287Y-51938D01*
X104069Y-52464D01*
X104068Y-53033D01*
X104286Y-53559D01*
X104688Y-53962D01*
X105214Y-54180D01*
X105783Y-54181D01*
X106309Y-53963D01*
X106450Y-53823D01*
X106450Y-68676D01*
X106450Y-68676D01*
G37*
G54D24*
X106450Y-68676D02*
X106311Y-68537D01*
X105795Y-68322D01*
X105795Y-66069D01*
X105795Y-65330D01*
X105795Y-64820D01*
X105795Y-64180D01*
X105795Y-58220D01*
X105795Y-57580D01*
X105795Y-57169D01*
X105795Y-56430D01*
X105757Y-56338D01*
X105686Y-56268D01*
X105594Y-56230D01*
X105495Y-56229D01*
X105362Y-56230D01*
X105300Y-56292D01*
X105300Y-56750D01*
X105732Y-56750D01*
X105795Y-56687D01*
X105795Y-56430D01*
X105795Y-57169D01*
X105795Y-56912D01*
X105732Y-56850D01*
X105300Y-56850D01*
X105300Y-57307D01*
X105362Y-57370D01*
X105495Y-57370D01*
X105594Y-57369D01*
X105686Y-57331D01*
X105757Y-57261D01*
X105795Y-57169D01*
X105795Y-57580D01*
X105757Y-57488D01*
X105686Y-57418D01*
X105594Y-57380D01*
X105495Y-57379D01*
X105200Y-57379D01*
X105200Y-57307D01*
X105200Y-56850D01*
X105200Y-56750D01*
X105200Y-56292D01*
X105137Y-56230D01*
X105004Y-56229D01*
X104905Y-56230D01*
X104813Y-56268D01*
X104795Y-56286D01*
X104795Y-54760D01*
X104795Y-54739D01*
X104753Y-54530D01*
X104635Y-54353D01*
X104458Y-54235D01*
X104250Y-54194D01*
X104041Y-54235D01*
X103864Y-54353D01*
X103746Y-54530D01*
X103743Y-54543D01*
X103686Y-54423D01*
X103528Y-54281D01*
X103384Y-54221D01*
X103300Y-54270D01*
X103300Y-54700D01*
X103307Y-54700D01*
X103307Y-54800D01*
X103300Y-54800D01*
X103300Y-55229D01*
X103384Y-55278D01*
X103528Y-55218D01*
X103686Y-55076D01*
X103743Y-54956D01*
X103746Y-54969D01*
X103864Y-55146D01*
X104041Y-55264D01*
X104250Y-55305D01*
X104458Y-55264D01*
X104635Y-55146D01*
X104753Y-54969D01*
X104795Y-54760D01*
X104795Y-56286D01*
X104742Y-56338D01*
X104704Y-56430D01*
X104705Y-56687D01*
X104767Y-56750D01*
X105200Y-56750D01*
X105200Y-56850D01*
X104767Y-56850D01*
X104705Y-56912D01*
X104704Y-57169D01*
X104742Y-57261D01*
X104813Y-57331D01*
X104905Y-57369D01*
X105004Y-57370D01*
X105137Y-57370D01*
X105200Y-57307D01*
X105200Y-57379D01*
X104905Y-57379D01*
X104813Y-57417D01*
X104743Y-57488D01*
X104705Y-57580D01*
X104704Y-57679D01*
X104704Y-58319D01*
X104742Y-58411D01*
X104813Y-58481D01*
X104905Y-58519D01*
X105004Y-58520D01*
X105594Y-58520D01*
X105686Y-58482D01*
X105756Y-58411D01*
X105794Y-58319D01*
X105795Y-58220D01*
X105795Y-64180D01*
X105757Y-64088D01*
X105686Y-64018D01*
X105594Y-63980D01*
X105495Y-63979D01*
X105145Y-63979D01*
X105145Y-61872D01*
X105145Y-60372D01*
X105047Y-60135D01*
X104865Y-59953D01*
X104795Y-59924D01*
X104795Y-58760D01*
X104795Y-58739D01*
X104753Y-58530D01*
X104635Y-58353D01*
X104458Y-58235D01*
X104250Y-58194D01*
X104041Y-58235D01*
X103864Y-58353D01*
X103750Y-58525D01*
X103635Y-58353D01*
X103458Y-58235D01*
X103250Y-58194D01*
X103200Y-58204D01*
X103200Y-55229D01*
X103200Y-54800D01*
X103200Y-54700D01*
X103200Y-54270D01*
X103115Y-54221D01*
X102971Y-54281D01*
X102813Y-54423D01*
X102750Y-54556D01*
X102686Y-54423D01*
X102528Y-54281D01*
X102384Y-54221D01*
X102300Y-54270D01*
X102300Y-54700D01*
X102730Y-54700D01*
X102750Y-54665D01*
X102769Y-54700D01*
X103200Y-54700D01*
X103200Y-54800D01*
X102769Y-54800D01*
X102750Y-54834D01*
X102730Y-54800D01*
X102300Y-54800D01*
X102300Y-55229D01*
X102384Y-55278D01*
X102528Y-55218D01*
X102686Y-55076D01*
X102750Y-54943D01*
X102813Y-55076D01*
X102971Y-55218D01*
X103115Y-55278D01*
X103200Y-55229D01*
X103200Y-58204D01*
X103041Y-58235D01*
X102864Y-58353D01*
X102750Y-58525D01*
X102635Y-58353D01*
X102458Y-58235D01*
X102250Y-58194D01*
X102200Y-58204D01*
X102200Y-55229D01*
X102200Y-54800D01*
X102200Y-54700D01*
X102200Y-54270D01*
X102115Y-54221D01*
X101971Y-54281D01*
X101813Y-54423D01*
X101750Y-54556D01*
X101686Y-54423D01*
X101528Y-54281D01*
X101384Y-54221D01*
X101300Y-54270D01*
X101300Y-54700D01*
X101730Y-54700D01*
X101750Y-54665D01*
X101769Y-54700D01*
X102200Y-54700D01*
X102200Y-54800D01*
X101769Y-54800D01*
X101750Y-54834D01*
X101730Y-54800D01*
X101300Y-54800D01*
X101300Y-55229D01*
X101384Y-55278D01*
X101528Y-55218D01*
X101686Y-55076D01*
X101750Y-54943D01*
X101813Y-55076D01*
X101971Y-55218D01*
X102115Y-55278D01*
X102200Y-55229D01*
X102200Y-58204D01*
X102041Y-58235D01*
X101864Y-58353D01*
X101750Y-58525D01*
X101635Y-58353D01*
X101458Y-58235D01*
X101250Y-58194D01*
X101200Y-58204D01*
X101200Y-55229D01*
X101200Y-54800D01*
X101200Y-54700D01*
X101200Y-54270D01*
X101115Y-54221D01*
X100971Y-54281D01*
X100813Y-54423D01*
X100721Y-54615D01*
X100769Y-54700D01*
X101200Y-54700D01*
X101200Y-54800D01*
X100769Y-54800D01*
X100721Y-54884D01*
X100813Y-55076D01*
X100971Y-55218D01*
X101115Y-55278D01*
X101200Y-55229D01*
X101200Y-58204D01*
X101041Y-58235D01*
X100864Y-58353D01*
X100795Y-58458D01*
X100795Y-58330D01*
X100795Y-57919D01*
X100795Y-57180D01*
X100757Y-57088D01*
X100686Y-57018D01*
X100594Y-56980D01*
X100495Y-56979D01*
X100362Y-56980D01*
X100300Y-57042D01*
X100300Y-57500D01*
X100732Y-57500D01*
X100795Y-57437D01*
X100795Y-57180D01*
X100795Y-57919D01*
X100795Y-57662D01*
X100732Y-57600D01*
X100300Y-57600D01*
X100300Y-58057D01*
X100362Y-58120D01*
X100495Y-58120D01*
X100594Y-58119D01*
X100686Y-58081D01*
X100757Y-58011D01*
X100795Y-57919D01*
X100795Y-58330D01*
X100757Y-58238D01*
X100686Y-58168D01*
X100594Y-58130D01*
X100495Y-58129D01*
X100200Y-58129D01*
X100200Y-58057D01*
X100200Y-57600D01*
X100200Y-57500D01*
X100200Y-57042D01*
X100137Y-56980D01*
X100004Y-56979D01*
X99905Y-56980D01*
X99813Y-57018D01*
X99778Y-57053D01*
X99778Y-54884D01*
X99778Y-54615D01*
X99686Y-54423D01*
X99528Y-54281D01*
X99384Y-54221D01*
X99300Y-54270D01*
X99300Y-54700D01*
X99730Y-54700D01*
X99778Y-54615D01*
X99778Y-54884D01*
X99730Y-54800D01*
X99300Y-54800D01*
X99300Y-55229D01*
X99384Y-55278D01*
X99528Y-55218D01*
X99686Y-55076D01*
X99778Y-54884D01*
X99778Y-57053D01*
X99742Y-57088D01*
X99704Y-57180D01*
X99705Y-57437D01*
X99767Y-57500D01*
X100200Y-57500D01*
X100200Y-57600D01*
X99767Y-57600D01*
X99705Y-57662D01*
X99704Y-57919D01*
X99742Y-58011D01*
X99813Y-58081D01*
X99905Y-58119D01*
X100004Y-58120D01*
X100137Y-58120D01*
X100200Y-58057D01*
X100200Y-58129D01*
X99905Y-58129D01*
X99813Y-58167D01*
X99743Y-58238D01*
X99705Y-58330D01*
X99704Y-58429D01*
X99704Y-58458D01*
X99635Y-58353D01*
X99458Y-58235D01*
X99250Y-58194D01*
X99200Y-58204D01*
X99200Y-55229D01*
X99200Y-54800D01*
X99200Y-54700D01*
X99200Y-54270D01*
X99115Y-54221D01*
X98971Y-54281D01*
X98813Y-54423D01*
X98750Y-54556D01*
X98686Y-54423D01*
X98528Y-54281D01*
X98384Y-54221D01*
X98300Y-54270D01*
X98300Y-54700D01*
X98730Y-54700D01*
X98750Y-54665D01*
X98769Y-54700D01*
X99200Y-54700D01*
X99200Y-54800D01*
X98769Y-54800D01*
X98750Y-54834D01*
X98730Y-54800D01*
X98300Y-54800D01*
X98300Y-55229D01*
X98384Y-55278D01*
X98528Y-55218D01*
X98686Y-55076D01*
X98750Y-54943D01*
X98813Y-55076D01*
X98971Y-55218D01*
X99115Y-55278D01*
X99200Y-55229D01*
X99200Y-58204D01*
X99041Y-58235D01*
X98864Y-58353D01*
X98750Y-58525D01*
X98635Y-58353D01*
X98458Y-58235D01*
X98250Y-58194D01*
X98200Y-58204D01*
X98200Y-55229D01*
X98200Y-54800D01*
X98200Y-54700D01*
X98200Y-54270D01*
X98115Y-54221D01*
X97971Y-54281D01*
X97813Y-54423D01*
X97750Y-54556D01*
X97686Y-54423D01*
X97528Y-54281D01*
X97384Y-54221D01*
X97300Y-54270D01*
X97300Y-54700D01*
X97730Y-54700D01*
X97750Y-54665D01*
X97769Y-54700D01*
X98200Y-54700D01*
X98200Y-54800D01*
X97769Y-54800D01*
X97750Y-54834D01*
X97730Y-54800D01*
X97300Y-54800D01*
X97300Y-55229D01*
X97384Y-55278D01*
X97528Y-55218D01*
X97686Y-55076D01*
X97750Y-54943D01*
X97813Y-55076D01*
X97971Y-55218D01*
X98115Y-55278D01*
X98200Y-55229D01*
X98200Y-58204D01*
X98041Y-58235D01*
X97864Y-58353D01*
X97750Y-58525D01*
X97635Y-58353D01*
X97458Y-58235D01*
X97250Y-58194D01*
X97200Y-58204D01*
X97200Y-55229D01*
X97200Y-54800D01*
X97192Y-54800D01*
X97192Y-54700D01*
X97200Y-54700D01*
X97200Y-54270D01*
X97115Y-54221D01*
X96971Y-54281D01*
X96813Y-54423D01*
X96756Y-54543D01*
X96753Y-54530D01*
X96635Y-54353D01*
X96458Y-54235D01*
X96250Y-54194D01*
X96041Y-54235D01*
X95864Y-54353D01*
X95746Y-54530D01*
X95705Y-54739D01*
X95705Y-54760D01*
X95746Y-54969D01*
X95864Y-55146D01*
X96041Y-55264D01*
X96250Y-55305D01*
X96458Y-55264D01*
X96635Y-55146D01*
X96753Y-54969D01*
X96756Y-54956D01*
X96813Y-55076D01*
X96971Y-55218D01*
X97115Y-55278D01*
X97200Y-55229D01*
X97200Y-58204D01*
X97041Y-58235D01*
X96864Y-58353D01*
X96750Y-58525D01*
X96635Y-58353D01*
X96458Y-58235D01*
X96250Y-58194D01*
X96041Y-58235D01*
X95864Y-58353D01*
X95795Y-58458D01*
X95795Y-58220D01*
X95795Y-57580D01*
X95795Y-57169D01*
X95795Y-56430D01*
X95757Y-56338D01*
X95686Y-56268D01*
X95594Y-56230D01*
X95495Y-56229D01*
X95362Y-56230D01*
X95300Y-56292D01*
X95300Y-56750D01*
X95732Y-56750D01*
X95795Y-56687D01*
X95795Y-56430D01*
X95795Y-57169D01*
X95795Y-56912D01*
X95732Y-56850D01*
X95300Y-56850D01*
X95300Y-57307D01*
X95362Y-57370D01*
X95495Y-57370D01*
X95594Y-57369D01*
X95686Y-57331D01*
X95757Y-57261D01*
X95795Y-57169D01*
X95795Y-57580D01*
X95757Y-57488D01*
X95686Y-57418D01*
X95594Y-57380D01*
X95495Y-57379D01*
X95200Y-57379D01*
X95200Y-57307D01*
X95200Y-56850D01*
X95200Y-56750D01*
X95200Y-56292D01*
X95137Y-56230D01*
X95004Y-56229D01*
X94905Y-56230D01*
X94813Y-56268D01*
X94742Y-56338D01*
X94704Y-56430D01*
X94705Y-56687D01*
X94767Y-56750D01*
X95200Y-56750D01*
X95200Y-56850D01*
X94767Y-56850D01*
X94705Y-56912D01*
X94704Y-57169D01*
X94742Y-57261D01*
X94813Y-57331D01*
X94905Y-57369D01*
X95004Y-57370D01*
X95137Y-57370D01*
X95200Y-57307D01*
X95200Y-57379D01*
X94905Y-57379D01*
X94813Y-57417D01*
X94743Y-57488D01*
X94705Y-57580D01*
X94704Y-57679D01*
X94704Y-58319D01*
X94742Y-58411D01*
X94813Y-58481D01*
X94905Y-58519D01*
X95004Y-58520D01*
X95594Y-58520D01*
X95686Y-58482D01*
X95756Y-58411D01*
X95794Y-58319D01*
X95795Y-58220D01*
X95795Y-58458D01*
X95746Y-58530D01*
X95705Y-58739D01*
X95705Y-58760D01*
X95746Y-58969D01*
X95864Y-59146D01*
X96041Y-59264D01*
X96250Y-59305D01*
X96458Y-59264D01*
X96635Y-59146D01*
X96750Y-58974D01*
X96864Y-59146D01*
X97018Y-59248D01*
X96864Y-59351D01*
X96746Y-59527D01*
X96705Y-59736D01*
X96705Y-60058D01*
X96746Y-60267D01*
X96864Y-60443D01*
X97041Y-60562D01*
X97250Y-60603D01*
X97458Y-60562D01*
X97635Y-60443D01*
X97750Y-60272D01*
X97864Y-60443D01*
X98041Y-60562D01*
X98250Y-60603D01*
X98458Y-60562D01*
X98635Y-60443D01*
X98750Y-60272D01*
X98864Y-60443D01*
X99041Y-60562D01*
X99250Y-60603D01*
X99458Y-60562D01*
X99635Y-60443D01*
X99750Y-60272D01*
X99864Y-60443D01*
X100041Y-60562D01*
X100250Y-60603D01*
X100458Y-60562D01*
X100635Y-60443D01*
X100750Y-60272D01*
X100864Y-60443D01*
X101041Y-60562D01*
X101250Y-60603D01*
X101458Y-60562D01*
X101635Y-60443D01*
X101750Y-60272D01*
X101864Y-60443D01*
X102041Y-60562D01*
X102250Y-60603D01*
X102458Y-60562D01*
X102635Y-60443D01*
X102750Y-60272D01*
X102864Y-60443D01*
X103041Y-60562D01*
X103250Y-60603D01*
X103458Y-60562D01*
X103635Y-60443D01*
X103753Y-60267D01*
X103795Y-60058D01*
X103795Y-59736D01*
X103753Y-59527D01*
X103635Y-59351D01*
X103481Y-59248D01*
X103635Y-59146D01*
X103750Y-58974D01*
X103864Y-59146D01*
X104041Y-59264D01*
X104250Y-59305D01*
X104458Y-59264D01*
X104635Y-59146D01*
X104753Y-58969D01*
X104795Y-58760D01*
X104795Y-59924D01*
X104628Y-59855D01*
X104372Y-59854D01*
X104135Y-59952D01*
X103953Y-60134D01*
X103855Y-60371D01*
X103854Y-60627D01*
X103952Y-60864D01*
X104134Y-61046D01*
X104371Y-61144D01*
X104627Y-61145D01*
X104864Y-61047D01*
X105046Y-60865D01*
X105144Y-60628D01*
X105145Y-60372D01*
X105145Y-61872D01*
X105047Y-61635D01*
X104865Y-61453D01*
X104628Y-61355D01*
X104372Y-61354D01*
X104135Y-61452D01*
X103953Y-61634D01*
X103855Y-61871D01*
X103854Y-62127D01*
X103952Y-62364D01*
X104134Y-62546D01*
X104371Y-62644D01*
X104627Y-62645D01*
X104864Y-62547D01*
X105046Y-62365D01*
X105144Y-62128D01*
X105145Y-61872D01*
X105145Y-63979D01*
X104905Y-63979D01*
X104813Y-64017D01*
X104795Y-64036D01*
X104795Y-63760D01*
X104795Y-63739D01*
X104753Y-63530D01*
X104635Y-63353D01*
X104458Y-63235D01*
X104250Y-63194D01*
X104041Y-63235D01*
X103864Y-63353D01*
X103750Y-63525D01*
X103635Y-63353D01*
X103481Y-63251D01*
X103635Y-63148D01*
X103753Y-62972D01*
X103795Y-62763D01*
X103795Y-62441D01*
X103753Y-62232D01*
X103635Y-62056D01*
X103458Y-61937D01*
X103250Y-61896D01*
X103041Y-61937D01*
X102864Y-62056D01*
X102749Y-62227D01*
X102635Y-62056D01*
X102458Y-61937D01*
X102250Y-61896D01*
X102041Y-61937D01*
X101864Y-62056D01*
X101749Y-62227D01*
X101635Y-62056D01*
X101458Y-61937D01*
X101250Y-61896D01*
X101041Y-61937D01*
X100864Y-62056D01*
X100749Y-62227D01*
X100635Y-62056D01*
X100458Y-61937D01*
X100250Y-61896D01*
X100041Y-61937D01*
X99864Y-62056D01*
X99749Y-62227D01*
X99635Y-62056D01*
X99458Y-61937D01*
X99250Y-61896D01*
X99041Y-61937D01*
X98864Y-62056D01*
X98749Y-62227D01*
X98635Y-62056D01*
X98458Y-61937D01*
X98250Y-61896D01*
X98041Y-61937D01*
X97864Y-62056D01*
X97795Y-62160D01*
X97795Y-62110D01*
X97757Y-62018D01*
X97686Y-61948D01*
X97594Y-61910D01*
X97495Y-61909D01*
X96905Y-61909D01*
X96813Y-61947D01*
X96743Y-62018D01*
X96705Y-62110D01*
X96704Y-62209D01*
X96704Y-63094D01*
X96742Y-63186D01*
X96813Y-63256D01*
X96905Y-63294D01*
X96952Y-63294D01*
X96864Y-63353D01*
X96750Y-63525D01*
X96645Y-63368D01*
X96645Y-61872D01*
X96645Y-60372D01*
X96547Y-60135D01*
X96365Y-59953D01*
X96128Y-59855D01*
X95872Y-59854D01*
X95635Y-59952D01*
X95453Y-60134D01*
X95355Y-60371D01*
X95354Y-60627D01*
X95452Y-60864D01*
X95634Y-61046D01*
X95871Y-61144D01*
X96127Y-61145D01*
X96364Y-61047D01*
X96546Y-60865D01*
X96644Y-60628D01*
X96645Y-60372D01*
X96645Y-61872D01*
X96547Y-61635D01*
X96365Y-61453D01*
X96128Y-61355D01*
X95872Y-61354D01*
X95635Y-61452D01*
X95453Y-61634D01*
X95355Y-61871D01*
X95354Y-62127D01*
X95452Y-62364D01*
X95634Y-62546D01*
X95871Y-62644D01*
X96127Y-62645D01*
X96364Y-62547D01*
X96546Y-62365D01*
X96644Y-62128D01*
X96645Y-61872D01*
X96645Y-63368D01*
X96635Y-63353D01*
X96458Y-63235D01*
X96250Y-63194D01*
X96041Y-63235D01*
X95864Y-63353D01*
X95746Y-63530D01*
X95705Y-63739D01*
X95705Y-63760D01*
X95746Y-63969D01*
X95864Y-64146D01*
X96041Y-64264D01*
X96250Y-64305D01*
X96458Y-64264D01*
X96635Y-64146D01*
X96750Y-63974D01*
X96864Y-64146D01*
X97041Y-64264D01*
X97250Y-64305D01*
X97458Y-64264D01*
X97635Y-64146D01*
X97750Y-63974D01*
X97864Y-64146D01*
X98041Y-64264D01*
X98250Y-64305D01*
X98458Y-64264D01*
X98635Y-64146D01*
X98750Y-63974D01*
X98864Y-64146D01*
X99041Y-64264D01*
X99250Y-64305D01*
X99458Y-64264D01*
X99635Y-64146D01*
X99704Y-64041D01*
X99704Y-64169D01*
X99742Y-64261D01*
X99813Y-64331D01*
X99905Y-64369D01*
X100004Y-64370D01*
X100594Y-64370D01*
X100686Y-64332D01*
X100756Y-64261D01*
X100794Y-64169D01*
X100795Y-64070D01*
X100795Y-64041D01*
X100864Y-64146D01*
X101041Y-64264D01*
X101250Y-64305D01*
X101458Y-64264D01*
X101635Y-64146D01*
X101750Y-63974D01*
X101864Y-64146D01*
X102041Y-64264D01*
X102250Y-64305D01*
X102458Y-64264D01*
X102635Y-64146D01*
X102750Y-63974D01*
X102864Y-64146D01*
X103041Y-64264D01*
X103250Y-64305D01*
X103458Y-64264D01*
X103635Y-64146D01*
X103750Y-63974D01*
X103864Y-64146D01*
X104041Y-64264D01*
X104250Y-64305D01*
X104458Y-64264D01*
X104635Y-64146D01*
X104753Y-63969D01*
X104795Y-63760D01*
X104795Y-64036D01*
X104743Y-64088D01*
X104705Y-64180D01*
X104704Y-64279D01*
X104704Y-64919D01*
X104742Y-65011D01*
X104813Y-65081D01*
X104905Y-65119D01*
X105004Y-65120D01*
X105594Y-65120D01*
X105686Y-65082D01*
X105756Y-65011D01*
X105794Y-64919D01*
X105795Y-64820D01*
X105795Y-65330D01*
X105757Y-65238D01*
X105686Y-65168D01*
X105594Y-65130D01*
X105495Y-65129D01*
X105362Y-65130D01*
X105300Y-65192D01*
X105300Y-65650D01*
X105732Y-65650D01*
X105795Y-65587D01*
X105795Y-65330D01*
X105795Y-66069D01*
X105795Y-65812D01*
X105732Y-65750D01*
X105300Y-65750D01*
X105300Y-66207D01*
X105362Y-66270D01*
X105495Y-66270D01*
X105594Y-66269D01*
X105686Y-66231D01*
X105757Y-66161D01*
X105795Y-66069D01*
X105795Y-68322D01*
X105785Y-68319D01*
X105216Y-68318D01*
X105200Y-68325D01*
X105200Y-66207D01*
X105200Y-65750D01*
X105200Y-65650D01*
X105200Y-65192D01*
X105137Y-65130D01*
X105004Y-65129D01*
X104905Y-65130D01*
X104813Y-65168D01*
X104742Y-65238D01*
X104704Y-65330D01*
X104705Y-65587D01*
X104767Y-65650D01*
X105200Y-65650D01*
X105200Y-65750D01*
X104767Y-65750D01*
X104705Y-65812D01*
X104704Y-66069D01*
X104742Y-66161D01*
X104813Y-66231D01*
X104905Y-66269D01*
X105004Y-66270D01*
X105137Y-66270D01*
X105200Y-66207D01*
X105200Y-68325D01*
X104795Y-68492D01*
X104795Y-67760D01*
X104795Y-67739D01*
X104753Y-67530D01*
X104635Y-67353D01*
X104458Y-67235D01*
X104250Y-67194D01*
X104041Y-67235D01*
X103864Y-67353D01*
X103746Y-67530D01*
X103743Y-67543D01*
X103686Y-67423D01*
X103528Y-67281D01*
X103384Y-67221D01*
X103300Y-67270D01*
X103300Y-67700D01*
X103307Y-67700D01*
X103307Y-67800D01*
X103300Y-67800D01*
X103300Y-68229D01*
X103384Y-68278D01*
X103528Y-68218D01*
X103686Y-68076D01*
X103743Y-67956D01*
X103746Y-67969D01*
X103864Y-68146D01*
X104041Y-68264D01*
X104250Y-68305D01*
X104458Y-68264D01*
X104635Y-68146D01*
X104753Y-67969D01*
X104795Y-67760D01*
X104795Y-68492D01*
X104690Y-68536D01*
X104287Y-68938D01*
X104069Y-69464D01*
X104068Y-70033D01*
X104286Y-70559D01*
X104426Y-70700D01*
X103200Y-70700D01*
X103200Y-68229D01*
X103200Y-67800D01*
X103200Y-67700D01*
X103200Y-67270D01*
X103115Y-67221D01*
X102971Y-67281D01*
X102813Y-67423D01*
X102750Y-67556D01*
X102686Y-67423D01*
X102528Y-67281D01*
X102384Y-67221D01*
X102300Y-67270D01*
X102300Y-67700D01*
X102730Y-67700D01*
X102750Y-67665D01*
X102769Y-67700D01*
X103200Y-67700D01*
X103200Y-67800D01*
X102769Y-67800D01*
X102750Y-67834D01*
X102730Y-67800D01*
X102300Y-67800D01*
X102300Y-68229D01*
X102384Y-68278D01*
X102528Y-68218D01*
X102686Y-68076D01*
X102750Y-67943D01*
X102813Y-68076D01*
X102971Y-68218D01*
X103115Y-68278D01*
X103200Y-68229D01*
X103200Y-70700D01*
X102200Y-70700D01*
X102200Y-68229D01*
X102200Y-67800D01*
X102200Y-67700D01*
X102200Y-67270D01*
X102115Y-67221D01*
X101971Y-67281D01*
X101813Y-67423D01*
X101750Y-67556D01*
X101686Y-67423D01*
X101528Y-67281D01*
X101384Y-67221D01*
X101300Y-67270D01*
X101300Y-67700D01*
X101730Y-67700D01*
X101750Y-67665D01*
X101769Y-67700D01*
X102200Y-67700D01*
X102200Y-67800D01*
X101769Y-67800D01*
X101750Y-67834D01*
X101730Y-67800D01*
X101300Y-67800D01*
X101300Y-68229D01*
X101384Y-68278D01*
X101528Y-68218D01*
X101686Y-68076D01*
X101750Y-67943D01*
X101813Y-68076D01*
X101971Y-68218D01*
X102115Y-68278D01*
X102200Y-68229D01*
X102200Y-70700D01*
X101200Y-70700D01*
X101200Y-68229D01*
X101200Y-67800D01*
X101200Y-67700D01*
X101200Y-67270D01*
X101115Y-67221D01*
X100971Y-67281D01*
X100813Y-67423D01*
X100795Y-67462D01*
X100795Y-65319D01*
X100795Y-64580D01*
X100757Y-64488D01*
X100686Y-64418D01*
X100594Y-64380D01*
X100495Y-64379D01*
X100362Y-64380D01*
X100300Y-64442D01*
X100300Y-64900D01*
X100732Y-64900D01*
X100795Y-64837D01*
X100795Y-64580D01*
X100795Y-65319D01*
X100795Y-65062D01*
X100732Y-65000D01*
X100300Y-65000D01*
X100300Y-65457D01*
X100362Y-65520D01*
X100495Y-65520D01*
X100594Y-65519D01*
X100686Y-65481D01*
X100757Y-65411D01*
X100795Y-65319D01*
X100795Y-67462D01*
X100721Y-67615D01*
X100769Y-67700D01*
X101200Y-67700D01*
X101200Y-67800D01*
X100769Y-67800D01*
X100721Y-67884D01*
X100813Y-68076D01*
X100971Y-68218D01*
X101115Y-68278D01*
X101200Y-68229D01*
X101200Y-70700D01*
X100200Y-70700D01*
X100200Y-65457D01*
X100200Y-65000D01*
X100200Y-64900D01*
X100200Y-64442D01*
X100137Y-64380D01*
X100004Y-64379D01*
X99905Y-64380D01*
X99813Y-64418D01*
X99742Y-64488D01*
X99704Y-64580D01*
X99705Y-64837D01*
X99767Y-64900D01*
X100200Y-64900D01*
X100200Y-65000D01*
X99767Y-65000D01*
X99705Y-65062D01*
X99704Y-65319D01*
X99742Y-65411D01*
X99813Y-65481D01*
X99905Y-65519D01*
X100004Y-65520D01*
X100137Y-65520D01*
X100200Y-65457D01*
X100200Y-70700D01*
X99778Y-70700D01*
X99778Y-67884D01*
X99778Y-67615D01*
X99686Y-67423D01*
X99528Y-67281D01*
X99384Y-67221D01*
X99300Y-67270D01*
X99300Y-67700D01*
X99730Y-67700D01*
X99778Y-67615D01*
X99778Y-67884D01*
X99730Y-67800D01*
X99300Y-67800D01*
X99300Y-68229D01*
X99384Y-68278D01*
X99528Y-68218D01*
X99686Y-68076D01*
X99778Y-67884D01*
X99778Y-70700D01*
X99200Y-70700D01*
X99200Y-68229D01*
X99200Y-67800D01*
X99200Y-67700D01*
X99200Y-67270D01*
X99115Y-67221D01*
X98971Y-67281D01*
X98813Y-67423D01*
X98750Y-67556D01*
X98686Y-67423D01*
X98528Y-67281D01*
X98384Y-67221D01*
X98300Y-67270D01*
X98300Y-67700D01*
X98730Y-67700D01*
X98750Y-67665D01*
X98769Y-67700D01*
X99200Y-67700D01*
X99200Y-67800D01*
X98769Y-67800D01*
X98750Y-67834D01*
X98730Y-67800D01*
X98300Y-67800D01*
X98300Y-68229D01*
X98384Y-68278D01*
X98528Y-68218D01*
X98686Y-68076D01*
X98750Y-67943D01*
X98813Y-68076D01*
X98971Y-68218D01*
X99115Y-68278D01*
X99200Y-68229D01*
X99200Y-70700D01*
X98200Y-70700D01*
X98200Y-68229D01*
X98200Y-67800D01*
X98200Y-67700D01*
X98200Y-67270D01*
X98115Y-67221D01*
X97971Y-67281D01*
X97813Y-67423D01*
X97750Y-67556D01*
X97686Y-67423D01*
X97528Y-67281D01*
X97384Y-67221D01*
X97300Y-67270D01*
X97300Y-67700D01*
X97730Y-67700D01*
X97750Y-67665D01*
X97769Y-67700D01*
X98200Y-67700D01*
X98200Y-67800D01*
X97769Y-67800D01*
X97750Y-67834D01*
X97730Y-67800D01*
X97300Y-67800D01*
X97300Y-68229D01*
X97384Y-68278D01*
X97528Y-68218D01*
X97686Y-68076D01*
X97750Y-67943D01*
X97813Y-68076D01*
X97971Y-68218D01*
X98115Y-68278D01*
X98200Y-68229D01*
X98200Y-70700D01*
X97200Y-70700D01*
X97200Y-68229D01*
X97200Y-67800D01*
X97192Y-67800D01*
X97192Y-67700D01*
X97200Y-67700D01*
X97200Y-67270D01*
X97115Y-67221D01*
X96971Y-67281D01*
X96813Y-67423D01*
X96756Y-67543D01*
X96753Y-67530D01*
X96635Y-67353D01*
X96458Y-67235D01*
X96250Y-67194D01*
X96041Y-67235D01*
X95864Y-67353D01*
X95795Y-67458D01*
X95795Y-67330D01*
X95795Y-66919D01*
X95795Y-66180D01*
X95757Y-66088D01*
X95686Y-66018D01*
X95594Y-65980D01*
X95495Y-65979D01*
X95362Y-65980D01*
X95300Y-66042D01*
X95300Y-66500D01*
X95732Y-66500D01*
X95795Y-66437D01*
X95795Y-66180D01*
X95795Y-66919D01*
X95795Y-66662D01*
X95732Y-66600D01*
X95300Y-66600D01*
X95300Y-67057D01*
X95362Y-67120D01*
X95495Y-67120D01*
X95594Y-67119D01*
X95686Y-67081D01*
X95757Y-67011D01*
X95795Y-66919D01*
X95795Y-67330D01*
X95757Y-67238D01*
X95686Y-67168D01*
X95594Y-67130D01*
X95495Y-67129D01*
X95200Y-67129D01*
X95200Y-67057D01*
X95200Y-66600D01*
X95200Y-66500D01*
X95200Y-66042D01*
X95137Y-65980D01*
X95004Y-65979D01*
X94905Y-65980D01*
X94813Y-66018D01*
X94795Y-66036D01*
X94795Y-65319D01*
X94795Y-64580D01*
X94795Y-64070D01*
X94795Y-63430D01*
X94757Y-63338D01*
X94686Y-63268D01*
X94594Y-63230D01*
X94495Y-63229D01*
X93905Y-63229D01*
X93813Y-63267D01*
X93743Y-63338D01*
X93705Y-63430D01*
X93705Y-63458D01*
X93635Y-63353D01*
X93477Y-63248D01*
X93646Y-63135D01*
X93764Y-62958D01*
X93805Y-62750D01*
X93805Y-59750D01*
X93764Y-59541D01*
X93646Y-59364D01*
X93477Y-59251D01*
X93635Y-59146D01*
X93753Y-58969D01*
X93795Y-58760D01*
X93795Y-58739D01*
X93778Y-58654D01*
X93778Y-54884D01*
X93778Y-54615D01*
X93686Y-54423D01*
X93528Y-54281D01*
X93384Y-54221D01*
X93300Y-54270D01*
X93300Y-54700D01*
X93730Y-54700D01*
X93778Y-54615D01*
X93778Y-54884D01*
X93730Y-54800D01*
X93300Y-54800D01*
X93300Y-55229D01*
X93384Y-55278D01*
X93528Y-55218D01*
X93686Y-55076D01*
X93778Y-54884D01*
X93778Y-58654D01*
X93753Y-58530D01*
X93635Y-58353D01*
X93458Y-58235D01*
X93250Y-58194D01*
X93200Y-58204D01*
X93200Y-55229D01*
X93200Y-54800D01*
X93200Y-54700D01*
X93200Y-54270D01*
X93115Y-54221D01*
X92971Y-54281D01*
X92813Y-54423D01*
X92750Y-54556D01*
X92686Y-54423D01*
X92528Y-54281D01*
X92384Y-54221D01*
X92300Y-54270D01*
X92300Y-54700D01*
X92730Y-54700D01*
X92750Y-54665D01*
X92769Y-54700D01*
X93200Y-54700D01*
X93200Y-54800D01*
X92769Y-54800D01*
X92750Y-54834D01*
X92730Y-54800D01*
X92300Y-54800D01*
X92300Y-55229D01*
X92384Y-55278D01*
X92528Y-55218D01*
X92686Y-55076D01*
X92750Y-54943D01*
X92813Y-55076D01*
X92971Y-55218D01*
X93115Y-55278D01*
X93200Y-55229D01*
X93200Y-58204D01*
X93041Y-58235D01*
X92864Y-58353D01*
X92750Y-58525D01*
X92635Y-58353D01*
X92458Y-58235D01*
X92250Y-58194D01*
X92200Y-58204D01*
X92200Y-55229D01*
X92200Y-54800D01*
X92200Y-54700D01*
X92200Y-54270D01*
X92115Y-54221D01*
X91971Y-54281D01*
X91813Y-54423D01*
X91750Y-54556D01*
X91686Y-54423D01*
X91528Y-54281D01*
X91384Y-54221D01*
X91300Y-54270D01*
X91300Y-54700D01*
X91730Y-54700D01*
X91750Y-54665D01*
X91769Y-54700D01*
X92200Y-54700D01*
X92200Y-54800D01*
X91769Y-54800D01*
X91750Y-54834D01*
X91730Y-54800D01*
X91300Y-54800D01*
X91300Y-55229D01*
X91384Y-55278D01*
X91528Y-55218D01*
X91686Y-55076D01*
X91750Y-54943D01*
X91813Y-55076D01*
X91971Y-55218D01*
X92115Y-55278D01*
X92200Y-55229D01*
X92200Y-58204D01*
X92041Y-58235D01*
X91864Y-58353D01*
X91750Y-58525D01*
X91635Y-58353D01*
X91458Y-58235D01*
X91250Y-58194D01*
X91200Y-58204D01*
X91200Y-55229D01*
X91200Y-54800D01*
X91192Y-54800D01*
X91192Y-54700D01*
X91200Y-54700D01*
X91200Y-54270D01*
X91115Y-54221D01*
X90971Y-54281D01*
X90813Y-54423D01*
X90756Y-54543D01*
X90753Y-54530D01*
X90635Y-54353D01*
X90458Y-54235D01*
X90250Y-54194D01*
X90041Y-54235D01*
X89864Y-54353D01*
X89746Y-54530D01*
X89705Y-54739D01*
X89705Y-54760D01*
X89711Y-54792D01*
X89686Y-54768D01*
X89594Y-54730D01*
X89495Y-54729D01*
X89362Y-54730D01*
X89300Y-54792D01*
X89300Y-55250D01*
X89732Y-55250D01*
X89795Y-55187D01*
X89795Y-55041D01*
X89864Y-55146D01*
X90041Y-55264D01*
X90250Y-55305D01*
X90458Y-55264D01*
X90635Y-55146D01*
X90753Y-54969D01*
X90756Y-54956D01*
X90813Y-55076D01*
X90971Y-55218D01*
X91115Y-55278D01*
X91200Y-55229D01*
X91200Y-58204D01*
X91041Y-58235D01*
X90864Y-58353D01*
X90750Y-58525D01*
X90635Y-58353D01*
X90458Y-58235D01*
X90250Y-58194D01*
X90041Y-58235D01*
X89864Y-58353D01*
X89795Y-58458D01*
X89795Y-58330D01*
X89795Y-57919D01*
X89795Y-57180D01*
X89757Y-57088D01*
X89686Y-57018D01*
X89643Y-57000D01*
X89686Y-56982D01*
X89756Y-56911D01*
X89794Y-56819D01*
X89795Y-56720D01*
X89795Y-56080D01*
X89795Y-55669D01*
X89795Y-55412D01*
X89732Y-55350D01*
X89300Y-55350D01*
X89300Y-55807D01*
X89362Y-55870D01*
X89495Y-55870D01*
X89594Y-55869D01*
X89686Y-55831D01*
X89757Y-55761D01*
X89795Y-55669D01*
X89795Y-56080D01*
X89757Y-55988D01*
X89686Y-55918D01*
X89594Y-55880D01*
X89495Y-55879D01*
X89200Y-55879D01*
X89200Y-55807D01*
X89200Y-55350D01*
X89200Y-55250D01*
X89200Y-54792D01*
X89137Y-54730D01*
X89004Y-54729D01*
X88905Y-54730D01*
X88813Y-54768D01*
X88742Y-54838D01*
X88704Y-54930D01*
X88705Y-55187D01*
X88767Y-55250D01*
X89200Y-55250D01*
X89200Y-55350D01*
X88767Y-55350D01*
X88705Y-55412D01*
X88704Y-55669D01*
X88742Y-55761D01*
X88813Y-55831D01*
X88905Y-55869D01*
X89004Y-55870D01*
X89137Y-55870D01*
X89200Y-55807D01*
X89200Y-55879D01*
X88905Y-55879D01*
X88813Y-55917D01*
X88743Y-55988D01*
X88705Y-56080D01*
X88704Y-56179D01*
X88704Y-56819D01*
X88742Y-56911D01*
X88813Y-56981D01*
X88856Y-57000D01*
X88813Y-57018D01*
X88742Y-57088D01*
X88704Y-57180D01*
X88705Y-57437D01*
X88767Y-57500D01*
X89200Y-57500D01*
X89200Y-57492D01*
X89300Y-57492D01*
X89300Y-57500D01*
X89732Y-57500D01*
X89795Y-57437D01*
X89795Y-57180D01*
X89795Y-57919D01*
X89795Y-57662D01*
X89732Y-57600D01*
X89300Y-57600D01*
X89300Y-58057D01*
X89362Y-58120D01*
X89495Y-58120D01*
X89594Y-58119D01*
X89686Y-58081D01*
X89757Y-58011D01*
X89795Y-57919D01*
X89795Y-58330D01*
X89757Y-58238D01*
X89686Y-58168D01*
X89594Y-58130D01*
X89495Y-58129D01*
X89200Y-58129D01*
X89200Y-58057D01*
X89200Y-57600D01*
X88767Y-57600D01*
X88705Y-57662D01*
X88704Y-57919D01*
X88742Y-58011D01*
X88813Y-58081D01*
X88905Y-58119D01*
X89004Y-58120D01*
X89137Y-58120D01*
X89200Y-58057D01*
X89200Y-58129D01*
X88905Y-58129D01*
X88813Y-58167D01*
X88743Y-58238D01*
X88705Y-58330D01*
X88704Y-58429D01*
X88704Y-59069D01*
X88742Y-59161D01*
X88813Y-59231D01*
X88905Y-59269D01*
X89004Y-59270D01*
X89594Y-59270D01*
X89686Y-59232D01*
X89756Y-59161D01*
X89794Y-59069D01*
X89794Y-59041D01*
X89864Y-59146D01*
X90022Y-59251D01*
X89853Y-59364D01*
X89735Y-59541D01*
X89694Y-59750D01*
X89735Y-59958D01*
X89853Y-60135D01*
X90030Y-60253D01*
X90239Y-60295D01*
X90260Y-60295D01*
X90469Y-60253D01*
X90646Y-60135D01*
X90750Y-59979D01*
X90853Y-60135D01*
X91030Y-60253D01*
X91239Y-60295D01*
X91260Y-60295D01*
X91469Y-60253D01*
X91646Y-60135D01*
X91750Y-59979D01*
X91853Y-60135D01*
X92030Y-60253D01*
X92239Y-60295D01*
X92260Y-60295D01*
X92469Y-60253D01*
X92646Y-60135D01*
X92750Y-59979D01*
X92853Y-60135D01*
X93030Y-60253D01*
X93239Y-60295D01*
X93260Y-60295D01*
X93469Y-60253D01*
X93646Y-60135D01*
X93764Y-59958D01*
X93805Y-59750D01*
X93805Y-62750D01*
X93764Y-62541D01*
X93646Y-62364D01*
X93469Y-62246D01*
X93260Y-62205D01*
X93239Y-62205D01*
X93030Y-62246D01*
X92853Y-62364D01*
X92750Y-62520D01*
X92646Y-62364D01*
X92469Y-62246D01*
X92260Y-62205D01*
X92239Y-62205D01*
X92030Y-62246D01*
X91853Y-62364D01*
X91750Y-62520D01*
X91646Y-62364D01*
X91469Y-62246D01*
X91260Y-62205D01*
X91239Y-62205D01*
X91030Y-62246D01*
X90853Y-62364D01*
X90795Y-62452D01*
X90795Y-62405D01*
X90757Y-62313D01*
X90686Y-62243D01*
X90594Y-62205D01*
X90495Y-62204D01*
X89905Y-62204D01*
X89813Y-62242D01*
X89743Y-62313D01*
X89705Y-62405D01*
X89704Y-62504D01*
X89704Y-63094D01*
X89742Y-63186D01*
X89813Y-63256D01*
X89905Y-63294D01*
X89952Y-63294D01*
X89864Y-63353D01*
X89746Y-63530D01*
X89705Y-63739D01*
X89705Y-63760D01*
X89746Y-63969D01*
X89864Y-64146D01*
X90041Y-64264D01*
X90250Y-64305D01*
X90458Y-64264D01*
X90635Y-64146D01*
X90750Y-63974D01*
X90864Y-64146D01*
X91041Y-64264D01*
X91250Y-64305D01*
X91458Y-64264D01*
X91635Y-64146D01*
X91750Y-63974D01*
X91864Y-64146D01*
X92041Y-64264D01*
X92250Y-64305D01*
X92458Y-64264D01*
X92635Y-64146D01*
X92750Y-63974D01*
X92864Y-64146D01*
X93041Y-64264D01*
X93250Y-64305D01*
X93458Y-64264D01*
X93635Y-64146D01*
X93704Y-64041D01*
X93704Y-64169D01*
X93742Y-64261D01*
X93813Y-64331D01*
X93905Y-64369D01*
X94004Y-64370D01*
X94594Y-64370D01*
X94686Y-64332D01*
X94756Y-64261D01*
X94794Y-64169D01*
X94795Y-64070D01*
X94795Y-64580D01*
X94757Y-64488D01*
X94686Y-64418D01*
X94594Y-64380D01*
X94495Y-64379D01*
X94362Y-64380D01*
X94300Y-64442D01*
X94300Y-64900D01*
X94732Y-64900D01*
X94795Y-64837D01*
X94795Y-64580D01*
X94795Y-65319D01*
X94795Y-65062D01*
X94732Y-65000D01*
X94300Y-65000D01*
X94300Y-65457D01*
X94362Y-65520D01*
X94495Y-65520D01*
X94594Y-65519D01*
X94686Y-65481D01*
X94757Y-65411D01*
X94795Y-65319D01*
X94795Y-66036D01*
X94742Y-66088D01*
X94704Y-66180D01*
X94705Y-66437D01*
X94767Y-66500D01*
X95200Y-66500D01*
X95200Y-66600D01*
X94767Y-66600D01*
X94705Y-66662D01*
X94704Y-66919D01*
X94742Y-67011D01*
X94813Y-67081D01*
X94905Y-67119D01*
X95004Y-67120D01*
X95137Y-67120D01*
X95200Y-67057D01*
X95200Y-67129D01*
X94905Y-67129D01*
X94813Y-67167D01*
X94743Y-67238D01*
X94705Y-67330D01*
X94704Y-67429D01*
X94704Y-68069D01*
X94742Y-68161D01*
X94813Y-68231D01*
X94905Y-68269D01*
X95004Y-68270D01*
X95594Y-68270D01*
X95686Y-68232D01*
X95756Y-68161D01*
X95794Y-68069D01*
X95794Y-68041D01*
X95864Y-68146D01*
X96041Y-68264D01*
X96250Y-68305D01*
X96458Y-68264D01*
X96635Y-68146D01*
X96753Y-67969D01*
X96756Y-67956D01*
X96813Y-68076D01*
X96971Y-68218D01*
X97115Y-68278D01*
X97200Y-68229D01*
X97200Y-70700D01*
X94200Y-70700D01*
X94200Y-65457D01*
X94200Y-65000D01*
X94200Y-64900D01*
X94200Y-64442D01*
X94137Y-64380D01*
X94004Y-64379D01*
X93905Y-64380D01*
X93813Y-64418D01*
X93742Y-64488D01*
X93704Y-64580D01*
X93705Y-64837D01*
X93767Y-64900D01*
X94200Y-64900D01*
X94200Y-65000D01*
X93767Y-65000D01*
X93705Y-65062D01*
X93704Y-65319D01*
X93742Y-65411D01*
X93813Y-65481D01*
X93905Y-65519D01*
X94004Y-65520D01*
X94137Y-65520D01*
X94200Y-65457D01*
X94200Y-70700D01*
X93778Y-70700D01*
X93778Y-67884D01*
X93778Y-67615D01*
X93686Y-67423D01*
X93528Y-67281D01*
X93384Y-67221D01*
X93300Y-67270D01*
X93300Y-67700D01*
X93730Y-67700D01*
X93778Y-67615D01*
X93778Y-67884D01*
X93730Y-67800D01*
X93300Y-67800D01*
X93300Y-68229D01*
X93384Y-68278D01*
X93528Y-68218D01*
X93686Y-68076D01*
X93778Y-67884D01*
X93778Y-70700D01*
X93200Y-70700D01*
X93200Y-68229D01*
X93200Y-67800D01*
X93200Y-67700D01*
X93200Y-67270D01*
X93115Y-67221D01*
X92971Y-67281D01*
X92813Y-67423D01*
X92750Y-67556D01*
X92686Y-67423D01*
X92528Y-67281D01*
X92384Y-67221D01*
X92300Y-67270D01*
X92300Y-67700D01*
X92730Y-67700D01*
X92750Y-67665D01*
X92769Y-67700D01*
X93200Y-67700D01*
X93200Y-67800D01*
X92769Y-67800D01*
X92750Y-67834D01*
X92730Y-67800D01*
X92300Y-67800D01*
X92300Y-68229D01*
X92384Y-68278D01*
X92528Y-68218D01*
X92686Y-68076D01*
X92750Y-67943D01*
X92813Y-68076D01*
X92971Y-68218D01*
X93115Y-68278D01*
X93200Y-68229D01*
X93200Y-70700D01*
X92200Y-70700D01*
X92200Y-68229D01*
X92200Y-67800D01*
X92200Y-67700D01*
X92200Y-67270D01*
X92115Y-67221D01*
X91971Y-67281D01*
X91813Y-67423D01*
X91750Y-67556D01*
X91686Y-67423D01*
X91528Y-67281D01*
X91384Y-67221D01*
X91300Y-67270D01*
X91300Y-67700D01*
X91730Y-67700D01*
X91750Y-67665D01*
X91769Y-67700D01*
X92200Y-67700D01*
X92200Y-67800D01*
X91769Y-67800D01*
X91750Y-67834D01*
X91730Y-67800D01*
X91300Y-67800D01*
X91300Y-68229D01*
X91384Y-68278D01*
X91528Y-68218D01*
X91686Y-68076D01*
X91750Y-67943D01*
X91813Y-68076D01*
X91971Y-68218D01*
X92115Y-68278D01*
X92200Y-68229D01*
X92200Y-70700D01*
X91200Y-70700D01*
X91200Y-68229D01*
X91200Y-67800D01*
X91192Y-67800D01*
X91192Y-67700D01*
X91200Y-67700D01*
X91200Y-67270D01*
X91115Y-67221D01*
X90971Y-67281D01*
X90813Y-67423D01*
X90756Y-67543D01*
X90753Y-67530D01*
X90635Y-67353D01*
X90458Y-67235D01*
X90250Y-67194D01*
X90041Y-67235D01*
X89864Y-67353D01*
X89795Y-67458D01*
X89795Y-66069D01*
X89795Y-65330D01*
X89795Y-64820D01*
X89795Y-64180D01*
X89757Y-64088D01*
X89686Y-64018D01*
X89645Y-64000D01*
X89645Y-61872D01*
X89645Y-60372D01*
X89547Y-60135D01*
X89365Y-59953D01*
X89128Y-59855D01*
X88872Y-59854D01*
X88635Y-59952D01*
X88453Y-60134D01*
X88355Y-60371D01*
X88354Y-60627D01*
X88452Y-60864D01*
X88634Y-61046D01*
X88871Y-61144D01*
X89127Y-61145D01*
X89364Y-61047D01*
X89546Y-60865D01*
X89644Y-60628D01*
X89645Y-60372D01*
X89645Y-61872D01*
X89547Y-61635D01*
X89365Y-61453D01*
X89128Y-61355D01*
X88872Y-61354D01*
X88635Y-61452D01*
X88453Y-61634D01*
X88355Y-61871D01*
X88354Y-62127D01*
X88452Y-62364D01*
X88634Y-62546D01*
X88871Y-62644D01*
X89127Y-62645D01*
X89364Y-62547D01*
X89546Y-62365D01*
X89644Y-62128D01*
X89645Y-61872D01*
X89645Y-64000D01*
X89594Y-63980D01*
X89495Y-63979D01*
X88905Y-63979D01*
X88813Y-64017D01*
X88743Y-64088D01*
X88705Y-64180D01*
X88704Y-64279D01*
X88704Y-64919D01*
X88742Y-65011D01*
X88813Y-65081D01*
X88905Y-65119D01*
X89004Y-65120D01*
X89594Y-65120D01*
X89686Y-65082D01*
X89756Y-65011D01*
X89794Y-64919D01*
X89795Y-64820D01*
X89795Y-65330D01*
X89757Y-65238D01*
X89686Y-65168D01*
X89594Y-65130D01*
X89495Y-65129D01*
X89362Y-65130D01*
X89300Y-65192D01*
X89300Y-65650D01*
X89732Y-65650D01*
X89795Y-65587D01*
X89795Y-65330D01*
X89795Y-66069D01*
X89795Y-65812D01*
X89732Y-65750D01*
X89300Y-65750D01*
X89300Y-66207D01*
X89362Y-66270D01*
X89495Y-66270D01*
X89594Y-66269D01*
X89686Y-66231D01*
X89757Y-66161D01*
X89795Y-66069D01*
X89795Y-67458D01*
X89746Y-67530D01*
X89705Y-67739D01*
X89705Y-67760D01*
X89746Y-67969D01*
X89864Y-68146D01*
X90041Y-68264D01*
X90250Y-68305D01*
X90458Y-68264D01*
X90635Y-68146D01*
X90753Y-67969D01*
X90756Y-67956D01*
X90813Y-68076D01*
X90971Y-68218D01*
X91115Y-68278D01*
X91200Y-68229D01*
X91200Y-70700D01*
X89200Y-70700D01*
X89200Y-66207D01*
X89200Y-65750D01*
X89200Y-65650D01*
X89200Y-65192D01*
X89137Y-65130D01*
X89004Y-65129D01*
X88905Y-65130D01*
X88813Y-65168D01*
X88742Y-65238D01*
X88704Y-65330D01*
X88705Y-65587D01*
X88767Y-65650D01*
X89200Y-65650D01*
X89200Y-65750D01*
X88767Y-65750D01*
X88705Y-65812D01*
X88704Y-66069D01*
X88742Y-66161D01*
X88813Y-66231D01*
X88905Y-66269D01*
X89004Y-66270D01*
X89137Y-66270D01*
X89200Y-66207D01*
X89200Y-70700D01*
X87895Y-70700D01*
X87895Y-63122D01*
X87797Y-62885D01*
X87615Y-62703D01*
X87378Y-62605D01*
X87122Y-62604D01*
X87055Y-62632D01*
X87055Y-58250D01*
X87014Y-58041D01*
X86896Y-57864D01*
X86724Y-57750D01*
X86896Y-57635D01*
X87014Y-57458D01*
X87055Y-57250D01*
X87014Y-57041D01*
X86896Y-56864D01*
X86724Y-56750D01*
X86896Y-56635D01*
X87014Y-56458D01*
X87055Y-56250D01*
X87014Y-56041D01*
X86896Y-55864D01*
X86719Y-55746D01*
X86645Y-55731D01*
X86645Y-52622D01*
X86547Y-52385D01*
X86365Y-52203D01*
X86128Y-52105D01*
X85872Y-52104D01*
X85635Y-52202D01*
X85453Y-52384D01*
X85355Y-52621D01*
X85354Y-52877D01*
X85452Y-53114D01*
X85634Y-53296D01*
X85871Y-53394D01*
X86127Y-53395D01*
X86364Y-53297D01*
X86546Y-53115D01*
X86644Y-52878D01*
X86645Y-52622D01*
X86645Y-55731D01*
X86510Y-55705D01*
X86489Y-55705D01*
X86280Y-55746D01*
X86103Y-55864D01*
X86045Y-55952D01*
X86045Y-54808D01*
X86045Y-54486D01*
X86003Y-54277D01*
X85885Y-54101D01*
X85708Y-53982D01*
X85500Y-53941D01*
X85291Y-53982D01*
X85145Y-54080D01*
X85145Y-52622D01*
X85047Y-52385D01*
X84865Y-52203D01*
X84628Y-52105D01*
X84372Y-52104D01*
X84135Y-52202D01*
X83953Y-52384D01*
X83855Y-52621D01*
X83854Y-52877D01*
X83952Y-53114D01*
X84134Y-53296D01*
X84371Y-53394D01*
X84627Y-53395D01*
X84864Y-53297D01*
X85046Y-53115D01*
X85144Y-52878D01*
X85145Y-52622D01*
X85145Y-54080D01*
X85114Y-54101D01*
X85000Y-54272D01*
X84885Y-54101D01*
X84708Y-53982D01*
X84500Y-53941D01*
X84291Y-53982D01*
X84114Y-54101D01*
X84045Y-54205D01*
X84045Y-54155D01*
X84007Y-54063D01*
X83936Y-53993D01*
X83844Y-53955D01*
X83745Y-53954D01*
X83645Y-53954D01*
X83645Y-52622D01*
X83547Y-52385D01*
X83365Y-52203D01*
X83128Y-52105D01*
X82872Y-52104D01*
X82635Y-52202D01*
X82453Y-52384D01*
X82355Y-52621D01*
X82354Y-52877D01*
X82452Y-53114D01*
X82634Y-53296D01*
X82871Y-53394D01*
X83127Y-53395D01*
X83364Y-53297D01*
X83546Y-53115D01*
X83644Y-52878D01*
X83645Y-52622D01*
X83645Y-53954D01*
X83155Y-53954D01*
X83063Y-53992D01*
X82993Y-54063D01*
X82955Y-54155D01*
X82954Y-54254D01*
X82954Y-55139D01*
X82992Y-55231D01*
X83063Y-55301D01*
X83155Y-55339D01*
X83254Y-55340D01*
X83844Y-55340D01*
X83936Y-55302D01*
X84006Y-55231D01*
X84044Y-55139D01*
X84045Y-55089D01*
X84114Y-55193D01*
X84291Y-55312D01*
X84500Y-55353D01*
X84708Y-55312D01*
X84885Y-55193D01*
X85000Y-55022D01*
X85114Y-55193D01*
X85291Y-55312D01*
X85500Y-55353D01*
X85708Y-55312D01*
X85885Y-55193D01*
X86003Y-55017D01*
X86045Y-54808D01*
X86045Y-55952D01*
X85985Y-56041D01*
X85944Y-56250D01*
X85985Y-56458D01*
X86103Y-56635D01*
X86275Y-56750D01*
X86103Y-56864D01*
X85985Y-57041D01*
X85944Y-57250D01*
X85985Y-57458D01*
X86103Y-57635D01*
X86275Y-57750D01*
X86103Y-57864D01*
X85985Y-58041D01*
X85944Y-58250D01*
X85985Y-58458D01*
X86103Y-58635D01*
X86280Y-58753D01*
X86489Y-58795D01*
X86510Y-58795D01*
X86719Y-58753D01*
X86896Y-58635D01*
X87014Y-58458D01*
X87055Y-58250D01*
X87055Y-62632D01*
X86885Y-62702D01*
X86845Y-62742D01*
X86845Y-59795D01*
X86845Y-59105D01*
X86807Y-59013D01*
X86736Y-58943D01*
X86644Y-58905D01*
X86545Y-58904D01*
X85855Y-58904D01*
X85763Y-58942D01*
X85693Y-59013D01*
X85667Y-59075D01*
X85587Y-58995D01*
X85368Y-58905D01*
X85132Y-58904D01*
X84913Y-58995D01*
X84745Y-59162D01*
X84655Y-59381D01*
X84654Y-59617D01*
X84745Y-59836D01*
X84912Y-60004D01*
X85131Y-60094D01*
X85367Y-60095D01*
X85586Y-60004D01*
X85667Y-59924D01*
X85692Y-59986D01*
X85763Y-60056D01*
X85855Y-60094D01*
X85954Y-60095D01*
X86644Y-60095D01*
X86736Y-60057D01*
X86806Y-59986D01*
X86844Y-59894D01*
X86845Y-59795D01*
X86845Y-62742D01*
X86703Y-62884D01*
X86605Y-63121D01*
X86604Y-63377D01*
X86702Y-63614D01*
X86884Y-63796D01*
X87121Y-63894D01*
X87377Y-63895D01*
X87614Y-63797D01*
X87796Y-63615D01*
X87894Y-63378D01*
X87895Y-63122D01*
X87895Y-70700D01*
X87055Y-70700D01*
X87055Y-66750D01*
X87014Y-66541D01*
X86896Y-66364D01*
X86719Y-66246D01*
X86679Y-66238D01*
X86731Y-66186D01*
X86769Y-66094D01*
X86770Y-65995D01*
X86770Y-65405D01*
X86732Y-65313D01*
X86661Y-65243D01*
X86569Y-65205D01*
X86470Y-65204D01*
X86291Y-65204D01*
X86396Y-65135D01*
X86514Y-64958D01*
X86555Y-64750D01*
X86555Y-61750D01*
X86514Y-61541D01*
X86396Y-61364D01*
X86219Y-61246D01*
X86010Y-61205D01*
X85989Y-61205D01*
X85780Y-61246D01*
X85603Y-61364D01*
X85500Y-61520D01*
X85396Y-61364D01*
X85219Y-61246D01*
X85010Y-61205D01*
X84989Y-61205D01*
X84780Y-61246D01*
X84603Y-61364D01*
X84500Y-61520D01*
X84396Y-61364D01*
X84345Y-61330D01*
X84345Y-59795D01*
X84345Y-59105D01*
X84307Y-59013D01*
X84236Y-58943D01*
X84144Y-58905D01*
X84045Y-58904D01*
X83355Y-58904D01*
X83263Y-58942D01*
X83193Y-59013D01*
X83167Y-59075D01*
X83087Y-58995D01*
X83055Y-58982D01*
X83055Y-58250D01*
X83014Y-58041D01*
X82896Y-57864D01*
X82724Y-57750D01*
X82896Y-57635D01*
X83014Y-57458D01*
X83055Y-57250D01*
X83014Y-57041D01*
X82896Y-56864D01*
X82724Y-56750D01*
X82896Y-56635D01*
X83014Y-56458D01*
X83055Y-56250D01*
X83014Y-56041D01*
X82896Y-55864D01*
X82719Y-55746D01*
X82510Y-55705D01*
X82489Y-55705D01*
X82280Y-55746D01*
X82103Y-55864D01*
X81985Y-56041D01*
X81944Y-56250D01*
X81985Y-56458D01*
X82103Y-56635D01*
X82275Y-56750D01*
X82103Y-56864D01*
X81985Y-57041D01*
X81944Y-57250D01*
X81985Y-57458D01*
X82103Y-57635D01*
X82275Y-57750D01*
X82103Y-57864D01*
X81985Y-58041D01*
X81944Y-58250D01*
X81985Y-58458D01*
X82103Y-58635D01*
X82280Y-58753D01*
X82489Y-58795D01*
X82510Y-58795D01*
X82719Y-58753D01*
X82896Y-58635D01*
X83014Y-58458D01*
X83055Y-58250D01*
X83055Y-58982D01*
X82868Y-58905D01*
X82632Y-58904D01*
X82413Y-58995D01*
X82245Y-59162D01*
X82155Y-59381D01*
X82154Y-59617D01*
X82245Y-59836D01*
X82412Y-60004D01*
X82631Y-60094D01*
X82867Y-60095D01*
X83086Y-60004D01*
X83167Y-59924D01*
X83192Y-59986D01*
X83263Y-60056D01*
X83355Y-60094D01*
X83454Y-60095D01*
X84144Y-60095D01*
X84236Y-60057D01*
X84306Y-59986D01*
X84344Y-59894D01*
X84345Y-59795D01*
X84345Y-61330D01*
X84219Y-61246D01*
X84179Y-61238D01*
X84231Y-61186D01*
X84269Y-61094D01*
X84270Y-60995D01*
X84270Y-60504D01*
X84269Y-60405D01*
X84231Y-60313D01*
X84161Y-60242D01*
X84069Y-60204D01*
X83812Y-60205D01*
X83750Y-60267D01*
X83750Y-60700D01*
X84207Y-60700D01*
X84270Y-60637D01*
X84270Y-60504D01*
X84270Y-60995D01*
X84270Y-60862D01*
X84207Y-60800D01*
X83750Y-60800D01*
X83750Y-61232D01*
X83770Y-61253D01*
X83650Y-61333D01*
X83650Y-61232D01*
X83650Y-60800D01*
X83650Y-60700D01*
X83650Y-60267D01*
X83587Y-60205D01*
X83330Y-60204D01*
X83238Y-60242D01*
X83168Y-60313D01*
X83130Y-60405D01*
X83129Y-60504D01*
X83130Y-60637D01*
X83192Y-60700D01*
X83650Y-60700D01*
X83650Y-60800D01*
X83192Y-60800D01*
X83130Y-60862D01*
X83129Y-60995D01*
X83130Y-61094D01*
X83168Y-61186D01*
X83238Y-61257D01*
X83330Y-61295D01*
X83587Y-61295D01*
X83650Y-61232D01*
X83650Y-61333D01*
X83603Y-61364D01*
X83500Y-61520D01*
X83396Y-61364D01*
X83219Y-61246D01*
X83054Y-61213D01*
X83081Y-61186D01*
X83119Y-61094D01*
X83120Y-60995D01*
X83120Y-60405D01*
X83082Y-60313D01*
X83011Y-60243D01*
X82919Y-60205D01*
X82820Y-60204D01*
X82180Y-60204D01*
X82088Y-60242D01*
X82018Y-60313D01*
X81980Y-60405D01*
X81979Y-60504D01*
X81979Y-61094D01*
X82017Y-61186D01*
X82088Y-61256D01*
X82180Y-61294D01*
X82279Y-61295D01*
X82708Y-61295D01*
X82603Y-61364D01*
X82485Y-61541D01*
X82444Y-61750D01*
X82485Y-61958D01*
X82603Y-62135D01*
X82780Y-62253D01*
X82989Y-62295D01*
X83010Y-62295D01*
X83219Y-62253D01*
X83396Y-62135D01*
X83500Y-61979D01*
X83603Y-62135D01*
X83780Y-62253D01*
X83989Y-62295D01*
X84010Y-62295D01*
X84219Y-62253D01*
X84396Y-62135D01*
X84500Y-61979D01*
X84603Y-62135D01*
X84780Y-62253D01*
X84989Y-62295D01*
X85010Y-62295D01*
X85219Y-62253D01*
X85396Y-62135D01*
X85500Y-61979D01*
X85603Y-62135D01*
X85780Y-62253D01*
X85989Y-62295D01*
X86010Y-62295D01*
X86219Y-62253D01*
X86396Y-62135D01*
X86514Y-61958D01*
X86555Y-61750D01*
X86555Y-64750D01*
X86514Y-64541D01*
X86396Y-64364D01*
X86219Y-64246D01*
X86010Y-64205D01*
X85989Y-64205D01*
X85780Y-64246D01*
X85603Y-64364D01*
X85500Y-64520D01*
X85396Y-64364D01*
X85219Y-64246D01*
X85010Y-64205D01*
X84989Y-64205D01*
X84780Y-64246D01*
X84603Y-64364D01*
X84500Y-64520D01*
X84396Y-64364D01*
X84219Y-64246D01*
X84010Y-64205D01*
X83989Y-64205D01*
X83780Y-64246D01*
X83603Y-64364D01*
X83545Y-64452D01*
X83545Y-64405D01*
X83507Y-64313D01*
X83436Y-64243D01*
X83344Y-64205D01*
X83245Y-64204D01*
X82655Y-64204D01*
X82563Y-64242D01*
X82493Y-64313D01*
X82455Y-64405D01*
X82454Y-64504D01*
X82454Y-65094D01*
X82492Y-65186D01*
X82511Y-65204D01*
X82430Y-65204D01*
X82338Y-65242D01*
X82268Y-65313D01*
X82230Y-65405D01*
X82229Y-65504D01*
X82230Y-65637D01*
X82292Y-65700D01*
X82750Y-65700D01*
X82750Y-65692D01*
X82850Y-65692D01*
X82850Y-65700D01*
X83307Y-65700D01*
X83370Y-65637D01*
X83370Y-65504D01*
X83369Y-65405D01*
X83331Y-65313D01*
X83313Y-65295D01*
X83344Y-65295D01*
X83436Y-65257D01*
X83506Y-65186D01*
X83544Y-65094D01*
X83544Y-65047D01*
X83603Y-65135D01*
X83708Y-65204D01*
X83580Y-65204D01*
X83488Y-65242D01*
X83418Y-65313D01*
X83380Y-65405D01*
X83379Y-65504D01*
X83379Y-66094D01*
X83417Y-66186D01*
X83488Y-66256D01*
X83580Y-66294D01*
X83679Y-66295D01*
X84319Y-66295D01*
X84411Y-66257D01*
X84481Y-66186D01*
X84500Y-66143D01*
X84518Y-66186D01*
X84588Y-66257D01*
X84680Y-66295D01*
X84937Y-66295D01*
X85000Y-66232D01*
X85000Y-65800D01*
X84992Y-65800D01*
X84992Y-65700D01*
X85000Y-65700D01*
X85000Y-65692D01*
X85100Y-65692D01*
X85100Y-65700D01*
X85557Y-65700D01*
X85620Y-65637D01*
X85620Y-65504D01*
X85619Y-65405D01*
X85581Y-65313D01*
X85511Y-65242D01*
X85419Y-65204D01*
X85291Y-65204D01*
X85396Y-65135D01*
X85500Y-64979D01*
X85603Y-65135D01*
X85754Y-65236D01*
X85738Y-65242D01*
X85668Y-65313D01*
X85630Y-65405D01*
X85629Y-65504D01*
X85629Y-66094D01*
X85667Y-66186D01*
X85738Y-66256D01*
X85830Y-66294D01*
X85929Y-66295D01*
X86208Y-66295D01*
X86103Y-66364D01*
X85985Y-66541D01*
X85944Y-66750D01*
X85985Y-66958D01*
X86103Y-67135D01*
X86280Y-67253D01*
X86293Y-67256D01*
X86173Y-67313D01*
X86031Y-67471D01*
X85971Y-67615D01*
X86020Y-67700D01*
X86450Y-67700D01*
X86450Y-67692D01*
X86550Y-67692D01*
X86550Y-67700D01*
X86979Y-67700D01*
X87028Y-67615D01*
X86968Y-67471D01*
X86826Y-67313D01*
X86706Y-67256D01*
X86719Y-67253D01*
X86896Y-67135D01*
X87014Y-66958D01*
X87055Y-66750D01*
X87055Y-70700D01*
X87028Y-70700D01*
X87028Y-69884D01*
X87028Y-69615D01*
X86968Y-69471D01*
X86826Y-69313D01*
X86693Y-69250D01*
X86826Y-69186D01*
X86968Y-69028D01*
X87028Y-68884D01*
X87028Y-68615D01*
X86968Y-68471D01*
X86826Y-68313D01*
X86693Y-68250D01*
X86826Y-68186D01*
X86968Y-68028D01*
X87028Y-67884D01*
X86979Y-67800D01*
X86550Y-67800D01*
X86550Y-68230D01*
X86584Y-68250D01*
X86550Y-68269D01*
X86550Y-68700D01*
X86979Y-68700D01*
X87028Y-68615D01*
X87028Y-68884D01*
X86979Y-68800D01*
X86550Y-68800D01*
X86550Y-69230D01*
X86584Y-69250D01*
X86550Y-69269D01*
X86550Y-69700D01*
X86979Y-69700D01*
X87028Y-69615D01*
X87028Y-69884D01*
X86979Y-69800D01*
X86550Y-69800D01*
X86550Y-70230D01*
X86634Y-70278D01*
X86826Y-70186D01*
X86968Y-70028D01*
X87028Y-69884D01*
X87028Y-70700D01*
X86450Y-70700D01*
X86450Y-70230D01*
X86450Y-69800D01*
X86450Y-69700D01*
X86450Y-69269D01*
X86415Y-69250D01*
X86450Y-69230D01*
X86450Y-68800D01*
X86450Y-68700D01*
X86450Y-68269D01*
X86415Y-68250D01*
X86450Y-68230D01*
X86450Y-67800D01*
X86020Y-67800D01*
X85971Y-67884D01*
X86031Y-68028D01*
X86173Y-68186D01*
X86306Y-68250D01*
X86173Y-68313D01*
X86031Y-68471D01*
X85971Y-68615D01*
X86020Y-68700D01*
X86450Y-68700D01*
X86450Y-68800D01*
X86020Y-68800D01*
X85971Y-68884D01*
X86031Y-69028D01*
X86173Y-69186D01*
X86306Y-69250D01*
X86173Y-69313D01*
X86031Y-69471D01*
X85971Y-69615D01*
X86020Y-69700D01*
X86450Y-69700D01*
X86450Y-69800D01*
X86020Y-69800D01*
X85971Y-69884D01*
X86031Y-70028D01*
X86173Y-70186D01*
X86365Y-70278D01*
X86450Y-70230D01*
X86450Y-70700D01*
X85620Y-70700D01*
X85620Y-65995D01*
X85620Y-65862D01*
X85557Y-65800D01*
X85100Y-65800D01*
X85100Y-66232D01*
X85162Y-66295D01*
X85419Y-66295D01*
X85511Y-66257D01*
X85581Y-66186D01*
X85619Y-66094D01*
X85620Y-65995D01*
X85620Y-70700D01*
X83370Y-70700D01*
X83370Y-65995D01*
X83370Y-65862D01*
X83307Y-65800D01*
X82850Y-65800D01*
X82850Y-66232D01*
X82912Y-66295D01*
X83169Y-66295D01*
X83261Y-66257D01*
X83331Y-66186D01*
X83369Y-66094D01*
X83370Y-65995D01*
X83370Y-70700D01*
X83055Y-70700D01*
X83055Y-69750D01*
X83014Y-69541D01*
X82896Y-69364D01*
X82724Y-69250D01*
X82896Y-69135D01*
X83014Y-68958D01*
X83055Y-68750D01*
X83014Y-68541D01*
X82896Y-68364D01*
X82724Y-68250D01*
X82896Y-68135D01*
X83014Y-67958D01*
X83055Y-67750D01*
X83014Y-67541D01*
X82896Y-67364D01*
X82724Y-67250D01*
X82896Y-67135D01*
X83014Y-66958D01*
X83055Y-66750D01*
X83014Y-66541D01*
X82896Y-66364D01*
X82729Y-66253D01*
X82750Y-66232D01*
X82750Y-65800D01*
X82292Y-65800D01*
X82230Y-65862D01*
X82229Y-65995D01*
X82230Y-66094D01*
X82268Y-66186D01*
X82320Y-66238D01*
X82280Y-66246D01*
X82103Y-66364D01*
X81985Y-66541D01*
X81944Y-66750D01*
X81985Y-66958D01*
X82103Y-67135D01*
X82275Y-67250D01*
X82103Y-67364D01*
X81985Y-67541D01*
X81944Y-67750D01*
X81985Y-67958D01*
X82103Y-68135D01*
X82275Y-68250D01*
X82103Y-68364D01*
X81985Y-68541D01*
X81944Y-68750D01*
X81985Y-68958D01*
X82103Y-69135D01*
X82275Y-69250D01*
X82103Y-69364D01*
X81985Y-69541D01*
X81944Y-69750D01*
X81985Y-69958D01*
X82103Y-70135D01*
X82280Y-70253D01*
X82489Y-70295D01*
X82510Y-70295D01*
X82719Y-70253D01*
X82896Y-70135D01*
X83014Y-69958D01*
X83055Y-69750D01*
X83055Y-70700D01*
X81645Y-70700D01*
X81645Y-63122D01*
X81547Y-62885D01*
X81365Y-62703D01*
X81128Y-62605D01*
X80872Y-62604D01*
X80805Y-62632D01*
X80805Y-58250D01*
X80764Y-58041D01*
X80646Y-57864D01*
X80474Y-57750D01*
X80646Y-57635D01*
X80764Y-57458D01*
X80805Y-57250D01*
X80764Y-57041D01*
X80646Y-56864D01*
X80474Y-56750D01*
X80646Y-56635D01*
X80764Y-56458D01*
X80805Y-56250D01*
X80764Y-56041D01*
X80646Y-55864D01*
X80469Y-55746D01*
X80395Y-55731D01*
X80395Y-52622D01*
X80297Y-52385D01*
X80115Y-52203D01*
X79878Y-52105D01*
X79622Y-52104D01*
X79385Y-52202D01*
X79203Y-52384D01*
X79105Y-52621D01*
X79104Y-52877D01*
X79202Y-53114D01*
X79384Y-53296D01*
X79621Y-53394D01*
X79877Y-53395D01*
X80114Y-53297D01*
X80296Y-53115D01*
X80394Y-52878D01*
X80395Y-52622D01*
X80395Y-55731D01*
X80260Y-55705D01*
X80239Y-55705D01*
X80030Y-55746D01*
X79853Y-55864D01*
X79795Y-55952D01*
X79795Y-54808D01*
X79795Y-54486D01*
X79753Y-54277D01*
X79635Y-54101D01*
X79458Y-53982D01*
X79250Y-53941D01*
X79041Y-53982D01*
X78895Y-54080D01*
X78895Y-52622D01*
X78797Y-52385D01*
X78615Y-52203D01*
X78378Y-52105D01*
X78122Y-52104D01*
X77885Y-52202D01*
X77703Y-52384D01*
X77605Y-52621D01*
X77604Y-52877D01*
X77702Y-53114D01*
X77884Y-53296D01*
X78121Y-53394D01*
X78377Y-53395D01*
X78614Y-53297D01*
X78796Y-53115D01*
X78894Y-52878D01*
X78895Y-52622D01*
X78895Y-54080D01*
X78864Y-54101D01*
X78750Y-54272D01*
X78635Y-54101D01*
X78458Y-53982D01*
X78250Y-53941D01*
X78041Y-53982D01*
X77864Y-54101D01*
X77795Y-54205D01*
X77795Y-54155D01*
X77757Y-54063D01*
X77686Y-53993D01*
X77594Y-53955D01*
X77495Y-53954D01*
X77395Y-53954D01*
X77395Y-52622D01*
X77297Y-52385D01*
X77115Y-52203D01*
X76878Y-52105D01*
X76622Y-52104D01*
X76385Y-52202D01*
X76203Y-52384D01*
X76105Y-52621D01*
X76104Y-52877D01*
X76202Y-53114D01*
X76384Y-53296D01*
X76621Y-53394D01*
X76877Y-53395D01*
X77114Y-53297D01*
X77296Y-53115D01*
X77394Y-52878D01*
X77395Y-52622D01*
X77395Y-53954D01*
X76905Y-53954D01*
X76813Y-53992D01*
X76743Y-54063D01*
X76705Y-54155D01*
X76704Y-54254D01*
X76704Y-55139D01*
X76742Y-55231D01*
X76813Y-55301D01*
X76905Y-55339D01*
X77004Y-55340D01*
X77594Y-55340D01*
X77686Y-55302D01*
X77756Y-55231D01*
X77794Y-55139D01*
X77795Y-55089D01*
X77864Y-55193D01*
X78041Y-55312D01*
X78250Y-55353D01*
X78458Y-55312D01*
X78635Y-55193D01*
X78750Y-55022D01*
X78864Y-55193D01*
X79041Y-55312D01*
X79250Y-55353D01*
X79458Y-55312D01*
X79635Y-55193D01*
X79753Y-55017D01*
X79795Y-54808D01*
X79795Y-55952D01*
X79735Y-56041D01*
X79694Y-56250D01*
X79735Y-56458D01*
X79853Y-56635D01*
X80025Y-56750D01*
X79853Y-56864D01*
X79735Y-57041D01*
X79694Y-57250D01*
X79735Y-57458D01*
X79853Y-57635D01*
X80025Y-57750D01*
X79853Y-57864D01*
X79735Y-58041D01*
X79694Y-58250D01*
X79735Y-58458D01*
X79853Y-58635D01*
X80030Y-58753D01*
X80239Y-58795D01*
X80260Y-58795D01*
X80469Y-58753D01*
X80646Y-58635D01*
X80764Y-58458D01*
X80805Y-58250D01*
X80805Y-62632D01*
X80635Y-62702D01*
X80595Y-62742D01*
X80595Y-59382D01*
X80504Y-59163D01*
X80337Y-58995D01*
X80118Y-58905D01*
X79882Y-58904D01*
X79663Y-58995D01*
X79582Y-59075D01*
X79557Y-59013D01*
X79486Y-58943D01*
X79394Y-58905D01*
X79295Y-58904D01*
X78605Y-58904D01*
X78513Y-58942D01*
X78443Y-59013D01*
X78405Y-59105D01*
X78404Y-59204D01*
X78404Y-59894D01*
X78442Y-59986D01*
X78513Y-60056D01*
X78605Y-60094D01*
X78704Y-60095D01*
X79394Y-60095D01*
X79486Y-60057D01*
X79556Y-59986D01*
X79582Y-59924D01*
X79662Y-60004D01*
X79881Y-60094D01*
X80117Y-60095D01*
X80336Y-60004D01*
X80504Y-59837D01*
X80594Y-59618D01*
X80595Y-59382D01*
X80595Y-62742D01*
X80453Y-62884D01*
X80355Y-63121D01*
X80354Y-63377D01*
X80452Y-63614D01*
X80634Y-63796D01*
X80871Y-63894D01*
X81127Y-63895D01*
X81364Y-63797D01*
X81546Y-63615D01*
X81644Y-63378D01*
X81645Y-63122D01*
X81645Y-70700D01*
X80805Y-70700D01*
X80805Y-66750D01*
X80764Y-66541D01*
X80646Y-66364D01*
X80469Y-66246D01*
X80429Y-66238D01*
X80481Y-66186D01*
X80519Y-66094D01*
X80520Y-65995D01*
X80520Y-65405D01*
X80482Y-65313D01*
X80411Y-65243D01*
X80319Y-65205D01*
X80220Y-65204D01*
X80041Y-65204D01*
X80146Y-65135D01*
X80264Y-64958D01*
X80305Y-64750D01*
X80305Y-61750D01*
X80264Y-61541D01*
X80146Y-61364D01*
X79969Y-61246D01*
X79760Y-61205D01*
X79739Y-61205D01*
X79530Y-61246D01*
X79353Y-61364D01*
X79250Y-61520D01*
X79146Y-61364D01*
X78969Y-61246D01*
X78760Y-61205D01*
X78739Y-61205D01*
X78530Y-61246D01*
X78353Y-61364D01*
X78250Y-61520D01*
X78146Y-61364D01*
X78041Y-61295D01*
X78069Y-61295D01*
X78161Y-61257D01*
X78231Y-61186D01*
X78269Y-61094D01*
X78270Y-60995D01*
X78270Y-60504D01*
X78269Y-60405D01*
X78231Y-60313D01*
X78161Y-60242D01*
X78095Y-60215D01*
X78095Y-59382D01*
X78004Y-59163D01*
X77837Y-58995D01*
X77618Y-58905D01*
X77382Y-58904D01*
X77163Y-58995D01*
X77082Y-59075D01*
X77057Y-59013D01*
X76986Y-58943D01*
X76894Y-58905D01*
X76805Y-58904D01*
X76805Y-58250D01*
X76764Y-58041D01*
X76646Y-57864D01*
X76474Y-57750D01*
X76646Y-57635D01*
X76764Y-57458D01*
X76805Y-57250D01*
X76764Y-57041D01*
X76646Y-56864D01*
X76474Y-56750D01*
X76646Y-56635D01*
X76764Y-56458D01*
X76805Y-56250D01*
X76764Y-56041D01*
X76646Y-55864D01*
X76469Y-55746D01*
X76260Y-55705D01*
X76239Y-55705D01*
X76030Y-55746D01*
X75853Y-55864D01*
X75735Y-56041D01*
X75694Y-56250D01*
X75735Y-56458D01*
X75853Y-56635D01*
X76025Y-56750D01*
X75853Y-56864D01*
X75735Y-57041D01*
X75694Y-57250D01*
X75735Y-57458D01*
X75853Y-57635D01*
X76025Y-57750D01*
X75853Y-57864D01*
X75735Y-58041D01*
X75694Y-58250D01*
X75735Y-58458D01*
X75853Y-58635D01*
X76030Y-58753D01*
X76239Y-58795D01*
X76260Y-58795D01*
X76469Y-58753D01*
X76646Y-58635D01*
X76764Y-58458D01*
X76805Y-58250D01*
X76805Y-58904D01*
X76795Y-58904D01*
X76105Y-58904D01*
X76013Y-58942D01*
X75943Y-59013D01*
X75905Y-59105D01*
X75904Y-59204D01*
X75904Y-59894D01*
X75942Y-59986D01*
X76013Y-60056D01*
X76105Y-60094D01*
X76204Y-60095D01*
X76894Y-60095D01*
X76986Y-60057D01*
X77056Y-59986D01*
X77082Y-59924D01*
X77162Y-60004D01*
X77381Y-60094D01*
X77617Y-60095D01*
X77836Y-60004D01*
X78004Y-59837D01*
X78094Y-59618D01*
X78095Y-59382D01*
X78095Y-60215D01*
X78069Y-60204D01*
X77812Y-60205D01*
X77750Y-60267D01*
X77750Y-60700D01*
X78207Y-60700D01*
X78270Y-60637D01*
X78270Y-60504D01*
X78270Y-60995D01*
X78270Y-60862D01*
X78207Y-60800D01*
X77750Y-60800D01*
X77750Y-60807D01*
X77650Y-60807D01*
X77650Y-60800D01*
X77650Y-60700D01*
X77650Y-60267D01*
X77587Y-60205D01*
X77330Y-60204D01*
X77238Y-60242D01*
X77168Y-60313D01*
X77130Y-60405D01*
X77129Y-60504D01*
X77130Y-60637D01*
X77192Y-60700D01*
X77650Y-60700D01*
X77650Y-60800D01*
X77192Y-60800D01*
X77130Y-60862D01*
X77129Y-60995D01*
X77130Y-61094D01*
X77168Y-61186D01*
X77238Y-61257D01*
X77330Y-61295D01*
X77458Y-61295D01*
X77353Y-61364D01*
X77250Y-61520D01*
X77146Y-61364D01*
X76995Y-61263D01*
X77011Y-61257D01*
X77081Y-61186D01*
X77119Y-61094D01*
X77120Y-60995D01*
X77120Y-60405D01*
X77082Y-60313D01*
X77011Y-60243D01*
X76919Y-60205D01*
X76820Y-60204D01*
X76180Y-60204D01*
X76088Y-60242D01*
X76018Y-60313D01*
X75980Y-60405D01*
X75979Y-60504D01*
X75979Y-61094D01*
X76017Y-61186D01*
X76088Y-61256D01*
X76180Y-61294D01*
X76279Y-61295D01*
X76458Y-61295D01*
X76353Y-61364D01*
X76235Y-61541D01*
X76194Y-61750D01*
X76235Y-61958D01*
X76353Y-62135D01*
X76530Y-62253D01*
X76739Y-62295D01*
X76760Y-62295D01*
X76969Y-62253D01*
X77146Y-62135D01*
X77250Y-61979D01*
X77353Y-62135D01*
X77530Y-62253D01*
X77739Y-62295D01*
X77760Y-62295D01*
X77969Y-62253D01*
X78146Y-62135D01*
X78250Y-61979D01*
X78353Y-62135D01*
X78530Y-62253D01*
X78739Y-62295D01*
X78760Y-62295D01*
X78969Y-62253D01*
X79146Y-62135D01*
X79250Y-61979D01*
X79353Y-62135D01*
X79530Y-62253D01*
X79739Y-62295D01*
X79760Y-62295D01*
X79969Y-62253D01*
X80146Y-62135D01*
X80264Y-61958D01*
X80305Y-61750D01*
X80305Y-64750D01*
X80264Y-64541D01*
X80146Y-64364D01*
X79969Y-64246D01*
X79760Y-64205D01*
X79739Y-64205D01*
X79530Y-64246D01*
X79353Y-64364D01*
X79250Y-64520D01*
X79146Y-64364D01*
X78969Y-64246D01*
X78760Y-64205D01*
X78739Y-64205D01*
X78530Y-64246D01*
X78353Y-64364D01*
X78250Y-64520D01*
X78146Y-64364D01*
X77969Y-64246D01*
X77760Y-64205D01*
X77739Y-64205D01*
X77530Y-64246D01*
X77353Y-64364D01*
X77295Y-64452D01*
X77295Y-64405D01*
X77257Y-64313D01*
X77186Y-64243D01*
X77094Y-64205D01*
X76995Y-64204D01*
X76405Y-64204D01*
X76313Y-64242D01*
X76243Y-64313D01*
X76205Y-64405D01*
X76204Y-64504D01*
X76204Y-65094D01*
X76242Y-65186D01*
X76261Y-65204D01*
X76180Y-65204D01*
X76088Y-65242D01*
X76018Y-65313D01*
X75980Y-65405D01*
X75979Y-65504D01*
X75980Y-65637D01*
X76042Y-65700D01*
X76500Y-65700D01*
X76500Y-65692D01*
X76600Y-65692D01*
X76600Y-65700D01*
X77057Y-65700D01*
X77120Y-65637D01*
X77120Y-65504D01*
X77119Y-65405D01*
X77081Y-65313D01*
X77063Y-65295D01*
X77094Y-65295D01*
X77186Y-65257D01*
X77256Y-65186D01*
X77294Y-65094D01*
X77294Y-65047D01*
X77353Y-65135D01*
X77458Y-65204D01*
X77330Y-65204D01*
X77238Y-65242D01*
X77168Y-65313D01*
X77130Y-65405D01*
X77129Y-65504D01*
X77129Y-66094D01*
X77167Y-66186D01*
X77238Y-66256D01*
X77330Y-66294D01*
X77429Y-66295D01*
X78069Y-66295D01*
X78161Y-66257D01*
X78231Y-66186D01*
X78250Y-66143D01*
X78268Y-66186D01*
X78338Y-66257D01*
X78430Y-66295D01*
X78687Y-66295D01*
X78750Y-66232D01*
X78750Y-65800D01*
X78742Y-65800D01*
X78742Y-65700D01*
X78750Y-65700D01*
X78750Y-65692D01*
X78850Y-65692D01*
X78850Y-65700D01*
X79307Y-65700D01*
X79370Y-65637D01*
X79370Y-65504D01*
X79369Y-65405D01*
X79331Y-65313D01*
X79261Y-65242D01*
X79169Y-65204D01*
X79041Y-65204D01*
X79146Y-65135D01*
X79250Y-64979D01*
X79353Y-65135D01*
X79504Y-65236D01*
X79488Y-65242D01*
X79418Y-65313D01*
X79380Y-65405D01*
X79379Y-65504D01*
X79379Y-66094D01*
X79417Y-66186D01*
X79488Y-66256D01*
X79580Y-66294D01*
X79679Y-66295D01*
X79958Y-66295D01*
X79853Y-66364D01*
X79735Y-66541D01*
X79694Y-66750D01*
X79735Y-66958D01*
X79853Y-67135D01*
X80030Y-67253D01*
X80043Y-67256D01*
X79923Y-67313D01*
X79781Y-67471D01*
X79721Y-67615D01*
X79770Y-67700D01*
X80200Y-67700D01*
X80200Y-67692D01*
X80300Y-67692D01*
X80300Y-67700D01*
X80729Y-67700D01*
X80778Y-67615D01*
X80718Y-67471D01*
X80576Y-67313D01*
X80456Y-67256D01*
X80469Y-67253D01*
X80646Y-67135D01*
X80764Y-66958D01*
X80805Y-66750D01*
X80805Y-70700D01*
X80778Y-70700D01*
X80778Y-69884D01*
X80778Y-69615D01*
X80718Y-69471D01*
X80576Y-69313D01*
X80443Y-69250D01*
X80576Y-69186D01*
X80718Y-69028D01*
X80778Y-68884D01*
X80778Y-68615D01*
X80718Y-68471D01*
X80576Y-68313D01*
X80443Y-68250D01*
X80576Y-68186D01*
X80718Y-68028D01*
X80778Y-67884D01*
X80729Y-67800D01*
X80300Y-67800D01*
X80300Y-68230D01*
X80334Y-68250D01*
X80300Y-68269D01*
X80300Y-68700D01*
X80729Y-68700D01*
X80778Y-68615D01*
X80778Y-68884D01*
X80729Y-68800D01*
X80300Y-68800D01*
X80300Y-69230D01*
X80334Y-69250D01*
X80300Y-69269D01*
X80300Y-69700D01*
X80729Y-69700D01*
X80778Y-69615D01*
X80778Y-69884D01*
X80729Y-69800D01*
X80300Y-69800D01*
X80300Y-70230D01*
X80384Y-70278D01*
X80576Y-70186D01*
X80718Y-70028D01*
X80778Y-69884D01*
X80778Y-70700D01*
X80200Y-70700D01*
X80200Y-70230D01*
X80200Y-69800D01*
X80200Y-69700D01*
X80200Y-69269D01*
X80165Y-69250D01*
X80200Y-69230D01*
X80200Y-68800D01*
X80200Y-68700D01*
X80200Y-68269D01*
X80165Y-68250D01*
X80200Y-68230D01*
X80200Y-67800D01*
X79770Y-67800D01*
X79721Y-67884D01*
X79781Y-68028D01*
X79923Y-68186D01*
X80056Y-68250D01*
X79923Y-68313D01*
X79781Y-68471D01*
X79721Y-68615D01*
X79770Y-68700D01*
X80200Y-68700D01*
X80200Y-68800D01*
X79770Y-68800D01*
X79721Y-68884D01*
X79781Y-69028D01*
X79923Y-69186D01*
X80056Y-69250D01*
X79923Y-69313D01*
X79781Y-69471D01*
X79721Y-69615D01*
X79770Y-69700D01*
X80200Y-69700D01*
X80200Y-69800D01*
X79770Y-69800D01*
X79721Y-69884D01*
X79781Y-70028D01*
X79923Y-70186D01*
X80115Y-70278D01*
X80200Y-70230D01*
X80200Y-70700D01*
X79370Y-70700D01*
X79370Y-65995D01*
X79370Y-65862D01*
X79307Y-65800D01*
X78850Y-65800D01*
X78850Y-66232D01*
X78912Y-66295D01*
X79169Y-66295D01*
X79261Y-66257D01*
X79331Y-66186D01*
X79369Y-66094D01*
X79370Y-65995D01*
X79370Y-70700D01*
X77120Y-70700D01*
X77120Y-65995D01*
X77120Y-65862D01*
X77057Y-65800D01*
X76600Y-65800D01*
X76600Y-66232D01*
X76662Y-66295D01*
X76919Y-66295D01*
X77011Y-66257D01*
X77081Y-66186D01*
X77119Y-66094D01*
X77120Y-65995D01*
X77120Y-70700D01*
X76805Y-70700D01*
X76805Y-69750D01*
X76764Y-69541D01*
X76646Y-69364D01*
X76474Y-69250D01*
X76646Y-69135D01*
X76764Y-68958D01*
X76805Y-68750D01*
X76764Y-68541D01*
X76646Y-68364D01*
X76474Y-68250D01*
X76646Y-68135D01*
X76764Y-67958D01*
X76805Y-67750D01*
X76764Y-67541D01*
X76646Y-67364D01*
X76474Y-67250D01*
X76646Y-67135D01*
X76764Y-66958D01*
X76805Y-66750D01*
X76764Y-66541D01*
X76646Y-66364D01*
X76479Y-66253D01*
X76500Y-66232D01*
X76500Y-65800D01*
X76042Y-65800D01*
X75980Y-65862D01*
X75979Y-65995D01*
X75980Y-66094D01*
X76018Y-66186D01*
X76070Y-66238D01*
X76030Y-66246D01*
X75853Y-66364D01*
X75735Y-66541D01*
X75694Y-66750D01*
X75735Y-66958D01*
X75853Y-67135D01*
X76025Y-67250D01*
X75853Y-67364D01*
X75735Y-67541D01*
X75694Y-67750D01*
X75735Y-67958D01*
X75853Y-68135D01*
X76025Y-68250D01*
X75853Y-68364D01*
X75735Y-68541D01*
X75694Y-68750D01*
X75735Y-68958D01*
X75853Y-69135D01*
X76025Y-69250D01*
X75853Y-69364D01*
X75735Y-69541D01*
X75694Y-69750D01*
X75735Y-69958D01*
X75853Y-70135D01*
X76030Y-70253D01*
X76239Y-70295D01*
X76260Y-70295D01*
X76469Y-70253D01*
X76646Y-70135D01*
X76764Y-69958D01*
X76805Y-69750D01*
X76805Y-70700D01*
X75103Y-70700D01*
X75103Y-67250D01*
X75103Y-62250D01*
X75062Y-62041D01*
X74943Y-61864D01*
X74772Y-61750D01*
X74943Y-61635D01*
X75062Y-61458D01*
X75103Y-61250D01*
X75062Y-61041D01*
X74943Y-60864D01*
X74767Y-60746D01*
X74558Y-60705D01*
X74236Y-60705D01*
X74027Y-60746D01*
X73851Y-60864D01*
X73732Y-61041D01*
X73700Y-61205D01*
X73441Y-61205D01*
X73295Y-61234D01*
X73295Y-58245D01*
X73295Y-57655D01*
X73295Y-57655D01*
X73295Y-55010D01*
X73295Y-54989D01*
X73253Y-54780D01*
X73135Y-54603D01*
X72958Y-54485D01*
X72750Y-54444D01*
X72541Y-54485D01*
X72364Y-54603D01*
X72246Y-54780D01*
X72205Y-54989D01*
X72205Y-55010D01*
X72246Y-55219D01*
X72364Y-55396D01*
X72541Y-55514D01*
X72750Y-55555D01*
X72958Y-55514D01*
X73135Y-55396D01*
X73253Y-55219D01*
X73295Y-55010D01*
X73295Y-57655D01*
X73257Y-57563D01*
X73186Y-57493D01*
X73094Y-57455D01*
X72995Y-57454D01*
X72405Y-57454D01*
X72313Y-57492D01*
X72300Y-57506D01*
X72300Y-57250D01*
X72300Y-55650D01*
X72262Y-55558D01*
X72191Y-55488D01*
X72099Y-55450D01*
X72000Y-55449D01*
X70400Y-55449D01*
X70308Y-55487D01*
X70238Y-55558D01*
X70200Y-55650D01*
X70199Y-55749D01*
X70199Y-57300D01*
X69950Y-57299D01*
X69950Y-56292D01*
X69790Y-55906D01*
X69495Y-55610D01*
X69109Y-55450D01*
X68692Y-55449D01*
X68306Y-55609D01*
X68010Y-55904D01*
X67850Y-56290D01*
X67849Y-56707D01*
X68009Y-57094D01*
X68304Y-57389D01*
X68690Y-57549D01*
X69107Y-57550D01*
X69494Y-57390D01*
X69789Y-57095D01*
X69949Y-56709D01*
X69950Y-56292D01*
X69950Y-57299D01*
X69842Y-57299D01*
X69456Y-57459D01*
X69160Y-57754D01*
X69000Y-58140D01*
X68999Y-58557D01*
X69159Y-58944D01*
X69454Y-59239D01*
X69840Y-59399D01*
X70257Y-59400D01*
X70644Y-59240D01*
X70939Y-58945D01*
X71099Y-58559D01*
X71100Y-58142D01*
X70940Y-57756D01*
X70735Y-57550D01*
X72099Y-57550D01*
X72191Y-57512D01*
X72261Y-57441D01*
X72299Y-57349D01*
X72300Y-57250D01*
X72300Y-57506D01*
X72243Y-57563D01*
X72205Y-57655D01*
X72204Y-57754D01*
X72204Y-58344D01*
X72242Y-58436D01*
X72313Y-58506D01*
X72405Y-58544D01*
X72504Y-58545D01*
X73094Y-58545D01*
X73186Y-58507D01*
X73256Y-58436D01*
X73294Y-58344D01*
X73295Y-58245D01*
X73295Y-61234D01*
X73232Y-61246D01*
X73056Y-61364D01*
X72937Y-61541D01*
X72896Y-61750D01*
X72937Y-61958D01*
X73056Y-62135D01*
X73232Y-62253D01*
X73441Y-62295D01*
X73700Y-62295D01*
X73732Y-62458D01*
X73851Y-62635D01*
X74027Y-62753D01*
X74236Y-62795D01*
X74558Y-62795D01*
X74767Y-62753D01*
X74943Y-62635D01*
X75062Y-62458D01*
X75103Y-62250D01*
X75103Y-67250D01*
X75062Y-67041D01*
X75020Y-66978D01*
X75020Y-65495D01*
X75020Y-64905D01*
X75020Y-63995D01*
X75020Y-63405D01*
X74982Y-63313D01*
X74911Y-63243D01*
X74819Y-63205D01*
X74720Y-63204D01*
X74080Y-63204D01*
X73988Y-63242D01*
X73918Y-63313D01*
X73880Y-63405D01*
X73879Y-63504D01*
X73879Y-64094D01*
X73917Y-64186D01*
X73988Y-64256D01*
X74080Y-64294D01*
X74179Y-64295D01*
X74819Y-64295D01*
X74911Y-64257D01*
X74981Y-64186D01*
X75019Y-64094D01*
X75020Y-63995D01*
X75020Y-64905D01*
X74982Y-64813D01*
X74911Y-64743D01*
X74819Y-64705D01*
X74720Y-64704D01*
X74080Y-64704D01*
X73988Y-64742D01*
X73918Y-64813D01*
X73880Y-64905D01*
X73879Y-65004D01*
X73879Y-65594D01*
X73917Y-65686D01*
X73988Y-65756D01*
X74080Y-65794D01*
X74179Y-65795D01*
X74819Y-65795D01*
X74911Y-65757D01*
X74981Y-65686D01*
X75019Y-65594D01*
X75020Y-65495D01*
X75020Y-66978D01*
X74943Y-66864D01*
X74767Y-66746D01*
X74558Y-66705D01*
X74299Y-66705D01*
X74267Y-66541D01*
X74148Y-66364D01*
X73972Y-66246D01*
X73870Y-66226D01*
X73870Y-65495D01*
X73870Y-65004D01*
X73870Y-63995D01*
X73870Y-63504D01*
X73869Y-63405D01*
X73831Y-63313D01*
X73761Y-63242D01*
X73669Y-63204D01*
X73412Y-63205D01*
X73350Y-63267D01*
X73350Y-63700D01*
X73807Y-63700D01*
X73870Y-63637D01*
X73870Y-63504D01*
X73870Y-63995D01*
X73870Y-63862D01*
X73807Y-63800D01*
X73350Y-63800D01*
X73350Y-64232D01*
X73412Y-64295D01*
X73669Y-64295D01*
X73761Y-64257D01*
X73831Y-64186D01*
X73869Y-64094D01*
X73870Y-63995D01*
X73870Y-65004D01*
X73869Y-64905D01*
X73831Y-64813D01*
X73761Y-64742D01*
X73669Y-64704D01*
X73412Y-64705D01*
X73350Y-64767D01*
X73350Y-65200D01*
X73807Y-65200D01*
X73870Y-65137D01*
X73870Y-65004D01*
X73870Y-65495D01*
X73870Y-65362D01*
X73807Y-65300D01*
X73350Y-65300D01*
X73350Y-65732D01*
X73412Y-65795D01*
X73669Y-65795D01*
X73761Y-65757D01*
X73831Y-65686D01*
X73869Y-65594D01*
X73870Y-65495D01*
X73870Y-66226D01*
X73763Y-66205D01*
X73441Y-66205D01*
X73250Y-66243D01*
X73250Y-65732D01*
X73250Y-65300D01*
X73242Y-65300D01*
X73242Y-65200D01*
X73250Y-65200D01*
X73250Y-64767D01*
X73187Y-64705D01*
X72930Y-64704D01*
X72838Y-64742D01*
X72768Y-64812D01*
X72764Y-64791D01*
X72646Y-64614D01*
X72474Y-64500D01*
X72646Y-64385D01*
X72764Y-64208D01*
X72768Y-64187D01*
X72838Y-64257D01*
X72930Y-64295D01*
X73187Y-64295D01*
X73250Y-64232D01*
X73250Y-63800D01*
X73242Y-63800D01*
X73242Y-63700D01*
X73250Y-63700D01*
X73250Y-63267D01*
X73187Y-63205D01*
X72930Y-63204D01*
X72838Y-63242D01*
X72805Y-63275D01*
X72805Y-62000D01*
X72764Y-61791D01*
X72646Y-61614D01*
X72469Y-61496D01*
X72295Y-61461D01*
X72295Y-59995D01*
X72295Y-59405D01*
X72257Y-59313D01*
X72186Y-59243D01*
X72094Y-59205D01*
X71995Y-59204D01*
X71405Y-59204D01*
X71313Y-59242D01*
X71243Y-59313D01*
X71205Y-59405D01*
X71204Y-59504D01*
X71204Y-60094D01*
X71242Y-60186D01*
X71313Y-60256D01*
X71405Y-60294D01*
X71456Y-60295D01*
X71313Y-60423D01*
X71221Y-60615D01*
X71269Y-60700D01*
X71700Y-60700D01*
X71700Y-60692D01*
X71800Y-60692D01*
X71800Y-60700D01*
X72230Y-60700D01*
X72278Y-60615D01*
X72186Y-60423D01*
X72043Y-60295D01*
X72094Y-60295D01*
X72186Y-60257D01*
X72256Y-60186D01*
X72294Y-60094D01*
X72295Y-59995D01*
X72295Y-61461D01*
X72278Y-61458D01*
X72278Y-60884D01*
X72230Y-60800D01*
X71800Y-60800D01*
X71800Y-61229D01*
X71884Y-61278D01*
X72028Y-61218D01*
X72186Y-61076D01*
X72278Y-60884D01*
X72278Y-61458D01*
X72260Y-61455D01*
X72239Y-61455D01*
X72030Y-61496D01*
X71853Y-61614D01*
X71735Y-61791D01*
X71700Y-61971D01*
X71700Y-61229D01*
X71700Y-60800D01*
X71269Y-60800D01*
X71221Y-60884D01*
X71313Y-61076D01*
X71471Y-61218D01*
X71615Y-61278D01*
X71700Y-61229D01*
X71700Y-61971D01*
X71694Y-62000D01*
X71735Y-62208D01*
X71853Y-62385D01*
X72030Y-62503D01*
X72239Y-62545D01*
X72260Y-62545D01*
X72469Y-62503D01*
X72646Y-62385D01*
X72764Y-62208D01*
X72805Y-62000D01*
X72805Y-63275D01*
X72768Y-63313D01*
X72730Y-63405D01*
X72729Y-63504D01*
X72730Y-63637D01*
X72792Y-63699D01*
X72730Y-63699D01*
X72730Y-63740D01*
X72646Y-63614D01*
X72469Y-63496D01*
X72260Y-63455D01*
X72239Y-63455D01*
X72030Y-63496D01*
X71853Y-63614D01*
X71805Y-63686D01*
X71805Y-63000D01*
X71764Y-62791D01*
X71646Y-62614D01*
X71469Y-62496D01*
X71260Y-62455D01*
X71239Y-62455D01*
X71030Y-62496D01*
X70853Y-62614D01*
X70735Y-62791D01*
X70694Y-63000D01*
X70735Y-63208D01*
X70853Y-63385D01*
X71030Y-63503D01*
X71239Y-63545D01*
X71260Y-63545D01*
X71469Y-63503D01*
X71646Y-63385D01*
X71764Y-63208D01*
X71805Y-63000D01*
X71805Y-63686D01*
X71735Y-63791D01*
X71694Y-64000D01*
X71735Y-64208D01*
X71853Y-64385D01*
X72025Y-64500D01*
X71853Y-64614D01*
X71735Y-64791D01*
X71694Y-65000D01*
X71735Y-65208D01*
X71853Y-65385D01*
X72030Y-65503D01*
X72239Y-65545D01*
X72260Y-65545D01*
X72469Y-65503D01*
X72646Y-65385D01*
X72730Y-65259D01*
X72730Y-65300D01*
X72792Y-65300D01*
X72730Y-65362D01*
X72729Y-65495D01*
X72730Y-65594D01*
X72768Y-65686D01*
X72838Y-65757D01*
X72930Y-65795D01*
X73187Y-65795D01*
X73250Y-65732D01*
X73250Y-66243D01*
X73232Y-66246D01*
X73056Y-66364D01*
X72937Y-66541D01*
X72896Y-66750D01*
X72937Y-66958D01*
X73056Y-67135D01*
X73227Y-67250D01*
X73056Y-67364D01*
X72937Y-67541D01*
X72896Y-67750D01*
X72937Y-67958D01*
X73056Y-68135D01*
X73232Y-68253D01*
X73441Y-68295D01*
X73763Y-68295D01*
X73972Y-68253D01*
X74148Y-68135D01*
X74267Y-67958D01*
X74299Y-67795D01*
X74558Y-67795D01*
X74767Y-67753D01*
X74943Y-67635D01*
X75062Y-67458D01*
X75103Y-67250D01*
X75103Y-70700D01*
X74149Y-70700D01*
X73978Y-70700D01*
X73999Y-70678D01*
X73954Y-70633D01*
X74059Y-70594D01*
X74149Y-70354D01*
X74139Y-70098D01*
X74059Y-69905D01*
X73954Y-69866D01*
X73883Y-69936D01*
X73883Y-69795D01*
X73844Y-69690D01*
X73604Y-69600D01*
X73348Y-69610D01*
X73155Y-69690D01*
X73116Y-69795D01*
X73500Y-70179D01*
X73883Y-69795D01*
X73883Y-69936D01*
X73570Y-70250D01*
X73576Y-70255D01*
X73505Y-70326D01*
X73500Y-70320D01*
X73494Y-70326D01*
X73429Y-70261D01*
X73423Y-70255D01*
X73429Y-70250D01*
X73045Y-69866D01*
X72940Y-69905D01*
X72850Y-70145D01*
X72860Y-70401D01*
X72940Y-70594D01*
X73045Y-70633D01*
X73000Y-70678D01*
X73021Y-70700D01*
X72805Y-70700D01*
X72805Y-67000D01*
X72764Y-66791D01*
X72646Y-66614D01*
X72469Y-66496D01*
X72260Y-66455D01*
X72239Y-66455D01*
X72030Y-66496D01*
X71853Y-66614D01*
X71795Y-66702D01*
X71795Y-66245D01*
X71795Y-65655D01*
X71757Y-65563D01*
X71686Y-65493D01*
X71594Y-65455D01*
X71495Y-65454D01*
X70905Y-65454D01*
X70813Y-65492D01*
X70743Y-65563D01*
X70705Y-65655D01*
X70704Y-65754D01*
X70704Y-66344D01*
X70742Y-66436D01*
X70813Y-66506D01*
X70905Y-66544D01*
X71004Y-66545D01*
X71594Y-66545D01*
X71686Y-66507D01*
X71756Y-66436D01*
X71794Y-66344D01*
X71795Y-66245D01*
X71795Y-66702D01*
X71735Y-66791D01*
X71694Y-67000D01*
X71735Y-67208D01*
X71853Y-67385D01*
X72030Y-67503D01*
X72239Y-67545D01*
X72260Y-67545D01*
X72469Y-67503D01*
X72646Y-67385D01*
X72764Y-67208D01*
X72805Y-67000D01*
X72805Y-70700D01*
X72295Y-70700D01*
X72295Y-68594D01*
X72295Y-67905D01*
X72257Y-67813D01*
X72186Y-67743D01*
X72094Y-67705D01*
X71995Y-67704D01*
X71862Y-67705D01*
X71800Y-67767D01*
X71800Y-68200D01*
X72232Y-68200D01*
X72295Y-68137D01*
X72295Y-67905D01*
X72295Y-68594D01*
X72295Y-68362D01*
X72232Y-68300D01*
X71800Y-68300D01*
X71800Y-68307D01*
X71700Y-68307D01*
X71700Y-68300D01*
X71700Y-68200D01*
X71700Y-67767D01*
X71637Y-67705D01*
X71504Y-67704D01*
X71405Y-67705D01*
X71313Y-67743D01*
X71242Y-67813D01*
X71204Y-67905D01*
X71205Y-68137D01*
X71267Y-68200D01*
X71700Y-68200D01*
X71700Y-68300D01*
X71267Y-68300D01*
X71205Y-68362D01*
X71204Y-68594D01*
X71242Y-68686D01*
X71313Y-68756D01*
X71405Y-68794D01*
X71452Y-68794D01*
X71364Y-68853D01*
X71246Y-69030D01*
X71205Y-69239D01*
X71205Y-69260D01*
X71246Y-69469D01*
X71364Y-69646D01*
X71541Y-69764D01*
X71750Y-69805D01*
X71958Y-69764D01*
X72135Y-69646D01*
X72253Y-69469D01*
X72295Y-69260D01*
X72295Y-69239D01*
X72253Y-69030D01*
X72135Y-68853D01*
X72047Y-68794D01*
X72094Y-68794D01*
X72186Y-68756D01*
X72257Y-68686D01*
X72295Y-68594D01*
X72295Y-70700D01*
X69823Y-70700D01*
X69962Y-70561D01*
X70180Y-70035D01*
X70181Y-69466D01*
X69963Y-68940D01*
X69561Y-68537D01*
X69035Y-68319D01*
X68466Y-68318D01*
X67940Y-68536D01*
X67800Y-68676D01*
X67800Y-67304D01*
X67853Y-67385D01*
X68030Y-67503D01*
X68239Y-67545D01*
X68260Y-67545D01*
X68469Y-67503D01*
X68646Y-67385D01*
X68764Y-67208D01*
X68805Y-67000D01*
X68795Y-66946D01*
X68795Y-63245D01*
X68795Y-63112D01*
X68732Y-63050D01*
X68300Y-63050D01*
X68300Y-63482D01*
X68323Y-63506D01*
X68300Y-63519D01*
X68300Y-63950D01*
X68729Y-63950D01*
X68778Y-63865D01*
X68718Y-63721D01*
X68576Y-63563D01*
X68537Y-63545D01*
X68594Y-63545D01*
X68686Y-63507D01*
X68756Y-63436D01*
X68794Y-63344D01*
X68795Y-63245D01*
X68795Y-66946D01*
X68764Y-66791D01*
X68646Y-66614D01*
X68469Y-66496D01*
X68456Y-66493D01*
X68576Y-66436D01*
X68718Y-66278D01*
X68778Y-66134D01*
X68778Y-65865D01*
X68718Y-65721D01*
X68576Y-65563D01*
X68443Y-65500D01*
X68576Y-65436D01*
X68718Y-65278D01*
X68778Y-65134D01*
X68778Y-64865D01*
X68718Y-64721D01*
X68576Y-64563D01*
X68443Y-64500D01*
X68576Y-64436D01*
X68718Y-64278D01*
X68778Y-64134D01*
X68729Y-64050D01*
X68300Y-64050D01*
X68300Y-64480D01*
X68334Y-64500D01*
X68300Y-64519D01*
X68300Y-64950D01*
X68729Y-64950D01*
X68778Y-64865D01*
X68778Y-65134D01*
X68729Y-65050D01*
X68300Y-65050D01*
X68300Y-65480D01*
X68334Y-65500D01*
X68300Y-65519D01*
X68300Y-65950D01*
X68729Y-65950D01*
X68778Y-65865D01*
X68778Y-66134D01*
X68729Y-66050D01*
X68300Y-66050D01*
X68300Y-66057D01*
X68200Y-66057D01*
X68200Y-66050D01*
X68192Y-66050D01*
X68192Y-65950D01*
X68200Y-65950D01*
X68200Y-65519D01*
X68165Y-65500D01*
X68200Y-65480D01*
X68200Y-65050D01*
X68192Y-65050D01*
X68192Y-64950D01*
X68200Y-64950D01*
X68200Y-64519D01*
X68165Y-64500D01*
X68200Y-64480D01*
X68200Y-64050D01*
X68192Y-64050D01*
X68192Y-63950D01*
X68200Y-63950D01*
X68200Y-63519D01*
X68176Y-63506D01*
X68200Y-63482D01*
X68200Y-63050D01*
X68192Y-63050D01*
X68192Y-62950D01*
X68200Y-62950D01*
X68200Y-62942D01*
X68300Y-62942D01*
X68300Y-62950D01*
X68732Y-62950D01*
X68795Y-62887D01*
X68795Y-62754D01*
X68794Y-62655D01*
X68756Y-62563D01*
X68686Y-62492D01*
X68594Y-62454D01*
X68541Y-62454D01*
X68646Y-62385D01*
X68764Y-62208D01*
X68805Y-62000D01*
X68764Y-61791D01*
X68646Y-61614D01*
X68469Y-61496D01*
X68260Y-61455D01*
X68239Y-61455D01*
X68030Y-61496D01*
X67853Y-61614D01*
X67800Y-61695D01*
X67800Y-61061D01*
X67881Y-61094D01*
X68117Y-61095D01*
X68336Y-61004D01*
X68504Y-60837D01*
X68594Y-60618D01*
X68595Y-60382D01*
X68504Y-60163D01*
X68424Y-60082D01*
X68486Y-60057D01*
X68556Y-59986D01*
X68594Y-59894D01*
X68595Y-59795D01*
X68595Y-59105D01*
X68557Y-59013D01*
X68486Y-58943D01*
X68394Y-58905D01*
X68295Y-58904D01*
X67800Y-58904D01*
X67800Y-53823D01*
X67938Y-53962D01*
X68464Y-54180D01*
X69033Y-54181D01*
X69559Y-53963D01*
X69962Y-53561D01*
X70180Y-53035D01*
X70181Y-52466D01*
X69963Y-51940D01*
X69823Y-51800D01*
X104426Y-51800D01*
X104287Y-51938D01*
X104069Y-52464D01*
X104068Y-53033D01*
X104286Y-53559D01*
X104688Y-53962D01*
X105214Y-54180D01*
X105783Y-54181D01*
X106309Y-53963D01*
X106450Y-53823D01*
X106450Y-68676D01*
M02*
