G04 #@! TF.FileFunction,Legend,Top*
%FSLAX46Y46*%
G04 Gerber Fmt 4.6, Leading zero omitted, Abs format (unit mm)*
G04 Created by KiCad (PCBNEW 4.0.5+dfsg1-4~bpo8+1) date Sat Apr 22 17:10:37 2017*
%MOMM*%
%LPD*%
G01*
G04 APERTURE LIST*
%ADD10C,0.100000*%
%ADD11C,0.127000*%
%ADD12C,0.203200*%
%ADD13C,0.152400*%
%ADD14C,0.177800*%
%ADD15C,0.150000*%
%ADD16C,0.254000*%
%ADD17C,0.002540*%
G04 APERTURE END LIST*
D10*
D11*
X133244167Y-78359000D02*
X133213929Y-78389238D01*
X133123214Y-78449714D01*
X133062738Y-78479952D01*
X132972024Y-78510190D01*
X132820833Y-78540429D01*
X132699881Y-78540429D01*
X132548690Y-78510190D01*
X132457976Y-78479952D01*
X132397500Y-78449714D01*
X132306786Y-78389238D01*
X132276548Y-78359000D01*
X132578929Y-78177572D02*
X133002262Y-78026381D01*
X132578929Y-77875191D01*
X133002262Y-77300666D02*
X133002262Y-77663524D01*
X133002262Y-77482095D02*
X132367262Y-77482095D01*
X132457976Y-77542571D01*
X132518452Y-77603047D01*
X132548690Y-77663524D01*
X133244167Y-77089000D02*
X133213929Y-77058762D01*
X133123214Y-76998285D01*
X133062738Y-76968047D01*
X132972024Y-76937809D01*
X132820833Y-76907571D01*
X132699881Y-76907571D01*
X132548690Y-76937809D01*
X132457976Y-76968047D01*
X132397500Y-76998285D01*
X132306786Y-77058762D01*
X132276548Y-77089000D01*
D12*
X136077476Y-107774619D02*
X135593667Y-107774619D01*
X135593667Y-106758619D01*
X136416143Y-107774619D02*
X136416143Y-106758619D01*
X136754809Y-107484333D01*
X137093476Y-106758619D01*
X137093476Y-107774619D01*
X137480524Y-106758619D02*
X138109476Y-106758619D01*
X137770810Y-107145667D01*
X137915952Y-107145667D01*
X138012714Y-107194048D01*
X138061095Y-107242429D01*
X138109476Y-107339190D01*
X138109476Y-107581095D01*
X138061095Y-107677857D01*
X138012714Y-107726238D01*
X137915952Y-107774619D01*
X137625667Y-107774619D01*
X137528905Y-107726238D01*
X137480524Y-107677857D01*
X138496524Y-106855381D02*
X138544905Y-106807000D01*
X138641667Y-106758619D01*
X138883571Y-106758619D01*
X138980333Y-106807000D01*
X139028714Y-106855381D01*
X139077095Y-106952143D01*
X139077095Y-107048905D01*
X139028714Y-107194048D01*
X138448143Y-107774619D01*
X139077095Y-107774619D01*
X139947952Y-107097286D02*
X139947952Y-107774619D01*
X139706048Y-106710238D02*
X139464143Y-107435952D01*
X140093095Y-107435952D01*
D13*
X124986144Y-100039714D02*
X124986144Y-99277714D01*
X125421572Y-100039714D01*
X125421572Y-99277714D01*
X125784430Y-99640571D02*
X126038430Y-99640571D01*
X126147287Y-100039714D02*
X125784430Y-100039714D01*
X125784430Y-99277714D01*
X126147287Y-99277714D01*
X126836716Y-99277714D02*
X126473859Y-99277714D01*
X126437573Y-99640571D01*
X126473859Y-99604286D01*
X126546430Y-99568000D01*
X126727859Y-99568000D01*
X126800430Y-99604286D01*
X126836716Y-99640571D01*
X126873001Y-99713143D01*
X126873001Y-99894571D01*
X126836716Y-99967143D01*
X126800430Y-100003429D01*
X126727859Y-100039714D01*
X126546430Y-100039714D01*
X126473859Y-100003429D01*
X126437573Y-99967143D01*
X127562430Y-99277714D02*
X127199573Y-99277714D01*
X127163287Y-99640571D01*
X127199573Y-99604286D01*
X127272144Y-99568000D01*
X127453573Y-99568000D01*
X127526144Y-99604286D01*
X127562430Y-99640571D01*
X127598715Y-99713143D01*
X127598715Y-99894571D01*
X127562430Y-99967143D01*
X127526144Y-100003429D01*
X127453573Y-100039714D01*
X127272144Y-100039714D01*
X127199573Y-100003429D01*
X127163287Y-99967143D01*
X127852715Y-99277714D02*
X128324429Y-99277714D01*
X128070429Y-99568000D01*
X128179287Y-99568000D01*
X128251858Y-99604286D01*
X128288144Y-99640571D01*
X128324429Y-99713143D01*
X128324429Y-99894571D01*
X128288144Y-99967143D01*
X128251858Y-100003429D01*
X128179287Y-100039714D01*
X127961572Y-100039714D01*
X127889001Y-100003429D01*
X127852715Y-99967143D01*
X128614715Y-99350286D02*
X128651001Y-99314000D01*
X128723572Y-99277714D01*
X128905001Y-99277714D01*
X128977572Y-99314000D01*
X129013858Y-99350286D01*
X129050143Y-99422857D01*
X129050143Y-99495429D01*
X129013858Y-99604286D01*
X128578429Y-100039714D01*
X129050143Y-100039714D01*
X125711858Y-97499714D02*
X125349001Y-97499714D01*
X125349001Y-96737714D01*
X125965858Y-97499714D02*
X125965858Y-96737714D01*
X126219858Y-97282000D01*
X126473858Y-96737714D01*
X126473858Y-97499714D01*
X126764143Y-96737714D02*
X127235857Y-96737714D01*
X126981857Y-97028000D01*
X127090715Y-97028000D01*
X127163286Y-97064286D01*
X127199572Y-97100571D01*
X127235857Y-97173143D01*
X127235857Y-97354571D01*
X127199572Y-97427143D01*
X127163286Y-97463429D01*
X127090715Y-97499714D01*
X126873000Y-97499714D01*
X126800429Y-97463429D01*
X126764143Y-97427143D01*
X127925286Y-96737714D02*
X127562429Y-96737714D01*
X127526143Y-97100571D01*
X127562429Y-97064286D01*
X127635000Y-97028000D01*
X127816429Y-97028000D01*
X127889000Y-97064286D01*
X127925286Y-97100571D01*
X127961571Y-97173143D01*
X127961571Y-97354571D01*
X127925286Y-97427143D01*
X127889000Y-97463429D01*
X127816429Y-97499714D01*
X127635000Y-97499714D01*
X127562429Y-97463429D01*
X127526143Y-97427143D01*
X128397000Y-97064286D02*
X128324428Y-97028000D01*
X128288143Y-96991714D01*
X128251857Y-96919143D01*
X128251857Y-96882857D01*
X128288143Y-96810286D01*
X128324428Y-96774000D01*
X128397000Y-96737714D01*
X128542143Y-96737714D01*
X128614714Y-96774000D01*
X128651000Y-96810286D01*
X128687285Y-96882857D01*
X128687285Y-96919143D01*
X128651000Y-96991714D01*
X128614714Y-97028000D01*
X128542143Y-97064286D01*
X128397000Y-97064286D01*
X128324428Y-97100571D01*
X128288143Y-97136857D01*
X128251857Y-97209429D01*
X128251857Y-97354571D01*
X128288143Y-97427143D01*
X128324428Y-97463429D01*
X128397000Y-97499714D01*
X128542143Y-97499714D01*
X128614714Y-97463429D01*
X128651000Y-97427143D01*
X128687285Y-97354571D01*
X128687285Y-97209429D01*
X128651000Y-97136857D01*
X128614714Y-97100571D01*
X128542143Y-97064286D01*
X124986144Y-83529714D02*
X124986144Y-82767714D01*
X125421572Y-83529714D01*
X125421572Y-82767714D01*
X125784430Y-83130571D02*
X126038430Y-83130571D01*
X126147287Y-83529714D02*
X125784430Y-83529714D01*
X125784430Y-82767714D01*
X126147287Y-82767714D01*
X126836716Y-82767714D02*
X126473859Y-82767714D01*
X126437573Y-83130571D01*
X126473859Y-83094286D01*
X126546430Y-83058000D01*
X126727859Y-83058000D01*
X126800430Y-83094286D01*
X126836716Y-83130571D01*
X126873001Y-83203143D01*
X126873001Y-83384571D01*
X126836716Y-83457143D01*
X126800430Y-83493429D01*
X126727859Y-83529714D01*
X126546430Y-83529714D01*
X126473859Y-83493429D01*
X126437573Y-83457143D01*
X127562430Y-82767714D02*
X127199573Y-82767714D01*
X127163287Y-83130571D01*
X127199573Y-83094286D01*
X127272144Y-83058000D01*
X127453573Y-83058000D01*
X127526144Y-83094286D01*
X127562430Y-83130571D01*
X127598715Y-83203143D01*
X127598715Y-83384571D01*
X127562430Y-83457143D01*
X127526144Y-83493429D01*
X127453573Y-83529714D01*
X127272144Y-83529714D01*
X127199573Y-83493429D01*
X127163287Y-83457143D01*
X127852715Y-82767714D02*
X128324429Y-82767714D01*
X128070429Y-83058000D01*
X128179287Y-83058000D01*
X128251858Y-83094286D01*
X128288144Y-83130571D01*
X128324429Y-83203143D01*
X128324429Y-83384571D01*
X128288144Y-83457143D01*
X128251858Y-83493429D01*
X128179287Y-83529714D01*
X127961572Y-83529714D01*
X127889001Y-83493429D01*
X127852715Y-83457143D01*
X128977572Y-83021714D02*
X128977572Y-83529714D01*
X128796143Y-82731429D02*
X128614715Y-83275714D01*
X129086429Y-83275714D01*
X125711858Y-80989714D02*
X125349001Y-80989714D01*
X125349001Y-80227714D01*
X125965858Y-80989714D02*
X125965858Y-80227714D01*
X126219858Y-80772000D01*
X126473858Y-80227714D01*
X126473858Y-80989714D01*
X126764143Y-80227714D02*
X127272143Y-80227714D01*
X126945572Y-80989714D01*
X127889000Y-80481714D02*
X127889000Y-80989714D01*
X127707571Y-80191429D02*
X127526143Y-80735714D01*
X127997857Y-80735714D01*
X128687285Y-80989714D02*
X128251857Y-80989714D01*
X128469571Y-80989714D02*
X128469571Y-80227714D01*
X128397000Y-80336571D01*
X128324428Y-80409143D01*
X128251857Y-80445429D01*
X134456714Y-99767575D02*
X135073571Y-99767575D01*
X135146143Y-99803861D01*
X135182429Y-99840146D01*
X135218714Y-99912718D01*
X135218714Y-100021575D01*
X135182429Y-100094146D01*
X134928429Y-99767575D02*
X134964714Y-99840146D01*
X134964714Y-99985289D01*
X134928429Y-100057861D01*
X134892143Y-100094146D01*
X134819571Y-100130432D01*
X134601857Y-100130432D01*
X134529286Y-100094146D01*
X134493000Y-100057861D01*
X134456714Y-99985289D01*
X134456714Y-99840146D01*
X134493000Y-99767575D01*
X134964714Y-99404717D02*
X134456714Y-99404717D01*
X134202714Y-99404717D02*
X134239000Y-99441003D01*
X134275286Y-99404717D01*
X134239000Y-99368432D01*
X134202714Y-99404717D01*
X134275286Y-99404717D01*
X134456714Y-99150718D02*
X134456714Y-98860432D01*
X134202714Y-99041860D02*
X134855857Y-99041860D01*
X134928429Y-99005575D01*
X134964714Y-98933003D01*
X134964714Y-98860432D01*
X134964714Y-98606431D02*
X134202714Y-98606431D01*
X134964714Y-98279860D02*
X134565571Y-98279860D01*
X134493000Y-98316146D01*
X134456714Y-98388717D01*
X134456714Y-98497574D01*
X134493000Y-98570146D01*
X134529286Y-98606431D01*
X134456714Y-97590431D02*
X134964714Y-97590431D01*
X134456714Y-97917002D02*
X134855857Y-97917002D01*
X134928429Y-97880717D01*
X134964714Y-97808145D01*
X134964714Y-97699288D01*
X134928429Y-97626717D01*
X134892143Y-97590431D01*
X134964714Y-97227573D02*
X134202714Y-97227573D01*
X134493000Y-97227573D02*
X134456714Y-97155002D01*
X134456714Y-97009859D01*
X134493000Y-96937288D01*
X134529286Y-96901002D01*
X134601857Y-96864716D01*
X134819571Y-96864716D01*
X134892143Y-96901002D01*
X134928429Y-96937288D01*
X134964714Y-97009859D01*
X134964714Y-97155002D01*
X134928429Y-97227573D01*
X134892143Y-96538144D02*
X134928429Y-96501859D01*
X134964714Y-96538144D01*
X134928429Y-96574430D01*
X134892143Y-96538144D01*
X134964714Y-96538144D01*
X134928429Y-95848716D02*
X134964714Y-95921287D01*
X134964714Y-96066430D01*
X134928429Y-96139002D01*
X134892143Y-96175287D01*
X134819571Y-96211573D01*
X134601857Y-96211573D01*
X134529286Y-96175287D01*
X134493000Y-96139002D01*
X134456714Y-96066430D01*
X134456714Y-95921287D01*
X134493000Y-95848716D01*
X134964714Y-95413287D02*
X134928429Y-95485859D01*
X134892143Y-95522144D01*
X134819571Y-95558430D01*
X134601857Y-95558430D01*
X134529286Y-95522144D01*
X134493000Y-95485859D01*
X134456714Y-95413287D01*
X134456714Y-95304430D01*
X134493000Y-95231859D01*
X134529286Y-95195573D01*
X134601857Y-95159287D01*
X134819571Y-95159287D01*
X134892143Y-95195573D01*
X134928429Y-95231859D01*
X134964714Y-95304430D01*
X134964714Y-95413287D01*
X134964714Y-94832715D02*
X134456714Y-94832715D01*
X134529286Y-94832715D02*
X134493000Y-94796430D01*
X134456714Y-94723858D01*
X134456714Y-94615001D01*
X134493000Y-94542430D01*
X134565571Y-94506144D01*
X134964714Y-94506144D01*
X134565571Y-94506144D02*
X134493000Y-94469858D01*
X134456714Y-94397287D01*
X134456714Y-94288430D01*
X134493000Y-94215858D01*
X134565571Y-94179573D01*
X134964714Y-94179573D01*
X134166429Y-93272430D02*
X135146143Y-93925573D01*
X134456714Y-93018429D02*
X135218714Y-93018429D01*
X134493000Y-93018429D02*
X134456714Y-92945858D01*
X134456714Y-92800715D01*
X134493000Y-92728144D01*
X134529286Y-92691858D01*
X134601857Y-92655572D01*
X134819571Y-92655572D01*
X134892143Y-92691858D01*
X134928429Y-92728144D01*
X134964714Y-92800715D01*
X134964714Y-92945858D01*
X134928429Y-93018429D01*
X134928429Y-92038715D02*
X134964714Y-92111286D01*
X134964714Y-92256429D01*
X134928429Y-92329000D01*
X134855857Y-92365286D01*
X134565571Y-92365286D01*
X134493000Y-92329000D01*
X134456714Y-92256429D01*
X134456714Y-92111286D01*
X134493000Y-92038715D01*
X134565571Y-92002429D01*
X134638143Y-92002429D01*
X134710714Y-92365286D01*
X134456714Y-91675857D02*
X135218714Y-91675857D01*
X134493000Y-91675857D02*
X134456714Y-91603286D01*
X134456714Y-91458143D01*
X134493000Y-91385572D01*
X134529286Y-91349286D01*
X134601857Y-91313000D01*
X134819571Y-91313000D01*
X134892143Y-91349286D01*
X134928429Y-91385572D01*
X134964714Y-91458143D01*
X134964714Y-91603286D01*
X134928429Y-91675857D01*
X134964714Y-90659857D02*
X134565571Y-90659857D01*
X134493000Y-90696143D01*
X134456714Y-90768714D01*
X134456714Y-90913857D01*
X134493000Y-90986428D01*
X134928429Y-90659857D02*
X134964714Y-90732428D01*
X134964714Y-90913857D01*
X134928429Y-90986428D01*
X134855857Y-91022714D01*
X134783286Y-91022714D01*
X134710714Y-90986428D01*
X134674429Y-90913857D01*
X134674429Y-90732428D01*
X134638143Y-90659857D01*
X134928429Y-90333285D02*
X134964714Y-90260714D01*
X134964714Y-90115571D01*
X134928429Y-90042999D01*
X134855857Y-90006714D01*
X134819571Y-90006714D01*
X134747000Y-90042999D01*
X134710714Y-90115571D01*
X134710714Y-90224428D01*
X134674429Y-90296999D01*
X134601857Y-90333285D01*
X134565571Y-90333285D01*
X134493000Y-90296999D01*
X134456714Y-90224428D01*
X134456714Y-90115571D01*
X134493000Y-90042999D01*
X134964714Y-89571285D02*
X134928429Y-89643857D01*
X134855857Y-89680142D01*
X134202714Y-89680142D01*
X134964714Y-88954428D02*
X134565571Y-88954428D01*
X134493000Y-88990714D01*
X134456714Y-89063285D01*
X134456714Y-89208428D01*
X134493000Y-89280999D01*
X134928429Y-88954428D02*
X134964714Y-89026999D01*
X134964714Y-89208428D01*
X134928429Y-89280999D01*
X134855857Y-89317285D01*
X134783286Y-89317285D01*
X134710714Y-89280999D01*
X134674429Y-89208428D01*
X134674429Y-89026999D01*
X134638143Y-88954428D01*
X134964714Y-88591570D02*
X134202714Y-88591570D01*
X134493000Y-88591570D02*
X134456714Y-88518999D01*
X134456714Y-88373856D01*
X134493000Y-88301285D01*
X134529286Y-88264999D01*
X134601857Y-88228713D01*
X134819571Y-88228713D01*
X134892143Y-88264999D01*
X134928429Y-88301285D01*
X134964714Y-88373856D01*
X134964714Y-88518999D01*
X134928429Y-88591570D01*
X134928429Y-87938427D02*
X134964714Y-87865856D01*
X134964714Y-87720713D01*
X134928429Y-87648141D01*
X134855857Y-87611856D01*
X134819571Y-87611856D01*
X134747000Y-87648141D01*
X134710714Y-87720713D01*
X134710714Y-87829570D01*
X134674429Y-87902141D01*
X134601857Y-87938427D01*
X134565571Y-87938427D01*
X134493000Y-87902141D01*
X134456714Y-87829570D01*
X134456714Y-87720713D01*
X134493000Y-87648141D01*
X134166429Y-86740999D02*
X135146143Y-87394142D01*
X134964714Y-86378141D02*
X134928429Y-86450713D01*
X134892143Y-86486998D01*
X134819571Y-86523284D01*
X134601857Y-86523284D01*
X134529286Y-86486998D01*
X134493000Y-86450713D01*
X134456714Y-86378141D01*
X134456714Y-86269284D01*
X134493000Y-86196713D01*
X134529286Y-86160427D01*
X134601857Y-86124141D01*
X134819571Y-86124141D01*
X134892143Y-86160427D01*
X134928429Y-86196713D01*
X134964714Y-86269284D01*
X134964714Y-86378141D01*
X134456714Y-85797569D02*
X135218714Y-85797569D01*
X134493000Y-85797569D02*
X134456714Y-85724998D01*
X134456714Y-85579855D01*
X134493000Y-85507284D01*
X134529286Y-85470998D01*
X134601857Y-85434712D01*
X134819571Y-85434712D01*
X134892143Y-85470998D01*
X134928429Y-85507284D01*
X134964714Y-85579855D01*
X134964714Y-85724998D01*
X134928429Y-85797569D01*
X134964714Y-84781569D02*
X134565571Y-84781569D01*
X134493000Y-84817855D01*
X134456714Y-84890426D01*
X134456714Y-85035569D01*
X134493000Y-85108140D01*
X134928429Y-84781569D02*
X134964714Y-84854140D01*
X134964714Y-85035569D01*
X134928429Y-85108140D01*
X134855857Y-85144426D01*
X134783286Y-85144426D01*
X134710714Y-85108140D01*
X134674429Y-85035569D01*
X134674429Y-84854140D01*
X134638143Y-84781569D01*
X134964714Y-84418711D02*
X134456714Y-84418711D01*
X134529286Y-84418711D02*
X134493000Y-84382426D01*
X134456714Y-84309854D01*
X134456714Y-84200997D01*
X134493000Y-84128426D01*
X134565571Y-84092140D01*
X134964714Y-84092140D01*
X134565571Y-84092140D02*
X134493000Y-84055854D01*
X134456714Y-83983283D01*
X134456714Y-83874426D01*
X134493000Y-83801854D01*
X134565571Y-83765569D01*
X134964714Y-83765569D01*
X134456714Y-83402711D02*
X135218714Y-83402711D01*
X134493000Y-83402711D02*
X134456714Y-83330140D01*
X134456714Y-83184997D01*
X134493000Y-83112426D01*
X134529286Y-83076140D01*
X134601857Y-83039854D01*
X134819571Y-83039854D01*
X134892143Y-83076140D01*
X134928429Y-83112426D01*
X134964714Y-83184997D01*
X134964714Y-83330140D01*
X134928429Y-83402711D01*
X134674429Y-82713282D02*
X134674429Y-82132711D01*
X134456714Y-81842425D02*
X134964714Y-81660996D01*
X134456714Y-81479568D01*
X134964714Y-81080425D02*
X134928429Y-81152997D01*
X134892143Y-81189282D01*
X134819571Y-81225568D01*
X134601857Y-81225568D01*
X134529286Y-81189282D01*
X134493000Y-81152997D01*
X134456714Y-81080425D01*
X134456714Y-80971568D01*
X134493000Y-80898997D01*
X134529286Y-80862711D01*
X134601857Y-80826425D01*
X134819571Y-80826425D01*
X134892143Y-80862711D01*
X134928429Y-80898997D01*
X134964714Y-80971568D01*
X134964714Y-81080425D01*
X134928429Y-80536139D02*
X134964714Y-80463568D01*
X134964714Y-80318425D01*
X134928429Y-80245853D01*
X134855857Y-80209568D01*
X134819571Y-80209568D01*
X134747000Y-80245853D01*
X134710714Y-80318425D01*
X134710714Y-80427282D01*
X134674429Y-80499853D01*
X134601857Y-80536139D01*
X134565571Y-80536139D01*
X134493000Y-80499853D01*
X134456714Y-80427282D01*
X134456714Y-80318425D01*
X134493000Y-80245853D01*
D14*
X132228167Y-102129164D02*
X132228167Y-101959831D01*
X132270500Y-101875164D01*
X132355167Y-101790497D01*
X132524500Y-101748164D01*
X132820833Y-101748164D01*
X132990167Y-101790497D01*
X133074833Y-101875164D01*
X133117167Y-101959831D01*
X133117167Y-102129164D01*
X133074833Y-102213831D01*
X132990167Y-102298497D01*
X132820833Y-102340831D01*
X132524500Y-102340831D01*
X132355167Y-102298497D01*
X132270500Y-102213831D01*
X132228167Y-102129164D01*
X132524500Y-101367164D02*
X133413500Y-101367164D01*
X132566833Y-101367164D02*
X132524500Y-101282498D01*
X132524500Y-101113164D01*
X132566833Y-101028498D01*
X132609167Y-100986164D01*
X132693833Y-100943831D01*
X132947833Y-100943831D01*
X133032500Y-100986164D01*
X133074833Y-101028498D01*
X133117167Y-101113164D01*
X133117167Y-101282498D01*
X133074833Y-101367164D01*
X133117167Y-100181831D02*
X132651500Y-100181831D01*
X132566833Y-100224165D01*
X132524500Y-100308831D01*
X132524500Y-100478165D01*
X132566833Y-100562831D01*
X133074833Y-100181831D02*
X133117167Y-100266498D01*
X133117167Y-100478165D01*
X133074833Y-100562831D01*
X132990167Y-100605165D01*
X132905500Y-100605165D01*
X132820833Y-100562831D01*
X132778500Y-100478165D01*
X132778500Y-100266498D01*
X132736167Y-100181831D01*
X133117167Y-99758498D02*
X132524500Y-99758498D01*
X132609167Y-99758498D02*
X132566833Y-99716165D01*
X132524500Y-99631498D01*
X132524500Y-99504498D01*
X132566833Y-99419832D01*
X132651500Y-99377498D01*
X133117167Y-99377498D01*
X132651500Y-99377498D02*
X132566833Y-99335165D01*
X132524500Y-99250498D01*
X132524500Y-99123498D01*
X132566833Y-99038832D01*
X132651500Y-98996498D01*
X133117167Y-98996498D01*
X132524500Y-98573165D02*
X133413500Y-98573165D01*
X132566833Y-98573165D02*
X132524500Y-98488499D01*
X132524500Y-98319165D01*
X132566833Y-98234499D01*
X132609167Y-98192165D01*
X132693833Y-98149832D01*
X132947833Y-98149832D01*
X133032500Y-98192165D01*
X133074833Y-98234499D01*
X133117167Y-98319165D01*
X133117167Y-98488499D01*
X133074833Y-98573165D01*
X133117167Y-97091499D02*
X132228167Y-97091499D01*
X132524500Y-96668166D02*
X133117167Y-96668166D01*
X132609167Y-96668166D02*
X132566833Y-96625833D01*
X132524500Y-96541166D01*
X132524500Y-96414166D01*
X132566833Y-96329500D01*
X132651500Y-96287166D01*
X133117167Y-96287166D01*
X132524500Y-95863833D02*
X133413500Y-95863833D01*
X132566833Y-95863833D02*
X132524500Y-95779167D01*
X132524500Y-95609833D01*
X132566833Y-95525167D01*
X132609167Y-95482833D01*
X132693833Y-95440500D01*
X132947833Y-95440500D01*
X133032500Y-95482833D01*
X133074833Y-95525167D01*
X133117167Y-95609833D01*
X133117167Y-95779167D01*
X133074833Y-95863833D01*
X132524500Y-94678500D02*
X133117167Y-94678500D01*
X132524500Y-95059500D02*
X132990167Y-95059500D01*
X133074833Y-95017167D01*
X133117167Y-94932500D01*
X133117167Y-94805500D01*
X133074833Y-94720834D01*
X133032500Y-94678500D01*
X132524500Y-94382167D02*
X132524500Y-94043501D01*
X132228167Y-94255167D02*
X132990167Y-94255167D01*
X133074833Y-94212834D01*
X133117167Y-94128167D01*
X133117167Y-94043501D01*
X132228167Y-92900501D02*
X132228167Y-92731168D01*
X132270500Y-92646501D01*
X132355167Y-92561834D01*
X132524500Y-92519501D01*
X132820833Y-92519501D01*
X132990167Y-92561834D01*
X133074833Y-92646501D01*
X133117167Y-92731168D01*
X133117167Y-92900501D01*
X133074833Y-92985168D01*
X132990167Y-93069834D01*
X132820833Y-93112168D01*
X132524500Y-93112168D01*
X132355167Y-93069834D01*
X132270500Y-92985168D01*
X132228167Y-92900501D01*
X132524500Y-92265501D02*
X132524500Y-91926835D01*
X133117167Y-92138501D02*
X132355167Y-92138501D01*
X132270500Y-92096168D01*
X132228167Y-92011501D01*
X132228167Y-91926835D01*
X132524500Y-91757501D02*
X132524500Y-91418835D01*
X133117167Y-91630501D02*
X132355167Y-91630501D01*
X132270500Y-91588168D01*
X132228167Y-91503501D01*
X132228167Y-91418835D01*
X133074833Y-91164835D02*
X133117167Y-91080168D01*
X133117167Y-90910835D01*
X133074833Y-90826168D01*
X132990167Y-90783835D01*
X132947833Y-90783835D01*
X132863167Y-90826168D01*
X132820833Y-90910835D01*
X132820833Y-91037835D01*
X132778500Y-91122501D01*
X132693833Y-91164835D01*
X132651500Y-91164835D01*
X132566833Y-91122501D01*
X132524500Y-91037835D01*
X132524500Y-90910835D01*
X132566833Y-90826168D01*
X133074833Y-90064168D02*
X133117167Y-90148834D01*
X133117167Y-90318168D01*
X133074833Y-90402834D01*
X132990167Y-90445168D01*
X132651500Y-90445168D01*
X132566833Y-90402834D01*
X132524500Y-90318168D01*
X132524500Y-90148834D01*
X132566833Y-90064168D01*
X132651500Y-90021834D01*
X132736167Y-90021834D01*
X132820833Y-90445168D01*
X132524500Y-89767834D02*
X132524500Y-89429168D01*
X132228167Y-89640834D02*
X132990167Y-89640834D01*
X133074833Y-89598501D01*
X133117167Y-89513834D01*
X133117167Y-89429168D01*
X132228167Y-88582501D02*
X133117167Y-88286168D01*
X132228167Y-87989835D01*
X133117167Y-87566501D02*
X133074833Y-87651168D01*
X133032500Y-87693501D01*
X132947833Y-87735835D01*
X132693833Y-87735835D01*
X132609167Y-87693501D01*
X132566833Y-87651168D01*
X132524500Y-87566501D01*
X132524500Y-87439501D01*
X132566833Y-87354835D01*
X132609167Y-87312501D01*
X132693833Y-87270168D01*
X132947833Y-87270168D01*
X133032500Y-87312501D01*
X133074833Y-87354835D01*
X133117167Y-87439501D01*
X133117167Y-87566501D01*
X133117167Y-86762168D02*
X133074833Y-86846835D01*
X132990167Y-86889168D01*
X132228167Y-86889168D01*
X132524500Y-86550501D02*
X132524500Y-86211835D01*
X132228167Y-86423501D02*
X132990167Y-86423501D01*
X133074833Y-86381168D01*
X133117167Y-86296501D01*
X133117167Y-86211835D01*
X133117167Y-85534501D02*
X132651500Y-85534501D01*
X132566833Y-85576835D01*
X132524500Y-85661501D01*
X132524500Y-85830835D01*
X132566833Y-85915501D01*
X133074833Y-85534501D02*
X133117167Y-85619168D01*
X133117167Y-85830835D01*
X133074833Y-85915501D01*
X132990167Y-85957835D01*
X132905500Y-85957835D01*
X132820833Y-85915501D01*
X132778500Y-85830835D01*
X132778500Y-85619168D01*
X132736167Y-85534501D01*
X132524500Y-84730168D02*
X133244167Y-84730168D01*
X133328833Y-84772502D01*
X133371167Y-84814835D01*
X133413500Y-84899502D01*
X133413500Y-85026502D01*
X133371167Y-85111168D01*
X133074833Y-84730168D02*
X133117167Y-84814835D01*
X133117167Y-84984168D01*
X133074833Y-85068835D01*
X133032500Y-85111168D01*
X132947833Y-85153502D01*
X132693833Y-85153502D01*
X132609167Y-85111168D01*
X132566833Y-85068835D01*
X132524500Y-84984168D01*
X132524500Y-84814835D01*
X132566833Y-84730168D01*
X133074833Y-83968169D02*
X133117167Y-84052835D01*
X133117167Y-84222169D01*
X133074833Y-84306835D01*
X132990167Y-84349169D01*
X132651500Y-84349169D01*
X132566833Y-84306835D01*
X132524500Y-84222169D01*
X132524500Y-84052835D01*
X132566833Y-83968169D01*
X132651500Y-83925835D01*
X132736167Y-83925835D01*
X132820833Y-84349169D01*
X132228167Y-82994502D02*
X132228167Y-82486502D01*
X133117167Y-82740502D02*
X132228167Y-82740502D01*
X133074833Y-81851503D02*
X133117167Y-81936169D01*
X133117167Y-82105503D01*
X133074833Y-82190169D01*
X132990167Y-82232503D01*
X132651500Y-82232503D01*
X132566833Y-82190169D01*
X132524500Y-82105503D01*
X132524500Y-81936169D01*
X132566833Y-81851503D01*
X132651500Y-81809169D01*
X132736167Y-81809169D01*
X132820833Y-82232503D01*
X133074833Y-81470503D02*
X133117167Y-81385836D01*
X133117167Y-81216503D01*
X133074833Y-81131836D01*
X132990167Y-81089503D01*
X132947833Y-81089503D01*
X132863167Y-81131836D01*
X132820833Y-81216503D01*
X132820833Y-81343503D01*
X132778500Y-81428169D01*
X132693833Y-81470503D01*
X132651500Y-81470503D01*
X132566833Y-81428169D01*
X132524500Y-81343503D01*
X132524500Y-81216503D01*
X132566833Y-81131836D01*
X132524500Y-80835502D02*
X132524500Y-80496836D01*
X132228167Y-80708502D02*
X132990167Y-80708502D01*
X133074833Y-80666169D01*
X133117167Y-80581502D01*
X133117167Y-80496836D01*
X133074833Y-79861836D02*
X133117167Y-79946502D01*
X133117167Y-80115836D01*
X133074833Y-80200502D01*
X132990167Y-80242836D01*
X132651500Y-80242836D01*
X132566833Y-80200502D01*
X132524500Y-80115836D01*
X132524500Y-79946502D01*
X132566833Y-79861836D01*
X132651500Y-79819502D01*
X132736167Y-79819502D01*
X132820833Y-80242836D01*
X133117167Y-79438502D02*
X132524500Y-79438502D01*
X132693833Y-79438502D02*
X132609167Y-79396169D01*
X132566833Y-79353836D01*
X132524500Y-79269169D01*
X132524500Y-79184502D01*
D12*
X124623286Y-89613619D02*
X124961953Y-90629619D01*
X125300619Y-89613619D01*
X126219857Y-90629619D02*
X125881191Y-90145810D01*
X125639286Y-90629619D02*
X125639286Y-89613619D01*
X126026333Y-89613619D01*
X126123095Y-89662000D01*
X126171476Y-89710381D01*
X126219857Y-89807143D01*
X126219857Y-89952286D01*
X126171476Y-90049048D01*
X126123095Y-90097429D01*
X126026333Y-90145810D01*
X125639286Y-90145810D01*
X126655286Y-90097429D02*
X126993952Y-90097429D01*
X127139095Y-90629619D02*
X126655286Y-90629619D01*
X126655286Y-89613619D01*
X127139095Y-89613619D01*
X127913190Y-90097429D02*
X127574524Y-90097429D01*
X127574524Y-90629619D02*
X127574524Y-89613619D01*
X128058333Y-89613619D01*
X163261524Y-102948619D02*
X163600191Y-103964619D01*
X163938857Y-102948619D01*
X164471048Y-102948619D02*
X164664571Y-102948619D01*
X164761333Y-102997000D01*
X164858095Y-103093762D01*
X164906476Y-103287286D01*
X164906476Y-103625952D01*
X164858095Y-103819476D01*
X164761333Y-103916238D01*
X164664571Y-103964619D01*
X164471048Y-103964619D01*
X164374286Y-103916238D01*
X164277524Y-103819476D01*
X164229143Y-103625952D01*
X164229143Y-103287286D01*
X164277524Y-103093762D01*
X164374286Y-102997000D01*
X164471048Y-102948619D01*
X165293524Y-103916238D02*
X165438667Y-103964619D01*
X165680571Y-103964619D01*
X165777333Y-103916238D01*
X165825714Y-103867857D01*
X165874095Y-103771095D01*
X165874095Y-103674333D01*
X165825714Y-103577571D01*
X165777333Y-103529190D01*
X165680571Y-103480810D01*
X165487048Y-103432429D01*
X165390286Y-103384048D01*
X165341905Y-103335667D01*
X165293524Y-103238905D01*
X165293524Y-103142143D01*
X165341905Y-103045381D01*
X165390286Y-102997000D01*
X165487048Y-102948619D01*
X165728952Y-102948619D01*
X165874095Y-102997000D01*
X166744952Y-103287286D02*
X166744952Y-103964619D01*
X166503048Y-102900238D02*
X166261143Y-103625952D01*
X166890095Y-103625952D01*
X163261524Y-95328619D02*
X163600191Y-96344619D01*
X163938857Y-95328619D01*
X164471048Y-95328619D02*
X164664571Y-95328619D01*
X164761333Y-95377000D01*
X164858095Y-95473762D01*
X164906476Y-95667286D01*
X164906476Y-96005952D01*
X164858095Y-96199476D01*
X164761333Y-96296238D01*
X164664571Y-96344619D01*
X164471048Y-96344619D01*
X164374286Y-96296238D01*
X164277524Y-96199476D01*
X164229143Y-96005952D01*
X164229143Y-95667286D01*
X164277524Y-95473762D01*
X164374286Y-95377000D01*
X164471048Y-95328619D01*
X165293524Y-96296238D02*
X165438667Y-96344619D01*
X165680571Y-96344619D01*
X165777333Y-96296238D01*
X165825714Y-96247857D01*
X165874095Y-96151095D01*
X165874095Y-96054333D01*
X165825714Y-95957571D01*
X165777333Y-95909190D01*
X165680571Y-95860810D01*
X165487048Y-95812429D01*
X165390286Y-95764048D01*
X165341905Y-95715667D01*
X165293524Y-95618905D01*
X165293524Y-95522143D01*
X165341905Y-95425381D01*
X165390286Y-95377000D01*
X165487048Y-95328619D01*
X165728952Y-95328619D01*
X165874095Y-95377000D01*
X166212762Y-95328619D02*
X166841714Y-95328619D01*
X166503048Y-95715667D01*
X166648190Y-95715667D01*
X166744952Y-95764048D01*
X166793333Y-95812429D01*
X166841714Y-95909190D01*
X166841714Y-96151095D01*
X166793333Y-96247857D01*
X166744952Y-96296238D01*
X166648190Y-96344619D01*
X166357905Y-96344619D01*
X166261143Y-96296238D01*
X166212762Y-96247857D01*
X163261524Y-87708619D02*
X163600191Y-88724619D01*
X163938857Y-87708619D01*
X164471048Y-87708619D02*
X164664571Y-87708619D01*
X164761333Y-87757000D01*
X164858095Y-87853762D01*
X164906476Y-88047286D01*
X164906476Y-88385952D01*
X164858095Y-88579476D01*
X164761333Y-88676238D01*
X164664571Y-88724619D01*
X164471048Y-88724619D01*
X164374286Y-88676238D01*
X164277524Y-88579476D01*
X164229143Y-88385952D01*
X164229143Y-88047286D01*
X164277524Y-87853762D01*
X164374286Y-87757000D01*
X164471048Y-87708619D01*
X165293524Y-88676238D02*
X165438667Y-88724619D01*
X165680571Y-88724619D01*
X165777333Y-88676238D01*
X165825714Y-88627857D01*
X165874095Y-88531095D01*
X165874095Y-88434333D01*
X165825714Y-88337571D01*
X165777333Y-88289190D01*
X165680571Y-88240810D01*
X165487048Y-88192429D01*
X165390286Y-88144048D01*
X165341905Y-88095667D01*
X165293524Y-87998905D01*
X165293524Y-87902143D01*
X165341905Y-87805381D01*
X165390286Y-87757000D01*
X165487048Y-87708619D01*
X165728952Y-87708619D01*
X165874095Y-87757000D01*
X166261143Y-87805381D02*
X166309524Y-87757000D01*
X166406286Y-87708619D01*
X166648190Y-87708619D01*
X166744952Y-87757000D01*
X166793333Y-87805381D01*
X166841714Y-87902143D01*
X166841714Y-87998905D01*
X166793333Y-88144048D01*
X166212762Y-88724619D01*
X166841714Y-88724619D01*
X163261524Y-80088619D02*
X163600191Y-81104619D01*
X163938857Y-80088619D01*
X164471048Y-80088619D02*
X164664571Y-80088619D01*
X164761333Y-80137000D01*
X164858095Y-80233762D01*
X164906476Y-80427286D01*
X164906476Y-80765952D01*
X164858095Y-80959476D01*
X164761333Y-81056238D01*
X164664571Y-81104619D01*
X164471048Y-81104619D01*
X164374286Y-81056238D01*
X164277524Y-80959476D01*
X164229143Y-80765952D01*
X164229143Y-80427286D01*
X164277524Y-80233762D01*
X164374286Y-80137000D01*
X164471048Y-80088619D01*
X165293524Y-81056238D02*
X165438667Y-81104619D01*
X165680571Y-81104619D01*
X165777333Y-81056238D01*
X165825714Y-81007857D01*
X165874095Y-80911095D01*
X165874095Y-80814333D01*
X165825714Y-80717571D01*
X165777333Y-80669190D01*
X165680571Y-80620810D01*
X165487048Y-80572429D01*
X165390286Y-80524048D01*
X165341905Y-80475667D01*
X165293524Y-80378905D01*
X165293524Y-80282143D01*
X165341905Y-80185381D01*
X165390286Y-80137000D01*
X165487048Y-80088619D01*
X165728952Y-80088619D01*
X165874095Y-80137000D01*
X166841714Y-81104619D02*
X166261143Y-81104619D01*
X166551429Y-81104619D02*
X166551429Y-80088619D01*
X166454667Y-80233762D01*
X166357905Y-80330524D01*
X166261143Y-80378905D01*
D13*
X123970143Y-74627014D02*
X123970143Y-73865014D01*
X124260428Y-73865014D01*
X124333000Y-73901300D01*
X124369285Y-73937586D01*
X124405571Y-74010157D01*
X124405571Y-74119014D01*
X124369285Y-74191586D01*
X124333000Y-74227871D01*
X124260428Y-74264157D01*
X123970143Y-74264157D01*
X124877285Y-73865014D02*
X125022428Y-73865014D01*
X125095000Y-73901300D01*
X125167571Y-73973871D01*
X125203857Y-74119014D01*
X125203857Y-74373014D01*
X125167571Y-74518157D01*
X125095000Y-74590729D01*
X125022428Y-74627014D01*
X124877285Y-74627014D01*
X124804714Y-74590729D01*
X124732143Y-74518157D01*
X124695857Y-74373014D01*
X124695857Y-74119014D01*
X124732143Y-73973871D01*
X124804714Y-73901300D01*
X124877285Y-73865014D01*
X125457857Y-73865014D02*
X125639286Y-74627014D01*
X125784429Y-74082729D01*
X125929571Y-74627014D01*
X126111000Y-73865014D01*
X126401286Y-74227871D02*
X126655286Y-74227871D01*
X126764143Y-74627014D02*
X126401286Y-74627014D01*
X126401286Y-73865014D01*
X126764143Y-73865014D01*
X127526143Y-74627014D02*
X127272143Y-74264157D01*
X127090715Y-74627014D02*
X127090715Y-73865014D01*
X127381000Y-73865014D01*
X127453572Y-73901300D01*
X127489857Y-73937586D01*
X127526143Y-74010157D01*
X127526143Y-74119014D01*
X127489857Y-74191586D01*
X127453572Y-74227871D01*
X127381000Y-74264157D01*
X127090715Y-74264157D01*
X124931715Y-76212700D02*
X124895429Y-76176414D01*
X124822858Y-76067557D01*
X124786572Y-75994986D01*
X124750286Y-75886129D01*
X124714001Y-75704700D01*
X124714001Y-75559557D01*
X124750286Y-75378129D01*
X124786572Y-75269271D01*
X124822858Y-75196700D01*
X124895429Y-75087843D01*
X124931715Y-75051557D01*
X125258286Y-75922414D02*
X125403429Y-75922414D01*
X125476001Y-75886129D01*
X125512286Y-75849843D01*
X125584858Y-75740986D01*
X125621143Y-75595843D01*
X125621143Y-75305557D01*
X125584858Y-75232986D01*
X125548572Y-75196700D01*
X125476001Y-75160414D01*
X125330858Y-75160414D01*
X125258286Y-75196700D01*
X125222001Y-75232986D01*
X125185715Y-75305557D01*
X125185715Y-75486986D01*
X125222001Y-75559557D01*
X125258286Y-75595843D01*
X125330858Y-75632129D01*
X125476001Y-75632129D01*
X125548572Y-75595843D01*
X125584858Y-75559557D01*
X125621143Y-75486986D01*
X125838857Y-75160414D02*
X126092857Y-75922414D01*
X126346857Y-75160414D01*
X126528286Y-76212700D02*
X126564572Y-76176414D01*
X126637143Y-76067557D01*
X126673429Y-75994986D01*
X126709715Y-75886129D01*
X126746000Y-75704700D01*
X126746000Y-75559557D01*
X126709715Y-75378129D01*
X126673429Y-75269271D01*
X126637143Y-75196700D01*
X126564572Y-75087843D01*
X126528286Y-75051557D01*
D15*
X168330000Y-109220000D02*
G75*
G03X168330000Y-109220000I-4500000J0D01*
G01*
X126420000Y-109220000D02*
G75*
G03X126420000Y-109220000I-4500000J0D01*
G01*
X168330000Y-67310000D02*
G75*
G03X168330000Y-67310000I-4500000J0D01*
G01*
X126420000Y-67310000D02*
G75*
G03X126420000Y-67310000I-4500000J0D01*
G01*
D16*
X157480000Y-72390000D02*
G75*
G03X157480000Y-72390000I-2540000J0D01*
G01*
X159004000Y-72644000D02*
X166116000Y-72644000D01*
X166116000Y-72644000D02*
X166116000Y-74676000D01*
X166116000Y-74676000D02*
X159004000Y-74676000D01*
X159004000Y-74676000D02*
X159004000Y-72644000D01*
X159255000Y-77340000D02*
X162055000Y-77340000D01*
X162055000Y-80140000D02*
G75*
G03X162055000Y-77340000I-1400000J1400000D01*
G01*
X159255000Y-80140000D02*
G75*
G03X162055000Y-80140000I1400000J1400000D01*
G01*
X159255000Y-77340000D02*
G75*
G03X159255000Y-80140000I1400000J-1400000D01*
G01*
X159255000Y-84960000D02*
X162055000Y-84960000D01*
X162055000Y-87760000D02*
G75*
G03X162055000Y-84960000I-1400000J1400000D01*
G01*
X159255000Y-87760000D02*
G75*
G03X162055000Y-87760000I1400000J1400000D01*
G01*
X159255000Y-84960000D02*
G75*
G03X159255000Y-87760000I1400000J-1400000D01*
G01*
X159255000Y-92580000D02*
X162055000Y-92580000D01*
X162055000Y-95380000D02*
G75*
G03X162055000Y-92580000I-1400000J1400000D01*
G01*
X159255000Y-95380000D02*
G75*
G03X162055000Y-95380000I1400000J1400000D01*
G01*
X159255000Y-92580000D02*
G75*
G03X159255000Y-95380000I1400000J-1400000D01*
G01*
X159255000Y-100200000D02*
X162055000Y-100200000D01*
X162055000Y-103000000D02*
G75*
G03X162055000Y-100200000I-1400000J1400000D01*
G01*
X159255000Y-103000000D02*
G75*
G03X162055000Y-103000000I1400000J1400000D01*
G01*
X159255000Y-100200000D02*
G75*
G03X159255000Y-103000000I1400000J-1400000D01*
G01*
X139570000Y-68075000D02*
X139570000Y-65275000D01*
X142370000Y-65275000D02*
G75*
G03X139570000Y-65275000I-1400000J-1400000D01*
G01*
X142370000Y-68075000D02*
G75*
G03X142370000Y-65275000I-1400000J1400000D01*
G01*
X139570000Y-68075000D02*
G75*
G03X142370000Y-68075000I1400000J1400000D01*
G01*
D15*
X154940000Y-81026000D02*
X157099000Y-81026000D01*
X157099000Y-81026000D02*
X157099000Y-76454000D01*
X157099000Y-76454000D02*
X154940000Y-76454000D01*
X154940000Y-76454000D02*
G75*
G03X152654000Y-78740000I0J-2286000D01*
G01*
X152654000Y-78740000D02*
G75*
G03X154940000Y-81026000I2286000J0D01*
G01*
X154940000Y-88646000D02*
X157099000Y-88646000D01*
X157099000Y-88646000D02*
X157099000Y-84074000D01*
X157099000Y-84074000D02*
X154940000Y-84074000D01*
X154940000Y-84074000D02*
G75*
G03X152654000Y-86360000I0J-2286000D01*
G01*
X152654000Y-86360000D02*
G75*
G03X154940000Y-88646000I2286000J0D01*
G01*
X154940000Y-96266000D02*
X157099000Y-96266000D01*
X157099000Y-96266000D02*
X157099000Y-91694000D01*
X157099000Y-91694000D02*
X154940000Y-91694000D01*
X154940000Y-91694000D02*
G75*
G03X152654000Y-93980000I0J-2286000D01*
G01*
X152654000Y-93980000D02*
G75*
G03X154940000Y-96266000I2286000J0D01*
G01*
X154940000Y-103886000D02*
X157099000Y-103886000D01*
X157099000Y-103886000D02*
X157099000Y-99314000D01*
X157099000Y-99314000D02*
X154940000Y-99314000D01*
X154940000Y-99314000D02*
G75*
G03X152654000Y-101600000I0J-2286000D01*
G01*
X152654000Y-101600000D02*
G75*
G03X154940000Y-103886000I2286000J0D01*
G01*
D16*
X137160000Y-78105000D02*
X137160000Y-79121000D01*
X137160000Y-79121000D02*
X138176000Y-79121000D01*
X138176000Y-79121000D02*
X138176000Y-87249000D01*
X138176000Y-87249000D02*
X136144000Y-87249000D01*
X136144000Y-87249000D02*
X136144000Y-79121000D01*
X136144000Y-79121000D02*
X137160000Y-79121000D01*
X137160000Y-88265000D02*
X137160000Y-87249000D01*
X137160000Y-90805000D02*
X137160000Y-91821000D01*
X137160000Y-91821000D02*
X138176000Y-91821000D01*
X138176000Y-91821000D02*
X138176000Y-99949000D01*
X138176000Y-99949000D02*
X136144000Y-99949000D01*
X136144000Y-99949000D02*
X136144000Y-91821000D01*
X136144000Y-91821000D02*
X137160000Y-91821000D01*
X137160000Y-100965000D02*
X137160000Y-99949000D01*
X150495000Y-75565000D02*
X149479000Y-75565000D01*
X149479000Y-75565000D02*
X149479000Y-76581000D01*
X149479000Y-76581000D02*
X141351000Y-76581000D01*
X141351000Y-76581000D02*
X141351000Y-74549000D01*
X141351000Y-74549000D02*
X149479000Y-74549000D01*
X149479000Y-74549000D02*
X149479000Y-75565000D01*
X140335000Y-75565000D02*
X141351000Y-75565000D01*
X150495000Y-81915000D02*
X149479000Y-81915000D01*
X149479000Y-81915000D02*
X149479000Y-82931000D01*
X149479000Y-82931000D02*
X141351000Y-82931000D01*
X141351000Y-82931000D02*
X141351000Y-80899000D01*
X141351000Y-80899000D02*
X149479000Y-80899000D01*
X149479000Y-80899000D02*
X149479000Y-81915000D01*
X140335000Y-81915000D02*
X141351000Y-81915000D01*
X150495000Y-86995000D02*
X149479000Y-86995000D01*
X149479000Y-86995000D02*
X149479000Y-88011000D01*
X149479000Y-88011000D02*
X141351000Y-88011000D01*
X141351000Y-88011000D02*
X141351000Y-85979000D01*
X141351000Y-85979000D02*
X149479000Y-85979000D01*
X149479000Y-85979000D02*
X149479000Y-86995000D01*
X140335000Y-86995000D02*
X141351000Y-86995000D01*
X140335000Y-84455000D02*
X141351000Y-84455000D01*
X141351000Y-84455000D02*
X141351000Y-83439000D01*
X141351000Y-83439000D02*
X149479000Y-83439000D01*
X149479000Y-83439000D02*
X149479000Y-85471000D01*
X149479000Y-85471000D02*
X141351000Y-85471000D01*
X141351000Y-85471000D02*
X141351000Y-84455000D01*
X150495000Y-84455000D02*
X149479000Y-84455000D01*
X140335000Y-89535000D02*
X141351000Y-89535000D01*
X141351000Y-89535000D02*
X141351000Y-88519000D01*
X141351000Y-88519000D02*
X149479000Y-88519000D01*
X149479000Y-88519000D02*
X149479000Y-90551000D01*
X149479000Y-90551000D02*
X141351000Y-90551000D01*
X141351000Y-90551000D02*
X141351000Y-89535000D01*
X150495000Y-89535000D02*
X149479000Y-89535000D01*
X150495000Y-92075000D02*
X149479000Y-92075000D01*
X149479000Y-92075000D02*
X149479000Y-93091000D01*
X149479000Y-93091000D02*
X141351000Y-93091000D01*
X141351000Y-93091000D02*
X141351000Y-91059000D01*
X141351000Y-91059000D02*
X149479000Y-91059000D01*
X149479000Y-91059000D02*
X149479000Y-92075000D01*
X140335000Y-92075000D02*
X141351000Y-92075000D01*
X150495000Y-97155000D02*
X149479000Y-97155000D01*
X149479000Y-97155000D02*
X149479000Y-98171000D01*
X149479000Y-98171000D02*
X141351000Y-98171000D01*
X141351000Y-98171000D02*
X141351000Y-96139000D01*
X141351000Y-96139000D02*
X149479000Y-96139000D01*
X149479000Y-96139000D02*
X149479000Y-97155000D01*
X140335000Y-97155000D02*
X141351000Y-97155000D01*
X140335000Y-94615000D02*
X141351000Y-94615000D01*
X141351000Y-94615000D02*
X141351000Y-93599000D01*
X141351000Y-93599000D02*
X149479000Y-93599000D01*
X149479000Y-93599000D02*
X149479000Y-95631000D01*
X149479000Y-95631000D02*
X141351000Y-95631000D01*
X141351000Y-95631000D02*
X141351000Y-94615000D01*
X150495000Y-94615000D02*
X149479000Y-94615000D01*
X140335000Y-99695000D02*
X141351000Y-99695000D01*
X141351000Y-99695000D02*
X141351000Y-98679000D01*
X141351000Y-98679000D02*
X149479000Y-98679000D01*
X149479000Y-98679000D02*
X149479000Y-100711000D01*
X149479000Y-100711000D02*
X141351000Y-100711000D01*
X141351000Y-100711000D02*
X141351000Y-99695000D01*
X150495000Y-99695000D02*
X149479000Y-99695000D01*
X144780000Y-64770000D02*
X144780000Y-64135000D01*
X144780000Y-64135000D02*
X154940000Y-64135000D01*
X154940000Y-64135000D02*
X154940000Y-64770000D01*
X144780000Y-68580000D02*
X144780000Y-64770000D01*
X144780000Y-64770000D02*
X154940000Y-64770000D01*
X154940000Y-64770000D02*
X154940000Y-68580000D01*
X154940000Y-68580000D02*
X144780000Y-68580000D01*
X142875000Y-109855000D02*
X150495000Y-109855000D01*
X142875000Y-104775000D02*
X150495000Y-104775000D01*
X133477000Y-107315000D02*
G75*
G03X132715000Y-106553000I-762000J0D01*
G01*
X132715000Y-108077000D02*
G75*
G03X133477000Y-107315000I0J762000D01*
G01*
X132715000Y-104775000D02*
X142875000Y-104775000D01*
X150495000Y-104775000D02*
X150495000Y-109855000D01*
X142875000Y-109855000D02*
X132715000Y-109855000D01*
X132715000Y-109855000D02*
X132715000Y-104775000D01*
X121412000Y-98425000D02*
G75*
G03X120650000Y-97663000I-762000J0D01*
G01*
X120650000Y-99187000D02*
G75*
G03X121412000Y-98425000I0J762000D01*
G01*
X120650000Y-95885000D02*
X130810000Y-95885000D01*
X130810000Y-95885000D02*
X130810000Y-100965000D01*
X130810000Y-100965000D02*
X120650000Y-100965000D01*
X120650000Y-100965000D02*
X120650000Y-95885000D01*
X121412000Y-81915000D02*
G75*
G03X120650000Y-81153000I-762000J0D01*
G01*
X120650000Y-82677000D02*
G75*
G03X121412000Y-81915000I0J762000D01*
G01*
X120650000Y-79375000D02*
X130810000Y-79375000D01*
X130810000Y-79375000D02*
X130810000Y-84455000D01*
X130810000Y-84455000D02*
X120650000Y-84455000D01*
X120650000Y-84455000D02*
X120650000Y-79375000D01*
D17*
G36*
X153728420Y-111015780D02*
X153748740Y-111005620D01*
X153797000Y-110975140D01*
X153863040Y-110931960D01*
X153941780Y-110878620D01*
X154020520Y-110825280D01*
X154086560Y-110782100D01*
X154132280Y-110751620D01*
X154150060Y-110741460D01*
X154160220Y-110744000D01*
X154198320Y-110764320D01*
X154254200Y-110792260D01*
X154284680Y-110807500D01*
X154335480Y-110830360D01*
X154360880Y-110835440D01*
X154363420Y-110827820D01*
X154383740Y-110789720D01*
X154411680Y-110723680D01*
X154449780Y-110637320D01*
X154492960Y-110535720D01*
X154538680Y-110426500D01*
X154584400Y-110314740D01*
X154630120Y-110208060D01*
X154668220Y-110111540D01*
X154701240Y-110035340D01*
X154721560Y-109979460D01*
X154729180Y-109956600D01*
X154726640Y-109951520D01*
X154701240Y-109928660D01*
X154658060Y-109895640D01*
X154561540Y-109816900D01*
X154470100Y-109700060D01*
X154411680Y-109567980D01*
X154393900Y-109420660D01*
X154409140Y-109286040D01*
X154462480Y-109156500D01*
X154553920Y-109037120D01*
X154665680Y-108950760D01*
X154795220Y-108894880D01*
X154940000Y-108877100D01*
X155079700Y-108892340D01*
X155211780Y-108945680D01*
X155331160Y-109034580D01*
X155379420Y-109093000D01*
X155448000Y-109212380D01*
X155488640Y-109339380D01*
X155491180Y-109369860D01*
X155486100Y-109512100D01*
X155445460Y-109646720D01*
X155371800Y-109766100D01*
X155267660Y-109865160D01*
X155254960Y-109875320D01*
X155206700Y-109910880D01*
X155176220Y-109933740D01*
X155150820Y-109954060D01*
X155328620Y-110385860D01*
X155356560Y-110454440D01*
X155407360Y-110571280D01*
X155450540Y-110672880D01*
X155483560Y-110754160D01*
X155508960Y-110807500D01*
X155519120Y-110830360D01*
X155519120Y-110830360D01*
X155534360Y-110832900D01*
X155567380Y-110820200D01*
X155628340Y-110792260D01*
X155668980Y-110771940D01*
X155714700Y-110749080D01*
X155735020Y-110741460D01*
X155752800Y-110751620D01*
X155795980Y-110779560D01*
X155859480Y-110822740D01*
X155935680Y-110873540D01*
X156009340Y-110924340D01*
X156077920Y-110970060D01*
X156126180Y-111000540D01*
X156151580Y-111013240D01*
X156154120Y-111013240D01*
X156174440Y-111000540D01*
X156215080Y-110970060D01*
X156273500Y-110914180D01*
X156354780Y-110832900D01*
X156367480Y-110820200D01*
X156436060Y-110749080D01*
X156491940Y-110690660D01*
X156530040Y-110650020D01*
X156542740Y-110632240D01*
X156542740Y-110632240D01*
X156530040Y-110606840D01*
X156499560Y-110558580D01*
X156453840Y-110490000D01*
X156400500Y-110411260D01*
X156258260Y-110202980D01*
X156337000Y-110007400D01*
X156359860Y-109948980D01*
X156390340Y-109875320D01*
X156413200Y-109824520D01*
X156425900Y-109801660D01*
X156446220Y-109794040D01*
X156499560Y-109781340D01*
X156578300Y-109763560D01*
X156669740Y-109748320D01*
X156758640Y-109730540D01*
X156837380Y-109715300D01*
X156895800Y-109705140D01*
X156921200Y-109700060D01*
X156926280Y-109694980D01*
X156931360Y-109682280D01*
X156936440Y-109656880D01*
X156936440Y-109608620D01*
X156938980Y-109532420D01*
X156938980Y-109420660D01*
X156938980Y-109410500D01*
X156936440Y-109303820D01*
X156936440Y-109220000D01*
X156933900Y-109166660D01*
X156928820Y-109146340D01*
X156928820Y-109146340D01*
X156903420Y-109138720D01*
X156847540Y-109128560D01*
X156768800Y-109110780D01*
X156672280Y-109093000D01*
X156667200Y-109093000D01*
X156573220Y-109075220D01*
X156494480Y-109057440D01*
X156438600Y-109044740D01*
X156415740Y-109037120D01*
X156410660Y-109032040D01*
X156390340Y-108993940D01*
X156362400Y-108935520D01*
X156331920Y-108864400D01*
X156301440Y-108790740D01*
X156273500Y-108722160D01*
X156255720Y-108673900D01*
X156250640Y-108651040D01*
X156250640Y-108651040D01*
X156265880Y-108628180D01*
X156298900Y-108577380D01*
X156344620Y-108511340D01*
X156400500Y-108430060D01*
X156403040Y-108422440D01*
X156458920Y-108343700D01*
X156502100Y-108275120D01*
X156532580Y-108226860D01*
X156542740Y-108206540D01*
X156542740Y-108204000D01*
X156524960Y-108181140D01*
X156484320Y-108135420D01*
X156425900Y-108074460D01*
X156354780Y-108003340D01*
X156331920Y-107983020D01*
X156255720Y-107906820D01*
X156202380Y-107856020D01*
X156166820Y-107830620D01*
X156151580Y-107823000D01*
X156151580Y-107825540D01*
X156126180Y-107838240D01*
X156075380Y-107871260D01*
X156006800Y-107919520D01*
X155925520Y-107972860D01*
X155920440Y-107977940D01*
X155841700Y-108031280D01*
X155775660Y-108077000D01*
X155727400Y-108107480D01*
X155707080Y-108120180D01*
X155702000Y-108120180D01*
X155671520Y-108110020D01*
X155613100Y-108092240D01*
X155544520Y-108064300D01*
X155470860Y-108033820D01*
X155402280Y-108005880D01*
X155351480Y-107983020D01*
X155328620Y-107970320D01*
X155328620Y-107967780D01*
X155318460Y-107939840D01*
X155305760Y-107878880D01*
X155287980Y-107797600D01*
X155270200Y-107698540D01*
X155267660Y-107683300D01*
X155249880Y-107589320D01*
X155234640Y-107510580D01*
X155221940Y-107454700D01*
X155216860Y-107431840D01*
X155204160Y-107429300D01*
X155155900Y-107426760D01*
X155084780Y-107424220D01*
X154998420Y-107424220D01*
X154909520Y-107424220D01*
X154823160Y-107426760D01*
X154746960Y-107429300D01*
X154693620Y-107431840D01*
X154670760Y-107436920D01*
X154668220Y-107439460D01*
X154660600Y-107467400D01*
X154647900Y-107528360D01*
X154630120Y-107609640D01*
X154612340Y-107708700D01*
X154609800Y-107726480D01*
X154592020Y-107820460D01*
X154574240Y-107899200D01*
X154564080Y-107952540D01*
X154556460Y-107972860D01*
X154548840Y-107977940D01*
X154510740Y-107995720D01*
X154447240Y-108021120D01*
X154365960Y-108054140D01*
X154183080Y-108127800D01*
X153959560Y-107972860D01*
X153939240Y-107960160D01*
X153857960Y-107904280D01*
X153791920Y-107861100D01*
X153746200Y-107830620D01*
X153725880Y-107820460D01*
X153725880Y-107820460D01*
X153703020Y-107840780D01*
X153657300Y-107881420D01*
X153596340Y-107942380D01*
X153527760Y-108010960D01*
X153474420Y-108064300D01*
X153413460Y-108127800D01*
X153372820Y-108168440D01*
X153352500Y-108196380D01*
X153344880Y-108214160D01*
X153347420Y-108224320D01*
X153360120Y-108247180D01*
X153393140Y-108295440D01*
X153438860Y-108364020D01*
X153494740Y-108442760D01*
X153540460Y-108511340D01*
X153588720Y-108585000D01*
X153619200Y-108638340D01*
X153631900Y-108666280D01*
X153629360Y-108676440D01*
X153611580Y-108719620D01*
X153586180Y-108788200D01*
X153553160Y-108866940D01*
X153474420Y-109044740D01*
X153357580Y-109065060D01*
X153286460Y-109080300D01*
X153187400Y-109098080D01*
X153093420Y-109115860D01*
X152946100Y-109146340D01*
X152941020Y-109684820D01*
X152963880Y-109694980D01*
X152986740Y-109702600D01*
X153040080Y-109712760D01*
X153118820Y-109728000D01*
X153210260Y-109745780D01*
X153289000Y-109761020D01*
X153367740Y-109776260D01*
X153423620Y-109786420D01*
X153449020Y-109791500D01*
X153456640Y-109801660D01*
X153476960Y-109839760D01*
X153504900Y-109900720D01*
X153535380Y-109974380D01*
X153565860Y-110048040D01*
X153593800Y-110119160D01*
X153614120Y-110172500D01*
X153621740Y-110200440D01*
X153611580Y-110220760D01*
X153581100Y-110266480D01*
X153537920Y-110332520D01*
X153484580Y-110411260D01*
X153428700Y-110490000D01*
X153385520Y-110558580D01*
X153352500Y-110606840D01*
X153339800Y-110627160D01*
X153347420Y-110642400D01*
X153377900Y-110680500D01*
X153436320Y-110741460D01*
X153525220Y-110830360D01*
X153540460Y-110843060D01*
X153609040Y-110911640D01*
X153670000Y-110964980D01*
X153710640Y-111003080D01*
X153728420Y-111015780D01*
X153728420Y-111015780D01*
G37*
X153728420Y-111015780D02*
X153748740Y-111005620D01*
X153797000Y-110975140D01*
X153863040Y-110931960D01*
X153941780Y-110878620D01*
X154020520Y-110825280D01*
X154086560Y-110782100D01*
X154132280Y-110751620D01*
X154150060Y-110741460D01*
X154160220Y-110744000D01*
X154198320Y-110764320D01*
X154254200Y-110792260D01*
X154284680Y-110807500D01*
X154335480Y-110830360D01*
X154360880Y-110835440D01*
X154363420Y-110827820D01*
X154383740Y-110789720D01*
X154411680Y-110723680D01*
X154449780Y-110637320D01*
X154492960Y-110535720D01*
X154538680Y-110426500D01*
X154584400Y-110314740D01*
X154630120Y-110208060D01*
X154668220Y-110111540D01*
X154701240Y-110035340D01*
X154721560Y-109979460D01*
X154729180Y-109956600D01*
X154726640Y-109951520D01*
X154701240Y-109928660D01*
X154658060Y-109895640D01*
X154561540Y-109816900D01*
X154470100Y-109700060D01*
X154411680Y-109567980D01*
X154393900Y-109420660D01*
X154409140Y-109286040D01*
X154462480Y-109156500D01*
X154553920Y-109037120D01*
X154665680Y-108950760D01*
X154795220Y-108894880D01*
X154940000Y-108877100D01*
X155079700Y-108892340D01*
X155211780Y-108945680D01*
X155331160Y-109034580D01*
X155379420Y-109093000D01*
X155448000Y-109212380D01*
X155488640Y-109339380D01*
X155491180Y-109369860D01*
X155486100Y-109512100D01*
X155445460Y-109646720D01*
X155371800Y-109766100D01*
X155267660Y-109865160D01*
X155254960Y-109875320D01*
X155206700Y-109910880D01*
X155176220Y-109933740D01*
X155150820Y-109954060D01*
X155328620Y-110385860D01*
X155356560Y-110454440D01*
X155407360Y-110571280D01*
X155450540Y-110672880D01*
X155483560Y-110754160D01*
X155508960Y-110807500D01*
X155519120Y-110830360D01*
X155519120Y-110830360D01*
X155534360Y-110832900D01*
X155567380Y-110820200D01*
X155628340Y-110792260D01*
X155668980Y-110771940D01*
X155714700Y-110749080D01*
X155735020Y-110741460D01*
X155752800Y-110751620D01*
X155795980Y-110779560D01*
X155859480Y-110822740D01*
X155935680Y-110873540D01*
X156009340Y-110924340D01*
X156077920Y-110970060D01*
X156126180Y-111000540D01*
X156151580Y-111013240D01*
X156154120Y-111013240D01*
X156174440Y-111000540D01*
X156215080Y-110970060D01*
X156273500Y-110914180D01*
X156354780Y-110832900D01*
X156367480Y-110820200D01*
X156436060Y-110749080D01*
X156491940Y-110690660D01*
X156530040Y-110650020D01*
X156542740Y-110632240D01*
X156542740Y-110632240D01*
X156530040Y-110606840D01*
X156499560Y-110558580D01*
X156453840Y-110490000D01*
X156400500Y-110411260D01*
X156258260Y-110202980D01*
X156337000Y-110007400D01*
X156359860Y-109948980D01*
X156390340Y-109875320D01*
X156413200Y-109824520D01*
X156425900Y-109801660D01*
X156446220Y-109794040D01*
X156499560Y-109781340D01*
X156578300Y-109763560D01*
X156669740Y-109748320D01*
X156758640Y-109730540D01*
X156837380Y-109715300D01*
X156895800Y-109705140D01*
X156921200Y-109700060D01*
X156926280Y-109694980D01*
X156931360Y-109682280D01*
X156936440Y-109656880D01*
X156936440Y-109608620D01*
X156938980Y-109532420D01*
X156938980Y-109420660D01*
X156938980Y-109410500D01*
X156936440Y-109303820D01*
X156936440Y-109220000D01*
X156933900Y-109166660D01*
X156928820Y-109146340D01*
X156928820Y-109146340D01*
X156903420Y-109138720D01*
X156847540Y-109128560D01*
X156768800Y-109110780D01*
X156672280Y-109093000D01*
X156667200Y-109093000D01*
X156573220Y-109075220D01*
X156494480Y-109057440D01*
X156438600Y-109044740D01*
X156415740Y-109037120D01*
X156410660Y-109032040D01*
X156390340Y-108993940D01*
X156362400Y-108935520D01*
X156331920Y-108864400D01*
X156301440Y-108790740D01*
X156273500Y-108722160D01*
X156255720Y-108673900D01*
X156250640Y-108651040D01*
X156250640Y-108651040D01*
X156265880Y-108628180D01*
X156298900Y-108577380D01*
X156344620Y-108511340D01*
X156400500Y-108430060D01*
X156403040Y-108422440D01*
X156458920Y-108343700D01*
X156502100Y-108275120D01*
X156532580Y-108226860D01*
X156542740Y-108206540D01*
X156542740Y-108204000D01*
X156524960Y-108181140D01*
X156484320Y-108135420D01*
X156425900Y-108074460D01*
X156354780Y-108003340D01*
X156331920Y-107983020D01*
X156255720Y-107906820D01*
X156202380Y-107856020D01*
X156166820Y-107830620D01*
X156151580Y-107823000D01*
X156151580Y-107825540D01*
X156126180Y-107838240D01*
X156075380Y-107871260D01*
X156006800Y-107919520D01*
X155925520Y-107972860D01*
X155920440Y-107977940D01*
X155841700Y-108031280D01*
X155775660Y-108077000D01*
X155727400Y-108107480D01*
X155707080Y-108120180D01*
X155702000Y-108120180D01*
X155671520Y-108110020D01*
X155613100Y-108092240D01*
X155544520Y-108064300D01*
X155470860Y-108033820D01*
X155402280Y-108005880D01*
X155351480Y-107983020D01*
X155328620Y-107970320D01*
X155328620Y-107967780D01*
X155318460Y-107939840D01*
X155305760Y-107878880D01*
X155287980Y-107797600D01*
X155270200Y-107698540D01*
X155267660Y-107683300D01*
X155249880Y-107589320D01*
X155234640Y-107510580D01*
X155221940Y-107454700D01*
X155216860Y-107431840D01*
X155204160Y-107429300D01*
X155155900Y-107426760D01*
X155084780Y-107424220D01*
X154998420Y-107424220D01*
X154909520Y-107424220D01*
X154823160Y-107426760D01*
X154746960Y-107429300D01*
X154693620Y-107431840D01*
X154670760Y-107436920D01*
X154668220Y-107439460D01*
X154660600Y-107467400D01*
X154647900Y-107528360D01*
X154630120Y-107609640D01*
X154612340Y-107708700D01*
X154609800Y-107726480D01*
X154592020Y-107820460D01*
X154574240Y-107899200D01*
X154564080Y-107952540D01*
X154556460Y-107972860D01*
X154548840Y-107977940D01*
X154510740Y-107995720D01*
X154447240Y-108021120D01*
X154365960Y-108054140D01*
X154183080Y-108127800D01*
X153959560Y-107972860D01*
X153939240Y-107960160D01*
X153857960Y-107904280D01*
X153791920Y-107861100D01*
X153746200Y-107830620D01*
X153725880Y-107820460D01*
X153725880Y-107820460D01*
X153703020Y-107840780D01*
X153657300Y-107881420D01*
X153596340Y-107942380D01*
X153527760Y-108010960D01*
X153474420Y-108064300D01*
X153413460Y-108127800D01*
X153372820Y-108168440D01*
X153352500Y-108196380D01*
X153344880Y-108214160D01*
X153347420Y-108224320D01*
X153360120Y-108247180D01*
X153393140Y-108295440D01*
X153438860Y-108364020D01*
X153494740Y-108442760D01*
X153540460Y-108511340D01*
X153588720Y-108585000D01*
X153619200Y-108638340D01*
X153631900Y-108666280D01*
X153629360Y-108676440D01*
X153611580Y-108719620D01*
X153586180Y-108788200D01*
X153553160Y-108866940D01*
X153474420Y-109044740D01*
X153357580Y-109065060D01*
X153286460Y-109080300D01*
X153187400Y-109098080D01*
X153093420Y-109115860D01*
X152946100Y-109146340D01*
X152941020Y-109684820D01*
X152963880Y-109694980D01*
X152986740Y-109702600D01*
X153040080Y-109712760D01*
X153118820Y-109728000D01*
X153210260Y-109745780D01*
X153289000Y-109761020D01*
X153367740Y-109776260D01*
X153423620Y-109786420D01*
X153449020Y-109791500D01*
X153456640Y-109801660D01*
X153476960Y-109839760D01*
X153504900Y-109900720D01*
X153535380Y-109974380D01*
X153565860Y-110048040D01*
X153593800Y-110119160D01*
X153614120Y-110172500D01*
X153621740Y-110200440D01*
X153611580Y-110220760D01*
X153581100Y-110266480D01*
X153537920Y-110332520D01*
X153484580Y-110411260D01*
X153428700Y-110490000D01*
X153385520Y-110558580D01*
X153352500Y-110606840D01*
X153339800Y-110627160D01*
X153347420Y-110642400D01*
X153377900Y-110680500D01*
X153436320Y-110741460D01*
X153525220Y-110830360D01*
X153540460Y-110843060D01*
X153609040Y-110911640D01*
X153670000Y-110964980D01*
X153710640Y-111003080D01*
X153728420Y-111015780D01*
D16*
X140335000Y-71755000D02*
X142240000Y-71755000D01*
X148590000Y-71755000D02*
X150495000Y-71755000D01*
X147955000Y-70485000D02*
X147955000Y-73025000D01*
X142240000Y-73025000D02*
X148590000Y-73025000D01*
X142240000Y-70485000D02*
X142240000Y-73025000D01*
X148590000Y-70485000D02*
X148590000Y-73025000D01*
X142240000Y-70485000D02*
X148590000Y-70485000D01*
X137215880Y-64096900D02*
X128214120Y-64096900D01*
X137215880Y-60596780D02*
X128214120Y-60596780D01*
X128214120Y-60596780D02*
X128214120Y-75097640D01*
X128214120Y-75097640D02*
X137215880Y-75097640D01*
X137215880Y-75097640D02*
X137215880Y-60596780D01*
D11*
X156563786Y-72495833D02*
X156594024Y-72526071D01*
X156624262Y-72616786D01*
X156624262Y-72677262D01*
X156594024Y-72767976D01*
X156533548Y-72828452D01*
X156473071Y-72858691D01*
X156352119Y-72888929D01*
X156261405Y-72888929D01*
X156140452Y-72858691D01*
X156079976Y-72828452D01*
X156019500Y-72767976D01*
X155989262Y-72677262D01*
X155989262Y-72616786D01*
X156019500Y-72526071D01*
X156049738Y-72495833D01*
X156624262Y-71891071D02*
X156624262Y-72253929D01*
X156624262Y-72072500D02*
X155989262Y-72072500D01*
X156079976Y-72132976D01*
X156140452Y-72193452D01*
X156170690Y-72253929D01*
X153703262Y-73070357D02*
X153703262Y-73433215D01*
X153703262Y-73251786D02*
X153068262Y-73251786D01*
X153158976Y-73312262D01*
X153219452Y-73372738D01*
X153249690Y-73433215D01*
X153068262Y-72677262D02*
X153068262Y-72616786D01*
X153098500Y-72556310D01*
X153128738Y-72526072D01*
X153189214Y-72495834D01*
X153310167Y-72465595D01*
X153461357Y-72465595D01*
X153582310Y-72495834D01*
X153642786Y-72526072D01*
X153673024Y-72556310D01*
X153703262Y-72616786D01*
X153703262Y-72677262D01*
X153673024Y-72737738D01*
X153642786Y-72767976D01*
X153582310Y-72798215D01*
X153461357Y-72828453D01*
X153310167Y-72828453D01*
X153189214Y-72798215D01*
X153128738Y-72767976D01*
X153098500Y-72737738D01*
X153068262Y-72677262D01*
X153279929Y-71921310D02*
X153703262Y-71921310D01*
X153279929Y-72193453D02*
X153612548Y-72193453D01*
X153673024Y-72163214D01*
X153703262Y-72102738D01*
X153703262Y-72012024D01*
X153673024Y-71951548D01*
X153642786Y-71921310D01*
X153370643Y-71407262D02*
X153370643Y-71618929D01*
X153703262Y-71618929D02*
X153068262Y-71618929D01*
X153068262Y-71316548D01*
D13*
X156899429Y-70140285D02*
X156899429Y-69559714D01*
X157189714Y-69850000D02*
X156609143Y-69850000D01*
D11*
X159406167Y-75664786D02*
X159375929Y-75695024D01*
X159285214Y-75725262D01*
X159224738Y-75725262D01*
X159134024Y-75695024D01*
X159073548Y-75634548D01*
X159043309Y-75574071D01*
X159013071Y-75453119D01*
X159013071Y-75362405D01*
X159043309Y-75241452D01*
X159073548Y-75180976D01*
X159134024Y-75120500D01*
X159224738Y-75090262D01*
X159285214Y-75090262D01*
X159375929Y-75120500D01*
X159406167Y-75150738D01*
X159617833Y-75090262D02*
X160010929Y-75090262D01*
X159799262Y-75332167D01*
X159889976Y-75332167D01*
X159950452Y-75362405D01*
X159980690Y-75392643D01*
X160010929Y-75453119D01*
X160010929Y-75604310D01*
X159980690Y-75664786D01*
X159950452Y-75695024D01*
X159889976Y-75725262D01*
X159708548Y-75725262D01*
X159648071Y-75695024D01*
X159617833Y-75664786D01*
X161008786Y-75090262D02*
X161069262Y-75090262D01*
X161129738Y-75120500D01*
X161159976Y-75150738D01*
X161190214Y-75211214D01*
X161220453Y-75332167D01*
X161220453Y-75483357D01*
X161190214Y-75604310D01*
X161159976Y-75664786D01*
X161129738Y-75695024D01*
X161069262Y-75725262D01*
X161008786Y-75725262D01*
X160948310Y-75695024D01*
X160918072Y-75664786D01*
X160887833Y-75604310D01*
X160857595Y-75483357D01*
X160857595Y-75332167D01*
X160887833Y-75211214D01*
X160918072Y-75150738D01*
X160948310Y-75120500D01*
X161008786Y-75090262D01*
X161492595Y-75664786D02*
X161522834Y-75695024D01*
X161492595Y-75725262D01*
X161462357Y-75695024D01*
X161492595Y-75664786D01*
X161492595Y-75725262D01*
X162127596Y-75725262D02*
X161764738Y-75725262D01*
X161946167Y-75725262D02*
X161946167Y-75090262D01*
X161885691Y-75180976D01*
X161825215Y-75241452D01*
X161764738Y-75271690D01*
X162671881Y-75301929D02*
X162671881Y-75725262D01*
X162399738Y-75301929D02*
X162399738Y-75634548D01*
X162429977Y-75695024D01*
X162490453Y-75725262D01*
X162581167Y-75725262D01*
X162641643Y-75695024D01*
X162671881Y-75664786D01*
X163185929Y-75392643D02*
X162974262Y-75392643D01*
X162974262Y-75725262D02*
X162974262Y-75090262D01*
X163276643Y-75090262D01*
D13*
X158332714Y-79302428D02*
X157570714Y-79302428D01*
X157570714Y-79121000D01*
X157607000Y-79012143D01*
X157679571Y-78939571D01*
X157752143Y-78903286D01*
X157897286Y-78867000D01*
X158006143Y-78867000D01*
X158151286Y-78903286D01*
X158223857Y-78939571D01*
X158296429Y-79012143D01*
X158332714Y-79121000D01*
X158332714Y-79302428D01*
X158332714Y-78141286D02*
X158332714Y-78576714D01*
X158332714Y-78359000D02*
X157570714Y-78359000D01*
X157679571Y-78431571D01*
X157752143Y-78504143D01*
X157788429Y-78576714D01*
X158332714Y-86922428D02*
X157570714Y-86922428D01*
X157570714Y-86741000D01*
X157607000Y-86632143D01*
X157679571Y-86559571D01*
X157752143Y-86523286D01*
X157897286Y-86487000D01*
X158006143Y-86487000D01*
X158151286Y-86523286D01*
X158223857Y-86559571D01*
X158296429Y-86632143D01*
X158332714Y-86741000D01*
X158332714Y-86922428D01*
X157643286Y-86196714D02*
X157607000Y-86160428D01*
X157570714Y-86087857D01*
X157570714Y-85906428D01*
X157607000Y-85833857D01*
X157643286Y-85797571D01*
X157715857Y-85761286D01*
X157788429Y-85761286D01*
X157897286Y-85797571D01*
X158332714Y-86233000D01*
X158332714Y-85761286D01*
X158332714Y-94542428D02*
X157570714Y-94542428D01*
X157570714Y-94361000D01*
X157607000Y-94252143D01*
X157679571Y-94179571D01*
X157752143Y-94143286D01*
X157897286Y-94107000D01*
X158006143Y-94107000D01*
X158151286Y-94143286D01*
X158223857Y-94179571D01*
X158296429Y-94252143D01*
X158332714Y-94361000D01*
X158332714Y-94542428D01*
X157570714Y-93853000D02*
X157570714Y-93381286D01*
X157861000Y-93635286D01*
X157861000Y-93526428D01*
X157897286Y-93453857D01*
X157933571Y-93417571D01*
X158006143Y-93381286D01*
X158187571Y-93381286D01*
X158260143Y-93417571D01*
X158296429Y-93453857D01*
X158332714Y-93526428D01*
X158332714Y-93744143D01*
X158296429Y-93816714D01*
X158260143Y-93853000D01*
X158332714Y-102162428D02*
X157570714Y-102162428D01*
X157570714Y-101981000D01*
X157607000Y-101872143D01*
X157679571Y-101799571D01*
X157752143Y-101763286D01*
X157897286Y-101727000D01*
X158006143Y-101727000D01*
X158151286Y-101763286D01*
X158223857Y-101799571D01*
X158296429Y-101872143D01*
X158332714Y-101981000D01*
X158332714Y-102162428D01*
X157824714Y-101073857D02*
X158332714Y-101073857D01*
X157534429Y-101255286D02*
X158078714Y-101436714D01*
X158078714Y-100965000D01*
D11*
X140501309Y-69629262D02*
X140501309Y-68994262D01*
X140652500Y-68994262D01*
X140743214Y-69024500D01*
X140803690Y-69084976D01*
X140833929Y-69145452D01*
X140864167Y-69266405D01*
X140864167Y-69357119D01*
X140833929Y-69478071D01*
X140803690Y-69538548D01*
X140743214Y-69599024D01*
X140652500Y-69629262D01*
X140501309Y-69629262D01*
X141438690Y-68994262D02*
X141136309Y-68994262D01*
X141106071Y-69296643D01*
X141136309Y-69266405D01*
X141196786Y-69236167D01*
X141347976Y-69236167D01*
X141408452Y-69266405D01*
X141438690Y-69296643D01*
X141468929Y-69357119D01*
X141468929Y-69508310D01*
X141438690Y-69568786D01*
X141408452Y-69599024D01*
X141347976Y-69629262D01*
X141196786Y-69629262D01*
X141136309Y-69599024D01*
X141106071Y-69568786D01*
D13*
X155502429Y-76236286D02*
X155429857Y-76200000D01*
X155357286Y-76127429D01*
X155248429Y-76018571D01*
X155175857Y-75982286D01*
X155103286Y-75982286D01*
X155139571Y-76163714D02*
X155067000Y-76127429D01*
X154994429Y-76054857D01*
X154958143Y-75909714D01*
X154958143Y-75655714D01*
X154994429Y-75510571D01*
X155067000Y-75438000D01*
X155139571Y-75401714D01*
X155284714Y-75401714D01*
X155357286Y-75438000D01*
X155429857Y-75510571D01*
X155466143Y-75655714D01*
X155466143Y-75909714D01*
X155429857Y-76054857D01*
X155357286Y-76127429D01*
X155284714Y-76163714D01*
X155139571Y-76163714D01*
X156191857Y-76163714D02*
X155756429Y-76163714D01*
X155974143Y-76163714D02*
X155974143Y-75401714D01*
X155901572Y-75510571D01*
X155829000Y-75583143D01*
X155756429Y-75619429D01*
D11*
X153851428Y-81373738D02*
X153881666Y-81343500D01*
X153942143Y-81313262D01*
X154093333Y-81313262D01*
X154153809Y-81343500D01*
X154184047Y-81373738D01*
X154214286Y-81434214D01*
X154214286Y-81494690D01*
X154184047Y-81585405D01*
X153821190Y-81948262D01*
X154214286Y-81948262D01*
X154486428Y-81948262D02*
X154486428Y-81313262D01*
X154849286Y-81948262D01*
X154849286Y-81313262D01*
X155091190Y-81313262D02*
X155484286Y-81313262D01*
X155272619Y-81555167D01*
X155363333Y-81555167D01*
X155423809Y-81585405D01*
X155454047Y-81615643D01*
X155484286Y-81676119D01*
X155484286Y-81827310D01*
X155454047Y-81887786D01*
X155423809Y-81918024D01*
X155363333Y-81948262D01*
X155181905Y-81948262D01*
X155121428Y-81918024D01*
X155091190Y-81887786D01*
X155786667Y-81948262D02*
X155907619Y-81948262D01*
X155968095Y-81918024D01*
X155998333Y-81887786D01*
X156058809Y-81797071D01*
X156089048Y-81676119D01*
X156089048Y-81434214D01*
X156058809Y-81373738D01*
X156028571Y-81343500D01*
X155968095Y-81313262D01*
X155847143Y-81313262D01*
X155786667Y-81343500D01*
X155756428Y-81373738D01*
X155726190Y-81434214D01*
X155726190Y-81585405D01*
X155756428Y-81645881D01*
X155786667Y-81676119D01*
X155847143Y-81706357D01*
X155968095Y-81706357D01*
X156028571Y-81676119D01*
X156058809Y-81645881D01*
X156089048Y-81585405D01*
X156482143Y-81313262D02*
X156542619Y-81313262D01*
X156603095Y-81343500D01*
X156633333Y-81373738D01*
X156663571Y-81434214D01*
X156693810Y-81555167D01*
X156693810Y-81706357D01*
X156663571Y-81827310D01*
X156633333Y-81887786D01*
X156603095Y-81918024D01*
X156542619Y-81948262D01*
X156482143Y-81948262D01*
X156421667Y-81918024D01*
X156391429Y-81887786D01*
X156361190Y-81827310D01*
X156330952Y-81706357D01*
X156330952Y-81555167D01*
X156361190Y-81434214D01*
X156391429Y-81373738D01*
X156421667Y-81343500D01*
X156482143Y-81313262D01*
X157238095Y-81524929D02*
X157238095Y-81948262D01*
X157086905Y-81283024D02*
X156935714Y-81736595D01*
X157328810Y-81736595D01*
X154005643Y-80146072D02*
X154005643Y-79934405D01*
X154338262Y-79843691D02*
X154338262Y-80146072D01*
X153703262Y-80146072D01*
X153703262Y-79843691D01*
X155656643Y-78694643D02*
X155686881Y-78603929D01*
X155717119Y-78573690D01*
X155777595Y-78543452D01*
X155868310Y-78543452D01*
X155928786Y-78573690D01*
X155959024Y-78603929D01*
X155989262Y-78664405D01*
X155989262Y-78906310D01*
X155354262Y-78906310D01*
X155354262Y-78694643D01*
X155384500Y-78634167D01*
X155414738Y-78603929D01*
X155475214Y-78573690D01*
X155535690Y-78573690D01*
X155596167Y-78603929D01*
X155626405Y-78634167D01*
X155656643Y-78694643D01*
X155656643Y-78906310D01*
X154277786Y-77273452D02*
X154308024Y-77303690D01*
X154338262Y-77394405D01*
X154338262Y-77454881D01*
X154308024Y-77545595D01*
X154247548Y-77606071D01*
X154187071Y-77636310D01*
X154066119Y-77666548D01*
X153975405Y-77666548D01*
X153854452Y-77636310D01*
X153793976Y-77606071D01*
X153733500Y-77545595D01*
X153703262Y-77454881D01*
X153703262Y-77394405D01*
X153733500Y-77303690D01*
X153763738Y-77273452D01*
D13*
X155502429Y-83856286D02*
X155429857Y-83820000D01*
X155357286Y-83747429D01*
X155248429Y-83638571D01*
X155175857Y-83602286D01*
X155103286Y-83602286D01*
X155139571Y-83783714D02*
X155067000Y-83747429D01*
X154994429Y-83674857D01*
X154958143Y-83529714D01*
X154958143Y-83275714D01*
X154994429Y-83130571D01*
X155067000Y-83058000D01*
X155139571Y-83021714D01*
X155284714Y-83021714D01*
X155357286Y-83058000D01*
X155429857Y-83130571D01*
X155466143Y-83275714D01*
X155466143Y-83529714D01*
X155429857Y-83674857D01*
X155357286Y-83747429D01*
X155284714Y-83783714D01*
X155139571Y-83783714D01*
X155756429Y-83094286D02*
X155792715Y-83058000D01*
X155865286Y-83021714D01*
X156046715Y-83021714D01*
X156119286Y-83058000D01*
X156155572Y-83094286D01*
X156191857Y-83166857D01*
X156191857Y-83239429D01*
X156155572Y-83348286D01*
X155720143Y-83783714D01*
X156191857Y-83783714D01*
D11*
X153851428Y-88993738D02*
X153881666Y-88963500D01*
X153942143Y-88933262D01*
X154093333Y-88933262D01*
X154153809Y-88963500D01*
X154184047Y-88993738D01*
X154214286Y-89054214D01*
X154214286Y-89114690D01*
X154184047Y-89205405D01*
X153821190Y-89568262D01*
X154214286Y-89568262D01*
X154486428Y-89568262D02*
X154486428Y-88933262D01*
X154849286Y-89568262D01*
X154849286Y-88933262D01*
X155091190Y-88933262D02*
X155484286Y-88933262D01*
X155272619Y-89175167D01*
X155363333Y-89175167D01*
X155423809Y-89205405D01*
X155454047Y-89235643D01*
X155484286Y-89296119D01*
X155484286Y-89447310D01*
X155454047Y-89507786D01*
X155423809Y-89538024D01*
X155363333Y-89568262D01*
X155181905Y-89568262D01*
X155121428Y-89538024D01*
X155091190Y-89507786D01*
X155786667Y-89568262D02*
X155907619Y-89568262D01*
X155968095Y-89538024D01*
X155998333Y-89507786D01*
X156058809Y-89417071D01*
X156089048Y-89296119D01*
X156089048Y-89054214D01*
X156058809Y-88993738D01*
X156028571Y-88963500D01*
X155968095Y-88933262D01*
X155847143Y-88933262D01*
X155786667Y-88963500D01*
X155756428Y-88993738D01*
X155726190Y-89054214D01*
X155726190Y-89205405D01*
X155756428Y-89265881D01*
X155786667Y-89296119D01*
X155847143Y-89326357D01*
X155968095Y-89326357D01*
X156028571Y-89296119D01*
X156058809Y-89265881D01*
X156089048Y-89205405D01*
X156482143Y-88933262D02*
X156542619Y-88933262D01*
X156603095Y-88963500D01*
X156633333Y-88993738D01*
X156663571Y-89054214D01*
X156693810Y-89175167D01*
X156693810Y-89326357D01*
X156663571Y-89447310D01*
X156633333Y-89507786D01*
X156603095Y-89538024D01*
X156542619Y-89568262D01*
X156482143Y-89568262D01*
X156421667Y-89538024D01*
X156391429Y-89507786D01*
X156361190Y-89447310D01*
X156330952Y-89326357D01*
X156330952Y-89175167D01*
X156361190Y-89054214D01*
X156391429Y-88993738D01*
X156421667Y-88963500D01*
X156482143Y-88933262D01*
X157238095Y-89144929D02*
X157238095Y-89568262D01*
X157086905Y-88903024D02*
X156935714Y-89356595D01*
X157328810Y-89356595D01*
X154005643Y-87766072D02*
X154005643Y-87554405D01*
X154338262Y-87463691D02*
X154338262Y-87766072D01*
X153703262Y-87766072D01*
X153703262Y-87463691D01*
X155656643Y-86314643D02*
X155686881Y-86223929D01*
X155717119Y-86193690D01*
X155777595Y-86163452D01*
X155868310Y-86163452D01*
X155928786Y-86193690D01*
X155959024Y-86223929D01*
X155989262Y-86284405D01*
X155989262Y-86526310D01*
X155354262Y-86526310D01*
X155354262Y-86314643D01*
X155384500Y-86254167D01*
X155414738Y-86223929D01*
X155475214Y-86193690D01*
X155535690Y-86193690D01*
X155596167Y-86223929D01*
X155626405Y-86254167D01*
X155656643Y-86314643D01*
X155656643Y-86526310D01*
X154277786Y-84893452D02*
X154308024Y-84923690D01*
X154338262Y-85014405D01*
X154338262Y-85074881D01*
X154308024Y-85165595D01*
X154247548Y-85226071D01*
X154187071Y-85256310D01*
X154066119Y-85286548D01*
X153975405Y-85286548D01*
X153854452Y-85256310D01*
X153793976Y-85226071D01*
X153733500Y-85165595D01*
X153703262Y-85074881D01*
X153703262Y-85014405D01*
X153733500Y-84923690D01*
X153763738Y-84893452D01*
D13*
X155502429Y-91476286D02*
X155429857Y-91440000D01*
X155357286Y-91367429D01*
X155248429Y-91258571D01*
X155175857Y-91222286D01*
X155103286Y-91222286D01*
X155139571Y-91403714D02*
X155067000Y-91367429D01*
X154994429Y-91294857D01*
X154958143Y-91149714D01*
X154958143Y-90895714D01*
X154994429Y-90750571D01*
X155067000Y-90678000D01*
X155139571Y-90641714D01*
X155284714Y-90641714D01*
X155357286Y-90678000D01*
X155429857Y-90750571D01*
X155466143Y-90895714D01*
X155466143Y-91149714D01*
X155429857Y-91294857D01*
X155357286Y-91367429D01*
X155284714Y-91403714D01*
X155139571Y-91403714D01*
X155720143Y-90641714D02*
X156191857Y-90641714D01*
X155937857Y-90932000D01*
X156046715Y-90932000D01*
X156119286Y-90968286D01*
X156155572Y-91004571D01*
X156191857Y-91077143D01*
X156191857Y-91258571D01*
X156155572Y-91331143D01*
X156119286Y-91367429D01*
X156046715Y-91403714D01*
X155829000Y-91403714D01*
X155756429Y-91367429D01*
X155720143Y-91331143D01*
D11*
X153851428Y-96613738D02*
X153881666Y-96583500D01*
X153942143Y-96553262D01*
X154093333Y-96553262D01*
X154153809Y-96583500D01*
X154184047Y-96613738D01*
X154214286Y-96674214D01*
X154214286Y-96734690D01*
X154184047Y-96825405D01*
X153821190Y-97188262D01*
X154214286Y-97188262D01*
X154486428Y-97188262D02*
X154486428Y-96553262D01*
X154849286Y-97188262D01*
X154849286Y-96553262D01*
X155091190Y-96553262D02*
X155484286Y-96553262D01*
X155272619Y-96795167D01*
X155363333Y-96795167D01*
X155423809Y-96825405D01*
X155454047Y-96855643D01*
X155484286Y-96916119D01*
X155484286Y-97067310D01*
X155454047Y-97127786D01*
X155423809Y-97158024D01*
X155363333Y-97188262D01*
X155181905Y-97188262D01*
X155121428Y-97158024D01*
X155091190Y-97127786D01*
X155786667Y-97188262D02*
X155907619Y-97188262D01*
X155968095Y-97158024D01*
X155998333Y-97127786D01*
X156058809Y-97037071D01*
X156089048Y-96916119D01*
X156089048Y-96674214D01*
X156058809Y-96613738D01*
X156028571Y-96583500D01*
X155968095Y-96553262D01*
X155847143Y-96553262D01*
X155786667Y-96583500D01*
X155756428Y-96613738D01*
X155726190Y-96674214D01*
X155726190Y-96825405D01*
X155756428Y-96885881D01*
X155786667Y-96916119D01*
X155847143Y-96946357D01*
X155968095Y-96946357D01*
X156028571Y-96916119D01*
X156058809Y-96885881D01*
X156089048Y-96825405D01*
X156482143Y-96553262D02*
X156542619Y-96553262D01*
X156603095Y-96583500D01*
X156633333Y-96613738D01*
X156663571Y-96674214D01*
X156693810Y-96795167D01*
X156693810Y-96946357D01*
X156663571Y-97067310D01*
X156633333Y-97127786D01*
X156603095Y-97158024D01*
X156542619Y-97188262D01*
X156482143Y-97188262D01*
X156421667Y-97158024D01*
X156391429Y-97127786D01*
X156361190Y-97067310D01*
X156330952Y-96946357D01*
X156330952Y-96795167D01*
X156361190Y-96674214D01*
X156391429Y-96613738D01*
X156421667Y-96583500D01*
X156482143Y-96553262D01*
X157238095Y-96764929D02*
X157238095Y-97188262D01*
X157086905Y-96523024D02*
X156935714Y-96976595D01*
X157328810Y-96976595D01*
X154005643Y-95386072D02*
X154005643Y-95174405D01*
X154338262Y-95083691D02*
X154338262Y-95386072D01*
X153703262Y-95386072D01*
X153703262Y-95083691D01*
X155656643Y-93934643D02*
X155686881Y-93843929D01*
X155717119Y-93813690D01*
X155777595Y-93783452D01*
X155868310Y-93783452D01*
X155928786Y-93813690D01*
X155959024Y-93843929D01*
X155989262Y-93904405D01*
X155989262Y-94146310D01*
X155354262Y-94146310D01*
X155354262Y-93934643D01*
X155384500Y-93874167D01*
X155414738Y-93843929D01*
X155475214Y-93813690D01*
X155535690Y-93813690D01*
X155596167Y-93843929D01*
X155626405Y-93874167D01*
X155656643Y-93934643D01*
X155656643Y-94146310D01*
X154277786Y-92513452D02*
X154308024Y-92543690D01*
X154338262Y-92634405D01*
X154338262Y-92694881D01*
X154308024Y-92785595D01*
X154247548Y-92846071D01*
X154187071Y-92876310D01*
X154066119Y-92906548D01*
X153975405Y-92906548D01*
X153854452Y-92876310D01*
X153793976Y-92846071D01*
X153733500Y-92785595D01*
X153703262Y-92694881D01*
X153703262Y-92634405D01*
X153733500Y-92543690D01*
X153763738Y-92513452D01*
D13*
X155502429Y-99096286D02*
X155429857Y-99060000D01*
X155357286Y-98987429D01*
X155248429Y-98878571D01*
X155175857Y-98842286D01*
X155103286Y-98842286D01*
X155139571Y-99023714D02*
X155067000Y-98987429D01*
X154994429Y-98914857D01*
X154958143Y-98769714D01*
X154958143Y-98515714D01*
X154994429Y-98370571D01*
X155067000Y-98298000D01*
X155139571Y-98261714D01*
X155284714Y-98261714D01*
X155357286Y-98298000D01*
X155429857Y-98370571D01*
X155466143Y-98515714D01*
X155466143Y-98769714D01*
X155429857Y-98914857D01*
X155357286Y-98987429D01*
X155284714Y-99023714D01*
X155139571Y-99023714D01*
X156119286Y-98515714D02*
X156119286Y-99023714D01*
X155937857Y-98225429D02*
X155756429Y-98769714D01*
X156228143Y-98769714D01*
D11*
X153851428Y-104233738D02*
X153881666Y-104203500D01*
X153942143Y-104173262D01*
X154093333Y-104173262D01*
X154153809Y-104203500D01*
X154184047Y-104233738D01*
X154214286Y-104294214D01*
X154214286Y-104354690D01*
X154184047Y-104445405D01*
X153821190Y-104808262D01*
X154214286Y-104808262D01*
X154486428Y-104808262D02*
X154486428Y-104173262D01*
X154849286Y-104808262D01*
X154849286Y-104173262D01*
X155091190Y-104173262D02*
X155484286Y-104173262D01*
X155272619Y-104415167D01*
X155363333Y-104415167D01*
X155423809Y-104445405D01*
X155454047Y-104475643D01*
X155484286Y-104536119D01*
X155484286Y-104687310D01*
X155454047Y-104747786D01*
X155423809Y-104778024D01*
X155363333Y-104808262D01*
X155181905Y-104808262D01*
X155121428Y-104778024D01*
X155091190Y-104747786D01*
X155786667Y-104808262D02*
X155907619Y-104808262D01*
X155968095Y-104778024D01*
X155998333Y-104747786D01*
X156058809Y-104657071D01*
X156089048Y-104536119D01*
X156089048Y-104294214D01*
X156058809Y-104233738D01*
X156028571Y-104203500D01*
X155968095Y-104173262D01*
X155847143Y-104173262D01*
X155786667Y-104203500D01*
X155756428Y-104233738D01*
X155726190Y-104294214D01*
X155726190Y-104445405D01*
X155756428Y-104505881D01*
X155786667Y-104536119D01*
X155847143Y-104566357D01*
X155968095Y-104566357D01*
X156028571Y-104536119D01*
X156058809Y-104505881D01*
X156089048Y-104445405D01*
X156482143Y-104173262D02*
X156542619Y-104173262D01*
X156603095Y-104203500D01*
X156633333Y-104233738D01*
X156663571Y-104294214D01*
X156693810Y-104415167D01*
X156693810Y-104566357D01*
X156663571Y-104687310D01*
X156633333Y-104747786D01*
X156603095Y-104778024D01*
X156542619Y-104808262D01*
X156482143Y-104808262D01*
X156421667Y-104778024D01*
X156391429Y-104747786D01*
X156361190Y-104687310D01*
X156330952Y-104566357D01*
X156330952Y-104415167D01*
X156361190Y-104294214D01*
X156391429Y-104233738D01*
X156421667Y-104203500D01*
X156482143Y-104173262D01*
X157238095Y-104384929D02*
X157238095Y-104808262D01*
X157086905Y-104143024D02*
X156935714Y-104596595D01*
X157328810Y-104596595D01*
X154005643Y-103006072D02*
X154005643Y-102794405D01*
X154338262Y-102703691D02*
X154338262Y-103006072D01*
X153703262Y-103006072D01*
X153703262Y-102703691D01*
X155656643Y-101554643D02*
X155686881Y-101463929D01*
X155717119Y-101433690D01*
X155777595Y-101403452D01*
X155868310Y-101403452D01*
X155928786Y-101433690D01*
X155959024Y-101463929D01*
X155989262Y-101524405D01*
X155989262Y-101766310D01*
X155354262Y-101766310D01*
X155354262Y-101554643D01*
X155384500Y-101494167D01*
X155414738Y-101463929D01*
X155475214Y-101433690D01*
X155535690Y-101433690D01*
X155596167Y-101463929D01*
X155626405Y-101494167D01*
X155656643Y-101554643D01*
X155656643Y-101766310D01*
X154277786Y-100133452D02*
X154308024Y-100163690D01*
X154338262Y-100254405D01*
X154338262Y-100314881D01*
X154308024Y-100405595D01*
X154247548Y-100466071D01*
X154187071Y-100496310D01*
X154066119Y-100526548D01*
X153975405Y-100526548D01*
X153854452Y-100496310D01*
X153793976Y-100466071D01*
X153733500Y-100405595D01*
X153703262Y-100314881D01*
X153703262Y-100254405D01*
X153733500Y-100163690D01*
X153763738Y-100133452D01*
D13*
X137504714Y-81280000D02*
X137141857Y-81534000D01*
X137504714Y-81715428D02*
X136742714Y-81715428D01*
X136742714Y-81425143D01*
X136779000Y-81352571D01*
X136815286Y-81316286D01*
X136887857Y-81280000D01*
X136996714Y-81280000D01*
X137069286Y-81316286D01*
X137105571Y-81352571D01*
X137141857Y-81425143D01*
X137141857Y-81715428D01*
X137504714Y-80554286D02*
X137504714Y-80989714D01*
X137504714Y-80772000D02*
X136742714Y-80772000D01*
X136851571Y-80844571D01*
X136924143Y-80917143D01*
X136960429Y-80989714D01*
X137504714Y-86033428D02*
X137504714Y-86468856D01*
X137504714Y-86251142D02*
X136742714Y-86251142D01*
X136851571Y-86323713D01*
X136924143Y-86396285D01*
X136960429Y-86468856D01*
X136742714Y-85561714D02*
X136742714Y-85489142D01*
X136779000Y-85416571D01*
X136815286Y-85380285D01*
X136887857Y-85343999D01*
X137033000Y-85307714D01*
X137214429Y-85307714D01*
X137359571Y-85343999D01*
X137432143Y-85380285D01*
X137468429Y-85416571D01*
X137504714Y-85489142D01*
X137504714Y-85561714D01*
X137468429Y-85634285D01*
X137432143Y-85670571D01*
X137359571Y-85706856D01*
X137214429Y-85743142D01*
X137033000Y-85743142D01*
X136887857Y-85706856D01*
X136815286Y-85670571D01*
X136779000Y-85634285D01*
X136742714Y-85561714D01*
X136742714Y-84836000D02*
X136742714Y-84763428D01*
X136779000Y-84690857D01*
X136815286Y-84654571D01*
X136887857Y-84618285D01*
X137033000Y-84582000D01*
X137214429Y-84582000D01*
X137359571Y-84618285D01*
X137432143Y-84654571D01*
X137468429Y-84690857D01*
X137504714Y-84763428D01*
X137504714Y-84836000D01*
X137468429Y-84908571D01*
X137432143Y-84944857D01*
X137359571Y-84981142D01*
X137214429Y-85017428D01*
X137033000Y-85017428D01*
X136887857Y-84981142D01*
X136815286Y-84944857D01*
X136779000Y-84908571D01*
X136742714Y-84836000D01*
X137504714Y-84255428D02*
X136742714Y-84255428D01*
X137214429Y-84182857D02*
X137504714Y-83965143D01*
X136996714Y-83965143D02*
X137287000Y-84255428D01*
X137504714Y-93980000D02*
X137141857Y-94234000D01*
X137504714Y-94415428D02*
X136742714Y-94415428D01*
X136742714Y-94125143D01*
X136779000Y-94052571D01*
X136815286Y-94016286D01*
X136887857Y-93980000D01*
X136996714Y-93980000D01*
X137069286Y-94016286D01*
X137105571Y-94052571D01*
X137141857Y-94125143D01*
X137141857Y-94415428D01*
X136815286Y-93689714D02*
X136779000Y-93653428D01*
X136742714Y-93580857D01*
X136742714Y-93399428D01*
X136779000Y-93326857D01*
X136815286Y-93290571D01*
X136887857Y-93254286D01*
X136960429Y-93254286D01*
X137069286Y-93290571D01*
X137504714Y-93726000D01*
X137504714Y-93254286D01*
X136996714Y-98443142D02*
X137504714Y-98443142D01*
X136706429Y-98624571D02*
X137250714Y-98805999D01*
X137250714Y-98334285D01*
X136742714Y-98116571D02*
X136742714Y-97608571D01*
X137504714Y-97935142D01*
X137504714Y-97318285D02*
X136742714Y-97318285D01*
X137214429Y-97245714D02*
X137504714Y-97028000D01*
X136996714Y-97028000D02*
X137287000Y-97318285D01*
X147320000Y-75909714D02*
X147066000Y-75546857D01*
X146884572Y-75909714D02*
X146884572Y-75147714D01*
X147174857Y-75147714D01*
X147247429Y-75184000D01*
X147283714Y-75220286D01*
X147320000Y-75292857D01*
X147320000Y-75401714D01*
X147283714Y-75474286D01*
X147247429Y-75510571D01*
X147174857Y-75546857D01*
X146884572Y-75546857D01*
X147574000Y-75147714D02*
X148045714Y-75147714D01*
X147791714Y-75438000D01*
X147900572Y-75438000D01*
X147973143Y-75474286D01*
X148009429Y-75510571D01*
X148045714Y-75583143D01*
X148045714Y-75764571D01*
X148009429Y-75837143D01*
X147973143Y-75873429D01*
X147900572Y-75909714D01*
X147682857Y-75909714D01*
X147610286Y-75873429D01*
X147574000Y-75837143D01*
X142439572Y-75220286D02*
X142475858Y-75184000D01*
X142548429Y-75147714D01*
X142729858Y-75147714D01*
X142802429Y-75184000D01*
X142838715Y-75220286D01*
X142875000Y-75292857D01*
X142875000Y-75365429D01*
X142838715Y-75474286D01*
X142403286Y-75909714D01*
X142875000Y-75909714D01*
X143165286Y-75220286D02*
X143201572Y-75184000D01*
X143274143Y-75147714D01*
X143455572Y-75147714D01*
X143528143Y-75184000D01*
X143564429Y-75220286D01*
X143600714Y-75292857D01*
X143600714Y-75365429D01*
X143564429Y-75474286D01*
X143129000Y-75909714D01*
X143600714Y-75909714D01*
X144072428Y-75147714D02*
X144145000Y-75147714D01*
X144217571Y-75184000D01*
X144253857Y-75220286D01*
X144290143Y-75292857D01*
X144326428Y-75438000D01*
X144326428Y-75619429D01*
X144290143Y-75764571D01*
X144253857Y-75837143D01*
X144217571Y-75873429D01*
X144145000Y-75909714D01*
X144072428Y-75909714D01*
X143999857Y-75873429D01*
X143963571Y-75837143D01*
X143927286Y-75764571D01*
X143891000Y-75619429D01*
X143891000Y-75438000D01*
X143927286Y-75292857D01*
X143963571Y-75220286D01*
X143999857Y-75184000D01*
X144072428Y-75147714D01*
X147320000Y-82259714D02*
X147066000Y-81896857D01*
X146884572Y-82259714D02*
X146884572Y-81497714D01*
X147174857Y-81497714D01*
X147247429Y-81534000D01*
X147283714Y-81570286D01*
X147320000Y-81642857D01*
X147320000Y-81751714D01*
X147283714Y-81824286D01*
X147247429Y-81860571D01*
X147174857Y-81896857D01*
X146884572Y-81896857D01*
X147973143Y-81751714D02*
X147973143Y-82259714D01*
X147791714Y-81461429D02*
X147610286Y-82005714D01*
X148082000Y-82005714D01*
X143292286Y-82259714D02*
X142856858Y-82259714D01*
X143074572Y-82259714D02*
X143074572Y-81497714D01*
X143002001Y-81606571D01*
X142929429Y-81679143D01*
X142856858Y-81715429D01*
X143618858Y-82259714D02*
X143618858Y-81497714D01*
X143691429Y-81969429D02*
X143909143Y-82259714D01*
X143909143Y-81751714D02*
X143618858Y-82042000D01*
X147320000Y-87339714D02*
X147066000Y-86976857D01*
X146884572Y-87339714D02*
X146884572Y-86577714D01*
X147174857Y-86577714D01*
X147247429Y-86614000D01*
X147283714Y-86650286D01*
X147320000Y-86722857D01*
X147320000Y-86831714D01*
X147283714Y-86904286D01*
X147247429Y-86940571D01*
X147174857Y-86976857D01*
X146884572Y-86976857D01*
X148009429Y-86577714D02*
X147646572Y-86577714D01*
X147610286Y-86940571D01*
X147646572Y-86904286D01*
X147719143Y-86868000D01*
X147900572Y-86868000D01*
X147973143Y-86904286D01*
X148009429Y-86940571D01*
X148045714Y-87013143D01*
X148045714Y-87194571D01*
X148009429Y-87267143D01*
X147973143Y-87303429D01*
X147900572Y-87339714D01*
X147719143Y-87339714D01*
X147646572Y-87303429D01*
X147610286Y-87267143D01*
X143292286Y-87339714D02*
X142856858Y-87339714D01*
X143074572Y-87339714D02*
X143074572Y-86577714D01*
X143002001Y-86686571D01*
X142929429Y-86759143D01*
X142856858Y-86795429D01*
X143618858Y-87339714D02*
X143618858Y-86577714D01*
X143691429Y-87049429D02*
X143909143Y-87339714D01*
X143909143Y-86831714D02*
X143618858Y-87122000D01*
X143256000Y-84799714D02*
X143002000Y-84436857D01*
X142820572Y-84799714D02*
X142820572Y-84037714D01*
X143110857Y-84037714D01*
X143183429Y-84074000D01*
X143219714Y-84110286D01*
X143256000Y-84182857D01*
X143256000Y-84291714D01*
X143219714Y-84364286D01*
X143183429Y-84400571D01*
X143110857Y-84436857D01*
X142820572Y-84436857D01*
X143909143Y-84037714D02*
X143764000Y-84037714D01*
X143691429Y-84074000D01*
X143655143Y-84110286D01*
X143582572Y-84219143D01*
X143546286Y-84364286D01*
X143546286Y-84654571D01*
X143582572Y-84727143D01*
X143618857Y-84763429D01*
X143691429Y-84799714D01*
X143836572Y-84799714D01*
X143909143Y-84763429D01*
X143945429Y-84727143D01*
X143981714Y-84654571D01*
X143981714Y-84473143D01*
X143945429Y-84400571D01*
X143909143Y-84364286D01*
X143836572Y-84328000D01*
X143691429Y-84328000D01*
X143618857Y-84364286D01*
X143582572Y-84400571D01*
X143546286Y-84473143D01*
X146503572Y-84110286D02*
X146539858Y-84074000D01*
X146612429Y-84037714D01*
X146793858Y-84037714D01*
X146866429Y-84074000D01*
X146902715Y-84110286D01*
X146939000Y-84182857D01*
X146939000Y-84255429D01*
X146902715Y-84364286D01*
X146467286Y-84799714D01*
X146939000Y-84799714D01*
X147229286Y-84110286D02*
X147265572Y-84074000D01*
X147338143Y-84037714D01*
X147519572Y-84037714D01*
X147592143Y-84074000D01*
X147628429Y-84110286D01*
X147664714Y-84182857D01*
X147664714Y-84255429D01*
X147628429Y-84364286D01*
X147193000Y-84799714D01*
X147664714Y-84799714D01*
X148136428Y-84037714D02*
X148209000Y-84037714D01*
X148281571Y-84074000D01*
X148317857Y-84110286D01*
X148354143Y-84182857D01*
X148390428Y-84328000D01*
X148390428Y-84509429D01*
X148354143Y-84654571D01*
X148317857Y-84727143D01*
X148281571Y-84763429D01*
X148209000Y-84799714D01*
X148136428Y-84799714D01*
X148063857Y-84763429D01*
X148027571Y-84727143D01*
X147991286Y-84654571D01*
X147955000Y-84509429D01*
X147955000Y-84328000D01*
X147991286Y-84182857D01*
X148027571Y-84110286D01*
X148063857Y-84074000D01*
X148136428Y-84037714D01*
X143256000Y-89879714D02*
X143002000Y-89516857D01*
X142820572Y-89879714D02*
X142820572Y-89117714D01*
X143110857Y-89117714D01*
X143183429Y-89154000D01*
X143219714Y-89190286D01*
X143256000Y-89262857D01*
X143256000Y-89371714D01*
X143219714Y-89444286D01*
X143183429Y-89480571D01*
X143110857Y-89516857D01*
X142820572Y-89516857D01*
X143510000Y-89117714D02*
X144018000Y-89117714D01*
X143691429Y-89879714D01*
X146503572Y-89190286D02*
X146539858Y-89154000D01*
X146612429Y-89117714D01*
X146793858Y-89117714D01*
X146866429Y-89154000D01*
X146902715Y-89190286D01*
X146939000Y-89262857D01*
X146939000Y-89335429D01*
X146902715Y-89444286D01*
X146467286Y-89879714D01*
X146939000Y-89879714D01*
X147229286Y-89190286D02*
X147265572Y-89154000D01*
X147338143Y-89117714D01*
X147519572Y-89117714D01*
X147592143Y-89154000D01*
X147628429Y-89190286D01*
X147664714Y-89262857D01*
X147664714Y-89335429D01*
X147628429Y-89444286D01*
X147193000Y-89879714D01*
X147664714Y-89879714D01*
X148136428Y-89117714D02*
X148209000Y-89117714D01*
X148281571Y-89154000D01*
X148317857Y-89190286D01*
X148354143Y-89262857D01*
X148390428Y-89408000D01*
X148390428Y-89589429D01*
X148354143Y-89734571D01*
X148317857Y-89807143D01*
X148281571Y-89843429D01*
X148209000Y-89879714D01*
X148136428Y-89879714D01*
X148063857Y-89843429D01*
X148027571Y-89807143D01*
X147991286Y-89734571D01*
X147955000Y-89589429D01*
X147955000Y-89408000D01*
X147991286Y-89262857D01*
X148027571Y-89190286D01*
X148063857Y-89154000D01*
X148136428Y-89117714D01*
X147320000Y-92419714D02*
X147066000Y-92056857D01*
X146884572Y-92419714D02*
X146884572Y-91657714D01*
X147174857Y-91657714D01*
X147247429Y-91694000D01*
X147283714Y-91730286D01*
X147320000Y-91802857D01*
X147320000Y-91911714D01*
X147283714Y-91984286D01*
X147247429Y-92020571D01*
X147174857Y-92056857D01*
X146884572Y-92056857D01*
X147755429Y-91984286D02*
X147682857Y-91948000D01*
X147646572Y-91911714D01*
X147610286Y-91839143D01*
X147610286Y-91802857D01*
X147646572Y-91730286D01*
X147682857Y-91694000D01*
X147755429Y-91657714D01*
X147900572Y-91657714D01*
X147973143Y-91694000D01*
X148009429Y-91730286D01*
X148045714Y-91802857D01*
X148045714Y-91839143D01*
X148009429Y-91911714D01*
X147973143Y-91948000D01*
X147900572Y-91984286D01*
X147755429Y-91984286D01*
X147682857Y-92020571D01*
X147646572Y-92056857D01*
X147610286Y-92129429D01*
X147610286Y-92274571D01*
X147646572Y-92347143D01*
X147682857Y-92383429D01*
X147755429Y-92419714D01*
X147900572Y-92419714D01*
X147973143Y-92383429D01*
X148009429Y-92347143D01*
X148045714Y-92274571D01*
X148045714Y-92129429D01*
X148009429Y-92056857D01*
X147973143Y-92020571D01*
X147900572Y-91984286D01*
X143292286Y-92419714D02*
X142856858Y-92419714D01*
X143074572Y-92419714D02*
X143074572Y-91657714D01*
X143002001Y-91766571D01*
X142929429Y-91839143D01*
X142856858Y-91875429D01*
X143618858Y-92419714D02*
X143618858Y-91657714D01*
X143691429Y-92129429D02*
X143909143Y-92419714D01*
X143909143Y-91911714D02*
X143618858Y-92202000D01*
X147320000Y-97499714D02*
X147066000Y-97136857D01*
X146884572Y-97499714D02*
X146884572Y-96737714D01*
X147174857Y-96737714D01*
X147247429Y-96774000D01*
X147283714Y-96810286D01*
X147320000Y-96882857D01*
X147320000Y-96991714D01*
X147283714Y-97064286D01*
X147247429Y-97100571D01*
X147174857Y-97136857D01*
X146884572Y-97136857D01*
X147682857Y-97499714D02*
X147828000Y-97499714D01*
X147900572Y-97463429D01*
X147936857Y-97427143D01*
X148009429Y-97318286D01*
X148045714Y-97173143D01*
X148045714Y-96882857D01*
X148009429Y-96810286D01*
X147973143Y-96774000D01*
X147900572Y-96737714D01*
X147755429Y-96737714D01*
X147682857Y-96774000D01*
X147646572Y-96810286D01*
X147610286Y-96882857D01*
X147610286Y-97064286D01*
X147646572Y-97136857D01*
X147682857Y-97173143D01*
X147755429Y-97209429D01*
X147900572Y-97209429D01*
X147973143Y-97173143D01*
X148009429Y-97136857D01*
X148045714Y-97064286D01*
X143292286Y-97499714D02*
X142856858Y-97499714D01*
X143074572Y-97499714D02*
X143074572Y-96737714D01*
X143002001Y-96846571D01*
X142929429Y-96919143D01*
X142856858Y-96955429D01*
X143618858Y-97499714D02*
X143618858Y-96737714D01*
X143691429Y-97209429D02*
X143909143Y-97499714D01*
X143909143Y-96991714D02*
X143618858Y-97282000D01*
X142893143Y-94959714D02*
X142639143Y-94596857D01*
X142457715Y-94959714D02*
X142457715Y-94197714D01*
X142748000Y-94197714D01*
X142820572Y-94234000D01*
X142856857Y-94270286D01*
X142893143Y-94342857D01*
X142893143Y-94451714D01*
X142856857Y-94524286D01*
X142820572Y-94560571D01*
X142748000Y-94596857D01*
X142457715Y-94596857D01*
X143618857Y-94959714D02*
X143183429Y-94959714D01*
X143401143Y-94959714D02*
X143401143Y-94197714D01*
X143328572Y-94306571D01*
X143256000Y-94379143D01*
X143183429Y-94415429D01*
X144090571Y-94197714D02*
X144163143Y-94197714D01*
X144235714Y-94234000D01*
X144272000Y-94270286D01*
X144308286Y-94342857D01*
X144344571Y-94488000D01*
X144344571Y-94669429D01*
X144308286Y-94814571D01*
X144272000Y-94887143D01*
X144235714Y-94923429D01*
X144163143Y-94959714D01*
X144090571Y-94959714D01*
X144018000Y-94923429D01*
X143981714Y-94887143D01*
X143945429Y-94814571D01*
X143909143Y-94669429D01*
X143909143Y-94488000D01*
X143945429Y-94342857D01*
X143981714Y-94270286D01*
X144018000Y-94234000D01*
X144090571Y-94197714D01*
X146503572Y-94270286D02*
X146539858Y-94234000D01*
X146612429Y-94197714D01*
X146793858Y-94197714D01*
X146866429Y-94234000D01*
X146902715Y-94270286D01*
X146939000Y-94342857D01*
X146939000Y-94415429D01*
X146902715Y-94524286D01*
X146467286Y-94959714D01*
X146939000Y-94959714D01*
X147229286Y-94270286D02*
X147265572Y-94234000D01*
X147338143Y-94197714D01*
X147519572Y-94197714D01*
X147592143Y-94234000D01*
X147628429Y-94270286D01*
X147664714Y-94342857D01*
X147664714Y-94415429D01*
X147628429Y-94524286D01*
X147193000Y-94959714D01*
X147664714Y-94959714D01*
X148136428Y-94197714D02*
X148209000Y-94197714D01*
X148281571Y-94234000D01*
X148317857Y-94270286D01*
X148354143Y-94342857D01*
X148390428Y-94488000D01*
X148390428Y-94669429D01*
X148354143Y-94814571D01*
X148317857Y-94887143D01*
X148281571Y-94923429D01*
X148209000Y-94959714D01*
X148136428Y-94959714D01*
X148063857Y-94923429D01*
X148027571Y-94887143D01*
X147991286Y-94814571D01*
X147955000Y-94669429D01*
X147955000Y-94488000D01*
X147991286Y-94342857D01*
X148027571Y-94270286D01*
X148063857Y-94234000D01*
X148136428Y-94197714D01*
X142893143Y-100039714D02*
X142639143Y-99676857D01*
X142457715Y-100039714D02*
X142457715Y-99277714D01*
X142748000Y-99277714D01*
X142820572Y-99314000D01*
X142856857Y-99350286D01*
X142893143Y-99422857D01*
X142893143Y-99531714D01*
X142856857Y-99604286D01*
X142820572Y-99640571D01*
X142748000Y-99676857D01*
X142457715Y-99676857D01*
X143618857Y-100039714D02*
X143183429Y-100039714D01*
X143401143Y-100039714D02*
X143401143Y-99277714D01*
X143328572Y-99386571D01*
X143256000Y-99459143D01*
X143183429Y-99495429D01*
X144344571Y-100039714D02*
X143909143Y-100039714D01*
X144126857Y-100039714D02*
X144126857Y-99277714D01*
X144054286Y-99386571D01*
X143981714Y-99459143D01*
X143909143Y-99495429D01*
X146503572Y-99350286D02*
X146539858Y-99314000D01*
X146612429Y-99277714D01*
X146793858Y-99277714D01*
X146866429Y-99314000D01*
X146902715Y-99350286D01*
X146939000Y-99422857D01*
X146939000Y-99495429D01*
X146902715Y-99604286D01*
X146467286Y-100039714D01*
X146939000Y-100039714D01*
X147229286Y-99350286D02*
X147265572Y-99314000D01*
X147338143Y-99277714D01*
X147519572Y-99277714D01*
X147592143Y-99314000D01*
X147628429Y-99350286D01*
X147664714Y-99422857D01*
X147664714Y-99495429D01*
X147628429Y-99604286D01*
X147193000Y-100039714D01*
X147664714Y-100039714D01*
X148136428Y-99277714D02*
X148209000Y-99277714D01*
X148281571Y-99314000D01*
X148317857Y-99350286D01*
X148354143Y-99422857D01*
X148390428Y-99568000D01*
X148390428Y-99749429D01*
X148354143Y-99894571D01*
X148317857Y-99967143D01*
X148281571Y-100003429D01*
X148209000Y-100039714D01*
X148136428Y-100039714D01*
X148063857Y-100003429D01*
X148027571Y-99967143D01*
X147991286Y-99894571D01*
X147955000Y-99749429D01*
X147955000Y-99568000D01*
X147991286Y-99422857D01*
X148027571Y-99350286D01*
X148063857Y-99314000D01*
X148136428Y-99277714D01*
X144834429Y-69051714D02*
X144834429Y-69668571D01*
X144870714Y-69741143D01*
X144907000Y-69777429D01*
X144979571Y-69813714D01*
X145124714Y-69813714D01*
X145197286Y-69777429D01*
X145233571Y-69741143D01*
X145269857Y-69668571D01*
X145269857Y-69051714D01*
X146031857Y-69813714D02*
X145596429Y-69813714D01*
X145814143Y-69813714D02*
X145814143Y-69051714D01*
X145741572Y-69160571D01*
X145669000Y-69233143D01*
X145596429Y-69269429D01*
X146993429Y-69051714D02*
X147501429Y-69051714D01*
X147174858Y-69813714D01*
X147900572Y-69378286D02*
X147828000Y-69342000D01*
X147791715Y-69305714D01*
X147755429Y-69233143D01*
X147755429Y-69196857D01*
X147791715Y-69124286D01*
X147828000Y-69088000D01*
X147900572Y-69051714D01*
X148045715Y-69051714D01*
X148118286Y-69088000D01*
X148154572Y-69124286D01*
X148190857Y-69196857D01*
X148190857Y-69233143D01*
X148154572Y-69305714D01*
X148118286Y-69342000D01*
X148045715Y-69378286D01*
X147900572Y-69378286D01*
X147828000Y-69414571D01*
X147791715Y-69450857D01*
X147755429Y-69523429D01*
X147755429Y-69668571D01*
X147791715Y-69741143D01*
X147828000Y-69777429D01*
X147900572Y-69813714D01*
X148045715Y-69813714D01*
X148118286Y-69777429D01*
X148154572Y-69741143D01*
X148190857Y-69668571D01*
X148190857Y-69523429D01*
X148154572Y-69450857D01*
X148118286Y-69414571D01*
X148045715Y-69378286D01*
X148662571Y-69051714D02*
X148735143Y-69051714D01*
X148807714Y-69088000D01*
X148844000Y-69124286D01*
X148880286Y-69196857D01*
X148916571Y-69342000D01*
X148916571Y-69523429D01*
X148880286Y-69668571D01*
X148844000Y-69741143D01*
X148807714Y-69777429D01*
X148735143Y-69813714D01*
X148662571Y-69813714D01*
X148590000Y-69777429D01*
X148553714Y-69741143D01*
X148517429Y-69668571D01*
X148481143Y-69523429D01*
X148481143Y-69342000D01*
X148517429Y-69196857D01*
X148553714Y-69124286D01*
X148590000Y-69088000D01*
X148662571Y-69051714D01*
X149606000Y-69051714D02*
X149243143Y-69051714D01*
X149206857Y-69414571D01*
X149243143Y-69378286D01*
X149315714Y-69342000D01*
X149497143Y-69342000D01*
X149569714Y-69378286D01*
X149606000Y-69414571D01*
X149642285Y-69487143D01*
X149642285Y-69668571D01*
X149606000Y-69741143D01*
X149569714Y-69777429D01*
X149497143Y-69813714D01*
X149315714Y-69813714D01*
X149243143Y-69777429D01*
X149206857Y-69741143D01*
X131281714Y-107895571D02*
X131898571Y-107895571D01*
X131971143Y-107859286D01*
X132007429Y-107823000D01*
X132043714Y-107750429D01*
X132043714Y-107605286D01*
X132007429Y-107532714D01*
X131971143Y-107496429D01*
X131898571Y-107460143D01*
X131281714Y-107460143D01*
X131354286Y-107133571D02*
X131318000Y-107097285D01*
X131281714Y-107024714D01*
X131281714Y-106843285D01*
X131318000Y-106770714D01*
X131354286Y-106734428D01*
X131426857Y-106698143D01*
X131499429Y-106698143D01*
X131608286Y-106734428D01*
X132043714Y-107169857D01*
X132043714Y-106698143D01*
D12*
X143262048Y-106758619D02*
X143842619Y-106758619D01*
X143552334Y-107774619D02*
X143552334Y-106758619D01*
X144665095Y-107774619D02*
X144181286Y-107774619D01*
X144181286Y-106758619D01*
X145197286Y-106758619D02*
X145294047Y-106758619D01*
X145390809Y-106807000D01*
X145439190Y-106855381D01*
X145487571Y-106952143D01*
X145535952Y-107145667D01*
X145535952Y-107387571D01*
X145487571Y-107581095D01*
X145439190Y-107677857D01*
X145390809Y-107726238D01*
X145294047Y-107774619D01*
X145197286Y-107774619D01*
X145100524Y-107726238D01*
X145052143Y-107677857D01*
X145003762Y-107581095D01*
X144955381Y-107387571D01*
X144955381Y-107145667D01*
X145003762Y-106952143D01*
X145052143Y-106855381D01*
X145100524Y-106807000D01*
X145197286Y-106758619D01*
X145874619Y-106758619D02*
X146551952Y-106758619D01*
X146116524Y-107774619D01*
X147374428Y-107097286D02*
X147374428Y-107774619D01*
X147132524Y-106710238D02*
X146890619Y-107435952D01*
X147519571Y-107435952D01*
D13*
X122137714Y-99005571D02*
X122754571Y-99005571D01*
X122827143Y-98969286D01*
X122863429Y-98933000D01*
X122899714Y-98860429D01*
X122899714Y-98715286D01*
X122863429Y-98642714D01*
X122827143Y-98606429D01*
X122754571Y-98570143D01*
X122137714Y-98570143D01*
X122137714Y-98279857D02*
X122137714Y-97808143D01*
X122428000Y-98062143D01*
X122428000Y-97953285D01*
X122464286Y-97880714D01*
X122500571Y-97844428D01*
X122573143Y-97808143D01*
X122754571Y-97808143D01*
X122827143Y-97844428D01*
X122863429Y-97880714D01*
X122899714Y-97953285D01*
X122899714Y-98171000D01*
X122863429Y-98243571D01*
X122827143Y-98279857D01*
X125385286Y-98007714D02*
X125820715Y-98007714D01*
X125603001Y-98769714D02*
X125603001Y-98007714D01*
X126437572Y-98769714D02*
X126074715Y-98769714D01*
X126074715Y-98007714D01*
X126836714Y-98007714D02*
X126909286Y-98007714D01*
X126981857Y-98044000D01*
X127018143Y-98080286D01*
X127054429Y-98152857D01*
X127090714Y-98298000D01*
X127090714Y-98479429D01*
X127054429Y-98624571D01*
X127018143Y-98697143D01*
X126981857Y-98733429D01*
X126909286Y-98769714D01*
X126836714Y-98769714D01*
X126764143Y-98733429D01*
X126727857Y-98697143D01*
X126691572Y-98624571D01*
X126655286Y-98479429D01*
X126655286Y-98298000D01*
X126691572Y-98152857D01*
X126727857Y-98080286D01*
X126764143Y-98044000D01*
X126836714Y-98007714D01*
X127344714Y-98007714D02*
X127852714Y-98007714D01*
X127526143Y-98769714D01*
X128106714Y-98080286D02*
X128143000Y-98044000D01*
X128215571Y-98007714D01*
X128397000Y-98007714D01*
X128469571Y-98044000D01*
X128505857Y-98080286D01*
X128542142Y-98152857D01*
X128542142Y-98225429D01*
X128505857Y-98334286D01*
X128070428Y-98769714D01*
X128542142Y-98769714D01*
X122137714Y-82495571D02*
X122754571Y-82495571D01*
X122827143Y-82459286D01*
X122863429Y-82423000D01*
X122899714Y-82350429D01*
X122899714Y-82205286D01*
X122863429Y-82132714D01*
X122827143Y-82096429D01*
X122754571Y-82060143D01*
X122137714Y-82060143D01*
X122391714Y-81370714D02*
X122899714Y-81370714D01*
X122101429Y-81552143D02*
X122645714Y-81733571D01*
X122645714Y-81261857D01*
X125385286Y-81497714D02*
X125820715Y-81497714D01*
X125603001Y-82259714D02*
X125603001Y-81497714D01*
X126437572Y-82259714D02*
X126074715Y-82259714D01*
X126074715Y-81497714D01*
X126836714Y-81497714D02*
X126909286Y-81497714D01*
X126981857Y-81534000D01*
X127018143Y-81570286D01*
X127054429Y-81642857D01*
X127090714Y-81788000D01*
X127090714Y-81969429D01*
X127054429Y-82114571D01*
X127018143Y-82187143D01*
X126981857Y-82223429D01*
X126909286Y-82259714D01*
X126836714Y-82259714D01*
X126764143Y-82223429D01*
X126727857Y-82187143D01*
X126691572Y-82114571D01*
X126655286Y-81969429D01*
X126655286Y-81788000D01*
X126691572Y-81642857D01*
X126727857Y-81570286D01*
X126764143Y-81534000D01*
X126836714Y-81497714D01*
X127344714Y-81497714D02*
X127852714Y-81497714D01*
X127526143Y-82259714D01*
X128542142Y-82259714D02*
X128106714Y-82259714D01*
X128324428Y-82259714D02*
X128324428Y-81497714D01*
X128251857Y-81606571D01*
X128179285Y-81679143D01*
X128106714Y-81715429D01*
D11*
X140755309Y-73693262D02*
X140755309Y-73058262D01*
X140906500Y-73058262D01*
X140997214Y-73088500D01*
X141057690Y-73148976D01*
X141087929Y-73209452D01*
X141118167Y-73330405D01*
X141118167Y-73421119D01*
X141087929Y-73542071D01*
X141057690Y-73602548D01*
X140997214Y-73663024D01*
X140906500Y-73693262D01*
X140755309Y-73693262D01*
X141662452Y-73058262D02*
X141541500Y-73058262D01*
X141481024Y-73088500D01*
X141450786Y-73118738D01*
X141390309Y-73209452D01*
X141360071Y-73330405D01*
X141360071Y-73572310D01*
X141390309Y-73632786D01*
X141420548Y-73663024D01*
X141481024Y-73693262D01*
X141601976Y-73693262D01*
X141662452Y-73663024D01*
X141692690Y-73632786D01*
X141722929Y-73572310D01*
X141722929Y-73421119D01*
X141692690Y-73360643D01*
X141662452Y-73330405D01*
X141601976Y-73300167D01*
X141481024Y-73300167D01*
X141420548Y-73330405D01*
X141390309Y-73360643D01*
X141360071Y-73421119D01*
X144054286Y-72042262D02*
X143691428Y-72042262D01*
X143872857Y-72042262D02*
X143872857Y-71407262D01*
X143812381Y-71497976D01*
X143751905Y-71558452D01*
X143691428Y-71588690D01*
X144326428Y-72042262D02*
X144326428Y-71407262D01*
X144689286Y-72042262D01*
X144689286Y-71407262D01*
X145263809Y-71618929D02*
X145263809Y-72042262D01*
X145112619Y-71377024D02*
X144961428Y-71830595D01*
X145354524Y-71830595D01*
X145717381Y-71407262D02*
X145777857Y-71407262D01*
X145838333Y-71437500D01*
X145868571Y-71467738D01*
X145898809Y-71528214D01*
X145929048Y-71649167D01*
X145929048Y-71800357D01*
X145898809Y-71921310D01*
X145868571Y-71981786D01*
X145838333Y-72012024D01*
X145777857Y-72042262D01*
X145717381Y-72042262D01*
X145656905Y-72012024D01*
X145626667Y-71981786D01*
X145596428Y-71921310D01*
X145566190Y-71800357D01*
X145566190Y-71649167D01*
X145596428Y-71528214D01*
X145626667Y-71467738D01*
X145656905Y-71437500D01*
X145717381Y-71407262D01*
X146322143Y-71407262D02*
X146382619Y-71407262D01*
X146443095Y-71437500D01*
X146473333Y-71467738D01*
X146503571Y-71528214D01*
X146533810Y-71649167D01*
X146533810Y-71800357D01*
X146503571Y-71921310D01*
X146473333Y-71981786D01*
X146443095Y-72012024D01*
X146382619Y-72042262D01*
X146322143Y-72042262D01*
X146261667Y-72012024D01*
X146231429Y-71981786D01*
X146201190Y-71921310D01*
X146170952Y-71800357D01*
X146170952Y-71649167D01*
X146201190Y-71528214D01*
X146231429Y-71467738D01*
X146261667Y-71437500D01*
X146322143Y-71407262D01*
X147138572Y-72042262D02*
X146775714Y-72042262D01*
X146957143Y-72042262D02*
X146957143Y-71407262D01*
X146896667Y-71497976D01*
X146836191Y-71558452D01*
X146775714Y-71588690D01*
D13*
X130152572Y-61889714D02*
X130152572Y-61127714D01*
X130442857Y-61127714D01*
X130515429Y-61164000D01*
X130551714Y-61200286D01*
X130588000Y-61272857D01*
X130588000Y-61381714D01*
X130551714Y-61454286D01*
X130515429Y-61490571D01*
X130442857Y-61526857D01*
X130152572Y-61526857D01*
X131313714Y-61889714D02*
X130878286Y-61889714D01*
X131096000Y-61889714D02*
X131096000Y-61127714D01*
X131023429Y-61236571D01*
X130950857Y-61309143D01*
X130878286Y-61345429D01*
X137620286Y-75038570D02*
X137584000Y-75002284D01*
X137547714Y-74929713D01*
X137547714Y-74748284D01*
X137584000Y-74675713D01*
X137620286Y-74639427D01*
X137692857Y-74603142D01*
X137765429Y-74603142D01*
X137874286Y-74639427D01*
X138309714Y-75074856D01*
X138309714Y-74603142D01*
X138237143Y-74276570D02*
X138273429Y-74240285D01*
X138309714Y-74276570D01*
X138273429Y-74312856D01*
X138237143Y-74276570D01*
X138309714Y-74276570D01*
X138309714Y-73514571D02*
X138309714Y-73949999D01*
X138309714Y-73732285D02*
X137547714Y-73732285D01*
X137656571Y-73804856D01*
X137729143Y-73877428D01*
X137765429Y-73949999D01*
X138309714Y-73260571D02*
X137801714Y-72861428D01*
X137801714Y-73260571D02*
X138309714Y-72861428D01*
X137547714Y-72208285D02*
X137547714Y-72571142D01*
X137910571Y-72607428D01*
X137874286Y-72571142D01*
X137838000Y-72498571D01*
X137838000Y-72317142D01*
X137874286Y-72244571D01*
X137910571Y-72208285D01*
X137983143Y-72172000D01*
X138164571Y-72172000D01*
X138237143Y-72208285D01*
X138273429Y-72244571D01*
X138309714Y-72317142D01*
X138309714Y-72498571D01*
X138273429Y-72571142D01*
X138237143Y-72607428D01*
X138237143Y-71845428D02*
X138273429Y-71809143D01*
X138309714Y-71845428D01*
X138273429Y-71881714D01*
X138237143Y-71845428D01*
X138309714Y-71845428D01*
X137547714Y-71119714D02*
X137547714Y-71482571D01*
X137910571Y-71518857D01*
X137874286Y-71482571D01*
X137838000Y-71410000D01*
X137838000Y-71228571D01*
X137874286Y-71156000D01*
X137910571Y-71119714D01*
X137983143Y-71083429D01*
X138164571Y-71083429D01*
X138237143Y-71119714D01*
X138273429Y-71156000D01*
X138309714Y-71228571D01*
X138309714Y-71410000D01*
X138273429Y-71482571D01*
X138237143Y-71518857D01*
X138309714Y-70756857D02*
X137801714Y-70756857D01*
X137874286Y-70756857D02*
X137838000Y-70720572D01*
X137801714Y-70648000D01*
X137801714Y-70539143D01*
X137838000Y-70466572D01*
X137910571Y-70430286D01*
X138309714Y-70430286D01*
X137910571Y-70430286D02*
X137838000Y-70394000D01*
X137801714Y-70321429D01*
X137801714Y-70212572D01*
X137838000Y-70140000D01*
X137910571Y-70103715D01*
X138309714Y-70103715D01*
X138309714Y-69740857D02*
X137801714Y-69740857D01*
X137874286Y-69740857D02*
X137838000Y-69704572D01*
X137801714Y-69632000D01*
X137801714Y-69523143D01*
X137838000Y-69450572D01*
X137910571Y-69414286D01*
X138309714Y-69414286D01*
X137910571Y-69414286D02*
X137838000Y-69378000D01*
X137801714Y-69305429D01*
X137801714Y-69196572D01*
X137838000Y-69124000D01*
X137910571Y-69087715D01*
X138309714Y-69087715D01*
M02*
