G04 #@! TF.FileFunction,Soldermask,Bot*
%FSLAX46Y46*%
G04 Gerber Fmt 4.6, Leading zero omitted, Abs format (unit mm)*
G04 Created by KiCad (PCBNEW 4.0.5+dfsg1-4~bpo8+1) date Sat Apr 22 17:10:37 2017*
%MOMM*%
%LPD*%
G01*
G04 APERTURE LIST*
%ADD10C,0.100000*%
%ADD11C,2.686000*%
%ADD12C,6.400000*%
%ADD13R,1.898600X1.898600*%
%ADD14O,1.898600X1.898600*%
%ADD15R,3.295600X1.898600*%
%ADD16R,2.152600X2.152600*%
%ADD17O,2.152600X2.152600*%
%ADD18O,2.647900X1.898600*%
%ADD19R,1.898600X2.647900*%
%ADD20O,1.898600X2.647900*%
%ADD21R,4.464000X4.464000*%
%ADD22C,4.464000*%
G04 APERTURE END LIST*
D10*
D11*
X122555000Y-90170000D03*
X165100000Y-100965000D03*
X165100000Y-93345000D03*
X165100000Y-85725000D03*
D12*
X163830000Y-109220000D03*
X121920000Y-109220000D03*
X163830000Y-67310000D03*
X121920000Y-67310000D03*
D13*
X154940000Y-71120000D03*
D14*
X154940000Y-73660000D03*
D15*
X160718500Y-73660000D03*
X164401500Y-73660000D03*
D16*
X160655000Y-80010000D03*
D17*
X160655000Y-77470000D03*
D16*
X160655000Y-87630000D03*
D17*
X160655000Y-85090000D03*
D16*
X160655000Y-95250000D03*
D17*
X160655000Y-92710000D03*
D16*
X160655000Y-102870000D03*
D17*
X160655000Y-100330000D03*
D16*
X142240000Y-66675000D03*
D17*
X139700000Y-66675000D03*
D18*
X155949650Y-80010000D03*
X153930350Y-78740000D03*
X155949650Y-77470000D03*
X155949650Y-87630000D03*
X153930350Y-86360000D03*
X155949650Y-85090000D03*
X155949650Y-95250000D03*
X153930350Y-93980000D03*
X155949650Y-92710000D03*
X155949650Y-102870000D03*
X153930350Y-101600000D03*
X155949650Y-100330000D03*
D14*
X137160000Y-78105000D03*
X137160000Y-88265000D03*
X137160000Y-90805000D03*
X137160000Y-100965000D03*
X150495000Y-75565000D03*
X140335000Y-75565000D03*
X150495000Y-81915000D03*
X140335000Y-81915000D03*
X150495000Y-86995000D03*
X140335000Y-86995000D03*
X140335000Y-84455000D03*
X150495000Y-84455000D03*
X140335000Y-89535000D03*
X150495000Y-89535000D03*
X150495000Y-92075000D03*
X140335000Y-92075000D03*
X150495000Y-97155000D03*
X140335000Y-97155000D03*
X140335000Y-94615000D03*
X150495000Y-94615000D03*
X140335000Y-99695000D03*
X150495000Y-99695000D03*
D16*
X147320000Y-66675000D03*
D17*
X149860000Y-66675000D03*
X152400000Y-66675000D03*
D19*
X133985000Y-110750350D03*
D20*
X136525000Y-110750350D03*
X139065000Y-110750350D03*
X141605000Y-110750350D03*
X141605000Y-103879650D03*
X139065000Y-103879650D03*
X136525000Y-103879650D03*
X133985000Y-103879650D03*
X144145000Y-110750350D03*
X146685000Y-110750350D03*
X149225000Y-110750350D03*
X144145000Y-103879650D03*
X146685000Y-103879650D03*
X149225000Y-103879650D03*
D13*
X121920000Y-102235000D03*
D14*
X124460000Y-102235000D03*
X127000000Y-102235000D03*
X129540000Y-102235000D03*
X129540000Y-94615000D03*
X127000000Y-94615000D03*
X121920000Y-94615000D03*
X124460000Y-94615000D03*
D13*
X121920000Y-85725000D03*
D14*
X124460000Y-85725000D03*
X127000000Y-85725000D03*
X129540000Y-85725000D03*
X129540000Y-78105000D03*
X127000000Y-78105000D03*
X121920000Y-78105000D03*
X124460000Y-78105000D03*
D11*
X165100000Y-78105000D03*
D16*
X150495000Y-71755000D03*
D17*
X140335000Y-71755000D03*
D21*
X132715000Y-74295000D03*
D22*
X132715000Y-68326000D03*
X128016000Y-71247000D03*
M02*
