M48
INCH,TZ
T1C0.016
T2C0.032
T3C0.040
T4C0.050
T5C0.108
T6C0.126
%
G90
G05
T1
X5.Y-3.575
X5.Y-3.825
X5.075Y-3.9
X5.1Y-3.475
X5.425Y-4.275
X5.675Y-3.225
X5.675Y-3.425
X5.675Y-3.625
X5.675Y-3.825
X5.725Y-4.275
X5.775Y-3.225
X5.775Y-3.425
X5.775Y-3.625
X5.775Y-3.825
X5.8Y-3.95
X5.85Y-3.9
T2
X4.8Y-3.075
X4.8Y-3.375
X4.8Y-3.725
X4.8Y-4.025
X4.9Y-3.075
X4.9Y-3.375
X4.9Y-3.725
X4.9Y-4.025
X5.Y-3.075
X5.Y-3.375
X5.Y-3.725
X5.Y-4.025
X5.1Y-3.075
X5.1Y-3.375
X5.1Y-3.725
X5.1Y-4.025
X5.275Y-4.075
X5.275Y-4.375
X5.375Y-4.075
X5.375Y-4.375
X5.4Y-3.075
X5.4Y-3.475
X5.4Y-3.575
X5.4Y-3.975
X5.475Y-4.075
X5.475Y-4.375
X5.525Y-2.975
X5.525Y-3.225
X5.525Y-3.325
X5.525Y-3.425
X5.525Y-3.525
X5.525Y-3.625
X5.525Y-3.725
X5.525Y-3.825
X5.525Y-3.925
X5.575Y-4.075
X5.575Y-4.375
X5.675Y-4.075
X5.675Y-4.375
X5.775Y-4.075
X5.775Y-4.375
X5.875Y-4.075
X5.875Y-4.375
X5.925Y-2.975
X5.925Y-3.225
X5.925Y-3.325
X5.925Y-3.425
X5.925Y-3.525
X5.925Y-3.625
X5.925Y-3.725
X5.925Y-3.825
X5.925Y-3.925
X6.075Y-3.1
X6.075Y-3.4
X6.075Y-3.7
X6.075Y-4.
X6.1Y-2.8
X6.1Y-2.9
X6.125Y-3.05
X6.125Y-3.15
X6.125Y-3.35
X6.125Y-3.45
X6.125Y-3.65
X6.125Y-3.75
X6.125Y-3.95
X6.125Y-4.05
X6.3Y-2.9
X6.5Y-2.9
T3
X5.5Y-2.625
X5.525Y-2.825
X5.6Y-2.625
X5.8Y-2.625
X5.9Y-2.625
X5.925Y-2.825
X6.Y-2.625
X6.325Y-3.05
X6.325Y-3.15
X6.325Y-3.35
X6.325Y-3.45
X6.325Y-3.65
X6.325Y-3.75
X6.325Y-3.95
X6.325Y-4.05
T4
X4.825Y-3.55
X6.5Y-3.075
X6.5Y-3.375
X6.5Y-3.675
X6.5Y-3.975
T5
X5.04Y-2.805
X5.225Y-2.69
X5.225Y-2.925
T6
X4.8Y-2.65
X4.8Y-4.3
X6.45Y-2.65
X6.45Y-4.3
T0
M30
