G04 #@! TF.FileFunction,Copper,L2,Bot,Signal*
%FSLAX46Y46*%
G04 Gerber Fmt 4.6, Leading zero omitted, Abs format (unit mm)*
G04 Created by KiCad (PCBNEW 4.0.5+dfsg1-4~bpo8+1) date Sat Apr 22 17:10:37 2017*
%MOMM*%
%LPD*%
G01*
G04 APERTURE LIST*
%ADD10C,0.100000*%
%ADD11C,2.286000*%
%ADD12C,6.000000*%
%ADD13R,1.498600X1.498600*%
%ADD14O,1.498600X1.498600*%
%ADD15R,2.895600X1.498600*%
%ADD16R,1.752600X1.752600*%
%ADD17O,1.752600X1.752600*%
%ADD18O,2.247900X1.498600*%
%ADD19R,1.498600X2.247900*%
%ADD20O,1.498600X2.247900*%
%ADD21R,4.064000X4.064000*%
%ADD22C,4.064000*%
%ADD23C,0.600000*%
%ADD24C,0.508000*%
%ADD25C,0.254000*%
G04 APERTURE END LIST*
D10*
D11*
X122555000Y-90170000D03*
X165100000Y-100965000D03*
X165100000Y-93345000D03*
X165100000Y-85725000D03*
D12*
X163830000Y-109220000D03*
X121920000Y-109220000D03*
X163830000Y-67310000D03*
X121920000Y-67310000D03*
D13*
X154940000Y-71120000D03*
D14*
X154940000Y-73660000D03*
D15*
X160718500Y-73660000D03*
X164401500Y-73660000D03*
D16*
X160655000Y-80010000D03*
D17*
X160655000Y-77470000D03*
D16*
X160655000Y-87630000D03*
D17*
X160655000Y-85090000D03*
D16*
X160655000Y-95250000D03*
D17*
X160655000Y-92710000D03*
D16*
X160655000Y-102870000D03*
D17*
X160655000Y-100330000D03*
D16*
X142240000Y-66675000D03*
D17*
X139700000Y-66675000D03*
D18*
X155949650Y-80010000D03*
X153930350Y-78740000D03*
X155949650Y-77470000D03*
X155949650Y-87630000D03*
X153930350Y-86360000D03*
X155949650Y-85090000D03*
X155949650Y-95250000D03*
X153930350Y-93980000D03*
X155949650Y-92710000D03*
X155949650Y-102870000D03*
X153930350Y-101600000D03*
X155949650Y-100330000D03*
D14*
X137160000Y-78105000D03*
X137160000Y-88265000D03*
X137160000Y-90805000D03*
X137160000Y-100965000D03*
X150495000Y-75565000D03*
X140335000Y-75565000D03*
X150495000Y-81915000D03*
X140335000Y-81915000D03*
X150495000Y-86995000D03*
X140335000Y-86995000D03*
X140335000Y-84455000D03*
X150495000Y-84455000D03*
X140335000Y-89535000D03*
X150495000Y-89535000D03*
X150495000Y-92075000D03*
X140335000Y-92075000D03*
X150495000Y-97155000D03*
X140335000Y-97155000D03*
X140335000Y-94615000D03*
X150495000Y-94615000D03*
X140335000Y-99695000D03*
X150495000Y-99695000D03*
D16*
X147320000Y-66675000D03*
D17*
X149860000Y-66675000D03*
X152400000Y-66675000D03*
D19*
X133985000Y-110750350D03*
D20*
X136525000Y-110750350D03*
X139065000Y-110750350D03*
X141605000Y-110750350D03*
X141605000Y-103879650D03*
X139065000Y-103879650D03*
X136525000Y-103879650D03*
X133985000Y-103879650D03*
X144145000Y-110750350D03*
X146685000Y-110750350D03*
X149225000Y-110750350D03*
X144145000Y-103879650D03*
X146685000Y-103879650D03*
X149225000Y-103879650D03*
D13*
X121920000Y-102235000D03*
D14*
X124460000Y-102235000D03*
X127000000Y-102235000D03*
X129540000Y-102235000D03*
X129540000Y-94615000D03*
X127000000Y-94615000D03*
X121920000Y-94615000D03*
X124460000Y-94615000D03*
D13*
X121920000Y-85725000D03*
D14*
X124460000Y-85725000D03*
X127000000Y-85725000D03*
X129540000Y-85725000D03*
X129540000Y-78105000D03*
X127000000Y-78105000D03*
X121920000Y-78105000D03*
X124460000Y-78105000D03*
D11*
X165100000Y-78105000D03*
D16*
X150495000Y-71755000D03*
D17*
X140335000Y-71755000D03*
D21*
X132715000Y-74295000D03*
D22*
X132715000Y-68326000D03*
X128016000Y-71247000D03*
D23*
X146685000Y-81915000D03*
X144145000Y-81915000D03*
X127000000Y-97155000D03*
X128905000Y-99060000D03*
X137795000Y-108585000D03*
X145415000Y-108585000D03*
X127000000Y-90805000D03*
X129540000Y-88265000D03*
X144145000Y-86995000D03*
X146685000Y-86995000D03*
X147320000Y-100330000D03*
X148590000Y-99060000D03*
X146685000Y-92075000D03*
X144145000Y-92075000D03*
X146685000Y-97155000D03*
X144145000Y-97155000D03*
D24*
X146685000Y-81915000D02*
X144145000Y-81915000D01*
X128905000Y-99060000D02*
X127000000Y-97155000D01*
X145415000Y-108585000D02*
X137795000Y-108585000D01*
X129540000Y-88265000D02*
X127000000Y-90805000D01*
X146685000Y-86995000D02*
X144145000Y-86995000D01*
X148590000Y-99060000D02*
X147320000Y-100330000D01*
X146685000Y-92075000D02*
X144145000Y-92075000D01*
X146685000Y-97155000D02*
X144145000Y-97155000D01*
D25*
G36*
X160750194Y-65248249D02*
X160195632Y-66583782D01*
X160194370Y-68029874D01*
X160746600Y-69366372D01*
X161768249Y-70389806D01*
X163103782Y-70944368D01*
X164549874Y-70945630D01*
X165886372Y-70393400D01*
X166878000Y-69403502D01*
X166878000Y-77752141D01*
X166608194Y-77099160D01*
X166108471Y-76598564D01*
X165455218Y-76327309D01*
X164747886Y-76326692D01*
X164094160Y-76596806D01*
X163593564Y-77096529D01*
X163322309Y-77749782D01*
X163321692Y-78457114D01*
X163591806Y-79110840D01*
X164091529Y-79611436D01*
X164744782Y-79882691D01*
X165452114Y-79883308D01*
X166105840Y-79613194D01*
X166606436Y-79113471D01*
X166877691Y-78460218D01*
X166878000Y-78105979D01*
X166878000Y-85372141D01*
X166608194Y-84719160D01*
X166108471Y-84218564D01*
X165455218Y-83947309D01*
X164747886Y-83946692D01*
X164094160Y-84216806D01*
X163593564Y-84716529D01*
X163322309Y-85369782D01*
X163321692Y-86077114D01*
X163591806Y-86730840D01*
X164091529Y-87231436D01*
X164744782Y-87502691D01*
X165452114Y-87503308D01*
X166105840Y-87233194D01*
X166606436Y-86733471D01*
X166877691Y-86080218D01*
X166878000Y-85725979D01*
X166878000Y-92992141D01*
X166608194Y-92339160D01*
X166108471Y-91838564D01*
X165455218Y-91567309D01*
X164747886Y-91566692D01*
X164094160Y-91836806D01*
X163593564Y-92336529D01*
X163322309Y-92989782D01*
X163321692Y-93697114D01*
X163591806Y-94350840D01*
X164091529Y-94851436D01*
X164744782Y-95122691D01*
X165452114Y-95123308D01*
X166105840Y-94853194D01*
X166606436Y-94353471D01*
X166877691Y-93700218D01*
X166878000Y-93345979D01*
X166878000Y-100612141D01*
X166608194Y-99959160D01*
X166108471Y-99458564D01*
X165455218Y-99187309D01*
X164747886Y-99186692D01*
X164094160Y-99456806D01*
X163593564Y-99956529D01*
X163322309Y-100609782D01*
X163321692Y-101317114D01*
X163591806Y-101970840D01*
X164091529Y-102471436D01*
X164744782Y-102742691D01*
X165452114Y-102743308D01*
X166105840Y-102473194D01*
X166606436Y-101973471D01*
X166877691Y-101320218D01*
X166878000Y-100965979D01*
X166878000Y-107128166D01*
X165891751Y-106140194D01*
X164556218Y-105585632D01*
X163110126Y-105584370D01*
X161773628Y-106136600D01*
X160750194Y-107158249D01*
X160195632Y-108493782D01*
X160194370Y-109939874D01*
X160746600Y-111276372D01*
X161736498Y-112268000D01*
X150009750Y-112268000D01*
X150203848Y-112138308D01*
X150503926Y-111689209D01*
X150609300Y-111159460D01*
X150609300Y-110341240D01*
X150503926Y-109811491D01*
X150203848Y-109362392D01*
X149754749Y-109062314D01*
X149225000Y-108956940D01*
X148695251Y-109062314D01*
X148246152Y-109362392D01*
X147955000Y-109798132D01*
X147663848Y-109362392D01*
X147214749Y-109062314D01*
X146685000Y-108956940D01*
X146235863Y-109046279D01*
X146349838Y-108771799D01*
X146350162Y-108399833D01*
X146208117Y-108056057D01*
X145945327Y-107792808D01*
X145601799Y-107650162D01*
X145229833Y-107649838D01*
X145118112Y-107696000D01*
X138092189Y-107696000D01*
X137981799Y-107650162D01*
X137609833Y-107649838D01*
X137266057Y-107791883D01*
X137002808Y-108054673D01*
X136860162Y-108398201D01*
X136859838Y-108770167D01*
X136973906Y-109046233D01*
X136525000Y-108956940D01*
X135995251Y-109062314D01*
X135546152Y-109362392D01*
X135379105Y-109612396D01*
X135337462Y-109391083D01*
X135198390Y-109174959D01*
X134986190Y-109029969D01*
X134734300Y-108978960D01*
X133235700Y-108978960D01*
X133000383Y-109023238D01*
X132784259Y-109162310D01*
X132639269Y-109374510D01*
X132588260Y-109626400D01*
X132588260Y-111874300D01*
X132632538Y-112109617D01*
X132734455Y-112268000D01*
X124011834Y-112268000D01*
X124999806Y-111281751D01*
X125554368Y-109946218D01*
X125555630Y-108500126D01*
X125003400Y-107163628D01*
X123981751Y-106140194D01*
X122646218Y-105585632D01*
X121200126Y-105584370D01*
X119863628Y-106136600D01*
X118872000Y-107126498D01*
X118872000Y-101485700D01*
X120523260Y-101485700D01*
X120523260Y-102984300D01*
X120567538Y-103219617D01*
X120706610Y-103435741D01*
X120918810Y-103580731D01*
X121170700Y-103631740D01*
X122669300Y-103631740D01*
X122904617Y-103587462D01*
X123120741Y-103448390D01*
X123265731Y-103236190D01*
X123312998Y-103002776D01*
X123454032Y-103213848D01*
X123903131Y-103513926D01*
X124432880Y-103619300D01*
X124487120Y-103619300D01*
X125016869Y-103513926D01*
X125465968Y-103213848D01*
X125730000Y-102818696D01*
X125994032Y-103213848D01*
X126443131Y-103513926D01*
X126972880Y-103619300D01*
X127027120Y-103619300D01*
X127556869Y-103513926D01*
X128005968Y-103213848D01*
X128287820Y-102792026D01*
X128350144Y-102942501D01*
X128711465Y-103343984D01*
X129198923Y-103576634D01*
X129413000Y-103454722D01*
X129413000Y-102362000D01*
X129667000Y-102362000D01*
X129667000Y-103454722D01*
X129881077Y-103576634D01*
X130103369Y-103470540D01*
X132600700Y-103470540D01*
X132600700Y-104288760D01*
X132706074Y-104818509D01*
X133006152Y-105267608D01*
X133455251Y-105567686D01*
X133985000Y-105673060D01*
X134514749Y-105567686D01*
X134963848Y-105267608D01*
X135255000Y-104831868D01*
X135546152Y-105267608D01*
X135995251Y-105567686D01*
X136525000Y-105673060D01*
X137054749Y-105567686D01*
X137503848Y-105267608D01*
X137795000Y-104831868D01*
X138086152Y-105267608D01*
X138535251Y-105567686D01*
X139065000Y-105673060D01*
X139594749Y-105567686D01*
X140043848Y-105267608D01*
X140343926Y-104818509D01*
X140346423Y-104805957D01*
X140374674Y-104901381D01*
X140715954Y-105322950D01*
X141192583Y-105581827D01*
X141263925Y-105595924D01*
X141478000Y-105473252D01*
X141478000Y-104006650D01*
X141458000Y-104006650D01*
X141458000Y-103752650D01*
X141478000Y-103752650D01*
X141478000Y-102286048D01*
X141732000Y-102286048D01*
X141732000Y-103752650D01*
X141752000Y-103752650D01*
X141752000Y-104006650D01*
X141732000Y-104006650D01*
X141732000Y-105473252D01*
X141946075Y-105595924D01*
X142017417Y-105581827D01*
X142494046Y-105322950D01*
X142835326Y-104901381D01*
X142863577Y-104805957D01*
X142866074Y-104818509D01*
X143166152Y-105267608D01*
X143615251Y-105567686D01*
X144145000Y-105673060D01*
X144674749Y-105567686D01*
X145123848Y-105267608D01*
X145415000Y-104831868D01*
X145706152Y-105267608D01*
X146155251Y-105567686D01*
X146685000Y-105673060D01*
X147214749Y-105567686D01*
X147663848Y-105267608D01*
X147955000Y-104831868D01*
X148246152Y-105267608D01*
X148695251Y-105567686D01*
X149225000Y-105673060D01*
X149754749Y-105567686D01*
X150203848Y-105267608D01*
X150503926Y-104818509D01*
X150609300Y-104288760D01*
X150609300Y-103470540D01*
X150503926Y-102940791D01*
X150203848Y-102491692D01*
X149754749Y-102191614D01*
X149225000Y-102086240D01*
X148695251Y-102191614D01*
X148246152Y-102491692D01*
X147955000Y-102927432D01*
X147663848Y-102491692D01*
X147214749Y-102191614D01*
X146685000Y-102086240D01*
X146155251Y-102191614D01*
X145706152Y-102491692D01*
X145415000Y-102927432D01*
X145123848Y-102491692D01*
X144674749Y-102191614D01*
X144145000Y-102086240D01*
X143615251Y-102191614D01*
X143166152Y-102491692D01*
X142866074Y-102940791D01*
X142863577Y-102953343D01*
X142835326Y-102857919D01*
X142494046Y-102436350D01*
X142017417Y-102177473D01*
X141946075Y-102163376D01*
X141732000Y-102286048D01*
X141478000Y-102286048D01*
X141263925Y-102163376D01*
X141192583Y-102177473D01*
X140715954Y-102436350D01*
X140374674Y-102857919D01*
X140346423Y-102953343D01*
X140343926Y-102940791D01*
X140043848Y-102491692D01*
X139594749Y-102191614D01*
X139065000Y-102086240D01*
X138535251Y-102191614D01*
X138086152Y-102491692D01*
X137795000Y-102927432D01*
X137503848Y-102491692D01*
X137287002Y-102346800D01*
X137287002Y-102183953D01*
X137501075Y-102306624D01*
X137867501Y-102154856D01*
X138268984Y-101793535D01*
X138361352Y-101600000D01*
X152136940Y-101600000D01*
X152242314Y-102129749D01*
X152542392Y-102578848D01*
X152991491Y-102878926D01*
X153521240Y-102984300D01*
X154190700Y-102984300D01*
X154190700Y-102997002D01*
X154356047Y-102997002D01*
X154233376Y-103211075D01*
X154247473Y-103282417D01*
X154506350Y-103759046D01*
X154927919Y-104100326D01*
X155448000Y-104254300D01*
X155822650Y-104254300D01*
X155822650Y-102997000D01*
X156076650Y-102997000D01*
X156076650Y-104254300D01*
X156451300Y-104254300D01*
X156971381Y-104100326D01*
X157392950Y-103759046D01*
X157651827Y-103282417D01*
X157665924Y-103211075D01*
X157543252Y-102997000D01*
X156076650Y-102997000D01*
X155822650Y-102997000D01*
X155802650Y-102997000D01*
X155802650Y-102743000D01*
X155822650Y-102743000D01*
X155822650Y-102723000D01*
X156076650Y-102723000D01*
X156076650Y-102743000D01*
X157543252Y-102743000D01*
X157665924Y-102528925D01*
X157651827Y-102457583D01*
X157399873Y-101993700D01*
X159131260Y-101993700D01*
X159131260Y-103746300D01*
X159175538Y-103981617D01*
X159314610Y-104197741D01*
X159526810Y-104342731D01*
X159778700Y-104393740D01*
X161531300Y-104393740D01*
X161766617Y-104349462D01*
X161982741Y-104210390D01*
X162127731Y-103998190D01*
X162178740Y-103746300D01*
X162178740Y-101993700D01*
X162134462Y-101758383D01*
X161995390Y-101542259D01*
X161783190Y-101397269D01*
X161748985Y-101390342D01*
X162051259Y-100937957D01*
X162166300Y-100359608D01*
X162166300Y-100300392D01*
X162051259Y-99722043D01*
X161723650Y-99231742D01*
X161233349Y-98904133D01*
X160655000Y-98789092D01*
X160076651Y-98904133D01*
X159586350Y-99231742D01*
X159258741Y-99722043D01*
X159143700Y-100300392D01*
X159143700Y-100359608D01*
X159258741Y-100937957D01*
X159559162Y-101387569D01*
X159543383Y-101390538D01*
X159327259Y-101529610D01*
X159182269Y-101741810D01*
X159131260Y-101993700D01*
X157399873Y-101993700D01*
X157392950Y-101980954D01*
X156971381Y-101639674D01*
X156875957Y-101611423D01*
X156888509Y-101608926D01*
X157337608Y-101308848D01*
X157637686Y-100859749D01*
X157743060Y-100330000D01*
X157637686Y-99800251D01*
X157337608Y-99351152D01*
X156888509Y-99051074D01*
X156358760Y-98945700D01*
X155540540Y-98945700D01*
X155010791Y-99051074D01*
X154561692Y-99351152D01*
X154261614Y-99800251D01*
X154178976Y-100215700D01*
X153521240Y-100215700D01*
X152991491Y-100321074D01*
X152542392Y-100621152D01*
X152242314Y-101070251D01*
X152136940Y-101600000D01*
X138361352Y-101600000D01*
X138501634Y-101306077D01*
X138379722Y-101092000D01*
X137287000Y-101092000D01*
X137287000Y-101112000D01*
X137033000Y-101112000D01*
X137033000Y-101092000D01*
X135940278Y-101092000D01*
X135818366Y-101306077D01*
X136051016Y-101793535D01*
X136403181Y-102110471D01*
X135995251Y-102191614D01*
X135546152Y-102491692D01*
X135255000Y-102927432D01*
X134963848Y-102491692D01*
X134514749Y-102191614D01*
X133985000Y-102086240D01*
X133455251Y-102191614D01*
X133006152Y-102491692D01*
X132706074Y-102940791D01*
X132600700Y-103470540D01*
X130103369Y-103470540D01*
X130368535Y-103343984D01*
X130729856Y-102942501D01*
X130881624Y-102576075D01*
X130758952Y-102362000D01*
X129667000Y-102362000D01*
X129413000Y-102362000D01*
X129393000Y-102362000D01*
X129393000Y-102108000D01*
X129413000Y-102108000D01*
X129413000Y-101015278D01*
X129667000Y-101015278D01*
X129667000Y-102108000D01*
X130758952Y-102108000D01*
X130881624Y-101893925D01*
X130729856Y-101527499D01*
X130368535Y-101126016D01*
X129881077Y-100893366D01*
X129667000Y-101015278D01*
X129413000Y-101015278D01*
X129198923Y-100893366D01*
X128711465Y-101126016D01*
X128350144Y-101527499D01*
X128287820Y-101677974D01*
X128005968Y-101256152D01*
X127556869Y-100956074D01*
X127027120Y-100850700D01*
X126972880Y-100850700D01*
X126443131Y-100956074D01*
X125994032Y-101256152D01*
X125730000Y-101651304D01*
X125465968Y-101256152D01*
X125016869Y-100956074D01*
X124487120Y-100850700D01*
X124432880Y-100850700D01*
X123903131Y-100956074D01*
X123454032Y-101256152D01*
X123313205Y-101466914D01*
X123272462Y-101250383D01*
X123133390Y-101034259D01*
X122921190Y-100889269D01*
X122669300Y-100838260D01*
X121170700Y-100838260D01*
X120935383Y-100882538D01*
X120719259Y-101021610D01*
X120574269Y-101233810D01*
X120523260Y-101485700D01*
X118872000Y-101485700D01*
X118872000Y-100623923D01*
X135818366Y-100623923D01*
X135940278Y-100838000D01*
X137033000Y-100838000D01*
X137033000Y-99746048D01*
X137287000Y-99746048D01*
X137287000Y-100838000D01*
X138379722Y-100838000D01*
X138501634Y-100623923D01*
X138268984Y-100136465D01*
X137867501Y-99775144D01*
X137501075Y-99623376D01*
X137287000Y-99746048D01*
X137033000Y-99746048D01*
X136818925Y-99623376D01*
X136452499Y-99775144D01*
X136051016Y-100136465D01*
X135818366Y-100623923D01*
X118872000Y-100623923D01*
X118872000Y-97340167D01*
X126064838Y-97340167D01*
X126206883Y-97683943D01*
X126469673Y-97947192D01*
X126581313Y-97993549D01*
X128066238Y-99478474D01*
X128111883Y-99588943D01*
X128374673Y-99852192D01*
X128718201Y-99994838D01*
X129090167Y-99995162D01*
X129433943Y-99853117D01*
X129697192Y-99590327D01*
X129839838Y-99246799D01*
X129840162Y-98874833D01*
X129698117Y-98531057D01*
X129435327Y-98267808D01*
X129323687Y-98221451D01*
X127838762Y-96736526D01*
X127793117Y-96626057D01*
X127530327Y-96362808D01*
X127186799Y-96220162D01*
X126814833Y-96219838D01*
X126471057Y-96361883D01*
X126207808Y-96624673D01*
X126065162Y-96968201D01*
X126064838Y-97340167D01*
X118872000Y-97340167D01*
X118872000Y-94615000D01*
X120508580Y-94615000D01*
X120613954Y-95144749D01*
X120914032Y-95593848D01*
X121363131Y-95893926D01*
X121892880Y-95999300D01*
X121947120Y-95999300D01*
X122476869Y-95893926D01*
X122925968Y-95593848D01*
X123190000Y-95198696D01*
X123454032Y-95593848D01*
X123903131Y-95893926D01*
X124432880Y-95999300D01*
X124487120Y-95999300D01*
X125016869Y-95893926D01*
X125465968Y-95593848D01*
X125730000Y-95198696D01*
X125994032Y-95593848D01*
X126443131Y-95893926D01*
X126972880Y-95999300D01*
X127027120Y-95999300D01*
X127556869Y-95893926D01*
X128005968Y-95593848D01*
X128270000Y-95198696D01*
X128534032Y-95593848D01*
X128983131Y-95893926D01*
X129512880Y-95999300D01*
X129567120Y-95999300D01*
X130096869Y-95893926D01*
X130545968Y-95593848D01*
X130846046Y-95144749D01*
X130951420Y-94615000D01*
X130846046Y-94085251D01*
X130545968Y-93636152D01*
X130096869Y-93336074D01*
X129567120Y-93230700D01*
X129512880Y-93230700D01*
X128983131Y-93336074D01*
X128534032Y-93636152D01*
X128270000Y-94031304D01*
X128005968Y-93636152D01*
X127556869Y-93336074D01*
X127027120Y-93230700D01*
X126972880Y-93230700D01*
X126443131Y-93336074D01*
X125994032Y-93636152D01*
X125730000Y-94031304D01*
X125465968Y-93636152D01*
X125016869Y-93336074D01*
X124487120Y-93230700D01*
X124432880Y-93230700D01*
X123903131Y-93336074D01*
X123454032Y-93636152D01*
X123190000Y-94031304D01*
X122925968Y-93636152D01*
X122476869Y-93336074D01*
X121947120Y-93230700D01*
X121892880Y-93230700D01*
X121363131Y-93336074D01*
X120914032Y-93636152D01*
X120613954Y-94085251D01*
X120508580Y-94615000D01*
X118872000Y-94615000D01*
X118872000Y-90522114D01*
X120776692Y-90522114D01*
X121046806Y-91175840D01*
X121546529Y-91676436D01*
X122199782Y-91947691D01*
X122907114Y-91948308D01*
X123560840Y-91678194D01*
X124061436Y-91178471D01*
X124139626Y-90990167D01*
X126064838Y-90990167D01*
X126206883Y-91333943D01*
X126469673Y-91597192D01*
X126813201Y-91739838D01*
X127185167Y-91740162D01*
X127528943Y-91598117D01*
X127792192Y-91335327D01*
X127838549Y-91223687D01*
X129958474Y-89103762D01*
X130068943Y-89058117D01*
X130332192Y-88795327D01*
X130474838Y-88451799D01*
X130475024Y-88237880D01*
X135775700Y-88237880D01*
X135775700Y-88292120D01*
X135881074Y-88821869D01*
X136181152Y-89270968D01*
X136576304Y-89535000D01*
X136181152Y-89799032D01*
X135881074Y-90248131D01*
X135775700Y-90777880D01*
X135775700Y-90832120D01*
X135881074Y-91361869D01*
X136181152Y-91810968D01*
X136630251Y-92111046D01*
X137160000Y-92216420D01*
X137689749Y-92111046D01*
X138138848Y-91810968D01*
X138438926Y-91361869D01*
X138544300Y-90832120D01*
X138544300Y-90777880D01*
X138438926Y-90248131D01*
X138138848Y-89799032D01*
X137743696Y-89535000D01*
X138138848Y-89270968D01*
X138438926Y-88821869D01*
X138544300Y-88292120D01*
X138544300Y-88237880D01*
X138438926Y-87708131D01*
X138138848Y-87259032D01*
X137689749Y-86958954D01*
X137160000Y-86853580D01*
X136630251Y-86958954D01*
X136181152Y-87259032D01*
X135881074Y-87708131D01*
X135775700Y-88237880D01*
X130475024Y-88237880D01*
X130475162Y-88079833D01*
X130333117Y-87736057D01*
X130070327Y-87472808D01*
X129726799Y-87330162D01*
X129354833Y-87329838D01*
X129011057Y-87471883D01*
X128747808Y-87734673D01*
X128701451Y-87846313D01*
X126581526Y-89966238D01*
X126471057Y-90011883D01*
X126207808Y-90274673D01*
X126065162Y-90618201D01*
X126064838Y-90990167D01*
X124139626Y-90990167D01*
X124332691Y-90525218D01*
X124333308Y-89817886D01*
X124063194Y-89164160D01*
X123563471Y-88663564D01*
X122910218Y-88392309D01*
X122202886Y-88391692D01*
X121549160Y-88661806D01*
X121048564Y-89161529D01*
X120777309Y-89814782D01*
X120776692Y-90522114D01*
X118872000Y-90522114D01*
X118872000Y-84975700D01*
X120523260Y-84975700D01*
X120523260Y-86474300D01*
X120567538Y-86709617D01*
X120706610Y-86925741D01*
X120918810Y-87070731D01*
X121170700Y-87121740D01*
X122669300Y-87121740D01*
X122904617Y-87077462D01*
X123120741Y-86938390D01*
X123265731Y-86726190D01*
X123312998Y-86492776D01*
X123454032Y-86703848D01*
X123903131Y-87003926D01*
X124432880Y-87109300D01*
X124487120Y-87109300D01*
X125016869Y-87003926D01*
X125465968Y-86703848D01*
X125730000Y-86308696D01*
X125994032Y-86703848D01*
X126443131Y-87003926D01*
X126972880Y-87109300D01*
X127027120Y-87109300D01*
X127556869Y-87003926D01*
X128005968Y-86703848D01*
X128287820Y-86282026D01*
X128350144Y-86432501D01*
X128711465Y-86833984D01*
X129198923Y-87066634D01*
X129413000Y-86944722D01*
X129413000Y-85852000D01*
X129667000Y-85852000D01*
X129667000Y-86944722D01*
X129881077Y-87066634D01*
X130368535Y-86833984D01*
X130729856Y-86432501D01*
X130881624Y-86066075D01*
X130758952Y-85852000D01*
X129667000Y-85852000D01*
X129413000Y-85852000D01*
X129393000Y-85852000D01*
X129393000Y-85598000D01*
X129413000Y-85598000D01*
X129413000Y-84505278D01*
X129667000Y-84505278D01*
X129667000Y-85598000D01*
X130758952Y-85598000D01*
X130881624Y-85383925D01*
X130729856Y-85017499D01*
X130368535Y-84616016D01*
X129881077Y-84383366D01*
X129667000Y-84505278D01*
X129413000Y-84505278D01*
X129198923Y-84383366D01*
X128711465Y-84616016D01*
X128350144Y-85017499D01*
X128287820Y-85167974D01*
X128005968Y-84746152D01*
X127556869Y-84446074D01*
X127027120Y-84340700D01*
X126972880Y-84340700D01*
X126443131Y-84446074D01*
X125994032Y-84746152D01*
X125730000Y-85141304D01*
X125465968Y-84746152D01*
X125016869Y-84446074D01*
X124487120Y-84340700D01*
X124432880Y-84340700D01*
X123903131Y-84446074D01*
X123454032Y-84746152D01*
X123313205Y-84956914D01*
X123272462Y-84740383D01*
X123133390Y-84524259D01*
X122921190Y-84379269D01*
X122669300Y-84328260D01*
X121170700Y-84328260D01*
X120935383Y-84372538D01*
X120719259Y-84511610D01*
X120574269Y-84723810D01*
X120523260Y-84975700D01*
X118872000Y-84975700D01*
X118872000Y-81915000D01*
X138923580Y-81915000D01*
X139028954Y-82444749D01*
X139329032Y-82893848D01*
X139764772Y-83185000D01*
X139329032Y-83476152D01*
X139028954Y-83925251D01*
X138923580Y-84455000D01*
X139028954Y-84984749D01*
X139329032Y-85433848D01*
X139764772Y-85725000D01*
X139329032Y-86016152D01*
X139028954Y-86465251D01*
X138923580Y-86995000D01*
X139028954Y-87524749D01*
X139329032Y-87973848D01*
X139764772Y-88265000D01*
X139329032Y-88556152D01*
X139028954Y-89005251D01*
X138923580Y-89535000D01*
X139028954Y-90064749D01*
X139329032Y-90513848D01*
X139764772Y-90805000D01*
X139329032Y-91096152D01*
X139028954Y-91545251D01*
X138923580Y-92075000D01*
X139028954Y-92604749D01*
X139329032Y-93053848D01*
X139764772Y-93345000D01*
X139329032Y-93636152D01*
X139028954Y-94085251D01*
X138923580Y-94615000D01*
X139028954Y-95144749D01*
X139329032Y-95593848D01*
X139764772Y-95885000D01*
X139329032Y-96176152D01*
X139028954Y-96625251D01*
X138923580Y-97155000D01*
X139028954Y-97684749D01*
X139329032Y-98133848D01*
X139764772Y-98425000D01*
X139329032Y-98716152D01*
X139028954Y-99165251D01*
X138923580Y-99695000D01*
X139028954Y-100224749D01*
X139329032Y-100673848D01*
X139778131Y-100973926D01*
X140307880Y-101079300D01*
X140362120Y-101079300D01*
X140891869Y-100973926D01*
X141340968Y-100673848D01*
X141446995Y-100515167D01*
X146384838Y-100515167D01*
X146526883Y-100858943D01*
X146789673Y-101122192D01*
X147133201Y-101264838D01*
X147505167Y-101265162D01*
X147848943Y-101123117D01*
X148112192Y-100860327D01*
X148158549Y-100748687D01*
X149008474Y-99898762D01*
X149115329Y-99854610D01*
X149188954Y-100224749D01*
X149489032Y-100673848D01*
X149938131Y-100973926D01*
X150467880Y-101079300D01*
X150522120Y-101079300D01*
X151051869Y-100973926D01*
X151500968Y-100673848D01*
X151801046Y-100224749D01*
X151906420Y-99695000D01*
X151801046Y-99165251D01*
X151500968Y-98716152D01*
X151065228Y-98425000D01*
X151500968Y-98133848D01*
X151801046Y-97684749D01*
X151906420Y-97155000D01*
X151801046Y-96625251D01*
X151500968Y-96176152D01*
X151065228Y-95885000D01*
X151500968Y-95593848D01*
X151801046Y-95144749D01*
X151906420Y-94615000D01*
X151801046Y-94085251D01*
X151730720Y-93980000D01*
X152136940Y-93980000D01*
X152242314Y-94509749D01*
X152542392Y-94958848D01*
X152991491Y-95258926D01*
X153521240Y-95364300D01*
X154190700Y-95364300D01*
X154190700Y-95377002D01*
X154356047Y-95377002D01*
X154233376Y-95591075D01*
X154247473Y-95662417D01*
X154506350Y-96139046D01*
X154927919Y-96480326D01*
X155448000Y-96634300D01*
X155822650Y-96634300D01*
X155822650Y-95377000D01*
X156076650Y-95377000D01*
X156076650Y-96634300D01*
X156451300Y-96634300D01*
X156971381Y-96480326D01*
X157392950Y-96139046D01*
X157651827Y-95662417D01*
X157665924Y-95591075D01*
X157543252Y-95377000D01*
X156076650Y-95377000D01*
X155822650Y-95377000D01*
X155802650Y-95377000D01*
X155802650Y-95123000D01*
X155822650Y-95123000D01*
X155822650Y-95103000D01*
X156076650Y-95103000D01*
X156076650Y-95123000D01*
X157543252Y-95123000D01*
X157665924Y-94908925D01*
X157651827Y-94837583D01*
X157399873Y-94373700D01*
X159131260Y-94373700D01*
X159131260Y-96126300D01*
X159175538Y-96361617D01*
X159314610Y-96577741D01*
X159526810Y-96722731D01*
X159778700Y-96773740D01*
X161531300Y-96773740D01*
X161766617Y-96729462D01*
X161982741Y-96590390D01*
X162127731Y-96378190D01*
X162178740Y-96126300D01*
X162178740Y-94373700D01*
X162134462Y-94138383D01*
X161995390Y-93922259D01*
X161783190Y-93777269D01*
X161748985Y-93770342D01*
X162051259Y-93317957D01*
X162166300Y-92739608D01*
X162166300Y-92680392D01*
X162051259Y-92102043D01*
X161723650Y-91611742D01*
X161233349Y-91284133D01*
X160655000Y-91169092D01*
X160076651Y-91284133D01*
X159586350Y-91611742D01*
X159258741Y-92102043D01*
X159143700Y-92680392D01*
X159143700Y-92739608D01*
X159258741Y-93317957D01*
X159559162Y-93767569D01*
X159543383Y-93770538D01*
X159327259Y-93909610D01*
X159182269Y-94121810D01*
X159131260Y-94373700D01*
X157399873Y-94373700D01*
X157392950Y-94360954D01*
X156971381Y-94019674D01*
X156875957Y-93991423D01*
X156888509Y-93988926D01*
X157337608Y-93688848D01*
X157637686Y-93239749D01*
X157743060Y-92710000D01*
X157637686Y-92180251D01*
X157337608Y-91731152D01*
X156888509Y-91431074D01*
X156358760Y-91325700D01*
X155540540Y-91325700D01*
X155010791Y-91431074D01*
X154561692Y-91731152D01*
X154261614Y-92180251D01*
X154178976Y-92595700D01*
X153521240Y-92595700D01*
X152991491Y-92701074D01*
X152542392Y-93001152D01*
X152242314Y-93450251D01*
X152136940Y-93980000D01*
X151730720Y-93980000D01*
X151500968Y-93636152D01*
X151065228Y-93345000D01*
X151500968Y-93053848D01*
X151801046Y-92604749D01*
X151906420Y-92075000D01*
X151801046Y-91545251D01*
X151500968Y-91096152D01*
X151065228Y-90805000D01*
X151500968Y-90513848D01*
X151801046Y-90064749D01*
X151906420Y-89535000D01*
X151801046Y-89005251D01*
X151500968Y-88556152D01*
X151065228Y-88265000D01*
X151500968Y-87973848D01*
X151801046Y-87524749D01*
X151906420Y-86995000D01*
X151801046Y-86465251D01*
X151730720Y-86360000D01*
X152136940Y-86360000D01*
X152242314Y-86889749D01*
X152542392Y-87338848D01*
X152991491Y-87638926D01*
X153521240Y-87744300D01*
X154190700Y-87744300D01*
X154190700Y-87757002D01*
X154356047Y-87757002D01*
X154233376Y-87971075D01*
X154247473Y-88042417D01*
X154506350Y-88519046D01*
X154927919Y-88860326D01*
X155448000Y-89014300D01*
X155822650Y-89014300D01*
X155822650Y-87757000D01*
X156076650Y-87757000D01*
X156076650Y-89014300D01*
X156451300Y-89014300D01*
X156971381Y-88860326D01*
X157392950Y-88519046D01*
X157651827Y-88042417D01*
X157665924Y-87971075D01*
X157543252Y-87757000D01*
X156076650Y-87757000D01*
X155822650Y-87757000D01*
X155802650Y-87757000D01*
X155802650Y-87503000D01*
X155822650Y-87503000D01*
X155822650Y-87483000D01*
X156076650Y-87483000D01*
X156076650Y-87503000D01*
X157543252Y-87503000D01*
X157665924Y-87288925D01*
X157651827Y-87217583D01*
X157399873Y-86753700D01*
X159131260Y-86753700D01*
X159131260Y-88506300D01*
X159175538Y-88741617D01*
X159314610Y-88957741D01*
X159526810Y-89102731D01*
X159778700Y-89153740D01*
X161531300Y-89153740D01*
X161766617Y-89109462D01*
X161982741Y-88970390D01*
X162127731Y-88758190D01*
X162178740Y-88506300D01*
X162178740Y-86753700D01*
X162134462Y-86518383D01*
X161995390Y-86302259D01*
X161783190Y-86157269D01*
X161748985Y-86150342D01*
X162051259Y-85697957D01*
X162166300Y-85119608D01*
X162166300Y-85060392D01*
X162051259Y-84482043D01*
X161723650Y-83991742D01*
X161233349Y-83664133D01*
X160655000Y-83549092D01*
X160076651Y-83664133D01*
X159586350Y-83991742D01*
X159258741Y-84482043D01*
X159143700Y-85060392D01*
X159143700Y-85119608D01*
X159258741Y-85697957D01*
X159559162Y-86147569D01*
X159543383Y-86150538D01*
X159327259Y-86289610D01*
X159182269Y-86501810D01*
X159131260Y-86753700D01*
X157399873Y-86753700D01*
X157392950Y-86740954D01*
X156971381Y-86399674D01*
X156875957Y-86371423D01*
X156888509Y-86368926D01*
X157337608Y-86068848D01*
X157637686Y-85619749D01*
X157743060Y-85090000D01*
X157637686Y-84560251D01*
X157337608Y-84111152D01*
X156888509Y-83811074D01*
X156358760Y-83705700D01*
X155540540Y-83705700D01*
X155010791Y-83811074D01*
X154561692Y-84111152D01*
X154261614Y-84560251D01*
X154178976Y-84975700D01*
X153521240Y-84975700D01*
X152991491Y-85081074D01*
X152542392Y-85381152D01*
X152242314Y-85830251D01*
X152136940Y-86360000D01*
X151730720Y-86360000D01*
X151500968Y-86016152D01*
X151065228Y-85725000D01*
X151500968Y-85433848D01*
X151801046Y-84984749D01*
X151906420Y-84455000D01*
X151801046Y-83925251D01*
X151500968Y-83476152D01*
X151065228Y-83185000D01*
X151500968Y-82893848D01*
X151801046Y-82444749D01*
X151906420Y-81915000D01*
X151801046Y-81385251D01*
X151500968Y-80936152D01*
X151051869Y-80636074D01*
X150522120Y-80530700D01*
X150467880Y-80530700D01*
X149938131Y-80636074D01*
X149489032Y-80936152D01*
X149188954Y-81385251D01*
X149083580Y-81915000D01*
X149188954Y-82444749D01*
X149489032Y-82893848D01*
X149924772Y-83185000D01*
X149489032Y-83476152D01*
X149188954Y-83925251D01*
X149083580Y-84455000D01*
X149188954Y-84984749D01*
X149489032Y-85433848D01*
X149924772Y-85725000D01*
X149489032Y-86016152D01*
X149188954Y-86465251D01*
X149083580Y-86995000D01*
X149188954Y-87524749D01*
X149489032Y-87973848D01*
X149924772Y-88265000D01*
X149489032Y-88556152D01*
X149188954Y-89005251D01*
X149083580Y-89535000D01*
X149188954Y-90064749D01*
X149489032Y-90513848D01*
X149924772Y-90805000D01*
X149489032Y-91096152D01*
X149188954Y-91545251D01*
X149083580Y-92075000D01*
X149188954Y-92604749D01*
X149489032Y-93053848D01*
X149924772Y-93345000D01*
X149489032Y-93636152D01*
X149188954Y-94085251D01*
X149083580Y-94615000D01*
X149188954Y-95144749D01*
X149489032Y-95593848D01*
X149924772Y-95885000D01*
X149489032Y-96176152D01*
X149188954Y-96625251D01*
X149083580Y-97155000D01*
X149188954Y-97684749D01*
X149489032Y-98133848D01*
X149924772Y-98425000D01*
X149489032Y-98716152D01*
X149470844Y-98743373D01*
X149383117Y-98531057D01*
X149120327Y-98267808D01*
X148776799Y-98125162D01*
X148404833Y-98124838D01*
X148061057Y-98266883D01*
X147797808Y-98529673D01*
X147751451Y-98641313D01*
X146901526Y-99491238D01*
X146791057Y-99536883D01*
X146527808Y-99799673D01*
X146385162Y-100143201D01*
X146384838Y-100515167D01*
X141446995Y-100515167D01*
X141641046Y-100224749D01*
X141746420Y-99695000D01*
X141641046Y-99165251D01*
X141340968Y-98716152D01*
X140905228Y-98425000D01*
X141340968Y-98133848D01*
X141641046Y-97684749D01*
X141709587Y-97340167D01*
X143209838Y-97340167D01*
X143351883Y-97683943D01*
X143614673Y-97947192D01*
X143958201Y-98089838D01*
X144330167Y-98090162D01*
X144441888Y-98044000D01*
X146387811Y-98044000D01*
X146498201Y-98089838D01*
X146870167Y-98090162D01*
X147213943Y-97948117D01*
X147477192Y-97685327D01*
X147619838Y-97341799D01*
X147620162Y-96969833D01*
X147478117Y-96626057D01*
X147215327Y-96362808D01*
X146871799Y-96220162D01*
X146499833Y-96219838D01*
X146388112Y-96266000D01*
X144442189Y-96266000D01*
X144331799Y-96220162D01*
X143959833Y-96219838D01*
X143616057Y-96361883D01*
X143352808Y-96624673D01*
X143210162Y-96968201D01*
X143209838Y-97340167D01*
X141709587Y-97340167D01*
X141746420Y-97155000D01*
X141641046Y-96625251D01*
X141340968Y-96176152D01*
X140905228Y-95885000D01*
X141340968Y-95593848D01*
X141641046Y-95144749D01*
X141746420Y-94615000D01*
X141641046Y-94085251D01*
X141340968Y-93636152D01*
X140905228Y-93345000D01*
X141340968Y-93053848D01*
X141641046Y-92604749D01*
X141709587Y-92260167D01*
X143209838Y-92260167D01*
X143351883Y-92603943D01*
X143614673Y-92867192D01*
X143958201Y-93009838D01*
X144330167Y-93010162D01*
X144441888Y-92964000D01*
X146387811Y-92964000D01*
X146498201Y-93009838D01*
X146870167Y-93010162D01*
X147213943Y-92868117D01*
X147477192Y-92605327D01*
X147619838Y-92261799D01*
X147620162Y-91889833D01*
X147478117Y-91546057D01*
X147215327Y-91282808D01*
X146871799Y-91140162D01*
X146499833Y-91139838D01*
X146388112Y-91186000D01*
X144442189Y-91186000D01*
X144331799Y-91140162D01*
X143959833Y-91139838D01*
X143616057Y-91281883D01*
X143352808Y-91544673D01*
X143210162Y-91888201D01*
X143209838Y-92260167D01*
X141709587Y-92260167D01*
X141746420Y-92075000D01*
X141641046Y-91545251D01*
X141340968Y-91096152D01*
X140905228Y-90805000D01*
X141340968Y-90513848D01*
X141641046Y-90064749D01*
X141746420Y-89535000D01*
X141641046Y-89005251D01*
X141340968Y-88556152D01*
X140905228Y-88265000D01*
X141340968Y-87973848D01*
X141641046Y-87524749D01*
X141709587Y-87180167D01*
X143209838Y-87180167D01*
X143351883Y-87523943D01*
X143614673Y-87787192D01*
X143958201Y-87929838D01*
X144330167Y-87930162D01*
X144441888Y-87884000D01*
X146387811Y-87884000D01*
X146498201Y-87929838D01*
X146870167Y-87930162D01*
X147213943Y-87788117D01*
X147477192Y-87525327D01*
X147619838Y-87181799D01*
X147620162Y-86809833D01*
X147478117Y-86466057D01*
X147215327Y-86202808D01*
X146871799Y-86060162D01*
X146499833Y-86059838D01*
X146388112Y-86106000D01*
X144442189Y-86106000D01*
X144331799Y-86060162D01*
X143959833Y-86059838D01*
X143616057Y-86201883D01*
X143352808Y-86464673D01*
X143210162Y-86808201D01*
X143209838Y-87180167D01*
X141709587Y-87180167D01*
X141746420Y-86995000D01*
X141641046Y-86465251D01*
X141340968Y-86016152D01*
X140905228Y-85725000D01*
X141340968Y-85433848D01*
X141641046Y-84984749D01*
X141746420Y-84455000D01*
X141641046Y-83925251D01*
X141340968Y-83476152D01*
X140905228Y-83185000D01*
X141340968Y-82893848D01*
X141641046Y-82444749D01*
X141709587Y-82100167D01*
X143209838Y-82100167D01*
X143351883Y-82443943D01*
X143614673Y-82707192D01*
X143958201Y-82849838D01*
X144330167Y-82850162D01*
X144441888Y-82804000D01*
X146387811Y-82804000D01*
X146498201Y-82849838D01*
X146870167Y-82850162D01*
X147213943Y-82708117D01*
X147477192Y-82445327D01*
X147619838Y-82101799D01*
X147620162Y-81729833D01*
X147478117Y-81386057D01*
X147215327Y-81122808D01*
X146871799Y-80980162D01*
X146499833Y-80979838D01*
X146388112Y-81026000D01*
X144442189Y-81026000D01*
X144331799Y-80980162D01*
X143959833Y-80979838D01*
X143616057Y-81121883D01*
X143352808Y-81384673D01*
X143210162Y-81728201D01*
X143209838Y-82100167D01*
X141709587Y-82100167D01*
X141746420Y-81915000D01*
X141641046Y-81385251D01*
X141340968Y-80936152D01*
X140891869Y-80636074D01*
X140362120Y-80530700D01*
X140307880Y-80530700D01*
X139778131Y-80636074D01*
X139329032Y-80936152D01*
X139028954Y-81385251D01*
X138923580Y-81915000D01*
X118872000Y-81915000D01*
X118872000Y-78105000D01*
X120508580Y-78105000D01*
X120613954Y-78634749D01*
X120914032Y-79083848D01*
X121363131Y-79383926D01*
X121892880Y-79489300D01*
X121947120Y-79489300D01*
X122476869Y-79383926D01*
X122925968Y-79083848D01*
X123190000Y-78688696D01*
X123454032Y-79083848D01*
X123903131Y-79383926D01*
X124432880Y-79489300D01*
X124487120Y-79489300D01*
X125016869Y-79383926D01*
X125465968Y-79083848D01*
X125730000Y-78688696D01*
X125994032Y-79083848D01*
X126443131Y-79383926D01*
X126972880Y-79489300D01*
X127027120Y-79489300D01*
X127556869Y-79383926D01*
X128005968Y-79083848D01*
X128270000Y-78688696D01*
X128534032Y-79083848D01*
X128983131Y-79383926D01*
X129512880Y-79489300D01*
X129567120Y-79489300D01*
X130096869Y-79383926D01*
X130545968Y-79083848D01*
X130846046Y-78634749D01*
X130951420Y-78105000D01*
X130946026Y-78077880D01*
X135775700Y-78077880D01*
X135775700Y-78132120D01*
X135881074Y-78661869D01*
X136181152Y-79110968D01*
X136630251Y-79411046D01*
X137160000Y-79516420D01*
X137689749Y-79411046D01*
X138138848Y-79110968D01*
X138386720Y-78740000D01*
X152136940Y-78740000D01*
X152242314Y-79269749D01*
X152542392Y-79718848D01*
X152991491Y-80018926D01*
X153521240Y-80124300D01*
X154190700Y-80124300D01*
X154190700Y-80137002D01*
X154356047Y-80137002D01*
X154233376Y-80351075D01*
X154247473Y-80422417D01*
X154506350Y-80899046D01*
X154927919Y-81240326D01*
X155448000Y-81394300D01*
X155822650Y-81394300D01*
X155822650Y-80137000D01*
X156076650Y-80137000D01*
X156076650Y-81394300D01*
X156451300Y-81394300D01*
X156971381Y-81240326D01*
X157392950Y-80899046D01*
X157651827Y-80422417D01*
X157665924Y-80351075D01*
X157543252Y-80137000D01*
X156076650Y-80137000D01*
X155822650Y-80137000D01*
X155802650Y-80137000D01*
X155802650Y-79883000D01*
X155822650Y-79883000D01*
X155822650Y-79863000D01*
X156076650Y-79863000D01*
X156076650Y-79883000D01*
X157543252Y-79883000D01*
X157665924Y-79668925D01*
X157651827Y-79597583D01*
X157399873Y-79133700D01*
X159131260Y-79133700D01*
X159131260Y-80886300D01*
X159175538Y-81121617D01*
X159314610Y-81337741D01*
X159526810Y-81482731D01*
X159778700Y-81533740D01*
X161531300Y-81533740D01*
X161766617Y-81489462D01*
X161982741Y-81350390D01*
X162127731Y-81138190D01*
X162178740Y-80886300D01*
X162178740Y-79133700D01*
X162134462Y-78898383D01*
X161995390Y-78682259D01*
X161783190Y-78537269D01*
X161748985Y-78530342D01*
X162051259Y-78077957D01*
X162166300Y-77499608D01*
X162166300Y-77440392D01*
X162051259Y-76862043D01*
X161723650Y-76371742D01*
X161233349Y-76044133D01*
X160655000Y-75929092D01*
X160076651Y-76044133D01*
X159586350Y-76371742D01*
X159258741Y-76862043D01*
X159143700Y-77440392D01*
X159143700Y-77499608D01*
X159258741Y-78077957D01*
X159559162Y-78527569D01*
X159543383Y-78530538D01*
X159327259Y-78669610D01*
X159182269Y-78881810D01*
X159131260Y-79133700D01*
X157399873Y-79133700D01*
X157392950Y-79120954D01*
X156971381Y-78779674D01*
X156875957Y-78751423D01*
X156888509Y-78748926D01*
X157337608Y-78448848D01*
X157637686Y-77999749D01*
X157743060Y-77470000D01*
X157637686Y-76940251D01*
X157337608Y-76491152D01*
X156888509Y-76191074D01*
X156358760Y-76085700D01*
X155540540Y-76085700D01*
X155010791Y-76191074D01*
X154561692Y-76491152D01*
X154261614Y-76940251D01*
X154178976Y-77355700D01*
X153521240Y-77355700D01*
X152991491Y-77461074D01*
X152542392Y-77761152D01*
X152242314Y-78210251D01*
X152136940Y-78740000D01*
X138386720Y-78740000D01*
X138438926Y-78661869D01*
X138544300Y-78132120D01*
X138544300Y-78077880D01*
X138438926Y-77548131D01*
X138138848Y-77099032D01*
X137689749Y-76798954D01*
X137160000Y-76693580D01*
X136630251Y-76798954D01*
X136181152Y-77099032D01*
X135881074Y-77548131D01*
X135775700Y-78077880D01*
X130946026Y-78077880D01*
X130846046Y-77575251D01*
X130545968Y-77126152D01*
X130096869Y-76826074D01*
X129567120Y-76720700D01*
X129512880Y-76720700D01*
X128983131Y-76826074D01*
X128534032Y-77126152D01*
X128270000Y-77521304D01*
X128005968Y-77126152D01*
X127556869Y-76826074D01*
X127027120Y-76720700D01*
X126972880Y-76720700D01*
X126443131Y-76826074D01*
X125994032Y-77126152D01*
X125730000Y-77521304D01*
X125465968Y-77126152D01*
X125016869Y-76826074D01*
X124487120Y-76720700D01*
X124432880Y-76720700D01*
X123903131Y-76826074D01*
X123454032Y-77126152D01*
X123190000Y-77521304D01*
X122925968Y-77126152D01*
X122476869Y-76826074D01*
X121947120Y-76720700D01*
X121892880Y-76720700D01*
X121363131Y-76826074D01*
X120914032Y-77126152D01*
X120613954Y-77575251D01*
X120508580Y-78105000D01*
X118872000Y-78105000D01*
X118872000Y-71775172D01*
X125348538Y-71775172D01*
X125753709Y-72755761D01*
X126503293Y-73506655D01*
X127483173Y-73913536D01*
X128544172Y-73914462D01*
X129524761Y-73509291D01*
X130035560Y-72999383D01*
X130035560Y-76327000D01*
X130079838Y-76562317D01*
X130218910Y-76778441D01*
X130431110Y-76923431D01*
X130683000Y-76974440D01*
X134747000Y-76974440D01*
X134982317Y-76930162D01*
X135198441Y-76791090D01*
X135343431Y-76578890D01*
X135394440Y-76327000D01*
X135394440Y-75906075D01*
X138993376Y-75906075D01*
X139145144Y-76272501D01*
X139506465Y-76673984D01*
X139993923Y-76906634D01*
X140208000Y-76784722D01*
X140208000Y-75692000D01*
X140462000Y-75692000D01*
X140462000Y-76784722D01*
X140676077Y-76906634D01*
X141163535Y-76673984D01*
X141524856Y-76272501D01*
X141676624Y-75906075D01*
X141553952Y-75692000D01*
X140462000Y-75692000D01*
X140208000Y-75692000D01*
X139116048Y-75692000D01*
X138993376Y-75906075D01*
X135394440Y-75906075D01*
X135394440Y-75565000D01*
X149083580Y-75565000D01*
X149188954Y-76094749D01*
X149489032Y-76543848D01*
X149938131Y-76843926D01*
X150467880Y-76949300D01*
X150522120Y-76949300D01*
X151051869Y-76843926D01*
X151500968Y-76543848D01*
X151801046Y-76094749D01*
X151906420Y-75565000D01*
X151801046Y-75035251D01*
X151500968Y-74586152D01*
X151051869Y-74286074D01*
X150522120Y-74180700D01*
X150467880Y-74180700D01*
X149938131Y-74286074D01*
X149489032Y-74586152D01*
X149188954Y-75035251D01*
X149083580Y-75565000D01*
X135394440Y-75565000D01*
X135394440Y-75223925D01*
X138993376Y-75223925D01*
X139116048Y-75438000D01*
X140208000Y-75438000D01*
X140208000Y-74345278D01*
X140462000Y-74345278D01*
X140462000Y-75438000D01*
X141553952Y-75438000D01*
X141676624Y-75223925D01*
X141524856Y-74857499D01*
X141163535Y-74456016D01*
X140676077Y-74223366D01*
X140462000Y-74345278D01*
X140208000Y-74345278D01*
X139993923Y-74223366D01*
X139506465Y-74456016D01*
X139145144Y-74857499D01*
X138993376Y-75223925D01*
X135394440Y-75223925D01*
X135394440Y-74001077D01*
X153598366Y-74001077D01*
X153831016Y-74488535D01*
X154232499Y-74849856D01*
X154598925Y-75001624D01*
X154813000Y-74878952D01*
X154813000Y-73787000D01*
X155067000Y-73787000D01*
X155067000Y-74878952D01*
X155281075Y-75001624D01*
X155647501Y-74849856D01*
X156048984Y-74488535D01*
X156281634Y-74001077D01*
X156159722Y-73787000D01*
X155067000Y-73787000D01*
X154813000Y-73787000D01*
X153720278Y-73787000D01*
X153598366Y-74001077D01*
X135394440Y-74001077D01*
X135394440Y-72263000D01*
X135350162Y-72027683D01*
X135211090Y-71811559D01*
X135128314Y-71755000D01*
X138794092Y-71755000D01*
X138909133Y-72333349D01*
X139236742Y-72823650D01*
X139727043Y-73151259D01*
X140305392Y-73266300D01*
X140364608Y-73266300D01*
X140942957Y-73151259D01*
X141433258Y-72823650D01*
X141760867Y-72333349D01*
X141875908Y-71755000D01*
X141760867Y-71176651D01*
X141561783Y-70878700D01*
X148971260Y-70878700D01*
X148971260Y-72631300D01*
X149015538Y-72866617D01*
X149154610Y-73082741D01*
X149366810Y-73227731D01*
X149618700Y-73278740D01*
X151371300Y-73278740D01*
X151606617Y-73234462D01*
X151822741Y-73095390D01*
X151967731Y-72883190D01*
X152018740Y-72631300D01*
X152018740Y-70878700D01*
X151974462Y-70643383D01*
X151835390Y-70427259D01*
X151752614Y-70370700D01*
X153543260Y-70370700D01*
X153543260Y-71869300D01*
X153587538Y-72104617D01*
X153726610Y-72320741D01*
X153938810Y-72465731D01*
X154182556Y-72515091D01*
X153831016Y-72831465D01*
X153598366Y-73318923D01*
X153720278Y-73533000D01*
X154813000Y-73533000D01*
X154813000Y-73513000D01*
X155067000Y-73513000D01*
X155067000Y-73533000D01*
X156159722Y-73533000D01*
X156281634Y-73318923D01*
X156086801Y-72910700D01*
X158623260Y-72910700D01*
X158623260Y-74409300D01*
X158667538Y-74644617D01*
X158806610Y-74860741D01*
X159018810Y-75005731D01*
X159270700Y-75056740D01*
X162166300Y-75056740D01*
X162401617Y-75012462D01*
X162558126Y-74911751D01*
X162594002Y-74947627D01*
X162827391Y-75044300D01*
X164115750Y-75044300D01*
X164274500Y-74885550D01*
X164274500Y-73787000D01*
X164528500Y-73787000D01*
X164528500Y-74885550D01*
X164687250Y-75044300D01*
X165975609Y-75044300D01*
X166208998Y-74947627D01*
X166387627Y-74768999D01*
X166484300Y-74535610D01*
X166484300Y-73945750D01*
X166325550Y-73787000D01*
X164528500Y-73787000D01*
X164274500Y-73787000D01*
X164254500Y-73787000D01*
X164254500Y-73533000D01*
X164274500Y-73533000D01*
X164274500Y-72434450D01*
X164528500Y-72434450D01*
X164528500Y-73533000D01*
X166325550Y-73533000D01*
X166484300Y-73374250D01*
X166484300Y-72784390D01*
X166387627Y-72551001D01*
X166208998Y-72372373D01*
X165975609Y-72275700D01*
X164687250Y-72275700D01*
X164528500Y-72434450D01*
X164274500Y-72434450D01*
X164115750Y-72275700D01*
X162827391Y-72275700D01*
X162594002Y-72372373D01*
X162557155Y-72409220D01*
X162418190Y-72314269D01*
X162166300Y-72263260D01*
X159270700Y-72263260D01*
X159035383Y-72307538D01*
X158819259Y-72446610D01*
X158674269Y-72658810D01*
X158623260Y-72910700D01*
X156086801Y-72910700D01*
X156048984Y-72831465D01*
X155697551Y-72515187D01*
X155924617Y-72472462D01*
X156140741Y-72333390D01*
X156285731Y-72121190D01*
X156336740Y-71869300D01*
X156336740Y-70370700D01*
X156292462Y-70135383D01*
X156153390Y-69919259D01*
X155941190Y-69774269D01*
X155689300Y-69723260D01*
X154190700Y-69723260D01*
X153955383Y-69767538D01*
X153739259Y-69906610D01*
X153594269Y-70118810D01*
X153543260Y-70370700D01*
X151752614Y-70370700D01*
X151623190Y-70282269D01*
X151371300Y-70231260D01*
X149618700Y-70231260D01*
X149383383Y-70275538D01*
X149167259Y-70414610D01*
X149022269Y-70626810D01*
X148971260Y-70878700D01*
X141561783Y-70878700D01*
X141433258Y-70686350D01*
X140942957Y-70358741D01*
X140364608Y-70243700D01*
X140305392Y-70243700D01*
X139727043Y-70358741D01*
X139236742Y-70686350D01*
X138909133Y-71176651D01*
X138794092Y-71755000D01*
X135128314Y-71755000D01*
X134998890Y-71666569D01*
X134747000Y-71615560D01*
X130683000Y-71615560D01*
X130682679Y-71615620D01*
X130683462Y-70718828D01*
X130479054Y-70224121D01*
X130996484Y-70224121D01*
X131221154Y-70598168D01*
X132204388Y-70996880D01*
X133265357Y-70988975D01*
X134208846Y-70598168D01*
X134433516Y-70224121D01*
X132715000Y-68505605D01*
X130996484Y-70224121D01*
X130479054Y-70224121D01*
X130278291Y-69738239D01*
X129528707Y-68987345D01*
X128548827Y-68580464D01*
X127487828Y-68579538D01*
X126507239Y-68984709D01*
X125756345Y-69734293D01*
X125349464Y-70714173D01*
X125348538Y-71775172D01*
X118872000Y-71775172D01*
X118872000Y-69401834D01*
X119858249Y-70389806D01*
X121193782Y-70944368D01*
X122639874Y-70945630D01*
X123976372Y-70393400D01*
X124999806Y-69371751D01*
X125554368Y-68036218D01*
X125554560Y-67815388D01*
X130044120Y-67815388D01*
X130052025Y-68876357D01*
X130442832Y-69819846D01*
X130816879Y-70044516D01*
X132535395Y-68326000D01*
X132894605Y-68326000D01*
X134613121Y-70044516D01*
X134987168Y-69819846D01*
X135385880Y-68836612D01*
X135377975Y-67775643D01*
X134987168Y-66832154D01*
X134725527Y-66675000D01*
X138159092Y-66675000D01*
X138274133Y-67253349D01*
X138601742Y-67743650D01*
X139092043Y-68071259D01*
X139670392Y-68186300D01*
X139729608Y-68186300D01*
X140307957Y-68071259D01*
X140757569Y-67770838D01*
X140760538Y-67786617D01*
X140899610Y-68002741D01*
X141111810Y-68147731D01*
X141363700Y-68198740D01*
X143116300Y-68198740D01*
X143351617Y-68154462D01*
X143567741Y-68015390D01*
X143712731Y-67803190D01*
X143763740Y-67551300D01*
X143763740Y-65798700D01*
X145796260Y-65798700D01*
X145796260Y-67551300D01*
X145840538Y-67786617D01*
X145979610Y-68002741D01*
X146191810Y-68147731D01*
X146443700Y-68198740D01*
X148196300Y-68198740D01*
X148431617Y-68154462D01*
X148647741Y-68015390D01*
X148792731Y-67803190D01*
X148809058Y-67722567D01*
X149077562Y-67967999D01*
X149498980Y-68142546D01*
X149733000Y-68021574D01*
X149733000Y-66802000D01*
X149713000Y-66802000D01*
X149713000Y-66548000D01*
X149733000Y-66548000D01*
X149733000Y-65328426D01*
X149987000Y-65328426D01*
X149987000Y-66548000D01*
X150007000Y-66548000D01*
X150007000Y-66802000D01*
X149987000Y-66802000D01*
X149987000Y-68021574D01*
X150221020Y-68142546D01*
X150642438Y-67967999D01*
X151077688Y-67570149D01*
X151126260Y-67466319D01*
X151331350Y-67773258D01*
X151821651Y-68100867D01*
X152400000Y-68215908D01*
X152978349Y-68100867D01*
X153468650Y-67773258D01*
X153796259Y-67282957D01*
X153911300Y-66704608D01*
X153911300Y-66645392D01*
X153796259Y-66067043D01*
X153468650Y-65576742D01*
X152978349Y-65249133D01*
X152400000Y-65134092D01*
X151821651Y-65249133D01*
X151331350Y-65576742D01*
X151126260Y-65883681D01*
X151077688Y-65779851D01*
X150642438Y-65382001D01*
X150221020Y-65207454D01*
X149987000Y-65328426D01*
X149733000Y-65328426D01*
X149498980Y-65207454D01*
X149077562Y-65382001D01*
X148811153Y-65625518D01*
X148799462Y-65563383D01*
X148660390Y-65347259D01*
X148448190Y-65202269D01*
X148196300Y-65151260D01*
X146443700Y-65151260D01*
X146208383Y-65195538D01*
X145992259Y-65334610D01*
X145847269Y-65546810D01*
X145796260Y-65798700D01*
X143763740Y-65798700D01*
X143719462Y-65563383D01*
X143580390Y-65347259D01*
X143368190Y-65202269D01*
X143116300Y-65151260D01*
X141363700Y-65151260D01*
X141128383Y-65195538D01*
X140912259Y-65334610D01*
X140767269Y-65546810D01*
X140760342Y-65581015D01*
X140307957Y-65278741D01*
X139729608Y-65163700D01*
X139670392Y-65163700D01*
X139092043Y-65278741D01*
X138601742Y-65606350D01*
X138274133Y-66096651D01*
X138159092Y-66675000D01*
X134725527Y-66675000D01*
X134613121Y-66607484D01*
X132894605Y-68326000D01*
X132535395Y-68326000D01*
X130816879Y-66607484D01*
X130442832Y-66832154D01*
X130044120Y-67815388D01*
X125554560Y-67815388D01*
X125555630Y-66590126D01*
X125488591Y-66427879D01*
X130996484Y-66427879D01*
X132715000Y-68146395D01*
X134433516Y-66427879D01*
X134208846Y-66053832D01*
X133225612Y-65655120D01*
X132164643Y-65663025D01*
X131221154Y-66053832D01*
X130996484Y-66427879D01*
X125488591Y-66427879D01*
X125003400Y-65253628D01*
X124013502Y-64262000D01*
X161738166Y-64262000D01*
X160750194Y-65248249D01*
X160750194Y-65248249D01*
G37*
X160750194Y-65248249D02*
X160195632Y-66583782D01*
X160194370Y-68029874D01*
X160746600Y-69366372D01*
X161768249Y-70389806D01*
X163103782Y-70944368D01*
X164549874Y-70945630D01*
X165886372Y-70393400D01*
X166878000Y-69403502D01*
X166878000Y-77752141D01*
X166608194Y-77099160D01*
X166108471Y-76598564D01*
X165455218Y-76327309D01*
X164747886Y-76326692D01*
X164094160Y-76596806D01*
X163593564Y-77096529D01*
X163322309Y-77749782D01*
X163321692Y-78457114D01*
X163591806Y-79110840D01*
X164091529Y-79611436D01*
X164744782Y-79882691D01*
X165452114Y-79883308D01*
X166105840Y-79613194D01*
X166606436Y-79113471D01*
X166877691Y-78460218D01*
X166878000Y-78105979D01*
X166878000Y-85372141D01*
X166608194Y-84719160D01*
X166108471Y-84218564D01*
X165455218Y-83947309D01*
X164747886Y-83946692D01*
X164094160Y-84216806D01*
X163593564Y-84716529D01*
X163322309Y-85369782D01*
X163321692Y-86077114D01*
X163591806Y-86730840D01*
X164091529Y-87231436D01*
X164744782Y-87502691D01*
X165452114Y-87503308D01*
X166105840Y-87233194D01*
X166606436Y-86733471D01*
X166877691Y-86080218D01*
X166878000Y-85725979D01*
X166878000Y-92992141D01*
X166608194Y-92339160D01*
X166108471Y-91838564D01*
X165455218Y-91567309D01*
X164747886Y-91566692D01*
X164094160Y-91836806D01*
X163593564Y-92336529D01*
X163322309Y-92989782D01*
X163321692Y-93697114D01*
X163591806Y-94350840D01*
X164091529Y-94851436D01*
X164744782Y-95122691D01*
X165452114Y-95123308D01*
X166105840Y-94853194D01*
X166606436Y-94353471D01*
X166877691Y-93700218D01*
X166878000Y-93345979D01*
X166878000Y-100612141D01*
X166608194Y-99959160D01*
X166108471Y-99458564D01*
X165455218Y-99187309D01*
X164747886Y-99186692D01*
X164094160Y-99456806D01*
X163593564Y-99956529D01*
X163322309Y-100609782D01*
X163321692Y-101317114D01*
X163591806Y-101970840D01*
X164091529Y-102471436D01*
X164744782Y-102742691D01*
X165452114Y-102743308D01*
X166105840Y-102473194D01*
X166606436Y-101973471D01*
X166877691Y-101320218D01*
X166878000Y-100965979D01*
X166878000Y-107128166D01*
X165891751Y-106140194D01*
X164556218Y-105585632D01*
X163110126Y-105584370D01*
X161773628Y-106136600D01*
X160750194Y-107158249D01*
X160195632Y-108493782D01*
X160194370Y-109939874D01*
X160746600Y-111276372D01*
X161736498Y-112268000D01*
X150009750Y-112268000D01*
X150203848Y-112138308D01*
X150503926Y-111689209D01*
X150609300Y-111159460D01*
X150609300Y-110341240D01*
X150503926Y-109811491D01*
X150203848Y-109362392D01*
X149754749Y-109062314D01*
X149225000Y-108956940D01*
X148695251Y-109062314D01*
X148246152Y-109362392D01*
X147955000Y-109798132D01*
X147663848Y-109362392D01*
X147214749Y-109062314D01*
X146685000Y-108956940D01*
X146235863Y-109046279D01*
X146349838Y-108771799D01*
X146350162Y-108399833D01*
X146208117Y-108056057D01*
X145945327Y-107792808D01*
X145601799Y-107650162D01*
X145229833Y-107649838D01*
X145118112Y-107696000D01*
X138092189Y-107696000D01*
X137981799Y-107650162D01*
X137609833Y-107649838D01*
X137266057Y-107791883D01*
X137002808Y-108054673D01*
X136860162Y-108398201D01*
X136859838Y-108770167D01*
X136973906Y-109046233D01*
X136525000Y-108956940D01*
X135995251Y-109062314D01*
X135546152Y-109362392D01*
X135379105Y-109612396D01*
X135337462Y-109391083D01*
X135198390Y-109174959D01*
X134986190Y-109029969D01*
X134734300Y-108978960D01*
X133235700Y-108978960D01*
X133000383Y-109023238D01*
X132784259Y-109162310D01*
X132639269Y-109374510D01*
X132588260Y-109626400D01*
X132588260Y-111874300D01*
X132632538Y-112109617D01*
X132734455Y-112268000D01*
X124011834Y-112268000D01*
X124999806Y-111281751D01*
X125554368Y-109946218D01*
X125555630Y-108500126D01*
X125003400Y-107163628D01*
X123981751Y-106140194D01*
X122646218Y-105585632D01*
X121200126Y-105584370D01*
X119863628Y-106136600D01*
X118872000Y-107126498D01*
X118872000Y-101485700D01*
X120523260Y-101485700D01*
X120523260Y-102984300D01*
X120567538Y-103219617D01*
X120706610Y-103435741D01*
X120918810Y-103580731D01*
X121170700Y-103631740D01*
X122669300Y-103631740D01*
X122904617Y-103587462D01*
X123120741Y-103448390D01*
X123265731Y-103236190D01*
X123312998Y-103002776D01*
X123454032Y-103213848D01*
X123903131Y-103513926D01*
X124432880Y-103619300D01*
X124487120Y-103619300D01*
X125016869Y-103513926D01*
X125465968Y-103213848D01*
X125730000Y-102818696D01*
X125994032Y-103213848D01*
X126443131Y-103513926D01*
X126972880Y-103619300D01*
X127027120Y-103619300D01*
X127556869Y-103513926D01*
X128005968Y-103213848D01*
X128287820Y-102792026D01*
X128350144Y-102942501D01*
X128711465Y-103343984D01*
X129198923Y-103576634D01*
X129413000Y-103454722D01*
X129413000Y-102362000D01*
X129667000Y-102362000D01*
X129667000Y-103454722D01*
X129881077Y-103576634D01*
X130103369Y-103470540D01*
X132600700Y-103470540D01*
X132600700Y-104288760D01*
X132706074Y-104818509D01*
X133006152Y-105267608D01*
X133455251Y-105567686D01*
X133985000Y-105673060D01*
X134514749Y-105567686D01*
X134963848Y-105267608D01*
X135255000Y-104831868D01*
X135546152Y-105267608D01*
X135995251Y-105567686D01*
X136525000Y-105673060D01*
X137054749Y-105567686D01*
X137503848Y-105267608D01*
X137795000Y-104831868D01*
X138086152Y-105267608D01*
X138535251Y-105567686D01*
X139065000Y-105673060D01*
X139594749Y-105567686D01*
X140043848Y-105267608D01*
X140343926Y-104818509D01*
X140346423Y-104805957D01*
X140374674Y-104901381D01*
X140715954Y-105322950D01*
X141192583Y-105581827D01*
X141263925Y-105595924D01*
X141478000Y-105473252D01*
X141478000Y-104006650D01*
X141458000Y-104006650D01*
X141458000Y-103752650D01*
X141478000Y-103752650D01*
X141478000Y-102286048D01*
X141732000Y-102286048D01*
X141732000Y-103752650D01*
X141752000Y-103752650D01*
X141752000Y-104006650D01*
X141732000Y-104006650D01*
X141732000Y-105473252D01*
X141946075Y-105595924D01*
X142017417Y-105581827D01*
X142494046Y-105322950D01*
X142835326Y-104901381D01*
X142863577Y-104805957D01*
X142866074Y-104818509D01*
X143166152Y-105267608D01*
X143615251Y-105567686D01*
X144145000Y-105673060D01*
X144674749Y-105567686D01*
X145123848Y-105267608D01*
X145415000Y-104831868D01*
X145706152Y-105267608D01*
X146155251Y-105567686D01*
X146685000Y-105673060D01*
X147214749Y-105567686D01*
X147663848Y-105267608D01*
X147955000Y-104831868D01*
X148246152Y-105267608D01*
X148695251Y-105567686D01*
X149225000Y-105673060D01*
X149754749Y-105567686D01*
X150203848Y-105267608D01*
X150503926Y-104818509D01*
X150609300Y-104288760D01*
X150609300Y-103470540D01*
X150503926Y-102940791D01*
X150203848Y-102491692D01*
X149754749Y-102191614D01*
X149225000Y-102086240D01*
X148695251Y-102191614D01*
X148246152Y-102491692D01*
X147955000Y-102927432D01*
X147663848Y-102491692D01*
X147214749Y-102191614D01*
X146685000Y-102086240D01*
X146155251Y-102191614D01*
X145706152Y-102491692D01*
X145415000Y-102927432D01*
X145123848Y-102491692D01*
X144674749Y-102191614D01*
X144145000Y-102086240D01*
X143615251Y-102191614D01*
X143166152Y-102491692D01*
X142866074Y-102940791D01*
X142863577Y-102953343D01*
X142835326Y-102857919D01*
X142494046Y-102436350D01*
X142017417Y-102177473D01*
X141946075Y-102163376D01*
X141732000Y-102286048D01*
X141478000Y-102286048D01*
X141263925Y-102163376D01*
X141192583Y-102177473D01*
X140715954Y-102436350D01*
X140374674Y-102857919D01*
X140346423Y-102953343D01*
X140343926Y-102940791D01*
X140043848Y-102491692D01*
X139594749Y-102191614D01*
X139065000Y-102086240D01*
X138535251Y-102191614D01*
X138086152Y-102491692D01*
X137795000Y-102927432D01*
X137503848Y-102491692D01*
X137287002Y-102346800D01*
X137287002Y-102183953D01*
X137501075Y-102306624D01*
X137867501Y-102154856D01*
X138268984Y-101793535D01*
X138361352Y-101600000D01*
X152136940Y-101600000D01*
X152242314Y-102129749D01*
X152542392Y-102578848D01*
X152991491Y-102878926D01*
X153521240Y-102984300D01*
X154190700Y-102984300D01*
X154190700Y-102997002D01*
X154356047Y-102997002D01*
X154233376Y-103211075D01*
X154247473Y-103282417D01*
X154506350Y-103759046D01*
X154927919Y-104100326D01*
X155448000Y-104254300D01*
X155822650Y-104254300D01*
X155822650Y-102997000D01*
X156076650Y-102997000D01*
X156076650Y-104254300D01*
X156451300Y-104254300D01*
X156971381Y-104100326D01*
X157392950Y-103759046D01*
X157651827Y-103282417D01*
X157665924Y-103211075D01*
X157543252Y-102997000D01*
X156076650Y-102997000D01*
X155822650Y-102997000D01*
X155802650Y-102997000D01*
X155802650Y-102743000D01*
X155822650Y-102743000D01*
X155822650Y-102723000D01*
X156076650Y-102723000D01*
X156076650Y-102743000D01*
X157543252Y-102743000D01*
X157665924Y-102528925D01*
X157651827Y-102457583D01*
X157399873Y-101993700D01*
X159131260Y-101993700D01*
X159131260Y-103746300D01*
X159175538Y-103981617D01*
X159314610Y-104197741D01*
X159526810Y-104342731D01*
X159778700Y-104393740D01*
X161531300Y-104393740D01*
X161766617Y-104349462D01*
X161982741Y-104210390D01*
X162127731Y-103998190D01*
X162178740Y-103746300D01*
X162178740Y-101993700D01*
X162134462Y-101758383D01*
X161995390Y-101542259D01*
X161783190Y-101397269D01*
X161748985Y-101390342D01*
X162051259Y-100937957D01*
X162166300Y-100359608D01*
X162166300Y-100300392D01*
X162051259Y-99722043D01*
X161723650Y-99231742D01*
X161233349Y-98904133D01*
X160655000Y-98789092D01*
X160076651Y-98904133D01*
X159586350Y-99231742D01*
X159258741Y-99722043D01*
X159143700Y-100300392D01*
X159143700Y-100359608D01*
X159258741Y-100937957D01*
X159559162Y-101387569D01*
X159543383Y-101390538D01*
X159327259Y-101529610D01*
X159182269Y-101741810D01*
X159131260Y-101993700D01*
X157399873Y-101993700D01*
X157392950Y-101980954D01*
X156971381Y-101639674D01*
X156875957Y-101611423D01*
X156888509Y-101608926D01*
X157337608Y-101308848D01*
X157637686Y-100859749D01*
X157743060Y-100330000D01*
X157637686Y-99800251D01*
X157337608Y-99351152D01*
X156888509Y-99051074D01*
X156358760Y-98945700D01*
X155540540Y-98945700D01*
X155010791Y-99051074D01*
X154561692Y-99351152D01*
X154261614Y-99800251D01*
X154178976Y-100215700D01*
X153521240Y-100215700D01*
X152991491Y-100321074D01*
X152542392Y-100621152D01*
X152242314Y-101070251D01*
X152136940Y-101600000D01*
X138361352Y-101600000D01*
X138501634Y-101306077D01*
X138379722Y-101092000D01*
X137287000Y-101092000D01*
X137287000Y-101112000D01*
X137033000Y-101112000D01*
X137033000Y-101092000D01*
X135940278Y-101092000D01*
X135818366Y-101306077D01*
X136051016Y-101793535D01*
X136403181Y-102110471D01*
X135995251Y-102191614D01*
X135546152Y-102491692D01*
X135255000Y-102927432D01*
X134963848Y-102491692D01*
X134514749Y-102191614D01*
X133985000Y-102086240D01*
X133455251Y-102191614D01*
X133006152Y-102491692D01*
X132706074Y-102940791D01*
X132600700Y-103470540D01*
X130103369Y-103470540D01*
X130368535Y-103343984D01*
X130729856Y-102942501D01*
X130881624Y-102576075D01*
X130758952Y-102362000D01*
X129667000Y-102362000D01*
X129413000Y-102362000D01*
X129393000Y-102362000D01*
X129393000Y-102108000D01*
X129413000Y-102108000D01*
X129413000Y-101015278D01*
X129667000Y-101015278D01*
X129667000Y-102108000D01*
X130758952Y-102108000D01*
X130881624Y-101893925D01*
X130729856Y-101527499D01*
X130368535Y-101126016D01*
X129881077Y-100893366D01*
X129667000Y-101015278D01*
X129413000Y-101015278D01*
X129198923Y-100893366D01*
X128711465Y-101126016D01*
X128350144Y-101527499D01*
X128287820Y-101677974D01*
X128005968Y-101256152D01*
X127556869Y-100956074D01*
X127027120Y-100850700D01*
X126972880Y-100850700D01*
X126443131Y-100956074D01*
X125994032Y-101256152D01*
X125730000Y-101651304D01*
X125465968Y-101256152D01*
X125016869Y-100956074D01*
X124487120Y-100850700D01*
X124432880Y-100850700D01*
X123903131Y-100956074D01*
X123454032Y-101256152D01*
X123313205Y-101466914D01*
X123272462Y-101250383D01*
X123133390Y-101034259D01*
X122921190Y-100889269D01*
X122669300Y-100838260D01*
X121170700Y-100838260D01*
X120935383Y-100882538D01*
X120719259Y-101021610D01*
X120574269Y-101233810D01*
X120523260Y-101485700D01*
X118872000Y-101485700D01*
X118872000Y-100623923D01*
X135818366Y-100623923D01*
X135940278Y-100838000D01*
X137033000Y-100838000D01*
X137033000Y-99746048D01*
X137287000Y-99746048D01*
X137287000Y-100838000D01*
X138379722Y-100838000D01*
X138501634Y-100623923D01*
X138268984Y-100136465D01*
X137867501Y-99775144D01*
X137501075Y-99623376D01*
X137287000Y-99746048D01*
X137033000Y-99746048D01*
X136818925Y-99623376D01*
X136452499Y-99775144D01*
X136051016Y-100136465D01*
X135818366Y-100623923D01*
X118872000Y-100623923D01*
X118872000Y-97340167D01*
X126064838Y-97340167D01*
X126206883Y-97683943D01*
X126469673Y-97947192D01*
X126581313Y-97993549D01*
X128066238Y-99478474D01*
X128111883Y-99588943D01*
X128374673Y-99852192D01*
X128718201Y-99994838D01*
X129090167Y-99995162D01*
X129433943Y-99853117D01*
X129697192Y-99590327D01*
X129839838Y-99246799D01*
X129840162Y-98874833D01*
X129698117Y-98531057D01*
X129435327Y-98267808D01*
X129323687Y-98221451D01*
X127838762Y-96736526D01*
X127793117Y-96626057D01*
X127530327Y-96362808D01*
X127186799Y-96220162D01*
X126814833Y-96219838D01*
X126471057Y-96361883D01*
X126207808Y-96624673D01*
X126065162Y-96968201D01*
X126064838Y-97340167D01*
X118872000Y-97340167D01*
X118872000Y-94615000D01*
X120508580Y-94615000D01*
X120613954Y-95144749D01*
X120914032Y-95593848D01*
X121363131Y-95893926D01*
X121892880Y-95999300D01*
X121947120Y-95999300D01*
X122476869Y-95893926D01*
X122925968Y-95593848D01*
X123190000Y-95198696D01*
X123454032Y-95593848D01*
X123903131Y-95893926D01*
X124432880Y-95999300D01*
X124487120Y-95999300D01*
X125016869Y-95893926D01*
X125465968Y-95593848D01*
X125730000Y-95198696D01*
X125994032Y-95593848D01*
X126443131Y-95893926D01*
X126972880Y-95999300D01*
X127027120Y-95999300D01*
X127556869Y-95893926D01*
X128005968Y-95593848D01*
X128270000Y-95198696D01*
X128534032Y-95593848D01*
X128983131Y-95893926D01*
X129512880Y-95999300D01*
X129567120Y-95999300D01*
X130096869Y-95893926D01*
X130545968Y-95593848D01*
X130846046Y-95144749D01*
X130951420Y-94615000D01*
X130846046Y-94085251D01*
X130545968Y-93636152D01*
X130096869Y-93336074D01*
X129567120Y-93230700D01*
X129512880Y-93230700D01*
X128983131Y-93336074D01*
X128534032Y-93636152D01*
X128270000Y-94031304D01*
X128005968Y-93636152D01*
X127556869Y-93336074D01*
X127027120Y-93230700D01*
X126972880Y-93230700D01*
X126443131Y-93336074D01*
X125994032Y-93636152D01*
X125730000Y-94031304D01*
X125465968Y-93636152D01*
X125016869Y-93336074D01*
X124487120Y-93230700D01*
X124432880Y-93230700D01*
X123903131Y-93336074D01*
X123454032Y-93636152D01*
X123190000Y-94031304D01*
X122925968Y-93636152D01*
X122476869Y-93336074D01*
X121947120Y-93230700D01*
X121892880Y-93230700D01*
X121363131Y-93336074D01*
X120914032Y-93636152D01*
X120613954Y-94085251D01*
X120508580Y-94615000D01*
X118872000Y-94615000D01*
X118872000Y-90522114D01*
X120776692Y-90522114D01*
X121046806Y-91175840D01*
X121546529Y-91676436D01*
X122199782Y-91947691D01*
X122907114Y-91948308D01*
X123560840Y-91678194D01*
X124061436Y-91178471D01*
X124139626Y-90990167D01*
X126064838Y-90990167D01*
X126206883Y-91333943D01*
X126469673Y-91597192D01*
X126813201Y-91739838D01*
X127185167Y-91740162D01*
X127528943Y-91598117D01*
X127792192Y-91335327D01*
X127838549Y-91223687D01*
X129958474Y-89103762D01*
X130068943Y-89058117D01*
X130332192Y-88795327D01*
X130474838Y-88451799D01*
X130475024Y-88237880D01*
X135775700Y-88237880D01*
X135775700Y-88292120D01*
X135881074Y-88821869D01*
X136181152Y-89270968D01*
X136576304Y-89535000D01*
X136181152Y-89799032D01*
X135881074Y-90248131D01*
X135775700Y-90777880D01*
X135775700Y-90832120D01*
X135881074Y-91361869D01*
X136181152Y-91810968D01*
X136630251Y-92111046D01*
X137160000Y-92216420D01*
X137689749Y-92111046D01*
X138138848Y-91810968D01*
X138438926Y-91361869D01*
X138544300Y-90832120D01*
X138544300Y-90777880D01*
X138438926Y-90248131D01*
X138138848Y-89799032D01*
X137743696Y-89535000D01*
X138138848Y-89270968D01*
X138438926Y-88821869D01*
X138544300Y-88292120D01*
X138544300Y-88237880D01*
X138438926Y-87708131D01*
X138138848Y-87259032D01*
X137689749Y-86958954D01*
X137160000Y-86853580D01*
X136630251Y-86958954D01*
X136181152Y-87259032D01*
X135881074Y-87708131D01*
X135775700Y-88237880D01*
X130475024Y-88237880D01*
X130475162Y-88079833D01*
X130333117Y-87736057D01*
X130070327Y-87472808D01*
X129726799Y-87330162D01*
X129354833Y-87329838D01*
X129011057Y-87471883D01*
X128747808Y-87734673D01*
X128701451Y-87846313D01*
X126581526Y-89966238D01*
X126471057Y-90011883D01*
X126207808Y-90274673D01*
X126065162Y-90618201D01*
X126064838Y-90990167D01*
X124139626Y-90990167D01*
X124332691Y-90525218D01*
X124333308Y-89817886D01*
X124063194Y-89164160D01*
X123563471Y-88663564D01*
X122910218Y-88392309D01*
X122202886Y-88391692D01*
X121549160Y-88661806D01*
X121048564Y-89161529D01*
X120777309Y-89814782D01*
X120776692Y-90522114D01*
X118872000Y-90522114D01*
X118872000Y-84975700D01*
X120523260Y-84975700D01*
X120523260Y-86474300D01*
X120567538Y-86709617D01*
X120706610Y-86925741D01*
X120918810Y-87070731D01*
X121170700Y-87121740D01*
X122669300Y-87121740D01*
X122904617Y-87077462D01*
X123120741Y-86938390D01*
X123265731Y-86726190D01*
X123312998Y-86492776D01*
X123454032Y-86703848D01*
X123903131Y-87003926D01*
X124432880Y-87109300D01*
X124487120Y-87109300D01*
X125016869Y-87003926D01*
X125465968Y-86703848D01*
X125730000Y-86308696D01*
X125994032Y-86703848D01*
X126443131Y-87003926D01*
X126972880Y-87109300D01*
X127027120Y-87109300D01*
X127556869Y-87003926D01*
X128005968Y-86703848D01*
X128287820Y-86282026D01*
X128350144Y-86432501D01*
X128711465Y-86833984D01*
X129198923Y-87066634D01*
X129413000Y-86944722D01*
X129413000Y-85852000D01*
X129667000Y-85852000D01*
X129667000Y-86944722D01*
X129881077Y-87066634D01*
X130368535Y-86833984D01*
X130729856Y-86432501D01*
X130881624Y-86066075D01*
X130758952Y-85852000D01*
X129667000Y-85852000D01*
X129413000Y-85852000D01*
X129393000Y-85852000D01*
X129393000Y-85598000D01*
X129413000Y-85598000D01*
X129413000Y-84505278D01*
X129667000Y-84505278D01*
X129667000Y-85598000D01*
X130758952Y-85598000D01*
X130881624Y-85383925D01*
X130729856Y-85017499D01*
X130368535Y-84616016D01*
X129881077Y-84383366D01*
X129667000Y-84505278D01*
X129413000Y-84505278D01*
X129198923Y-84383366D01*
X128711465Y-84616016D01*
X128350144Y-85017499D01*
X128287820Y-85167974D01*
X128005968Y-84746152D01*
X127556869Y-84446074D01*
X127027120Y-84340700D01*
X126972880Y-84340700D01*
X126443131Y-84446074D01*
X125994032Y-84746152D01*
X125730000Y-85141304D01*
X125465968Y-84746152D01*
X125016869Y-84446074D01*
X124487120Y-84340700D01*
X124432880Y-84340700D01*
X123903131Y-84446074D01*
X123454032Y-84746152D01*
X123313205Y-84956914D01*
X123272462Y-84740383D01*
X123133390Y-84524259D01*
X122921190Y-84379269D01*
X122669300Y-84328260D01*
X121170700Y-84328260D01*
X120935383Y-84372538D01*
X120719259Y-84511610D01*
X120574269Y-84723810D01*
X120523260Y-84975700D01*
X118872000Y-84975700D01*
X118872000Y-81915000D01*
X138923580Y-81915000D01*
X139028954Y-82444749D01*
X139329032Y-82893848D01*
X139764772Y-83185000D01*
X139329032Y-83476152D01*
X139028954Y-83925251D01*
X138923580Y-84455000D01*
X139028954Y-84984749D01*
X139329032Y-85433848D01*
X139764772Y-85725000D01*
X139329032Y-86016152D01*
X139028954Y-86465251D01*
X138923580Y-86995000D01*
X139028954Y-87524749D01*
X139329032Y-87973848D01*
X139764772Y-88265000D01*
X139329032Y-88556152D01*
X139028954Y-89005251D01*
X138923580Y-89535000D01*
X139028954Y-90064749D01*
X139329032Y-90513848D01*
X139764772Y-90805000D01*
X139329032Y-91096152D01*
X139028954Y-91545251D01*
X138923580Y-92075000D01*
X139028954Y-92604749D01*
X139329032Y-93053848D01*
X139764772Y-93345000D01*
X139329032Y-93636152D01*
X139028954Y-94085251D01*
X138923580Y-94615000D01*
X139028954Y-95144749D01*
X139329032Y-95593848D01*
X139764772Y-95885000D01*
X139329032Y-96176152D01*
X139028954Y-96625251D01*
X138923580Y-97155000D01*
X139028954Y-97684749D01*
X139329032Y-98133848D01*
X139764772Y-98425000D01*
X139329032Y-98716152D01*
X139028954Y-99165251D01*
X138923580Y-99695000D01*
X139028954Y-100224749D01*
X139329032Y-100673848D01*
X139778131Y-100973926D01*
X140307880Y-101079300D01*
X140362120Y-101079300D01*
X140891869Y-100973926D01*
X141340968Y-100673848D01*
X141446995Y-100515167D01*
X146384838Y-100515167D01*
X146526883Y-100858943D01*
X146789673Y-101122192D01*
X147133201Y-101264838D01*
X147505167Y-101265162D01*
X147848943Y-101123117D01*
X148112192Y-100860327D01*
X148158549Y-100748687D01*
X149008474Y-99898762D01*
X149115329Y-99854610D01*
X149188954Y-100224749D01*
X149489032Y-100673848D01*
X149938131Y-100973926D01*
X150467880Y-101079300D01*
X150522120Y-101079300D01*
X151051869Y-100973926D01*
X151500968Y-100673848D01*
X151801046Y-100224749D01*
X151906420Y-99695000D01*
X151801046Y-99165251D01*
X151500968Y-98716152D01*
X151065228Y-98425000D01*
X151500968Y-98133848D01*
X151801046Y-97684749D01*
X151906420Y-97155000D01*
X151801046Y-96625251D01*
X151500968Y-96176152D01*
X151065228Y-95885000D01*
X151500968Y-95593848D01*
X151801046Y-95144749D01*
X151906420Y-94615000D01*
X151801046Y-94085251D01*
X151730720Y-93980000D01*
X152136940Y-93980000D01*
X152242314Y-94509749D01*
X152542392Y-94958848D01*
X152991491Y-95258926D01*
X153521240Y-95364300D01*
X154190700Y-95364300D01*
X154190700Y-95377002D01*
X154356047Y-95377002D01*
X154233376Y-95591075D01*
X154247473Y-95662417D01*
X154506350Y-96139046D01*
X154927919Y-96480326D01*
X155448000Y-96634300D01*
X155822650Y-96634300D01*
X155822650Y-95377000D01*
X156076650Y-95377000D01*
X156076650Y-96634300D01*
X156451300Y-96634300D01*
X156971381Y-96480326D01*
X157392950Y-96139046D01*
X157651827Y-95662417D01*
X157665924Y-95591075D01*
X157543252Y-95377000D01*
X156076650Y-95377000D01*
X155822650Y-95377000D01*
X155802650Y-95377000D01*
X155802650Y-95123000D01*
X155822650Y-95123000D01*
X155822650Y-95103000D01*
X156076650Y-95103000D01*
X156076650Y-95123000D01*
X157543252Y-95123000D01*
X157665924Y-94908925D01*
X157651827Y-94837583D01*
X157399873Y-94373700D01*
X159131260Y-94373700D01*
X159131260Y-96126300D01*
X159175538Y-96361617D01*
X159314610Y-96577741D01*
X159526810Y-96722731D01*
X159778700Y-96773740D01*
X161531300Y-96773740D01*
X161766617Y-96729462D01*
X161982741Y-96590390D01*
X162127731Y-96378190D01*
X162178740Y-96126300D01*
X162178740Y-94373700D01*
X162134462Y-94138383D01*
X161995390Y-93922259D01*
X161783190Y-93777269D01*
X161748985Y-93770342D01*
X162051259Y-93317957D01*
X162166300Y-92739608D01*
X162166300Y-92680392D01*
X162051259Y-92102043D01*
X161723650Y-91611742D01*
X161233349Y-91284133D01*
X160655000Y-91169092D01*
X160076651Y-91284133D01*
X159586350Y-91611742D01*
X159258741Y-92102043D01*
X159143700Y-92680392D01*
X159143700Y-92739608D01*
X159258741Y-93317957D01*
X159559162Y-93767569D01*
X159543383Y-93770538D01*
X159327259Y-93909610D01*
X159182269Y-94121810D01*
X159131260Y-94373700D01*
X157399873Y-94373700D01*
X157392950Y-94360954D01*
X156971381Y-94019674D01*
X156875957Y-93991423D01*
X156888509Y-93988926D01*
X157337608Y-93688848D01*
X157637686Y-93239749D01*
X157743060Y-92710000D01*
X157637686Y-92180251D01*
X157337608Y-91731152D01*
X156888509Y-91431074D01*
X156358760Y-91325700D01*
X155540540Y-91325700D01*
X155010791Y-91431074D01*
X154561692Y-91731152D01*
X154261614Y-92180251D01*
X154178976Y-92595700D01*
X153521240Y-92595700D01*
X152991491Y-92701074D01*
X152542392Y-93001152D01*
X152242314Y-93450251D01*
X152136940Y-93980000D01*
X151730720Y-93980000D01*
X151500968Y-93636152D01*
X151065228Y-93345000D01*
X151500968Y-93053848D01*
X151801046Y-92604749D01*
X151906420Y-92075000D01*
X151801046Y-91545251D01*
X151500968Y-91096152D01*
X151065228Y-90805000D01*
X151500968Y-90513848D01*
X151801046Y-90064749D01*
X151906420Y-89535000D01*
X151801046Y-89005251D01*
X151500968Y-88556152D01*
X151065228Y-88265000D01*
X151500968Y-87973848D01*
X151801046Y-87524749D01*
X151906420Y-86995000D01*
X151801046Y-86465251D01*
X151730720Y-86360000D01*
X152136940Y-86360000D01*
X152242314Y-86889749D01*
X152542392Y-87338848D01*
X152991491Y-87638926D01*
X153521240Y-87744300D01*
X154190700Y-87744300D01*
X154190700Y-87757002D01*
X154356047Y-87757002D01*
X154233376Y-87971075D01*
X154247473Y-88042417D01*
X154506350Y-88519046D01*
X154927919Y-88860326D01*
X155448000Y-89014300D01*
X155822650Y-89014300D01*
X155822650Y-87757000D01*
X156076650Y-87757000D01*
X156076650Y-89014300D01*
X156451300Y-89014300D01*
X156971381Y-88860326D01*
X157392950Y-88519046D01*
X157651827Y-88042417D01*
X157665924Y-87971075D01*
X157543252Y-87757000D01*
X156076650Y-87757000D01*
X155822650Y-87757000D01*
X155802650Y-87757000D01*
X155802650Y-87503000D01*
X155822650Y-87503000D01*
X155822650Y-87483000D01*
X156076650Y-87483000D01*
X156076650Y-87503000D01*
X157543252Y-87503000D01*
X157665924Y-87288925D01*
X157651827Y-87217583D01*
X157399873Y-86753700D01*
X159131260Y-86753700D01*
X159131260Y-88506300D01*
X159175538Y-88741617D01*
X159314610Y-88957741D01*
X159526810Y-89102731D01*
X159778700Y-89153740D01*
X161531300Y-89153740D01*
X161766617Y-89109462D01*
X161982741Y-88970390D01*
X162127731Y-88758190D01*
X162178740Y-88506300D01*
X162178740Y-86753700D01*
X162134462Y-86518383D01*
X161995390Y-86302259D01*
X161783190Y-86157269D01*
X161748985Y-86150342D01*
X162051259Y-85697957D01*
X162166300Y-85119608D01*
X162166300Y-85060392D01*
X162051259Y-84482043D01*
X161723650Y-83991742D01*
X161233349Y-83664133D01*
X160655000Y-83549092D01*
X160076651Y-83664133D01*
X159586350Y-83991742D01*
X159258741Y-84482043D01*
X159143700Y-85060392D01*
X159143700Y-85119608D01*
X159258741Y-85697957D01*
X159559162Y-86147569D01*
X159543383Y-86150538D01*
X159327259Y-86289610D01*
X159182269Y-86501810D01*
X159131260Y-86753700D01*
X157399873Y-86753700D01*
X157392950Y-86740954D01*
X156971381Y-86399674D01*
X156875957Y-86371423D01*
X156888509Y-86368926D01*
X157337608Y-86068848D01*
X157637686Y-85619749D01*
X157743060Y-85090000D01*
X157637686Y-84560251D01*
X157337608Y-84111152D01*
X156888509Y-83811074D01*
X156358760Y-83705700D01*
X155540540Y-83705700D01*
X155010791Y-83811074D01*
X154561692Y-84111152D01*
X154261614Y-84560251D01*
X154178976Y-84975700D01*
X153521240Y-84975700D01*
X152991491Y-85081074D01*
X152542392Y-85381152D01*
X152242314Y-85830251D01*
X152136940Y-86360000D01*
X151730720Y-86360000D01*
X151500968Y-86016152D01*
X151065228Y-85725000D01*
X151500968Y-85433848D01*
X151801046Y-84984749D01*
X151906420Y-84455000D01*
X151801046Y-83925251D01*
X151500968Y-83476152D01*
X151065228Y-83185000D01*
X151500968Y-82893848D01*
X151801046Y-82444749D01*
X151906420Y-81915000D01*
X151801046Y-81385251D01*
X151500968Y-80936152D01*
X151051869Y-80636074D01*
X150522120Y-80530700D01*
X150467880Y-80530700D01*
X149938131Y-80636074D01*
X149489032Y-80936152D01*
X149188954Y-81385251D01*
X149083580Y-81915000D01*
X149188954Y-82444749D01*
X149489032Y-82893848D01*
X149924772Y-83185000D01*
X149489032Y-83476152D01*
X149188954Y-83925251D01*
X149083580Y-84455000D01*
X149188954Y-84984749D01*
X149489032Y-85433848D01*
X149924772Y-85725000D01*
X149489032Y-86016152D01*
X149188954Y-86465251D01*
X149083580Y-86995000D01*
X149188954Y-87524749D01*
X149489032Y-87973848D01*
X149924772Y-88265000D01*
X149489032Y-88556152D01*
X149188954Y-89005251D01*
X149083580Y-89535000D01*
X149188954Y-90064749D01*
X149489032Y-90513848D01*
X149924772Y-90805000D01*
X149489032Y-91096152D01*
X149188954Y-91545251D01*
X149083580Y-92075000D01*
X149188954Y-92604749D01*
X149489032Y-93053848D01*
X149924772Y-93345000D01*
X149489032Y-93636152D01*
X149188954Y-94085251D01*
X149083580Y-94615000D01*
X149188954Y-95144749D01*
X149489032Y-95593848D01*
X149924772Y-95885000D01*
X149489032Y-96176152D01*
X149188954Y-96625251D01*
X149083580Y-97155000D01*
X149188954Y-97684749D01*
X149489032Y-98133848D01*
X149924772Y-98425000D01*
X149489032Y-98716152D01*
X149470844Y-98743373D01*
X149383117Y-98531057D01*
X149120327Y-98267808D01*
X148776799Y-98125162D01*
X148404833Y-98124838D01*
X148061057Y-98266883D01*
X147797808Y-98529673D01*
X147751451Y-98641313D01*
X146901526Y-99491238D01*
X146791057Y-99536883D01*
X146527808Y-99799673D01*
X146385162Y-100143201D01*
X146384838Y-100515167D01*
X141446995Y-100515167D01*
X141641046Y-100224749D01*
X141746420Y-99695000D01*
X141641046Y-99165251D01*
X141340968Y-98716152D01*
X140905228Y-98425000D01*
X141340968Y-98133848D01*
X141641046Y-97684749D01*
X141709587Y-97340167D01*
X143209838Y-97340167D01*
X143351883Y-97683943D01*
X143614673Y-97947192D01*
X143958201Y-98089838D01*
X144330167Y-98090162D01*
X144441888Y-98044000D01*
X146387811Y-98044000D01*
X146498201Y-98089838D01*
X146870167Y-98090162D01*
X147213943Y-97948117D01*
X147477192Y-97685327D01*
X147619838Y-97341799D01*
X147620162Y-96969833D01*
X147478117Y-96626057D01*
X147215327Y-96362808D01*
X146871799Y-96220162D01*
X146499833Y-96219838D01*
X146388112Y-96266000D01*
X144442189Y-96266000D01*
X144331799Y-96220162D01*
X143959833Y-96219838D01*
X143616057Y-96361883D01*
X143352808Y-96624673D01*
X143210162Y-96968201D01*
X143209838Y-97340167D01*
X141709587Y-97340167D01*
X141746420Y-97155000D01*
X141641046Y-96625251D01*
X141340968Y-96176152D01*
X140905228Y-95885000D01*
X141340968Y-95593848D01*
X141641046Y-95144749D01*
X141746420Y-94615000D01*
X141641046Y-94085251D01*
X141340968Y-93636152D01*
X140905228Y-93345000D01*
X141340968Y-93053848D01*
X141641046Y-92604749D01*
X141709587Y-92260167D01*
X143209838Y-92260167D01*
X143351883Y-92603943D01*
X143614673Y-92867192D01*
X143958201Y-93009838D01*
X144330167Y-93010162D01*
X144441888Y-92964000D01*
X146387811Y-92964000D01*
X146498201Y-93009838D01*
X146870167Y-93010162D01*
X147213943Y-92868117D01*
X147477192Y-92605327D01*
X147619838Y-92261799D01*
X147620162Y-91889833D01*
X147478117Y-91546057D01*
X147215327Y-91282808D01*
X146871799Y-91140162D01*
X146499833Y-91139838D01*
X146388112Y-91186000D01*
X144442189Y-91186000D01*
X144331799Y-91140162D01*
X143959833Y-91139838D01*
X143616057Y-91281883D01*
X143352808Y-91544673D01*
X143210162Y-91888201D01*
X143209838Y-92260167D01*
X141709587Y-92260167D01*
X141746420Y-92075000D01*
X141641046Y-91545251D01*
X141340968Y-91096152D01*
X140905228Y-90805000D01*
X141340968Y-90513848D01*
X141641046Y-90064749D01*
X141746420Y-89535000D01*
X141641046Y-89005251D01*
X141340968Y-88556152D01*
X140905228Y-88265000D01*
X141340968Y-87973848D01*
X141641046Y-87524749D01*
X141709587Y-87180167D01*
X143209838Y-87180167D01*
X143351883Y-87523943D01*
X143614673Y-87787192D01*
X143958201Y-87929838D01*
X144330167Y-87930162D01*
X144441888Y-87884000D01*
X146387811Y-87884000D01*
X146498201Y-87929838D01*
X146870167Y-87930162D01*
X147213943Y-87788117D01*
X147477192Y-87525327D01*
X147619838Y-87181799D01*
X147620162Y-86809833D01*
X147478117Y-86466057D01*
X147215327Y-86202808D01*
X146871799Y-86060162D01*
X146499833Y-86059838D01*
X146388112Y-86106000D01*
X144442189Y-86106000D01*
X144331799Y-86060162D01*
X143959833Y-86059838D01*
X143616057Y-86201883D01*
X143352808Y-86464673D01*
X143210162Y-86808201D01*
X143209838Y-87180167D01*
X141709587Y-87180167D01*
X141746420Y-86995000D01*
X141641046Y-86465251D01*
X141340968Y-86016152D01*
X140905228Y-85725000D01*
X141340968Y-85433848D01*
X141641046Y-84984749D01*
X141746420Y-84455000D01*
X141641046Y-83925251D01*
X141340968Y-83476152D01*
X140905228Y-83185000D01*
X141340968Y-82893848D01*
X141641046Y-82444749D01*
X141709587Y-82100167D01*
X143209838Y-82100167D01*
X143351883Y-82443943D01*
X143614673Y-82707192D01*
X143958201Y-82849838D01*
X144330167Y-82850162D01*
X144441888Y-82804000D01*
X146387811Y-82804000D01*
X146498201Y-82849838D01*
X146870167Y-82850162D01*
X147213943Y-82708117D01*
X147477192Y-82445327D01*
X147619838Y-82101799D01*
X147620162Y-81729833D01*
X147478117Y-81386057D01*
X147215327Y-81122808D01*
X146871799Y-80980162D01*
X146499833Y-80979838D01*
X146388112Y-81026000D01*
X144442189Y-81026000D01*
X144331799Y-80980162D01*
X143959833Y-80979838D01*
X143616057Y-81121883D01*
X143352808Y-81384673D01*
X143210162Y-81728201D01*
X143209838Y-82100167D01*
X141709587Y-82100167D01*
X141746420Y-81915000D01*
X141641046Y-81385251D01*
X141340968Y-80936152D01*
X140891869Y-80636074D01*
X140362120Y-80530700D01*
X140307880Y-80530700D01*
X139778131Y-80636074D01*
X139329032Y-80936152D01*
X139028954Y-81385251D01*
X138923580Y-81915000D01*
X118872000Y-81915000D01*
X118872000Y-78105000D01*
X120508580Y-78105000D01*
X120613954Y-78634749D01*
X120914032Y-79083848D01*
X121363131Y-79383926D01*
X121892880Y-79489300D01*
X121947120Y-79489300D01*
X122476869Y-79383926D01*
X122925968Y-79083848D01*
X123190000Y-78688696D01*
X123454032Y-79083848D01*
X123903131Y-79383926D01*
X124432880Y-79489300D01*
X124487120Y-79489300D01*
X125016869Y-79383926D01*
X125465968Y-79083848D01*
X125730000Y-78688696D01*
X125994032Y-79083848D01*
X126443131Y-79383926D01*
X126972880Y-79489300D01*
X127027120Y-79489300D01*
X127556869Y-79383926D01*
X128005968Y-79083848D01*
X128270000Y-78688696D01*
X128534032Y-79083848D01*
X128983131Y-79383926D01*
X129512880Y-79489300D01*
X129567120Y-79489300D01*
X130096869Y-79383926D01*
X130545968Y-79083848D01*
X130846046Y-78634749D01*
X130951420Y-78105000D01*
X130946026Y-78077880D01*
X135775700Y-78077880D01*
X135775700Y-78132120D01*
X135881074Y-78661869D01*
X136181152Y-79110968D01*
X136630251Y-79411046D01*
X137160000Y-79516420D01*
X137689749Y-79411046D01*
X138138848Y-79110968D01*
X138386720Y-78740000D01*
X152136940Y-78740000D01*
X152242314Y-79269749D01*
X152542392Y-79718848D01*
X152991491Y-80018926D01*
X153521240Y-80124300D01*
X154190700Y-80124300D01*
X154190700Y-80137002D01*
X154356047Y-80137002D01*
X154233376Y-80351075D01*
X154247473Y-80422417D01*
X154506350Y-80899046D01*
X154927919Y-81240326D01*
X155448000Y-81394300D01*
X155822650Y-81394300D01*
X155822650Y-80137000D01*
X156076650Y-80137000D01*
X156076650Y-81394300D01*
X156451300Y-81394300D01*
X156971381Y-81240326D01*
X157392950Y-80899046D01*
X157651827Y-80422417D01*
X157665924Y-80351075D01*
X157543252Y-80137000D01*
X156076650Y-80137000D01*
X155822650Y-80137000D01*
X155802650Y-80137000D01*
X155802650Y-79883000D01*
X155822650Y-79883000D01*
X155822650Y-79863000D01*
X156076650Y-79863000D01*
X156076650Y-79883000D01*
X157543252Y-79883000D01*
X157665924Y-79668925D01*
X157651827Y-79597583D01*
X157399873Y-79133700D01*
X159131260Y-79133700D01*
X159131260Y-80886300D01*
X159175538Y-81121617D01*
X159314610Y-81337741D01*
X159526810Y-81482731D01*
X159778700Y-81533740D01*
X161531300Y-81533740D01*
X161766617Y-81489462D01*
X161982741Y-81350390D01*
X162127731Y-81138190D01*
X162178740Y-80886300D01*
X162178740Y-79133700D01*
X162134462Y-78898383D01*
X161995390Y-78682259D01*
X161783190Y-78537269D01*
X161748985Y-78530342D01*
X162051259Y-78077957D01*
X162166300Y-77499608D01*
X162166300Y-77440392D01*
X162051259Y-76862043D01*
X161723650Y-76371742D01*
X161233349Y-76044133D01*
X160655000Y-75929092D01*
X160076651Y-76044133D01*
X159586350Y-76371742D01*
X159258741Y-76862043D01*
X159143700Y-77440392D01*
X159143700Y-77499608D01*
X159258741Y-78077957D01*
X159559162Y-78527569D01*
X159543383Y-78530538D01*
X159327259Y-78669610D01*
X159182269Y-78881810D01*
X159131260Y-79133700D01*
X157399873Y-79133700D01*
X157392950Y-79120954D01*
X156971381Y-78779674D01*
X156875957Y-78751423D01*
X156888509Y-78748926D01*
X157337608Y-78448848D01*
X157637686Y-77999749D01*
X157743060Y-77470000D01*
X157637686Y-76940251D01*
X157337608Y-76491152D01*
X156888509Y-76191074D01*
X156358760Y-76085700D01*
X155540540Y-76085700D01*
X155010791Y-76191074D01*
X154561692Y-76491152D01*
X154261614Y-76940251D01*
X154178976Y-77355700D01*
X153521240Y-77355700D01*
X152991491Y-77461074D01*
X152542392Y-77761152D01*
X152242314Y-78210251D01*
X152136940Y-78740000D01*
X138386720Y-78740000D01*
X138438926Y-78661869D01*
X138544300Y-78132120D01*
X138544300Y-78077880D01*
X138438926Y-77548131D01*
X138138848Y-77099032D01*
X137689749Y-76798954D01*
X137160000Y-76693580D01*
X136630251Y-76798954D01*
X136181152Y-77099032D01*
X135881074Y-77548131D01*
X135775700Y-78077880D01*
X130946026Y-78077880D01*
X130846046Y-77575251D01*
X130545968Y-77126152D01*
X130096869Y-76826074D01*
X129567120Y-76720700D01*
X129512880Y-76720700D01*
X128983131Y-76826074D01*
X128534032Y-77126152D01*
X128270000Y-77521304D01*
X128005968Y-77126152D01*
X127556869Y-76826074D01*
X127027120Y-76720700D01*
X126972880Y-76720700D01*
X126443131Y-76826074D01*
X125994032Y-77126152D01*
X125730000Y-77521304D01*
X125465968Y-77126152D01*
X125016869Y-76826074D01*
X124487120Y-76720700D01*
X124432880Y-76720700D01*
X123903131Y-76826074D01*
X123454032Y-77126152D01*
X123190000Y-77521304D01*
X122925968Y-77126152D01*
X122476869Y-76826074D01*
X121947120Y-76720700D01*
X121892880Y-76720700D01*
X121363131Y-76826074D01*
X120914032Y-77126152D01*
X120613954Y-77575251D01*
X120508580Y-78105000D01*
X118872000Y-78105000D01*
X118872000Y-71775172D01*
X125348538Y-71775172D01*
X125753709Y-72755761D01*
X126503293Y-73506655D01*
X127483173Y-73913536D01*
X128544172Y-73914462D01*
X129524761Y-73509291D01*
X130035560Y-72999383D01*
X130035560Y-76327000D01*
X130079838Y-76562317D01*
X130218910Y-76778441D01*
X130431110Y-76923431D01*
X130683000Y-76974440D01*
X134747000Y-76974440D01*
X134982317Y-76930162D01*
X135198441Y-76791090D01*
X135343431Y-76578890D01*
X135394440Y-76327000D01*
X135394440Y-75906075D01*
X138993376Y-75906075D01*
X139145144Y-76272501D01*
X139506465Y-76673984D01*
X139993923Y-76906634D01*
X140208000Y-76784722D01*
X140208000Y-75692000D01*
X140462000Y-75692000D01*
X140462000Y-76784722D01*
X140676077Y-76906634D01*
X141163535Y-76673984D01*
X141524856Y-76272501D01*
X141676624Y-75906075D01*
X141553952Y-75692000D01*
X140462000Y-75692000D01*
X140208000Y-75692000D01*
X139116048Y-75692000D01*
X138993376Y-75906075D01*
X135394440Y-75906075D01*
X135394440Y-75565000D01*
X149083580Y-75565000D01*
X149188954Y-76094749D01*
X149489032Y-76543848D01*
X149938131Y-76843926D01*
X150467880Y-76949300D01*
X150522120Y-76949300D01*
X151051869Y-76843926D01*
X151500968Y-76543848D01*
X151801046Y-76094749D01*
X151906420Y-75565000D01*
X151801046Y-75035251D01*
X151500968Y-74586152D01*
X151051869Y-74286074D01*
X150522120Y-74180700D01*
X150467880Y-74180700D01*
X149938131Y-74286074D01*
X149489032Y-74586152D01*
X149188954Y-75035251D01*
X149083580Y-75565000D01*
X135394440Y-75565000D01*
X135394440Y-75223925D01*
X138993376Y-75223925D01*
X139116048Y-75438000D01*
X140208000Y-75438000D01*
X140208000Y-74345278D01*
X140462000Y-74345278D01*
X140462000Y-75438000D01*
X141553952Y-75438000D01*
X141676624Y-75223925D01*
X141524856Y-74857499D01*
X141163535Y-74456016D01*
X140676077Y-74223366D01*
X140462000Y-74345278D01*
X140208000Y-74345278D01*
X139993923Y-74223366D01*
X139506465Y-74456016D01*
X139145144Y-74857499D01*
X138993376Y-75223925D01*
X135394440Y-75223925D01*
X135394440Y-74001077D01*
X153598366Y-74001077D01*
X153831016Y-74488535D01*
X154232499Y-74849856D01*
X154598925Y-75001624D01*
X154813000Y-74878952D01*
X154813000Y-73787000D01*
X155067000Y-73787000D01*
X155067000Y-74878952D01*
X155281075Y-75001624D01*
X155647501Y-74849856D01*
X156048984Y-74488535D01*
X156281634Y-74001077D01*
X156159722Y-73787000D01*
X155067000Y-73787000D01*
X154813000Y-73787000D01*
X153720278Y-73787000D01*
X153598366Y-74001077D01*
X135394440Y-74001077D01*
X135394440Y-72263000D01*
X135350162Y-72027683D01*
X135211090Y-71811559D01*
X135128314Y-71755000D01*
X138794092Y-71755000D01*
X138909133Y-72333349D01*
X139236742Y-72823650D01*
X139727043Y-73151259D01*
X140305392Y-73266300D01*
X140364608Y-73266300D01*
X140942957Y-73151259D01*
X141433258Y-72823650D01*
X141760867Y-72333349D01*
X141875908Y-71755000D01*
X141760867Y-71176651D01*
X141561783Y-70878700D01*
X148971260Y-70878700D01*
X148971260Y-72631300D01*
X149015538Y-72866617D01*
X149154610Y-73082741D01*
X149366810Y-73227731D01*
X149618700Y-73278740D01*
X151371300Y-73278740D01*
X151606617Y-73234462D01*
X151822741Y-73095390D01*
X151967731Y-72883190D01*
X152018740Y-72631300D01*
X152018740Y-70878700D01*
X151974462Y-70643383D01*
X151835390Y-70427259D01*
X151752614Y-70370700D01*
X153543260Y-70370700D01*
X153543260Y-71869300D01*
X153587538Y-72104617D01*
X153726610Y-72320741D01*
X153938810Y-72465731D01*
X154182556Y-72515091D01*
X153831016Y-72831465D01*
X153598366Y-73318923D01*
X153720278Y-73533000D01*
X154813000Y-73533000D01*
X154813000Y-73513000D01*
X155067000Y-73513000D01*
X155067000Y-73533000D01*
X156159722Y-73533000D01*
X156281634Y-73318923D01*
X156086801Y-72910700D01*
X158623260Y-72910700D01*
X158623260Y-74409300D01*
X158667538Y-74644617D01*
X158806610Y-74860741D01*
X159018810Y-75005731D01*
X159270700Y-75056740D01*
X162166300Y-75056740D01*
X162401617Y-75012462D01*
X162558126Y-74911751D01*
X162594002Y-74947627D01*
X162827391Y-75044300D01*
X164115750Y-75044300D01*
X164274500Y-74885550D01*
X164274500Y-73787000D01*
X164528500Y-73787000D01*
X164528500Y-74885550D01*
X164687250Y-75044300D01*
X165975609Y-75044300D01*
X166208998Y-74947627D01*
X166387627Y-74768999D01*
X166484300Y-74535610D01*
X166484300Y-73945750D01*
X166325550Y-73787000D01*
X164528500Y-73787000D01*
X164274500Y-73787000D01*
X164254500Y-73787000D01*
X164254500Y-73533000D01*
X164274500Y-73533000D01*
X164274500Y-72434450D01*
X164528500Y-72434450D01*
X164528500Y-73533000D01*
X166325550Y-73533000D01*
X166484300Y-73374250D01*
X166484300Y-72784390D01*
X166387627Y-72551001D01*
X166208998Y-72372373D01*
X165975609Y-72275700D01*
X164687250Y-72275700D01*
X164528500Y-72434450D01*
X164274500Y-72434450D01*
X164115750Y-72275700D01*
X162827391Y-72275700D01*
X162594002Y-72372373D01*
X162557155Y-72409220D01*
X162418190Y-72314269D01*
X162166300Y-72263260D01*
X159270700Y-72263260D01*
X159035383Y-72307538D01*
X158819259Y-72446610D01*
X158674269Y-72658810D01*
X158623260Y-72910700D01*
X156086801Y-72910700D01*
X156048984Y-72831465D01*
X155697551Y-72515187D01*
X155924617Y-72472462D01*
X156140741Y-72333390D01*
X156285731Y-72121190D01*
X156336740Y-71869300D01*
X156336740Y-70370700D01*
X156292462Y-70135383D01*
X156153390Y-69919259D01*
X155941190Y-69774269D01*
X155689300Y-69723260D01*
X154190700Y-69723260D01*
X153955383Y-69767538D01*
X153739259Y-69906610D01*
X153594269Y-70118810D01*
X153543260Y-70370700D01*
X151752614Y-70370700D01*
X151623190Y-70282269D01*
X151371300Y-70231260D01*
X149618700Y-70231260D01*
X149383383Y-70275538D01*
X149167259Y-70414610D01*
X149022269Y-70626810D01*
X148971260Y-70878700D01*
X141561783Y-70878700D01*
X141433258Y-70686350D01*
X140942957Y-70358741D01*
X140364608Y-70243700D01*
X140305392Y-70243700D01*
X139727043Y-70358741D01*
X139236742Y-70686350D01*
X138909133Y-71176651D01*
X138794092Y-71755000D01*
X135128314Y-71755000D01*
X134998890Y-71666569D01*
X134747000Y-71615560D01*
X130683000Y-71615560D01*
X130682679Y-71615620D01*
X130683462Y-70718828D01*
X130479054Y-70224121D01*
X130996484Y-70224121D01*
X131221154Y-70598168D01*
X132204388Y-70996880D01*
X133265357Y-70988975D01*
X134208846Y-70598168D01*
X134433516Y-70224121D01*
X132715000Y-68505605D01*
X130996484Y-70224121D01*
X130479054Y-70224121D01*
X130278291Y-69738239D01*
X129528707Y-68987345D01*
X128548827Y-68580464D01*
X127487828Y-68579538D01*
X126507239Y-68984709D01*
X125756345Y-69734293D01*
X125349464Y-70714173D01*
X125348538Y-71775172D01*
X118872000Y-71775172D01*
X118872000Y-69401834D01*
X119858249Y-70389806D01*
X121193782Y-70944368D01*
X122639874Y-70945630D01*
X123976372Y-70393400D01*
X124999806Y-69371751D01*
X125554368Y-68036218D01*
X125554560Y-67815388D01*
X130044120Y-67815388D01*
X130052025Y-68876357D01*
X130442832Y-69819846D01*
X130816879Y-70044516D01*
X132535395Y-68326000D01*
X132894605Y-68326000D01*
X134613121Y-70044516D01*
X134987168Y-69819846D01*
X135385880Y-68836612D01*
X135377975Y-67775643D01*
X134987168Y-66832154D01*
X134725527Y-66675000D01*
X138159092Y-66675000D01*
X138274133Y-67253349D01*
X138601742Y-67743650D01*
X139092043Y-68071259D01*
X139670392Y-68186300D01*
X139729608Y-68186300D01*
X140307957Y-68071259D01*
X140757569Y-67770838D01*
X140760538Y-67786617D01*
X140899610Y-68002741D01*
X141111810Y-68147731D01*
X141363700Y-68198740D01*
X143116300Y-68198740D01*
X143351617Y-68154462D01*
X143567741Y-68015390D01*
X143712731Y-67803190D01*
X143763740Y-67551300D01*
X143763740Y-65798700D01*
X145796260Y-65798700D01*
X145796260Y-67551300D01*
X145840538Y-67786617D01*
X145979610Y-68002741D01*
X146191810Y-68147731D01*
X146443700Y-68198740D01*
X148196300Y-68198740D01*
X148431617Y-68154462D01*
X148647741Y-68015390D01*
X148792731Y-67803190D01*
X148809058Y-67722567D01*
X149077562Y-67967999D01*
X149498980Y-68142546D01*
X149733000Y-68021574D01*
X149733000Y-66802000D01*
X149713000Y-66802000D01*
X149713000Y-66548000D01*
X149733000Y-66548000D01*
X149733000Y-65328426D01*
X149987000Y-65328426D01*
X149987000Y-66548000D01*
X150007000Y-66548000D01*
X150007000Y-66802000D01*
X149987000Y-66802000D01*
X149987000Y-68021574D01*
X150221020Y-68142546D01*
X150642438Y-67967999D01*
X151077688Y-67570149D01*
X151126260Y-67466319D01*
X151331350Y-67773258D01*
X151821651Y-68100867D01*
X152400000Y-68215908D01*
X152978349Y-68100867D01*
X153468650Y-67773258D01*
X153796259Y-67282957D01*
X153911300Y-66704608D01*
X153911300Y-66645392D01*
X153796259Y-66067043D01*
X153468650Y-65576742D01*
X152978349Y-65249133D01*
X152400000Y-65134092D01*
X151821651Y-65249133D01*
X151331350Y-65576742D01*
X151126260Y-65883681D01*
X151077688Y-65779851D01*
X150642438Y-65382001D01*
X150221020Y-65207454D01*
X149987000Y-65328426D01*
X149733000Y-65328426D01*
X149498980Y-65207454D01*
X149077562Y-65382001D01*
X148811153Y-65625518D01*
X148799462Y-65563383D01*
X148660390Y-65347259D01*
X148448190Y-65202269D01*
X148196300Y-65151260D01*
X146443700Y-65151260D01*
X146208383Y-65195538D01*
X145992259Y-65334610D01*
X145847269Y-65546810D01*
X145796260Y-65798700D01*
X143763740Y-65798700D01*
X143719462Y-65563383D01*
X143580390Y-65347259D01*
X143368190Y-65202269D01*
X143116300Y-65151260D01*
X141363700Y-65151260D01*
X141128383Y-65195538D01*
X140912259Y-65334610D01*
X140767269Y-65546810D01*
X140760342Y-65581015D01*
X140307957Y-65278741D01*
X139729608Y-65163700D01*
X139670392Y-65163700D01*
X139092043Y-65278741D01*
X138601742Y-65606350D01*
X138274133Y-66096651D01*
X138159092Y-66675000D01*
X134725527Y-66675000D01*
X134613121Y-66607484D01*
X132894605Y-68326000D01*
X132535395Y-68326000D01*
X130816879Y-66607484D01*
X130442832Y-66832154D01*
X130044120Y-67815388D01*
X125554560Y-67815388D01*
X125555630Y-66590126D01*
X125488591Y-66427879D01*
X130996484Y-66427879D01*
X132715000Y-68146395D01*
X134433516Y-66427879D01*
X134208846Y-66053832D01*
X133225612Y-65655120D01*
X132164643Y-65663025D01*
X131221154Y-66053832D01*
X130996484Y-66427879D01*
X125488591Y-66427879D01*
X125003400Y-65253628D01*
X124013502Y-64262000D01*
X161738166Y-64262000D01*
X160750194Y-65248249D01*
M02*
